<?xml version="1.0" encoding="UTF-8"?><svg id="Camada_2" xmlns="http://www.w3.org/2000/svg" viewBox="0 0 160.09 163.45"><defs><style>.cls-1{fill:#f49952;}.cls-2{fill:#f6ba51;}.cls-3{fill:#908d91;}.cls-4{fill:#fff;font-family:Bauhaus93, 'Bauhaus 93';font-size:18.81px;}.cls-5{fill:#2e3348;}.cls-6{fill:#e16933;}.cls-7{fill:#e69238;}.cls-8{fill:#2d91a5;}.cls-9{fill:#3d4964;}.cls-10{fill:#999899;}</style></defs><g id="Camada_1-2"><path class="cls-2" d="M36.27,150.14C-31.06,106.77.26-3.36,89.82.14c1.91.07,4.01-1.03,3.45,2l-3.99.99,13.99,3.02-3.58,11.02c8.24-1.71,42.84,32.61,39.58,35.97-2.87,2.95-29.98-29.09-38.55-28.01-4.85.61-8.86,24.72-9.45,29.02-.05.38-1.01,1.27-1,2-4.31,2.09-8.69,5.65-11,10-.17.31-6,3.08,0,4-.16.6.2,1.71,0,2-1.08,1.58-9.5,3.67-12,6-6.3-4.99-7.72,3.22-8,9-.18,3.64.12,7.35,0,11-13.1.04-26.07-5.91-30,9-.13-.2-2.23.66-3.11-.59-4.02-5.7,2.6-16.18-8.89-11.41-5.53-5.77-2.99-19.55-1.34-27.84,3.73-18.8,17.25-37.72,34.33-46.67l29.01-9.48-18.81,2.68C30.99,25.34,12.85,47.72,10.28,79.68c-1.55,19.22,2.13,21.65,9.52,38.43.78,1.76.26,5.76.48,6.02.39.46,3.33-1.43,3.85-.92,1.1,1.09,2.86,6.68,3.16,6.91,2.26,1.81,1.84-1.99,1.98-1.99.66-.03,1.34,0,2,0,2.43.33,7.19,5.76,7.66,5.89,6.04,1.65,9.33-5.77,9.92-5.96,8.5-2.68,16.61,5.06,20.92,5.06h17c.58,0,5.26-5.58,4.5,1-3.26,1.19-5.4,3.09-8,4s-6.97-1.4-10,1c-2.03,1.61,1.24,6.72-2.99,5.99v-7s-3,0-3,0l-.99,3-3.52-3.96c-.56.13-6.45,10.53-1.49,9.97-1.11,2.42-5.02,4.02-4,4.99.51.49,12.38,3.79,13.57,3.94,18.27,2.25,34.57-3.29,49.16-13.63,7.55-5.35,33.7-35.87,13.84-9.27-25.2,25.81-55.3,33.62-88.19,16.59-.55-.29-9.93-10.59-9.37-3.13.02.23,1.85.82,3,3.51h-3ZM7.27,87.14v-17.5c0-20.43,27.62-50.52,46.32-57.68,10.24-3.92,16.47-2.73,25.21-4.81,10.53-2.5-12.73-2.52-15.94-1.92C31.27,11.12,2.57,49.75,4.5,81.64c.09,1.41.01,6.33,2.77,5.5ZM78.27,18.15c-31.58.68-56.51,27.39-60,57.98l12.2-28.29c11.61-18.28,28.2-23.66,47.8-29.69ZM52.27,136.14l-2,1.99c.66,0,1.35.08,2,.01-1.62,4.71-1.02,8.17,2.99,3.01l2,3.98c3.97-6.41,3.34-17.11-4.99-8.99ZM48.26,142.13c.12-.09.83-2.94.52-2.97-1.38-.14-2.21,4.23-.52,2.97Z"/><path class="cls-2" d="M52.27,136.14c1.91-2.43,4.8,1.49,0,2,.19-.55-.22-1.72,0-2Z"/><path class="cls-7" d="M93.27,2.14c26.9.06,39.94,18.72,56,36,9.4,18.44,12.39,39.86,10.08,60.56-5.68,50.69-72.62,81.15-118.08,55.44-.3-.36-1.69-3.29-2-4-1.15-2.69-2.98-3.28-3-3.51-.56-7.45,8.82,2.85,9.37,3.13,32.89,17.03,62.99,9.22,88.19-16.59,19.86-26.6-6.29,3.92-13.84,9.27-14.59,10.33-30.89,15.88-49.16,13.63-1.19-.15-13.06-3.45-13.57-3.94-1.02-.97,2.89-2.57,4-4.99.2-.44-.18-1.46,0-2,.56.12,1.82-.18,2,0,6.64,6.57,39.11,11.34,38.09-.51-.46-5.3-4.59-2.88-5.1-3.5-2.41-2.94,8.84-12.04-4.99-6.99.76-6.58-3.92-1-4.5-1h-17c-4.31,0-12.42-7.74-20.92-5.06-.6.19-3.88,7.61-9.92,5.96-.47-.13-5.23-5.56-7.66-5.89,2.78.02,10.55.83,12.14.47,7.34-1.68-.75-6.15,16.86-2.47,20.77,4.35,16.31,2.81,36,0,1.7-.24,4.11-.92,5-1,12.21-1.16,11.89,2.77,18.51,3.05,12.67.53,3.64-7.71,4.66-13.31.73-3.97,5.13-5.01,6.83-7.74,6.7-10.74,10.84-29.28,6-41,3.15-2.56,10.38-5.85,3-10-2.49-1.4-2.79-.72-5-1-6.13-1.86-13.58-.99-20-1-7.32,0-14.68,0-22,0h-2c.59-4.3,4.6-28.41,9.45-29.02,8.57-1.08,35.68,30.97,38.55,28.01,3.26-3.36-31.34-37.68-39.58-35.97l3.58-11.02-13.99-3.02,3.99-.99ZM151.52,104.12c0-.68-.55-1.23-1.23-1.23s-1.23.55-1.23,1.23.55,1.23,1.23,1.23,1.23-.55,1.23-1.23ZM145.82,115.7l3.44-9.55-7.96,14.51c2.83.29,3.32-2.79,4.52-4.95Z"/><path class="cls-6" d="M137.27,66.14c4.84,11.72.7,30.26-6,41,3.06-10.12-25.16-8.84-27-7v15.99c-3.96-.63-10.48.89-14,0,1.42-.52,3.68-1.74,5-2s5.69.33,6.01,0c.49-.5.5-13.52,0-14.01-.86-.84-21.2-1.85-24.01-1.99-.63-3.28-5.67-1.85-9.22-4.04-1.98-1.23-5.75-4.99-4.78-7.96,1.66-1,3.67-7.7,4-8,2.5-2.33,10.92-4.42,12-6-1.17,2.85-3.1,3.89-1.99,7.99l1.97-1.99c-1.48,6.24,3.41,3.23,4.02,3.99,1.65,2.07-3.13,7.14,2.51,8.05.81.13,10.52-8.6,13.18-9.83,11.52-5.35,28.58-6.31,38.29-14.21Z"/><path class="cls-7" d="M29.27,128.14c-.14,0,.28,3.8-1.98,1.99-.3-.24-2.07-5.83-3.16-6.91-.52-.52-3.46,1.38-3.85.92-.22-.27.3-4.26-.48-6.02-7.39-16.78-11.07-19.21-9.52-38.43C12.85,47.72,30.99,25.34,60.46,13.82l18.81-2.68-29.01,9.48c-17.08,8.95-30.59,27.87-34.33,46.67-1.65,8.29-4.19,22.07,1.34,27.84l12,30c-.24.71.16,2.11,0,3Z"/><path class="cls-6" d="M91.27,134.14c13.83-5.05,2.58,4.05,4.99,6.99.51.62,4.64-1.8,5.1,3.5,1.03,11.85-31.45,7.08-38.09.51l.99-6c-2.45.88-2.32,4.01-2.99,6-.18.54.2,1.56,0,2-4.96.56.93-9.85,1.49-9.97l3.52,3.96.99-3h2.99s.01,7,.01,7c4.23.73.96-4.39,2.99-5.99,1.31-.28,2.06.59,3,1l-2,3.99h1.99s0-3.99,0-3.99c4.83,2.12-.2,6.07,2.99,9.99l4.01-11.99c2.6-.91,4.74-2.81,8-4Z"/><path class="cls-7" d="M7.27,87.14c-2.75.83-2.68-4.09-2.77-5.5C2.57,49.75,31.27,11.12,62.86,5.23c3.2-.6,26.46-.58,15.94,1.92-8.73,2.07-14.97.89-25.21,4.81C34.89,19.11,7.27,49.2,7.27,69.64v17.5Z"/><path class="cls-1" d="M17.27,95.14c11.49-4.76,4.87,5.71,8.89,11.41.88,1.25,2.98.39,3.11.59,8.73,13.93,3.6,7.37,0,18l-12-30Z"/><path class="cls-7" d="M78.27,18.15c-19.59,6.02-36.19,11.41-47.8,29.69l-12.2,28.29c3.48-30.59,28.41-57.3,60-57.98Z"/><path class="cls-1" d="M63.27,86.14c-.97,2.97,2.81,6.73,4.78,7.96,3.54,2.2,8.59.76,9.22,4.04-5.93-.3-12.06-.02-18,0,.12-3.65-.18-7.36,0-11,.94-.97,3.44-.66,4-1Z"/><path class="cls-6" d="M52.27,136.14c8.33-8.12,8.96,2.58,4.99,8.99l-2-3.98c-4.01,5.16-4.61,1.71-2.99-3.01,4.8-.51,1.91-4.43,0-2Z"/><path class="cls-6" d="M52.27,138.14c-.65.07-1.34-.02-2-.01l2-1.99c-.22.28.19,1.45,0,2Z"/><path class="cls-7" d="M67.27,78.14c-.33.3-2.34,7-4,8-.56.34-3.06.03-4,1,.28-5.78,1.7-13.99,8-9Z"/><path class="cls-7" d="M83.27,138.14l-4.01,11.99c-3.19-3.92,1.84-7.88-2.99-9.99-.94-.41-1.69-1.28-3-1,3.03-2.4,7.43-.1,10-1Z"/><path class="cls-6" d="M48.26,142.13c-1.68,1.26-.86-3.11.52-2.97.31.03-.4,2.88-.52,2.97Z"/><path class="cls-6" d="M85.27,126.14c1.97-.13,4.02,0,6,0h5c-19.69,2.81-15.23,4.35-36,0,8.54,1.13,16.45.57,25,0Z"/><path class="cls-8" d="M115.27,54.14v1l25,1c7.38,4.15.15,7.44-3,10-9.71,7.91-26.77,8.86-38.29,14.21-2.66,1.24-12.37,9.97-13.18,9.83-5.65-.92-.86-5.99-2.51-8.05-.61-.76-5.5,2.25-4.02-3.99l-1.97,1.99c-1.11-4.1.81-5.14,1.99-7.99.13-.33,5.99-3.01,0-4v-2c2.31-4.35,6.69-7.91,11-10,1.09-.53,3.72,1.33,3-2,7.32,0,14.68,0,22,0Z"/><path class="cls-3" d="M79.27,68.14c5.99.99.13,3.67,0,4,.2-.29-.16-1.4,0-2,.13-.49,0-1.37,0-2Z"/><path class="cls-10" d="M79.27,66.14v2c0,.63.13,1.51,0,2-6-.92-.17-3.69,0-4Z"/><path class="cls-1" d="M93.27,54.14c.72,3.33-1.91,1.47-3,2-.01-.73.95-1.62,1-2h2Z"/><path class="cls-3" d="M115.27,55.14c6.34.56,13.84-.78,20,0,2.21.28,2.51-.4,5,1l-25-1Z"/><path class="cls-10" d="M135.27,55.14c-6.16-.78-13.66.56-20,0v-1c6.42,0,13.87-.86,20,1Z"/><path class="cls-2" d="M145.82,115.7c-1.2,2.17-1.69,5.24-4.52,4.95l7.96-14.51-3.44,9.55Z"/><path class="cls-1" d="M63.27,145.14c-.18-.18-1.44.12-2,0,.67-1.99.54-5.11,2.99-6l-.99,6Z"/><circle class="cls-2" cx="150.29" cy="104.12" r="1.23"/><path class="cls-9" d="M59.27,98.14c5.94-.02,12.07-.3,18,0,2.8.14,23.14,1.15,24.01,1.99.5.49.49,13.51,0,14.01-.32.33-4.75-.25-6.01,0l-3.51-11.01-.46,9.5-2.03,1.5-.5-10.99c-2.09,3.76-4.54,11.49,1.49,12.99,3.52.88,10.04-.64,14,0v-15.99s11,0,11,0c-1.43,4.56-11.35,7.01-9.42,13.03.47,1.48,8.62,4.32,3.93,7.97-2.72,2.12-18.81,2.85-23.03,2.98-1.74.06-4.05-.28-1.48,2-8.55.57-16.46,1.13-25,0-17.61-3.69-9.52.79-16.86,2.47-1.59.36-9.36-.45-12.14-.47-.66,0-1.34-.03-2,0,.16-.89-.24-2.29,0-3,3.6-10.63,8.73-4.07,0-18,3.93-14.91,16.9-8.96,30-9ZM56.27,114.14c-.35-1.45.19-10.95-1.99-10-.36.16,1.2,4.01-2.01,2.99,2.18-7.85-7.94-3.2-4.3,3.8,4.47,8.6,1.24-3.79,1.24-4.25,0-5.15,4.07,4.2,5.05,5.47-.17-.1-1.5-.07-2,0-.75.11-.93.99-1,1-11.55,1.56-.24,5.41,3,1h1c.32.32.59.79,1,1,.65.32,1.15,1.73,2.99.99.15-.06.44-2.51,1.01-2.99.84.33,2.96,4.73,4.99,2.99.67-.57-3.78-18.34-7.98-10,4.92-3.11,3.19,3.86,1.99,7-.42-.05-2.12,1.1-3,1ZM77.27,104.14l-2.89.07c-4.09,10.02,7.34,15.15,4.88,9.95-.07-.15-2.52-.15-2.84-1.63-1.92-8.98,4.37-6.41,1.85-8.39-.36-.28-.16-1.34-1,0ZM73.26,110.13c-8.14-20.86-10.29,18.54,0,2.01l-4.98,1.99.97-8.51c4.34-2.38-.45,5.23,4.01,4.51ZM85.26,110.14c.29-3.24.33-6.77-3.98-5.99-1.88,12,5.72,18.47,1.01,3l2.97,2.99Z"/><path class="cls-5" d="M131.27,107.14c-1.7,2.73-6.1,3.77-6.83,7.74-1.02,5.6,8,13.85-4.66,13.31-6.61-.28-6.3-4.21-18.51-3.05l-10,1c-1.98,0-4.03-.13-6,0-2.57-2.29-.27-1.95,1.48-2,4.21-.14,20.31-.86,23.03-2.98,4.68-3.65-3.46-6.49-3.93-7.97-1.93-6.02,7.99-8.47,9.42-13.03h-10.99c1.84-1.85,30.06-3.13,27,6.99Z"/><path class="cls-9" d="M101.27,125.14c-.89.08-3.3.76-5,1h-5l10-1Z"/><path class="cls-10" d="M60.27,113.14c-.57.48-.86,2.93-1.01,2.99-1.84.74-2.34-.67-2.99-.99v-1c.88.1,2.58-1.05,3-1,.35.04.76-.09,1,0Z"/><path class="cls-10" d="M55.27,114.14h-1c-.1-.41.15-1.92,0-2,.79,1.02.92,1.92,1,2Z"/><path class="cls-10" d="M51.27,113.14c.07,0,.25-.89,1-1l-1,1Z"/><path class="cls-3" d="M78.27,104.14h-1c.84-1.34.64-.28,1,0Z"/><polygon class="cls-1" points="76.27 140.14 76.26 144.13 74.27 144.12 76.27 140.14"/><rect class="cls-9" x="39.61" y="102.88" width="65.79" height="16.91"/><text class="cls-4" transform="translate(55.53 119.14)"><tspan x="0" y="0">MUVZ</tspan></text></g></svg>