<?xml version="1.0" encoding="UTF-8"?><svg id="Camada_2" xmlns="http://www.w3.org/2000/svg" viewBox="0 0 128.2 140.21"><defs><style>.cls-1{fill:#f6ba51;}.cls-2{fill:#6cd1de;}.cls-3{fill:#2e3348;}.cls-4{fill:#e16933;}.cls-5{fill:#e69238;}.cls-6{fill:#2d91a5;}.cls-7{fill:#3d4964;}.cls-8{fill:#45b6c7;}</style></defs><g id="Camada_1-2"><path class="cls-1" d="M97.2,75.12c.02-1-.02-2,0-3,.08-3.32-.05-6.68,0-10v13Z"/><path class="cls-1" d="M40.2,136.12c-8.18-4.78-26.7-14.37-33.64-20.35-.77-.66-6.19-5.97-6.29-6.41-1.19-5.43,1.99-5.18,2-6.68.19-16.26-3.08-56.85,0-69.78.41-1.73,22.47-14.77,25.56-17.13s5.62-8.7,10.35-7.66l-1.99-1.98C46.77,10.92,59.77-1.68,67.44.19c.46.11,5.62,5.55,7.5,5.87,3.23.55,7.23-.49,10.25.06-.78,3.46-2.77,3.8-6,4-.64.04-1.37.07-2,0-.16-.02-1.95-.72-3-1-2-.53-9.86-5.72-10.45-4.95-4.46,5.77,1.43,4.89,1.53,5.51.42,2.81-.88,10.62.08,12.29.56.98,15.81,5.19,20.75,8.75s10.69,10.72,13.09,16.41c.15.36.88.68,1,1,.19.5-.18,1.48,0,2-5.77,1.3-5.9-5.07-8.33-7.67-4.68-5.01-19.07-18.2-25.67-12.33-.9-.16-2.03.08-3,0h-6c-29.3,2.66-43.23,41.6-21,61,5.24,6.83,15.61,10.72,24,11,17.39.57,30.59-11.09,36-27h1c-.38,7.58-4.58,15.02-10.08,20.42-2.61,2.56-15.06,7.33-9.92,8.58-2.09.87-6.05,2.57-8,3l-5,1c-.99.03-2.01.03-3,0-4.57-.12-8.03-1.83-12-2-.63-.03-1.4-.09-2,0-4.42-.35-18.05-13.64-19.22-13.8-11.66-1.62,5.9,9.46,6.22,10.31.07.19-3.82,1.54-1.99,3.49.41.44,7.35-4.05,10.99,1.03l-4.99,8.97c5.36,2.46,2.88-3.56,5.99-7.99,3.41.94,6.53,2.17,10,3-2.03,5.28,1.44,5.95,1.01,10.99,4.77-.44,4.06-6.62,3.99-9.99.98.26,3.63-.31,4,0,.46.39.92,10.34,1,11.99-13.03-1.02-10.46,1.97,0,2-.04,3.99.03,8.01,0,12-.16.01,1.08,2.17-2.52,2.09-1.71-.04-1.48-1.98-2.2-2.04-6.55-.5-12.83-.78-19.28-2.05ZM52.2,112.13l-7,2c4.93,11.5,1.97.92,7-2ZM44.2,120.13c-6.84-2.1-4.98,1.58-1.43,1.93,1.99.2,1.46-.17,1.43-1.93ZM46.37,121.64l-.28,1.45,7.82,1.5.28-1.45-7.82-1.5Z"/><path class="cls-5" d="M85.2,6.12c2.06.38,4.21-.35,6.73.32.89.23,10.47,11.72,12.63,13.33,11.66,8.66,14.81,7.01,23.64,20.35l-.35,67.71c-13.51,6.89-25.84,15.31-36.4,26.23-9.3.07-18.1,3.48-27.24,4.06.03-3.99-.04-8.01,0-12-10.46-.03-13.03-3.02,0-2,.03.66,0,1.34,0,2,11.64.04,20.83-4.71,27.89-13.72l-5.88-7.27c11.72,10.69,12.04-1.28,18.01-8.02.12-.14,2.68,1.4,2.98,1,.47-.62-1.41-3.23-.92-3.86.65-.83,4.73-1.69,6.36-4.21,5.74-8.88,11.04-26.88,8.34-37.2-1.04-3.97-9.64-9.54-9.76-10.24-.15-.88,3.29-.59,2.98-2.97-.1-.77-4.61-4.13-5.53-5.57-1.07-1.67,3.03-8.2-5.73-5.74-1.81.51-6.36,7.2-7.72,5.78l5.97-8.5-21.98-15.5c3.23-.2,5.22-.54,6-4Z"/><path class="cls-4" d="M74.2,9.12l3,1c.63.07,1.36.04,2,0l21.98,15.5-5.97,8.5c1.36,1.42,5.9-5.27,7.72-5.78,8.76-2.46,4.66,4.07,5.73,5.74.93,1.45,5.43,4.8,5.53,5.57.3,2.38-3.14,2.09-2.98,2.97.12.7,8.72,6.26,9.76,10.24,2.7,10.31-2.6,28.32-8.34,37.2-1.63,2.52-5.7,3.38-6.36,4.21-.49.62,1.4,3.23.92,3.86-.3.39-2.86-1.14-2.98-1-5.96,6.74-6.29,18.71-18.01,8.02l5.88,7.27c-7.06,9.01-16.25,13.76-27.89,13.72,0-.66.03-1.34,0-2-.07-1.65-.54-11.6-1-11.99-.38-.32-3.02.25-4,0-1.67-.45-3.35-.61-5-1-3.47-.83-6.59-2.06-10-3,1.21-1.73-2.02-1.26,3-2,.6-.09,1.37-.03,2,0,.02,4.34,9.77,3.63,12,2,.99.03,2.01.03,3,0,4.23-.14,2.73-.5,5-1,1.95-.43,5.91-2.13,8-3,23.74-9.81,31.52-29.81,23-54-.18-.52.19-1.5,0-2l-1-1c-2.4-5.69-8.03-12.76-13.09-16.41s-20.19-7.77-20.75-8.75c-.97-1.67.34-9.48-.08-12.29-.09-.62-5.99.26-1.53-5.51.59-.76,8.45,4.42,10.45,4.95Z"/><path class="cls-7" d="M64.2,41.12c-8.81-3.95-18.35,7.07-24,13-5.31,3.5-5.58,9.82-5.05,15.56.87,9.46,2.75,5.72,5.05,6.44,1.53.48,3.34-.1,6,1,4.28,1.77,10,6.52,14,9,.13.08-.84,2.94,2.35,1.86.42-.14,6.55-5.44,6.62-5.88.57-3.36-3.97-1.74-3.97-3.48v-15c0-4.3,3.06-12.34,1-17.5,3.29.56,2.96,3.38,5.51,4.99-2.04-6.59,12.81,3.53,13.52,4.48,4.49,6.01-2.03,11.61,2.96,18.53-7.09-3.22-1.38,2.35-4.59,7.91-2.64,4.57-14.53,7.18-19.19,13.81-1.56,2.22,2.49,5.3-4.21,6.28-8.39-.28-18.76-4.17-24-11-10.28-13.39-8.29-36.79,4.53-47.97,5.11-4.46,29.27-17.71,23.47-2.03ZM78.47,60.57c0-1.23-1-2.24-2.24-2.24s-2.24,1-2.24,2.24,1,2.24,2.24,2.24,2.24-1,2.24-2.24ZM72.19,67.13l-3.99,2.47,2.98,1.51,1.01-3.99Z"/><path class="cls-3" d="M57.2,30.12c1.76-.16,4.23-.14,6,0,.97.08,2.1-.16,3,0,13.53,2.45,28.01,18.69,31,32-.05,3.32.08,6.68,0,10-1.34.67-.71,2.16-1,3-5.41,15.91-18.61,27.57-36,27,6.7-.97,2.65-4.05,4.21-6.28,4.65-6.64,16.55-9.25,19.19-13.81,3.21-5.56-2.51-11.13,4.59-7.91-4.99-6.92,1.53-12.51-2.96-18.53-.71-.95-15.56-11.07-13.52-4.48-2.55-1.61-2.21-4.43-5.51-4.99-.7-.12-2.3-.12-3,0,.14-.93-.21-2.19,0-3,.08-.33.72-1.25,1-2,5.8-15.68-18.36-2.43-23.47,2.03-12.82,11.19-14.81,34.58-4.53,47.97-22.23-19.4-8.3-58.34,21-61Z"/><path class="cls-5" d="M66.2,30.12c6.59-5.88,20.99,7.32,25.67,12.33,2.43,2.6,2.56,8.97,8.33,7.67,8.52,24.19.74,44.19-23,54-5.14-1.25,7.31-6.02,9.92-8.58,5.5-5.4,9.7-12.84,10.08-20.42v-13c-2.99-13.31-17.47-29.55-31-32Z"/><path class="cls-5" d="M97.2,75.12h-1c.29-.84-.34-2.33,1-3-.02,1,.02,2,0,3Z"/><path class="cls-5" d="M59.2,112.12c.06,3.38.77,9.55-3.99,9.99.43-5.05-3.03-5.72-1.01-10.99,1.65.39,3.33.55,5,1Z"/><path class="cls-5" d="M52.2,112.13c-5.02,2.91-2.07,13.5-7,2l7-2Z"/><path class="cls-5" d="M61.2,108.12c-2.23,1.63-11.98,2.34-12-2,3.97.17,7.43,1.88,12,2Z"/><rect class="cls-5" x="49.41" y="119.13" width="1.47" height="7.96" transform="translate(-80.2 149.19) rotate(-79.15)"/><path class="cls-5" d="M69.2,107.12c-2.27.5-.77.86-5,1l5-1Z"/><path class="cls-5" d="M63.2,30.12c-1.77-.14-4.24-.16-6,0h6Z"/><path class="cls-5" d="M44.2,120.13c.03,1.76.56,2.13-1.43,1.93-3.55-.35-5.41-4.03,1.43-1.93Z"/><path class="cls-5" d="M77.2,10.12l-3-1c1.05.28,2.84.98,3,1Z"/><path class="cls-5" d="M100.2,48.12c-.12-.32-.85-.64-1-1l1,1Z"/><path class="cls-5" d="M44.2,108.12c-3.11,4.43-.63,10.45-5.99,7.99l4.99-8.97c-3.65-5.08-10.58-.59-10.99-1.03-1.83-1.95,2.06-3.3,1.99-3.49-.32-.85-17.88-11.93-6.22-10.31,1.17.16,14.81,13.45,19.22,13.8-5.02.74-1.79.27-3,2Z"/><path class="cls-8" d="M42.2,53.12c-.71,6.08,10.64,6.67,16,9,1.67,7.99.38,16.04,2,24-4-2.48-9.72-7.23-14-9-2.58-4.96,2.07-2.32,5-6,.84-1.05,1.82-5.27,2.99-6.99-3.61-1.57-8.04,3.68-9.5,3.99-.34.07-1.48-4.26-5.84-1.84-2.6,1.44-2.27,8.82,1.35,8.84v1c-2.3-.72-4.18,3.02-5.05-6.44-.53-5.74-.26-12.06,5.05-15.56.56-.37,1.37-.75,2-1Z"/><path class="cls-6" d="M66.2,46.12c2.06,5.16-1,13.2-1,17.5v15c0,1.74,4.54.12,3.97,3.48-.07.44-6.2,5.74-6.62,5.88-3.19,1.08-2.22-1.78-2.35-1.86-1.62-7.96-.33-16.01-2-24-.44-2.11-1.56-3.9-2.02-5.99-5.29,4.49-3.42-2.15-1.98-6.01,2.89-.8,7.66-3.76,9-4,.7-.12,2.3-.12,3,0ZM61.19,53.13h-2.99s0,2.99,0,2.99l2.99-2.99Z"/><path class="cls-6" d="M64.2,41.12c-.28.75-.92,1.67-1,2-4.73-1.47-7.78,3.71-9,7-3.38.94-9.9,2.18-12,3-.63.25-1.44.63-2,1,5.65-5.93,15.19-16.95,24-13Z"/><path class="cls-6" d="M40.2,75.12c1.92-.94,11.48-12.11,11-4-2.93,3.68-7.58,1.04-5,6-2.66-1.1-4.47-.52-6-1v-1Z"/><circle class="cls-6" cx="76.23" cy="60.57" r="2.24"/><polygon class="cls-6" points="72.19 67.13 71.18 71.11 68.2 69.6 72.19 67.13"/><path class="cls-2" d="M63.2,43.12c-.21.81.14,2.07,0,3-1.34.24-6.11,3.2-9,4,1.22-3.29,4.27-8.47,9-7Z"/><path class="cls-2" d="M54.2,50.12c-1.44,3.86-3.31,10.5,1.98,6.01.46,2.09,1.57,3.88,2.02,5.99-5.36-2.33-16.71-2.92-16-9,2.1-.82,8.62-2.06,12-3Z"/><path class="cls-2" d="M40.2,75.12c-3.62-.02-3.94-7.4-1.35-8.84,4.35-2.42,5.5,1.91,5.84,1.84,1.46-.31,5.89-5.56,9.5-3.99-1.18,1.73-2.15,5.94-2.99,6.99.48-8.11-9.08,3.06-11,4Z"/><polygon class="cls-2" points="61.19 53.13 58.2 56.11 58.2 53.13 61.19 53.13"/></g></svg>