<?xml version="1.0" encoding="UTF-8"?><svg id="Camada_2" xmlns="http://www.w3.org/2000/svg" viewBox="0 0 149.79 150.15"><defs><style>.cls-1{fill:#f49952;}.cls-2{fill:#f6ba51;}.cls-3{fill:#6cd1de;}.cls-4{fill:#908d91;}.cls-5{fill:#2e3348;}.cls-6{fill:#e16933;}.cls-7{fill:#e69238;}.cls-8{fill:#2d91a5;}.cls-9{fill:#3d4964;}.cls-10{fill:#45b6c7;}</style></defs><g id="Camada_1-2"><path class="cls-5" d="M78.89,1.15c19.23,6.41,50.52,17.46,59,38,.99,2.39,2.35,13.3,3.52,16.99s8.38,17.18,8.38,18.51c0,3.69-4.7,6.79-5.63,10.27-1.99,7.49-.01,15.82-3.41,22.59-1.89,3.78-7.46,6.01-9.45,8.55-16.85,21.61-17.25,22.98-44.65,29.35-3,.7-6.28,4.68-9.37,4.73-2.56.05-4.35-2.45-7.4-3-.69-3.06,1.89-3.52,3-5,18.15-3.85,30.33-4.93,44.02-18.46,46.07-45.55,13.36-117.45-45.02-113.54-25.47,1.71-49.56,21.21-58,45-.04.11-.81.39-1,1-.09.3.08.69,0,1-.19.71-.68,1.38-1,3-.12.61.11,1.37,0,2l-1.99-1.48c-.63,1.85-2.43,11.37-6.01,7.48,3.02-10.67,5.46-27.51,12.61-35.89,15.9-18.64,29.17-20.66,50.39-28.11.9,2.75,8.61,5.41,10,4.01.89-.9-2.05-7.68,2-7.01Z"/><path class="cls-9" d="M11.89,62.15c-6.94,40.98,20.64,73.69,61,79-.15.26.16.79,0,1-1.11,1.48-3.69,1.94-3,5-9.99-1.81-26.23-6.04-35-11-12.11-6.85-8.65-9.82-14.57-17.93-2.83-3.87-7.97-5.34-9.93-10.07-2.23-5.37-1.55-12.14-3.46-18.54-1.25-4.19-6.51-10.05-6.84-12.16-.75-4.85,3.38-7.82,3.8-9.3,3.58,3.89,5.37-5.63,6.01-7.48l1.99,1.48Z"/><path class="cls-9" d="M78.89,1.15c-4.05-.68-1.11,6.11-2,7.01-1.4,1.41-9.11-1.26-10-4.01,5.68-2,2.49-6.17,12-3Z"/><path class="cls-7" d="M71.89,10.15c58.38-3.91,91.09,67.99,45.02,113.54-13.69,13.54-25.87,14.62-44.02,18.46.16-.21-.15-.74,0-1,.63-1.11,5.54-4.83-1-7,77.28,5.06,79.62-123.29,1-118l-1-6Z"/><path class="cls-2" d="M71.89,10.15l1,6c-2.09.14-6.13.95-8,2-45.92,0-64.36,69.34-26,102,9.86,8.4,19.78,13.13,33,14,6.54,2.17,1.63,5.89,1,7C32.53,135.84,4.95,103.13,11.89,62.15c.11-.63-.12-1.39,0-2l1-3c.08-.31-.09-.7,0-1l1-1C22.33,31.36,46.42,11.86,71.89,10.15Z"/><path class="cls-9" d="M11.89,60.15c.32-1.62.81-2.29,1-3l-1,3Z"/><path class="cls-9" d="M12.89,56.15c.19-.61.96-.89,1-1l-1,1Z"/><path class="cls-5" d="M72.89,16.15c78.62-5.29,76.28,123.06-1,118-13.22-.87-23.14-5.6-33-14,3.96.57-.15-3.63,4.32-2.83,5.64,1.01,14.91,10.83,24.18,10.83h16l5.49-1.99c-10.84.7-27.04,2.97-34.99-6.01,6.12,2.05,10.28,3.83,17,4,1.55.04,7.43.29,8,0s-4.23-4.42,5-2.98l-3,.99,1.49,1.98c1.97-.86,1.86-2.85,2.52-3.99,19.72-2.12,35.82-19.66,38-39,4.03-35.78-20.22-51-52-53-1.19-.07-4.18.79-3.99-.98,11.37-4.82,23.27-.37,33.98,3.98-.93-3.11-13.7-6.99-15.49-6.99h-14.5c-.23-1.25.34-5.66,0-6.01-.21-.22-4.94,0-6.01,0,1.87-1.05,5.91-1.86,8-2ZM115.89,43.14l-4.52-5.97-9.47-6.02,13.99,11.99ZM127.89,84.15v-16.5c0-3.28-4.55-14.3-6.49-17.51l-5.51-5.98,10.99,25.49v14.5h1ZM120.91,97.16c-.12.09-.83,2.94-.52,2.97,1.38.14,2.21-4.23.52-2.97ZM118.88,104.14c.12-.09.83-2.94.52-2.97-1.38-.14-2.21,4.23-.52,2.97ZM116.39,105.15v1l.5-.5-.5-.5ZM109.9,112.14c1.47.33,2.12-.45,2.97-1.5-.91-.2-3.43.4-2.97,1.5ZM109.39,113.15v1l.5-.5-.5-.5ZM107.41,114.18c-.97,1.21-2.66,1.2-3.49,2.49.87.34,4.36-1.28,3.49-2.49ZM88.9,124.14c4.74-.36,10.26-3.7,13.97-6.5-4.83,1.41-9.62,4.03-13.97,6.5Z"/><path class="cls-9" d="M64.89,18.15c1.07,0,5.8-.22,6.01,0,.33.35-.23,4.75,0,6.01h14.5c1.79,0,14.56,3.88,15.49,6.99-10.71-4.35-22.62-8.8-33.98-3.98-.19,1.77,2.8.91,3.99.98v1c-51.14-.45-58.4,85.2,1,91,3.42.33,9.6.37,13,0-.66,1.13-.55,3.13-2.52,3.99l-1.49-1.98,3-.99c-9.23-1.44-4.44,2.68-5,2.98s-6.45.05-8,0l-19.99-6.51c.63,1.15,2.32,1.75,2.99,2.51,7.96,8.98,24.15,6.71,34.99,6.01l-5.49,1.99h-16c-9.27,0-18.53-9.82-24.18-10.83-4.48-.8-.36,3.39-4.32,2.83C.54,87.49,18.98,18.15,64.89,18.15ZM60.77,25.74l-5.02,1.46.47,1.6,5.02-1.46-.47-1.6ZM25.89,83.65v-15c0-10.51,11-28.22,19.98-34.01-14.66,7.99-20.57,24.23-21.98,40.08l2.01,8.93Z"/><path class="cls-9" d="M127.89,84.15h-1v-14.5l-10.99-25.49,5.51,5.98c1.94,3.21,6.49,14.23,6.49,17.51v16.5Z"/><polygon class="cls-9" points="115.89 43.14 101.9 31.16 111.37 37.18 115.89 43.14"/><path class="cls-8" d="M70.89,124.15c-6.72-.17-10.88-1.95-17-4-.67-.76-2.36-1.36-2.99-2.51l19.99,6.51Z"/><path class="cls-9" d="M88.9,124.14c4.35-2.47,9.13-5.09,13.97-6.5-3.71,2.8-9.23,6.14-13.97,6.5Z"/><path class="cls-9" d="M107.41,114.18c.87,1.21-2.62,2.83-3.49,2.49.83-1.29,2.52-1.27,3.49-2.49Z"/><path class="cls-9" d="M118.88,104.14c-1.68,1.26-.86-3.11.52-2.97.31.03-.4,2.88-.52,2.97Z"/><path class="cls-9" d="M120.91,97.16c1.68-1.26.86,3.11-.52,2.97-.31-.03.4-2.88.52-2.97Z"/><path class="cls-9" d="M109.9,112.14c-.46-1.1,2.06-1.7,2.97-1.5-.85,1.05-1.5,1.83-2.97,1.5Z"/><polygon class="cls-9" points="109.39 113.15 109.89 113.65 109.39 114.15 109.39 113.15"/><polygon class="cls-9" points="116.39 105.15 116.89 105.65 116.39 106.15 116.39 105.15"/><path class="cls-8" d="M25.89,83.65l-2.01-8.93c1.41-15.85,7.33-32.09,21.98-40.08-8.98,5.79-19.98,23.5-19.98,34.01v15Z"/><rect class="cls-4" x="55.88" y="26.44" width="5.23" height="1.67" transform="translate(-5.29 17.41) rotate(-16.21)"/><path class="cls-10" d="M122.89,81.15c-6.32-3.11-6.78,10.86-11.47,16.03-9.5,10.5-14.85,2.91-26.53,22.97-3.4.37-9.58.33-13,0l1.93-19.97c-3.43,1.01-5.62.44-8.93-.03l25-1.01c-.56-4.04-1.11-7.87-1-11.99.46-18.01,3.87-13.93,8-28,1.63-5.54,5.27-7.87-4-7-.69-4.9-7.12-5.49-7.86-6.14-.43-.38.16-2.77-1.14-3.86-.7-.59-1.23-1.48-2-2-.58-.39-4.66.38-5.01,0-1.22-1.35,2.92-7.72-3.99-6.01.12-.94-3.03-2.63.99-4.99-.99-.04-1.99,0-2.99-.01v-1c31.78,2,56.03,17.22,52,53Z"/><path class="cls-8" d="M122.89,81.15c-2.18,19.34-18.28,36.88-38,39,11.69-20.05,17.03-12.47,26.53-22.97,4.68-5.17,5.15-19.14,11.47-16.03Z"/><path class="cls-3" d="M70.89,29.15c1,0,2-.03,2.99.01-4.02,2.36-.87,4.04-.99,4.99-.21,1.63.42,3.76,0,5.24-.25.86-2.15,1.47-2.99,2.76-.41.63-2.04,1.25-3,3-.74,1.34-2.44,2.39-3,5-.4.56-1.93,1.6-2,2-7.51-5.09-4.24,5.64-3,10l2,4c1.63,4.62,2.95,12.2,8,14-1.21,2.44-1.89,2.33-3,4-3.89,5.86-1.19,2.72-2,6-2.08,8.42-4.46,9.23,1,10,3.31.47,5.5,1.04,8.93.03l-1.93,19.97c-59.4-5.8-52.14-91.45-1-91Z"/><path class="cls-7" d="M83.89,42.15c1.3,1.09.71,3.49,1.14,3.86.74.65,7.17,1.23,7.86,6.14.49,3.47-1.16,6.69-2,10-1.13,4.46-2.07,6.04-4,10-.32.66-.91,1.21-1,2-2.46,1.45-2.83.37-3,5l-7,3.5,9.99,5.49c-2.74-.24-5.33.76-7.99,1.01-3.73-3.42-13.49.55-12-5,1.11-1.67,1.79-1.56,3-4,.09-.19,2.49,1.14,2-3,14.43,10.68,2.89-14.35,7-19,.75,1.18,1.95.77,3,1,1.94.42.11.93,3,0,5.11-1.65,6.2-4.06,2-9-1.3-1.52-1.56-2.34-4-2,.1-.36,1.61-.16,2-3,.13-.97-.09-2.02,0-3ZM84.89,72.15l1.99-12-3.78,10.73,1.78,1.27Z"/><path class="cls-7" d="M85.89,50.15c.23.19,1.17,5.3.59,6.05-1.32,1.74-4.62.51-5.59.95.27-2.16-.39-4.99,0-7,1.07.22,4.62-.32,5,0Z"/><path class="cls-7" d="M70.89,77.15c-6.41-4.75-10.37-17.39-9-25,.07-.4,1.6-1.44,2-2-2.17,10.1,6.16,19.9,7,27Z"/><path class="cls-9" d="M82.89,79.15c-.18,4.85.86,7.95,6,8-.1,4.12.44,7.96,1,11.99l-25,1.01c-5.46-.77-3.08-1.58-1-10,4.45-2.04,9.39-.57,14-1,2.67-.25,5.26-1.25,7.99-1.01l-9.99-5.49,7-3.5Z"/><path class="cls-8" d="M96.89,59.15c-4.13,14.07-7.54,9.99-8,28-5.14-.05-6.18-3.15-6-8s.54-3.55,3-5c.9-.53,1.14-.94,1-2,1.93-3.96,2.87-5.54,4-10l6-3Z"/><path class="cls-9" d="M83.89,42.15c-.09.98.13,2.03,0,3h-17c.96-1.75,2.59-2.37,3-3,3.71-.61,9.9,1.78,12-2,.77.52,1.3,1.41,2,2Z"/><path class="cls-4" d="M92.89,52.15c9.27-.87,5.63,1.46,4,7l-6,3c.84-3.31,2.49-6.53,2-10Z"/><path class="cls-4" d="M72.89,34.15c6.91-1.71,2.77,4.65,3.99,6.01.34.38,4.42-.4,5.01,0-2.1,3.78-8.29,1.39-12,2,.85-1.3,2.74-1.9,2.99-2.76.43-1.48-.2-3.61,0-5.24Z"/><path class="cls-2" d="M83.89,45.15c-.39,2.84-1.9,2.64-2,3-.05.18-.74.66-1,2-.39,2.01.27,4.84,0,7-.72.32-1.67-.51-3,1-4.11,4.65,7.43,29.68-7,19-.84-7.1-9.17-16.9-7-27,.56-2.61,2.26-3.66,3-5h17Z"/><path class="cls-2" d="M58.89,62.15c-1.24-4.36-4.51-15.09,3-10-1.37,7.61,2.59,20.25,9,25,.49,4.14-1.91,2.81-2,3-5.05-1.8-6.37-9.38-8-14-1.24-3.5-1.93-3.74-2-4Z"/><path class="cls-6" d="M85.89,50.15c-.38-.32-3.93.22-5,0,.26-1.34.95-1.82,1-2,2.44-.34,2.7.48,4,2Z"/><path class="cls-6" d="M85.89,50.15c4.2,4.94,3.11,7.35-2,9h-3c-1.05-.23-2.25.18-3-1,1.33-1.51,2.28-.68,3-1,.97-.44,4.27.79,5.59-.95.57-.76-.36-5.86-.59-6.05Z"/><polygon class="cls-6" points="84.89 72.15 83.1 70.88 86.88 60.15 84.89 72.15"/><path class="cls-1" d="M83.89,59.15c-2.89.93-1.06.42-3,0h3Z"/><path class="cls-6" d="M85.89,74.15c.09-.79.68-1.34,1-2,.14,1.06-.1,1.47-1,2Z"/></g></svg>