<?xml version="1.0" encoding="UTF-8"?><svg id="Camada_2" xmlns="http://www.w3.org/2000/svg" viewBox="0 0 160.18 162.26"><defs><style>.cls-1{fill:#f49952;}.cls-2{fill:#f6ba51;}.cls-3{fill:#6cd1de;}.cls-4{fill:#908d91;}.cls-5{fill:#2e3348;}.cls-6{fill:#e16933;}.cls-7{fill:#e69238;}.cls-8{fill:#2d91a5;}.cls-9{fill:#3d4964;}.cls-10{fill:#45b6c7;}.cls-11{fill:#999899;}</style></defs><g id="Camada_1-2"><path class="cls-2" d="M81.01.1v2c-.16.02-.07,2.6-1.61,2.85-13.12,2.15-38.89,5.53-47.41,17.63-3.14,4.45,1.11,1.54,2.02,1.52,2.11-.05,2.22-.37,2,2-18.2,14.44-24.77,38-24,60.52l2,1.47c-.67-4.2.44-7.98,1.01-11.99,10.12-.67,5.4,1.92,6,6-3.42-.75-2.1,7.24-1.91,8.41.68,4.1,4.49,18.27,8.65,19.44,3.42.96,3.9-1.74,4.26-1.85,15.1-4.74,7.21.53,13.68,8.02,3.86,4.47,8.65,7.91,14.32,9.98,10.41,3.8,5.77-.21,11.44,1.02,11.41,2.48,10.88,9.48-2.43,4.98.81,2.74,1.92,2.58,2.99,6-3.81-.25-8.14-1.45-11.68-2.82-9.28-3.59-15.06-12.98-14.31,1.82,5.55-2.78.64,2.26,4.98,2l.99-5.99c-.73,5.61.31,12.9,6,7-1.09,6.31,9.34,4.86,9.89,5.21.32.2-.01,1.71.12,1.78.12.06-.19,1.91.97,2.49,1.85.93,4.47.48,6.45,1.41.97.46.07,2.82,1.16,3.16,4.37,1.38,23.1-3.05,28.2-4.79,10.79-3.67,26.82-15.89,33.22-25.28l1,1c-24.95,33.58-65.62,41.11-101.53,19.02l-2.47,3.98h-2c-.31-.37-.76-.68-1-1-1.33-1.72-2.02-4.67-5-5-3.83-5.02-10.64-9.79-13.65-14.36C-14.84,84.89,3.43,23.96,51.01,6.1c3.1-1.16,3.74-1.92,4-2C65.44.94,69.97.24,81.01.1ZM27.01,28.1C7.66,42.7,3.63,69.04,6.03,91.58c.29,2.76,6,24.64,5.81,17.21-.16-6.31-4.96-18.02-4.89-27.17.14-20.53,9.53-36.86,20.05-53.52l1.99-1.99-1.99,1.99ZM15,90.1c-3.12-.7-2.03,2.71-2.03,4.54,0,6.84,4.31,20.83,10.04,25.45l-8-30ZM25.26,122.08c0-.68-.55-1.23-1.23-1.23s-1.23.55-1.23,1.23.55,1.23,1.23,1.23,1.23-.55,1.23-1.23Z"/><path class="cls-7" d="M89.01,2.1c1.89-.16,4.1-.1,6,0,.66.03,1.34-.06,2,0l22,8c12.77,6.42,16.03,11.59,26,21l1,1c.34.33.66.67,1,1,18.42,30.36,18.01,72.39-4.35,100.64-10.14,12.81-31.4,25.09-47.64,26.37l1.99,1.97c-15.47.02-28.97,1.19-43.99-2.99-6.85-1.91-12.21-8.63-18-9v-2l2.47-3.98c35.91,22.09,76.58,14.56,101.53-19.02C189.85,56.68,98.55-29.92,34.01,24.1c-.91.02-5.15,2.93-2.02-1.52,8.52-12.1,34.29-15.48,47.41-17.63,1.54-.25,1.45-2.83,1.61-2.85,2.51-.34,5.42.22,8,0Z"/><path class="cls-1" d="M97.01,2.1c10.15.95,13.91,3.93,22,8l-22-8Z"/><path class="cls-1" d="M91.01.1l-2,2c-2.58.22-5.49-.34-8,0V.1c3.29-.04,6.72-.19,10,0Z"/><path class="cls-2" d="M91.01.1c2.49.15,4.63-1.03,4,2-1.9-.1-4.11-.16-6,0l2-2Z"/><path class="cls-11" d="M27.01,142.1c2.98.33,3.67,3.28,5,5-3.76-.61-3.69-3.28-5-5Z"/><path class="cls-1" d="M55.01,4.1c-.26.08-.9.84-4,2l4-2Z"/><path class="cls-4" d="M146.01,32.1l-1-1c.34.32.66.67,1,1Z"/><path class="cls-1" d="M78.01,13.1c.89,3.2,1.61,7.79,1,11-.32,1.71-3.46,8.41-6,6.01,3.31,5.17,5.39,4.84,0,10.99-10.46-2.02-10.73,1.12-10,11-19.73-1.07-10.47,18.48,1,24,1.96,2.8,4.81,3.74,5,4,1.08,1.51,3.15,5.3,4,7,.39.79,1.02,3.77,2,5-1.85,1.33-3.35,8.03-1,10-4.32,1.62-6.56,2.04-11,3v19l-3,2c-5.67-2.07-10.46-5.51-14.32-9.98-6.47-7.49,1.43-12.77-13.68-8.02-8.66-.36-9.98-19.05-11-26-.6-4.08,4.12-6.67-6-6,5.2-37.01,24.46-59.74,63-63Z"/><path class="cls-1" d="M65.01,55.1c-.14,2.98.09,6.01.01,8.99l1-1.99.99,4c-.18,5.91,1.43,7.75,2,13-1.66-3.17-3.49-2.27-5-3-6.11-8.73-20.7-24.06,1-21Z"/><path class="cls-7" d="M141.01,99.1l2.02,1.35c1.42-6.31,10.24-26.16,7.89-6.94-.99,8.08-8.19,23.69-12.9,30.59-6.41,9.39-22.43,21.6-33.22,25.28-5.1,1.74-23.83,6.16-28.2,4.79-1.09-.34-.19-2.71-1.16-3.16-1.98-.93-4.6-.48-6.45-1.41-1.16-.58-.85-2.43-.97-2.49,9.68.43,6.13-2.23,4-9-1.08-3.41-2.18-3.26-2.99-6,13.31,4.51,13.84-2.5,2.43-4.98-5.67-1.23-1.03,2.77-11.44-1.02l3-2c1.48,3.33,28.68,3.39,33,3,1.6-.15,5.76-.66,7-1,7.88,11.46,24.1-8.55,28-16,.7.26,2.2-.24,3,0,.16.05-.21,3.78,2.83,1.8.47-.31,7.36-10.53,2.17-9.8.74-1.62,1.94-2.83,2-3ZM97.01,145.11c1.06.32,12.56-3.77,13.13-4.43,2.22-2.6-2.46-10.12-7-6.44-.62.51.14,3.65-.14,3.86-.31.23-2.64-1.61-4.37-.94-1.33.52-1.27,2.77-2.21,2.96-2.28.47-9.99-4.37-9.9,1.97l-2.49-2.99-.03,6.99c-1.65-20.78-11.18,8.33,5.08.57l.95-3.56c.29,6.12,7.12,4.62,6-1,1.92-.36.59,2.88.99,3ZM77,140.11c-3.85-1.17-1.89,7.94-.49,7.99l.49-7.99Z"/><path class="cls-1" d="M139.01,125.1l-1-1c4.71-6.9,11.92-22.52,12.9-30.59,2.35-19.21-6.46.64-7.89,6.94l-2.02-1.35c.32-.96-.29-2.93,0-4,.04-.14,1.77-.69,2-2s0-3.47,0-5l1-5c3.88-.47,2.75-2.24,3-5,2.81-30.41-30.86-65.13-61-66-16.75-3.11-36.72,3.47-50,14,.22-2.37.11-2.05-2-2,64.55-54.03,155.84,32.58,105,101Z"/><path class="cls-7" d="M86.01,12.1c-3.52-.1-5.51.79-8,1-38.54,3.26-57.8,25.99-63,63-.56,4.02-1.68,7.79-1.01,11.99l-2-1.47c-.76-22.52,5.8-46.08,24-60.52,13.28-10.53,33.25-17.11,50-14Z"/><path class="cls-6" d="M72.01,138.1c2.13,6.77,5.68,9.43-4,9-.13-.07.2-1.58-.12-1.78-.55-.35-10.98,1.1-9.89-5.21-5.69,5.9-6.73-1.4-6-7l-.99,5.99c-4.34.27.56-4.77-4.98-2-.75-14.8,5.03-5.41,14.31-1.82,3.54,1.37,7.86,2.57,11.68,2.82Z"/><path class="cls-7" d="M27.01,28.1l1.99-1.99-1.99,1.99C16.49,44.76,7.1,61.09,6.95,81.62c-.06,9.15,4.73,20.85,4.89,27.17.19,7.44-5.52-14.45-5.81-17.21-2.4-22.54,1.63-48.88,20.98-63.48Z"/><path class="cls-7" d="M21.01,82.1c1.02,6.95,2.34,25.64,11,26-.36.11-.84,2.81-4.26,1.85-4.16-1.17-7.97-15.34-8.65-19.44-.19-1.17-1.51-9.16,1.91-8.41Z"/><path class="cls-7" d="M15,90.1l8,30c-5.73-4.62-10.04-18.61-10.04-25.45,0-1.83-1.09-5.24,2.03-4.54Z"/><circle class="cls-7" cx="24.03" cy="122.08" r="1.23"/><path class="cls-6" d="M85.01,96.1c.59,4.07-.33,2.99-3,0,.11-.26-.09-.67,0-1,.18-.66.89-1.41,1-2h1c-.28,1.65-.12,1.93,1,3Z"/><path class="cls-6" d="M86.01,12.1c30.14.87,63.81,35.59,61,66-6.02-5.87-10.79,2.82-4,5v5c0,1.53.24,3.64,0,5l-2,2c-.29,1.07.32,3.04,0,4-.06.17-1.26,1.38-2,3-1.23,2.7-2.48,6.27-5,8-.8-.24-2.3.26-3,0-1.95-.72-5.76-5.12-7.95-3.95-2.39,1.28-5.64,15.94-20.05,19.95-1.24.34-5.4.85-7,1,.34-.32.67-.67,1-1,2.85-2.82.96-16.48,0-21l-2-1c-8.17.51-5.24-3.45-10-8-.19-1.28.13-2.7,0-4,1.95-2.58,5.29-8.89,6-12l3.99-.98c-6.47-1.11,5.14-8.01,6.01-9.02,2.48-2.84,11.74-13.35,8-18.01-.18-.22-3.15.14-4,0-.96-.15-9.66-1.44-9.97-2.02-.48-.88.37-7.98-.03-7.98h-14v-1.99s4.88-.13,4.88-.13c.76-2.6,1.09-5.16,1.12-7.88.06-4.92-1.02-.16-3-2.01-.52-.49,4.81-5.64-5-5.99.61-3.21-.11-7.8-1-11,2.49-.21,4.48-1.1,8-1Z"/><path class="cls-2" d="M131.01,110.1c-3.9,7.45-20.12,27.46-28,16,14.41-4.01,17.66-18.67,20.05-19.95,2.18-1.17,5.99,3.23,7.95,3.95Z"/><path class="cls-6" d="M97.01,145.11c-.4-.12.93-3.36-.99-3,1.12,5.62-5.71,7.12-6,1l-.95,3.56c-16.25,7.76-6.73-21.35-5.08-.57l.03-6.99,2.49,2.99c-.09-6.34,7.62-1.51,9.9-1.97.94-.19.88-2.44,2.21-2.96,1.73-.67,4.06,1.17,4.37.94.28-.22-.48-3.36.14-3.86,4.54-3.69,9.21,3.84,7,6.44-.57.67-12.07,4.75-13.13,4.43Z"/><path class="cls-1" d="M139.01,102.1c5.2-.73-1.69,9.49-2.17,9.8-3.04,1.98-2.67-1.75-2.83-1.8,2.52-1.73,3.77-5.3,5-8Z"/><path class="cls-6" d="M77,140.11l-.49,7.99c-1.4-.05-3.36-9.16.49-7.99Z"/><path class="cls-2" d="M147.01,78.1c-.25,2.76.88,4.53-3,5-.26.03-.77.08-1,0-6.79-2.18-2.02-10.87,4-5Z"/><path class="cls-7" d="M143.01,88.1v-5c.23.08.74.03,1,0l-1,5Z"/><path class="cls-7" d="M141.01,95.1l2-2c-.23,1.31-1.96,1.86-2,2Z"/><path class="cls-9" d="M97.01,105.1l-18.44.94c-1.31.35-.24,2.67-.56,3.06-5.63,6.7,3.89,7.88,2,0,.97-.21,2.69.74,3,1,0,1,0,2,0,3-5.14,6.99,2.48,11.18-9.99,11.99l23.99,1.01c-.33.33-.66.68-1,1-4.32.39-31.52.33-33-3v-19l32-1,2,1Z"/><path class="cls-8" d="M75.01,44.1c4.58,4.17,3,9.87,3,16.5v17c0,2.67,2.31,13.38.99,15.5-.4.64-2.87-1.09-2.99-1-.22.16-.78-.16-1,0-.98-1.23-1.61-4.21-2-5l-4-31c.1-.96-.16-2.09,0-3,.4-.17.94-.58,1-1,.32-2.16-.22-4.76,0-7v-1c1.38-.28,3.43.1,5,0Z"/><path class="cls-2" d="M79.01,24.1c9.81.35,4.48,5.5,5,5.99,1.98,1.86,3.06-2.91,3,2.01-5.69,5.1-6.58,1.16-9,9.98l12,2.02c-.66-.03-1.34-.01-2,0h-11c.89-2.02-2.95-2.8-4-3,5.39-6.15,3.31-5.82,0-10.99,2.55,2.4,5.68-4.29,6-6.01Z"/><path class="cls-7" d="M85.01,96.1c-1.12-1.07-1.28-1.35-1-3,.22-.42.74-.66,1-1,.13,1.3-.19,2.72,0,4Z"/><path class="cls-7" d="M82.01,96.1c2.67,2.99,3.59,4.07,3,0,4.76,4.55,1.83,8.51,10,8l-32,1c4.44-.96,6.68-1.38,11-3,6.22-2.33,5.17.63,8-6Z"/><path class="cls-10" d="M73.01,87.1c-.85-1.7-2.92-5.49-4-7v-1c-.57-5.25-2.18-7.09-2-13,.06-1.85,1.67-6.97,2-10l4,31Z"/><path class="cls-2" d="M64.01,76.1c1.51.73,3.34-.17,5,3v1c-.19-.26-3.04-1.2-5-4Z"/><path class="cls-2" d="M63.01,52.1c.14,0-.71,3.09,2,2-.03.33.02.67,0,1-21.7-3.06-7.11,12.27-1,21-11.47-5.52-20.73-25.07-1-24Z"/><path class="cls-5" d="M90.01,44.1c1.14.05,3.5-.55,4.02.59.73,1.62-2.2,31.85-3.02,35.41-.71,3.11-4.05,9.42-6,12-.26.34-.78.58-1,1h-1c2.56-14.27.32-32.39,3-47l-7-.98c2.8,1.1,7.25-.98,8.99-1.01.66-.01,1.34-.03,2,0Z"/><path class="cls-5" d="M97.01,126.1l-23.99-1.01c12.47-.81,4.86-4.99,9.99-11.99-.01,5.81,8.56,4.05,0-3-.31-.26-2.03-1.21-3-1-.6.13-1.37-.09-2,0,.32-.38-.75-2.71.56-3.06l18.44-.94c.96,4.52,2.85,18.18,0,21Z"/><path class="cls-7" d="M87.01,32.1c-.03,2.72-.35,5.28-1.12,7.88l-4.88.13v1.99s14,0,14,0c.4,0-.45,7.1.03,7.98.31.58,9.01,1.86,9.97,2.02,1.94,7.84-2.9,11.12-4,18-.87,1-12.48,7.91-6.01,9.02l-3.99.98c.82-3.56,3.76-33.79,3.02-35.41-.52-1.15-2.89-.54-4.02-.59l-12-2.02c2.41-8.82,3.31-4.88,9-9.98Z"/><path class="cls-4" d="M105.01,52.1c.85.13,3.82-.23,4,0,3.74,4.66-5.53,15.16-8,18.01,1.1-6.88,5.94-10.16,4-18Z"/><path class="cls-4" d="M83.01,110.1c8.56,7.05-.01,8.81,0,3,0-1,0-2,0-3Z"/><path class="cls-9" d="M77.01,44.1h11c-1.74.03-6.19,2.11-8.99,1.01l7,.98c-2.68,14.62-.45,32.73-3,47-.11.59-.82,1.34-1,2-3.42.2-5.26.79-6-3,.13-.09,2.59,1.63,2.99,1,1.31-2.11-.99-12.82-.99-15.5v-17c0-6.63,1.58-12.33-3-16.5.66-.04,1.34,0,2,0Z"/><path class="cls-3" d="M69.01,44.1l1,1c-.22,2.24.32,4.84,0,7-.4.18-.92.57-1,1-.16.91.1,2.04,0,3-.33,3.03-1.94,8.15-2,10l-.99-4-1,1.99c.08-2.98-.15-6.02-.01-8.99.02-.33-.03-.67,0-1,.14-1.55-.3-3.68,0-5,.11-.47,1.78-4.85,2-5,.3-.21,1.43.18,2,0Z"/><path class="cls-10" d="M70.01,45.1l-1-1c.29-.09.68.07,1,0v1Z"/><path class="cls-10" d="M69.01,53.1c.08-.43.6-.82,1-1-.06.42-.6.83-1,1Z"/><path class="cls-10" d="M67.01,44.1c-.22.15-1.89,4.53-2,5,.25-2.63-1.23-5.74,2-5Z"/></g></svg>