<?xml version="1.0" encoding="UTF-8"?><svg id="Camada_2" xmlns="http://www.w3.org/2000/svg" viewBox="0 0 143.84 145.25"><defs><style>.cls-1{fill:#f6ba51;}.cls-2{fill:#6cd1de;}.cls-3{fill:#908d91;}.cls-4,.cls-5{fill:#fff;}.cls-5{font-family:Bauhaus93, 'Bauhaus 93';font-size:18.81px;}.cls-6{fill:#2e3348;}.cls-7{fill:#e16933;}.cls-8{fill:#e69238;}.cls-9{fill:#2d91a5;}.cls-10{fill:#3d4964;}.cls-11{fill:#45b6c7;}.cls-12{fill:#999899;}</style></defs><g id="Camada_1-2"><path class="cls-10" d="M82.76,4.01c-.59.05-5.05,1.06-4,3-.33-.03-.67.02-1,0-10.9-.73-7.3,2.73-8.01,2.99-1.87.71-5.3-2.27-8.43-2.03C30.48,10.34,5.16,47.33,5.74,76.57c.6,29.93,30.99,63.88,62.02,63.44.34,0,4.31-5.77,2,.99,14.08-1.18,28.97-5.19,41-12.99l2,3c-25.8,17.23-51.93,19.53-79,3C13.47,121.62,8.14,98.44,0,78.23,5.56,52.37,12.59,26.99,37.09,12.84,42.19,9.9,68.8.2,73.38,0c3.39-.14,6.47,2.6,9.38,4Z"/><path class="cls-6" d="M85.76,4.01c.7,2.36,2.45,1.64,4,2,18.09,4.2,37.44,17.16,46,34,16.54,32.55,7.08,70.9-23,91l-2-3c51.68-33.49,30.98-114.4-32-121-1.05-1.94,3.41-2.95,4-3,.95-.08,2.05-.08,3,0Z"/><path class="cls-10" d="M89.76,6.01c-1.55-.36-3.3.36-4-2,1.14.09,3.05,1.2,4,2Z"/><path class="cls-9" d="M78.76,7.01c62.98,6.6,83.68,87.51,32,121-12.03,7.8-26.92,11.81-41,12.99,2.31-6.76-1.66-.99-2-.99-1.16-2.49-1.35-4.31-4-5,81.91,13.05,94.56-124.96,7-121,1.04-2.06,5.02-.34,5.95-1.06.24-.18.33-4.85,1.05-5.94.33.02.67-.03,1,0ZM137.75,77.02h-1.97s-1.01,3.99-1.01,3.99h2.99s0-3.99,0-3.99Z"/><path class="cls-11" d="M77.76,7.01c-.72,1.09-.82,5.76-1.05,5.94-.93.71-4.91-1.01-5.95,1.06C-1.28,17.27-4.29,124.17,63.76,135.01c2.65.69,2.84,2.51,4,5-31.02.45-61.42-33.51-62.02-63.44C5.16,47.33,30.48,10.34,61.33,7.97c3.13-.24,6.56,2.75,8.43,2.03.7-.27-2.89-3.73,8.01-2.99ZM9.76,78v4.02s1.99,0,1.99,0v-4.02s-1.99,0-1.99,0Z"/><path class="cls-10" d="M63.76,135.01C-4.29,124.17-1.28,17.27,70.76,14.01c87.56-3.96,74.91,134.05-7,121ZM67.76,18.01c-72.41,1.21-60.6,130.75,16,112,66.14-16.19,53.99-117.6-16-112Z"/><polygon class="cls-10" points="137.75 77.02 137.75 81.01 134.77 81 135.78 77.02 137.75 77.02"/><rect class="cls-9" x="8.75" y="79.01" width="4.02" height="2" transform="translate(-69.28 90.55) rotate(-89.84)"/><path class="cls-11" d="M67.76,18.01c2.66-.04,5.35.02,8.01,0v39.01s-11-.51-11-.51l2,5.51c3.4-2.87,4.97-5.15,9.99-1.5-2.72-.02.98,7.38,1,11.49-1.65.13-3.34-.09-5,0-3.72-.58-10.81-2.44-14-4-.53-.26-4.94-7.37-8.75-7.94-25.39-3.8-.8,11.12.69,16.7.57,2.16-.27,5,.06,7.24.1.64-.06,1.35,0,2-3.72,1.09-3.92,2.57-4,6-.01.56-1.34,1.91-1,2.99,9.08-.34,11.06,13.3,15.53-.01,2.13,3.48,13.88,4.54,14.43,5.07,1.91,1.87-1.13,16.46,3.05,17.95-2.7,5.97,1.63,6.39,2,7,1.03,1.72,2.51,3.05,3,5C7.16,148.76-4.65,19.22,67.76,18.01ZM43.19,77.57c-10.87-13.06-3.8,12.52,1.56,8.44,2.34-1.78.1-6.45-1.56-8.44ZM58.76,110c.45-.8-4.11-4.25-5.43-4.05-.48.07-5.94,7.74-5.57,8.06,1.17,1.01,3.98-2.42,4.98,4-.6-5.89,5.74-7.52,6.01-8ZM64.46,112.36c-12.1-1.04-7.11,9.2-5.67,9.62,2.95.86,1.44-3.64,3.97-1.97.13.09-.32,2.61.16,2.78,10.34,3.73,5.67.14,9.84-5.78l1.49,9.99c2.16-1.25,1.92-11.54,1.51-11.98-.59-.63-3.84,1.18-4.4,1-.37-.12-6.51-3.62-6.9-3.65Z"/><path class="cls-9" d="M83.76,130.01c-.49-1.95-1.97-3.28-3-5-3.23-4.38,3.04-7.05,2.98-7.5-.27-1.76-3.41-2.96-4.98.5-4.18-1.49-1.14-16.08-3.05-17.95-.55-.54-12.3-1.59-14.43-5.07-4.47,13.31-6.45-.33-15.53.01-.33-1.08.99-2.43,1-2.99,1.89.65,10.7-1.09,11.93-2.07.25-.2-.12-5.12,2.84-5.85,4.43-1.1,15.07,2.35,17.23-2.08,9.02.89,7.5,1.25,14,6,.19.14.37,2.57,1.37,3.08,8,3.99,7.67-6.18,16.63-3.08-4.65-10.53-4.58-13.46,0-23.99,11.3-1.5,1.93-7.02-1,0-.33.03-.67-.01-1,0-1.93.09-4.16-.25-6,0-9.36,1.28-14.51,7.2-25,8-.02-4.11-3.72-11.51-1-11.49-5.02-3.65-6.59-1.37-9.99,1.5l-2-5.51,11,.51V18c-2.66.03-5.34-.04-8.01,0,69.99-5.6,82.14,95.81,16,112ZM91.52,111.79l-.52-5.52-3.23-2.25,1.99,6.99-2.98-4.99-3.01,16.99c4.09-.09,1.03-12.34,4.98-4-1.17-4.23,2.72-6.79,2.77-7.21Z"/><path class="cls-2" d="M64.46,112.36c.39.03,6.53,3.53,6.9,3.65.56.19,3.81-1.63,4.4-1,.41.44.65,10.73-1.51,11.98l-1.49-9.99c-4.16,5.93.5,9.52-9.84,5.78-.47-.17-.02-2.69-.16-2.78-2.53-1.68-1.02,2.82-3.97,1.97-1.43-.42-6.43-10.66,5.67-9.62ZM66.75,122c-.2-1.49.86-4.29-.97-3.99.2,1.49-.86,4.29.97,3.99Z"/><path class="cls-2" d="M58.76,110c-.27.48-6.61,2.11-6.01,8-1-6.42-3.81-3-4.98-4-.37-.32,5.09-7.98,5.57-8.06,1.32-.2,5.88,3.26,5.43,4.05ZM53.75,111v-1.99h-.97v1.99h.97Z"/><path class="cls-2" d="M78.76,118.01c1.57-3.46,4.71-2.26,4.98-.5.07.45-6.2,3.12-2.98,7.5-.37-.61-4.7-1.03-2-7Z"/><path class="cls-2" d="M91.52,111.79c-.05.42-3.94,2.98-2.77,7.21-3.95-8.34-.89,3.91-4.98,4l3.01-16.99,2.98,4.99-1.99-6.99,3.23,2.25.52,5.52Z"/><path class="cls-8" d="M110.76,64.01c-4.58,10.53-4.64,13.46,0,23.99-8.96-3.1-8.63,7.07-16.63,3.08-1.01-.5-1.18-2.94-1.37-3.08,5.03-9.69-4.9-7.1-12-7h-1c-.65.02-1.36-.08-2,0h-1v1c-6.58-.5-13.39.36-20,0,.75-4.26-1.97-11.41,2-14,3.19,1.56,10.28,3.42,14,4,.2.03,1.41,1.72,3.51,1.96,2.37.27,13.63-2.25,14.93-1.81,1.94.65,3.11,10.87,7.98,8.72,4.42-1.96-1.14-10.34-.01-11.91.94-1.31,6.09-1.2,8.59-2.95.72-.5.98-1.14,1-2,.33-.01.67.03,1,0s.67.04,1,0Z"/><path class="cls-1" d="M50.76,84.01c-.34-2.23.51-5.08-.06-7.24-1.49-5.58-26.08-20.51-.69-16.7,3.81.57,8.22,7.68,8.75,7.94-3.97,2.59-1.25,9.74-2,14-.42,2.39-.84,3.64-3,5l-.02-10.99-2.98,7.99Z"/><path class="cls-1" d="M102.76,64.01c-.74,3.23,2.37,1.75,5,2-2.51,1.75-7.65,1.64-8.59,2.95-1.13,1.57,4.43,9.96.01,11.91-4.88,2.15-6.05-8.07-7.98-8.72-1.3-.44-12.55,2.08-14.93,1.81-2.1-.24-3.31-1.93-3.51-1.96,1.66-.09,3.35.13,5,0,10.49-.8,15.64-6.72,25-8Z"/><path class="cls-3" d="M76.76,82.01c.66.05,1.34-.06,2,0-2.16,4.42-12.79.98-17.23,2.08-2.96.73-2.59,5.65-2.84,5.85-1.23.98-10.04,2.72-11.93,2.07.08-3.43.28-4.91,4-6v1.99c1.73.55,2.04-.38,3-.99,2.16-1.36,2.58-2.61,3-5,6.61.36,13.42-.5,20,0Z"/><path class="cls-8" d="M53.76,87.01c-.96.61-1.27,1.54-2.99.99v-1.99c-.07-.65.09-1.36,0-2l2.98-7.99.02,10.99Z"/><path class="cls-7" d="M79.76,81.01c.33,0,.67,0,1,0,7.1-.1,17.03-2.69,12,7-6.5-4.75-4.98-5.11-14-6-.66-.06-1.34.05-2,0v-1c.33-.03.67.04,1,0,.64-.08,1.35.02,2,0Z"/><path class="cls-12" d="M109.76,64.01c2.93-7.02,12.3-1.5,1,0-.33.04-.67-.03-1,0Z"/><path class="cls-12" d="M108.76,64.01c-.02.86-.28,1.5-1,2-2.63-.25-5.74,1.23-5-2,1.84-.25,4.07.09,6,0Z"/><path class="cls-3" d="M80.76,81.01c-.33,0-.67,0-1,0h1Z"/><path class="cls-3" d="M77.76,81.01c-.33.04-.67-.03-1,0h1Z"/><path class="cls-11" d="M66.75,122c-1.83.3-.77-2.5-.97-3.99,1.83-.3.77,2.5.97,3.99Z"/><rect class="cls-11" x="52.77" y="109.02" width=".97" height="1.99"/><text class="cls-5" transform="translate(50.11 122.03)"><tspan x="0" y="0">MUVZ</tspan></text><path class="cls-4" d="M52.6,111.33s-10.82-2.5-8.2.95,2.14,4.16,2.14,4.16c0,0-9.27-4.52-5.94-1.07,3.33,3.45,5.64,5.94,5.64,5.94,0,0,1.85,1.19,5.53.48,3.69-.71.83-10.46.83-10.46Z"/></g></svg>