<?xml version="1.0" encoding="UTF-8"?><svg id="Camada_2" xmlns="http://www.w3.org/2000/svg" viewBox="0 0 139.06 146"><defs><style>.cls-1{fill:#f49952;}.cls-2{fill:#f6ba51;}.cls-3{fill:#e16933;}.cls-4{fill:#e69238;}</style></defs><g id="Camada_1-2"><path class="cls-2" d="M66.46,2.12V.13c2.38.12,4.62-1.06,4,1.99-1.33-.03-2.67,0-4,0l1,12-6,.98c14.6-1.99,43.5,7.7,50.79,21.17,1,1.85-2.75,7.25-3.8,2.84-10.27-13.02-27.08-21.86-44-20C10.45,25.07-2.87,105.85,49.46,125.12c5.74,2.11,12.03,2.81,18,4l-2.99,1.01,2,7c-5.31,1.65-14.74-4.42-16,3l-28-14-15.93-16.76c-2.3-5.83,2.24-13.45,2.01-17.75-.11-2.22-8.01-12.21-8.13-12.97-1.41-8.52,1.26-17.42,2.11-25.78C14.2,25.44,33.52,2.34,66.46,2.12ZM60.45,15.13c-1.49.2-4.29-.86-3.99.97,1.49-.2,4.29.86,3.99-.97Z"/><path class="cls-4" d="M70.46,2.12c9.96.26,21.31,4.01,30,8-12.47,6.45,5.88,11.76,11.04,16.46,6.89,6.28,17.96,27.22,17.96,36.04v20.5c0,.45,7.78-.32,9,0-.09,6.91,1.16,11.57-2.05,20.25-1.61,4.36-18.72,27.46-22.22,28.43-4.98,1.38-13.11-.98-17.39,4.6-.81,1.06.49,6.17-2.62,7.37-11.35,4.39-24.23,1.04-36.71.34-2.52-1.3-4.56-2.72-7-4,1.26-7.42,10.69-1.35,16-3l-2-7,2.99-1.01c-2.74-3.44-13.41-4.02-18-4C-2.87,105.85,10.45,25.07,64.46,19.12c1.94,1.43,4.39,15.62,4.08,16.41-.47,1.2-4.5.62-5.59,2.58-7.5,13.48,11.48,9.78,16.51,11.01.87.21,1.58.9,2,1-7.68,1.02-17.92-3.48-19,6-10.82-8.16-11.99,13.9-2,7-.41,2.98-.02,3.44,3,3l-8.98,1.5,2.98,7.49c1.84.61,2.87-1.8,3.99-1.99,1.69-.29,3.31-.76,5-.99l-1,1.99c-7.22,3.01-8.54,2.04-6,9,3.36,9.21,3.44,2.88,6.07,5.42,1.21,1.17.44,3.46,1.93,4.58,7.69,5.73,19.82-5.58,22.51-13.99.89-2.76,1.11-18.33,5.48-13.02.98,1.19-2.77,20.94-4.25,22.75-1.61,1.97-17.26,7.41-20.74,8.25-.25-.34-.61-.89-1-1-4.9-1.42-9.47-3.75-14-6-.13-.06-.68-1.34-2-2-.58-.29-2.35.28-3,0,.04-.66-.02-1.34,0-2,.37-11.2-.32-21.88,0-33,3.83-1.13,9.04-1.46,12.99-3.02l-6.41-13.1c-10.55-2.16-5.77,9.41-15.06-.87-2.46,14.78-7.07,2.92-10.51,6l6.88,21.37c1.63,1.68,5.17.64,7.12.62.46,0,1.08-3.18,2.01-1.5v20.02s-2,1.47-2,1.47l-1.45-17.05c-6.43-.79-10.89-3.81-16.56-6.48-1.3-.61-3.62.85-3.99.55-1.59-1.27,1.61-7.69-2-7.02-3.11,18.7-3.93,27.91,5.99,44,10.01,16.24,25.6,26.62,43,24,8.08-1.22,18.15-3.84,24.93-8.57,9.53-6.65,12.63-18.29,21.06-25.42-4.2,16.08-15.66,28.58-31.04,34.44-3.1,1.18-19.4,2.36-15.53,6.58,1.36,1.48,3.33.93,5.02.97,15.42.39,37.19-18.74,43.27-32.8,7.21-16.69,8.5-32.93,2.28-50.21-4.72-.96,1.81,9.3-2.47,7.99-1.17-.36-7.87-13.9-9.52-15.99,1.05,4.4,4.8-.99,3.8-2.84-7.29-13.46-36.19-23.16-50.79-21.17l6-.98-1-12c1.33,0,2.67-.03,4,0ZM115.4,38.73l-1.25.54,2.66,6.12,1.25-.54-2.66-6.12Z"/><path class="cls-3" d="M100.46,10.12c8.32,3.82,19.37,14.29,26.31,21.69.68.72,3.4.04,3.67.33.44.48-.32,3.59.02,3.98-3.36-1.14-.21,12.6.06,13.25.46,1.11,5.31,4.32,5.63,5.02,4.57,9.96,2.43,19.15,2.31,28.72-1.22-.32-9,.45-9,0v-20.5c0-8.82-11.07-29.76-17.96-36.04-5.16-4.7-23.51-10.02-11.04-16.46Z"/><path class="cls-3" d="M54.46,92.12c-.63-.25-2.14.17-3,0,.04-.33-.04-.67,0-1,1.37-.34,2.11.61,3,1Z"/><path class="cls-3" d="M108.46,39.12c1.65,2.09,8.34,15.63,9.52,15.99,4.28,1.31-2.25-8.95,2.47-7.99,6.22,17.28,4.93,33.52-2.28,50.21-6.07,14.05-27.85,33.18-43.27,32.8-1.68-.04-3.66.51-5.02-.97-3.87-4.22,12.43-5.4,15.53-6.58,15.38-5.86,26.84-18.36,31.04-34.44-8.43,7.13-11.53,18.77-21.06,25.42-6.78,4.73-16.85,7.35-24.93,8.57l-16.98-6.5c5.18-.17,6.52-18.95,5.98-20.5,2.02.99,5.91,2.7,8,3,5.77.83,1.93-.74,3-1,3.49-.85,19.13-6.28,20.74-8.25,1.48-1.81,5.23-21.56,4.25-22.75-4.37-5.31-4.59,10.25-5.48,13.02-2.69,8.41-14.82,19.72-22.51,13.99.19-3.97-.27-8.04,0-12,.03-.42,0-.95,0-1,1.76-10.73,2.82-3.67,6.86-6.13,2.14-1.31-1.62-6.59,2.13-7.85-7.11,7.21-9.39.07-9.99-.01-.97-.13-2.02.09-3,0-3.02.44-3.41-.02-3-3,.13-.09.71-2.24,1-3,.91-.38.92-1.18,1-2,.07-.65-.07-1.35,0-2,1.08-9.48,11.32-4.98,19-6,3.06.75,6.18,1.66,9,3v10.99c11.86.68,8.6,1.71,10-6.99.42-2.59-.06-5.64,0-6,1.17-6.68,10.46-6.52-2-11-8.88-3.2-3.99,1.57-7.47.98-1.31-.22-5.58-7.44-9.52-5.99l-2.01,14.01c-5.03-1.22-24.01,2.48-16.51-11.01,1.09-1.96,5.12-1.38,5.59-2.58.31-.79-2.14-14.98-4.08-16.41,16.92-1.86,33.73,6.98,44,20ZM113.45,71.13c-2.6-3.17-6.53,7.19-4.99,8.99,2.12,2.46,7.44-6,4.99-8.99Z"/><path class="cls-3" d="M57.46,94.12c-.13-.12-2.83-1.93-3-2,2.04.88,2.34,1.65,3,2Z"/><path class="cls-3" d="M59.46,95.12c-.04-.11-1.33-.38-2-1,.63.34,1.35.68,2,1Z"/><path class="cls-3" d="M49.46,125.12c4.59-.02,15.26.56,18,4-5.97-1.19-12.26-1.89-18-4Z"/><path class="cls-4" d="M60.45,15.13c.3,1.83-2.5.77-3.99.97-.3-1.83,2.5-.77,3.99-.97Z"/><rect class="cls-3" x="115.43" y="38.72" width="1.36" height="6.68" transform="translate(-7.14 49.76) rotate(-23.49)"/><path class="cls-2" d="M50.46,86.12c-.02.66.04,1.34,0,2,.65.28,2.42-.29,3,0l2,2c4.53,2.25,9.1,4.58,14,6l-2,2c-2.09-.3-5.98-2.01-8-3-.65-.32-1.37-.66-2-1s-.96-1.12-3-2c-.89-.39-1.63-1.34-3-1,.05-.37-1.06-1.98-1-3-2.34-1.03-4.42-1.33,0-2Z"/><path class="cls-2" d="M54.46,92.12c.17.07,2.87,1.88,3,2,.67.62,1.96.89,2,1,.55,1.55-.79,20.32-5.98,20.5l16.98,6.5c-17.4,2.62-32.99-7.76-43-24,9.02.57,11.72,10.65,18.99,13.99-.23-7.86,3.83-11.34,5.01-19.99.86.17,2.37-.25,3,0Z"/><path class="cls-2" d="M79.46,49.12l2.01-14.01c3.94-1.45,8.21,5.77,9.52,5.99,3.48.59-1.41-4.18,7.47-.98,1.29,4.46-3.81,10.15,2,11-.06.36.42,3.41,0,6-2.71,6.24-5.84-2.02-10-4-2.82-1.34-5.94-2.25-9-3-.42-.1-1.13-.79-2-1Z"/><path class="cls-1" d="M66.46,66.12c.6.08,2.88,7.22,9.99.01-3.75,1.26.01,6.55-2.13,7.85-4.04,2.46-5.1-4.6-6.86,6.13v1c-.27,3.96.19,8.03,0,12-1.49-1.11-.73-3.41-1.93-4.58-2.63-2.54-2.71,3.79-6.07-5.42l4-4v-1c1.71-1.61,4.14-2.42,2-4l1-1.99c-1.69.23-3.31.7-5,.99-1.51-6.94,5.33-3.08,5-7Z"/><path class="cls-2" d="M60.46,63.12c-9.99,6.9-8.82-15.16,2-7-.07.65.07,1.35,0,2-.77.47-.73,1.29-1,2-.29.76-.87,2.91-1,3Z"/><path class="cls-4" d="M90.46,53.12c4.16,1.98,7.29,10.24,10,4-1.4,8.71,1.86,7.68-10,6.99v-10.99Z"/><path class="cls-4" d="M98.46,40.12c12.46,4.48,3.17,4.32,2,11-5.81-.85-.71-6.54-2-11Z"/><path class="cls-2" d="M63.46,66.12c.98.09,2.03-.13,3,0,.33,3.92-6.51.06-5,7-1.13.2-2.15,2.6-3.99,1.99l-2.98-7.49,8.98-1.5Z"/><path class="cls-4" d="M113.45,71.13c2.45,2.99-2.86,11.45-4.99,8.99-1.55-1.79,2.39-12.16,4.99-8.99Z"/><path class="cls-1" d="M70.46,97.12c-1.07.26,2.77,1.83-3,1l2-2c.39.11.75.66,1,1Z"/><path class="cls-4" d="M61.46,60.12c.27-.71.23-1.53,1-2-.08.82-.09,1.62-1,2Z"/><path class="cls-4" d="M67.46,81.12v-1s.03.58,0,1Z"/><path class="cls-1" d="M50.46,53.12c-.32,11.12.37,21.8,0,33-4.42.67-2.34.97,0,2-.06,1.02,1.05,2.63,1,3-.04.33.04.67,0,1-1.17,8.65-5.24,12.13-5.01,19.99-7.27-3.34-9.98-13.42-18.99-13.99-9.92-16.1-9.1-25.3-5.99-44,3.61-.67.41,5.74,2,7.02.37.3,2.69-1.16,3.99-.55,5.67,2.67,10.13,5.69,16.56,6.48l1.45,17.05,2-1.47v-20.02c-.92-1.69-1.54,1.49-2,1.5-.96-3.48-1.89-9.62,2.06-11.57,2-.99,2.8.62,2.94.57ZM36.45,68.11c-3.95-.79-1.13,5.01-2,6-.71.82-4.24-2.51-5.82.67-5.05,10.17,15.28,8.47,7.83-6.67Z"/><path class="cls-2" d="M45.46,64.12c-1.95.02-5.49,1.06-7.12-.62l-6.88-21.37c3.44-3.08,8.05,8.78,10.51-6,9.29,10.28,4.51-1.28,15.06.87l6.41,13.1c-3.95,1.55-9.16,1.89-12.99,3.02-.14.04-.95-1.56-2.94-.57-3.95,1.95-3.02,8.1-2.06,11.57Z"/><path class="cls-2" d="M65.46,74.12c2.14,1.58-.29,2.39-2,4-.28.26-7.5,2.18,0,1l-4,4c-2.54-6.96-1.22-5.99,6-9Z"/><path class="cls-1" d="M55.46,90.12l-2-2c1.32.66,1.87,1.94,2,2Z"/><path class="cls-4" d="M63.46,78.12v1c-7.5,1.18-.28-.74,0-1Z"/><path class="cls-2" d="M36.45,68.11c7.46,15.14-12.88,16.84-7.83,6.67,1.58-3.18,5.11.14,5.82-.67.87-.99-1.95-6.79,2-6Z"/></g></svg>