<?xml version="1.0" encoding="UTF-8"?><svg id="Camada_2" xmlns="http://www.w3.org/2000/svg" viewBox="0 0 151.99 149.99"><defs><style>.cls-1{fill:#f49952;}.cls-2{fill:#f6ba51;}.cls-3{fill:#6cd1de;}.cls-4{fill:#2e3348;}.cls-5{fill:#e16933;}.cls-6{fill:#e69238;}.cls-7{fill:#2d91a5;}.cls-8{fill:#3d4964;}.cls-9{fill:#45b6c7;}.cls-10{fill:#999899;}</style></defs><g id="Camada_1-2"><path class="cls-4" d="M72.99,0c5.85.11,48.98,18.58,55.09,22.44,3.27,2.06,3.67,4.16,5.91,6.56-1.22,12.67,14.9,36.03,14.95,46.61.02,4.74-10.24,23.22-11.95,32.39-.02.11-1.95-.32-2.05.65-.57,5.21,2.69,16.18,2.05,22.35-1.59.47-1.97,3.03-2.48,2.99-1.39-.09-4.91-4.24-8.31-2.79-1.07.46-11.2,16.8-13.72,18.79l-10.04-15.03c-2.44-.54-22.65,11.92-28.93,12.15-7.27.27-23.13-11.22-24.87-10.99-3.07.4-6.01,9.61-7.65,11.88-4.24,5.89-5.41-2.68-9.59-7.91-1.85-2.31-8.1-7.6-8.41-8.09-2.39-3.85-5.22-13.71-6.01-18.49,1.77.6,4.32,1.7,6.01,2.49,8.32,3.9,16.61,10.52,26,12,10.46,4.69,23.01,14.23,34,6,37.36-6.37,49.01-24.29,59.98-58.4l-17.07-48.01L72.99,5c-.01-.35-2.5,1.56,0-5Z"/><path class="cls-8" d="M72.99,0c-2.5,6.56-.01,4.65,0,5s0,.67,0,1c-9.64,4.28-48.36,16.05-53.24,23.26-1.43,2.12-13.87,46.72-13.78,49.27.29,7.59,14.91,28.66,17.01,37.46-1.69-.79-4.24-1.88-6.01-2.49.79,4.77,3.62,14.64,6.01,18.49-7.61,8.63-6.25.35-17-2-1.3-.29-4.58.63-4.99-.49-.61-1.68,13.02-17.2,12.99-20.91-.05-6.11-14.29-24.88-13.98-31.98.11-2.69,15.57-48.78,17.12-50.98C20.04,21.47,67.75-.1,72.99,0Z"/><path class="cls-1" d="M72.99,6c.06,1.98-.17,4.04,0,6,.36,4.11,2.03,9.51,0,10-5.41.72-14.71,5.57-20,8-11.78,5.4-14.53,2.9-21.36,16.14-18.2,35.28.16,70.96,40.36,71.86,2.11,4.09.43,8.78,1,13-1.22-.18-2.92.27-4,0-.31-.08-.7.1-1,0-2.9-.94-10.1-5.42-13.58-4.94-3.91.54,2.41,3.17-5.42,1.94-9.39-1.48-17.68-8.1-26-12-2.1-8.8-16.72-29.87-17.01-37.46-.1-2.56,12.34-47.15,13.78-49.27,4.88-7.21,43.6-18.98,53.24-23.26Z"/><path class="cls-5" d="M72.99,5l52.92,22.58,17.07,48.01c-10.97,34.12-22.62,52.03-59.98,58.4-7.55,1.29-9.21,2.83-10-3-.57-4.22,1.11-8.91-1-13,29.67.66,56.03-19.39,53-51l2,9v-17.5c0-1.76-7.26-21.34-8.61-23.39-7.76-11.83-33.31-17.89-45.39-23.11-.17-1.96.06-4.02,0-6,0-.33.01-.67,0-1Z"/><path class="cls-8" d="M136.99,108c3.38,4.43,11.66,12.6,14,17,.33.62.63,2.06,1,3-6.24-1.41-9.93,1.49-15,3,.63-6.18-2.63-17.14-2.05-22.35.11-.97,2.03-.54,2.05-.65Z"/><path class="cls-6" d="M67.99,131h1c1.08.27,2.78-.18,4,0,.79,5.83,2.45,4.29,10,3-10.99,8.23-23.54-1.31-34-6,7.83,1.23,1.51-1.4,5.42-1.94,3.48-.48,10.68,4,13.58,4.94Z"/><path class="cls-6" d="M72.99,12c12.08,5.22,37.63,11.28,45.39,23.11,1.35,2.05,8.61,21.63,8.61,23.39v17.5l-2-9c-2.03-21.12-11.94-29.87-29-38-6.2-2.96-16.18-7.9-23-7,2.03-.49.36-5.89,0-10Z"/><path class="cls-5" d="M67.99,131c.3.1.69-.08,1,0h-1Z"/><path class="cls-7" d="M72.99,22c6.82-.9,16.8,4.04,23,7l18.2,16.3c18.24,28.9,2.61,64.13-31.2,68.7v-1c.44-.07,6.17-5.84,6.32-6.26,1.13-3.3.17-2.71-.32-4.74-.72-2.99-5.46-6.4-8-8-2.01-1.72,5.57-13.33,6.21-13.78,1.28-.88,5.35.21,5.79-.22.48-.46.44-8.87,2.16-13.11,2.62-6.44,18.65-22.17,3.83-24.9-1.21-.22-2.73.15-4,0-.33-.04-.67.03-1,0-1.22-2.96-4.62-1.93-7-2-4.26-.13-8.74-.2-13,0v-15c-.93-1.03-18.56,5.85-21,7v-2c5.29-2.43,14.59-7.28,20-8Z"/><path class="cls-8" d="M95.99,29c17.06,8.13,26.97,16.88,29,38,3.03,31.61-23.33,51.66-53,51-40.19-.89-58.56-36.57-40.36-71.86,6.83-13.24,9.58-10.74,21.36-16.14v2c-16.58,7.81-22.77,18.61-25,37-.65,5.34-.82,4.51,0,10,.55,3.64.94,3.96,2,7,8.82,25.17,28.08,31.37,53,28,33.8-4.57,49.43-39.8,31.2-68.7l-18.2-16.3Z"/><path class="cls-2" d="M73.99,40c4.26-.2,8.74-.13,13,0l-1.99,1.99c2.97.2,6.04-.23,8.99.01.33.03.67-.04,1,0,.76,2.42-1.92,1.88-2,2l-17.31-.03-1.27,1.99c2.2,9.71-1.32,20.46-.47,29.59.46,4.91,6.63,5.15-.93,5.92,3.35,3.31-2.61,16.28,3.98,15.52.42.64,1.28.88,2,1l1,2-12.99,1.02,6.99,4.98c-5.11.37-10.88.32-16,0v-6c1.62-3.27,8.79-6.26,9.11-10.54.1-1.29-12.1-16.38-14.11-21.46-.35-.89-.3-3.08-1-5-2.22-6.05-.8-6.05-5-13-.32-.53.26-2.99,0-4.01h-1.99c3-5.67,21.54-5.64,29-5.99Z"/><path class="cls-9" d="M52.99,68c2.01,5.08,14.21,20.17,14.11,21.46-.33,4.28-7.49,7.27-9.11,10.54s-2.25,1.41-1,6c.6,2.19,1.19,4.96,3.71,5.8,1.06.35,21.19,1.38,22.29,1.2v1c-24.92,3.37-44.18-2.83-53-28,5.8-.94,2.44-10.94,6-13.5,4.22-3.03,4.88,4.17,8.37,3.35,2.4-.56,2.29-4.28,3.61-5.38,1.69-1.41,5.74,1.2,5.02-2.47Z"/><path class="cls-3" d="M52.99,32c2.44-1.15,20.07-8.03,20.99-7v15c-7.45.35-25.99.32-28.99,6-.05.09-1.76-.42-2.01.67-1.37,5.95,3.26,13.66,9.01,16.33.7,1.92.65,4.11,1,5,.72,3.68-3.33,1.06-5.02,2.47-1.32,1.1-1.21,4.82-3.61,5.38-3.5.82-4.16-6.39-8.37-3.35-3.55,2.56-.2,12.56-6,13.5-1.06-3.04-1.45-3.36-2-7v-10c2.23-18.39,8.42-29.19,25-37Z"/><path class="cls-4" d="M88.99,102c.49,2.03,1.44,1.44.32,4.74-.14.42-5.88,6.19-6.32,6.26-1.1.18-21.23-.85-22.29-1.2-2.52-.84-3.11-3.61-3.71-5.8h1c5.12.32,10.89.37,16,0,3.78-.28,12.69-.06,15-4Z"/><path class="cls-8" d="M98.99,42c14.82,2.73-1.21,18.45-3.83,24.9-1.72,4.24-1.69,12.64-2.16,13.11-.44.43-4.51-.66-5.79.22-.65.44-8.23,12.06-6.21,13.78-1.33-.84-2.78-.98-4-3,3.21-9.81,7.09-9.04,10-17l1.99-1,1.01,5c-1.42-9.82,20.22-29.22,9-34-.13-.61.08-1.36,0-2Z"/><path class="cls-5" d="M76.99,91c1.22,2.02,2.67,2.16,4,3,2.54,1.6,7.28,5.01,8,8-2.31,3.94-11.22,3.72-15,4l-6.99-4.98,12.99-1.02c2.23-.92,1.02-2.59-1-2-.72-.12-1.58-.36-2-1-4-6.02-.87-3.35,0-6Z"/><path class="cls-5" d="M98.99,42c.08.64-.13,1.39,0,2,1.42,6.92-1.22.96-2.5,1.21-3.79.72-6.78,28.01-6.5,32.79l-1.01-5-1.99,1c2.73-7.46,2.56-24.55,6-30,.08-.12,2.76.42,2-2,1.27.15,2.79-.22,4,0Z"/><path class="cls-10" d="M93.99,42c-2.95-.25-6.03.19-8.99-.01l1.99-1.99c2.38.07,5.78-.96,7,2Z"/><path class="cls-9" d="M27.99,79c-.82-5.49-.65-4.66,0-10v10Z"/><path class="cls-6" d="M92.99,44c-3.44,5.45-3.27,22.54-6,30-2.91,7.96-6.79,7.19-10,17-.87,2.65-4-.02,0,6-6.59.75-.63-12.21-3.98-15.52,7.57-.77,1.39-1.01.93-5.92-.85-9.13,2.66-19.88.47-29.59l1.27-1.99,17.31.03Z"/><path class="cls-9" d="M44.99,46h1.99c.26,1.01-.32,3.47,0,4v2s-2-6-2-6Z"/><path class="cls-8" d="M57.99,106h-1c-1.25-4.59-.65-2.67,1-6v6Z"/><path class="cls-6" d="M78.99,98c2.02-.59,3.23,1.08,1,2l-1-2Z"/><path class="cls-6" d="M98.99,44c11.22,4.78-10.42,24.18-9,34-.28-4.78,2.71-32.07,6.5-32.79,1.29-.25,3.92,5.71,2.5-1.21Z"/></g></svg>