<?xml version="1.0" encoding="UTF-8"?><svg id="Camada_2" xmlns="http://www.w3.org/2000/svg" viewBox="0 0 774.98 814.47"><defs><style>.cls-1{fill:#ccd3b7;}.cls-2{fill:#505058;}.cls-3{fill:#fbfbf9;}.cls-4{fill:#a1c3be;}.cls-5{fill:#edba7c;}.cls-6{fill:#65a5ae;}.cls-7{fill:#ec8b62;}.cls-8{fill:#7eb3b8;}.cls-9{fill:#625b6b;}.cls-10{fill:#32333d;}.cls-11{fill:#d06e4f;}</style></defs><g id="Camada_1-2"><path class="cls-9" d="M744.64,361.28c-1.11-.65-3.57-1.55-5.73-2.32-3.99.52-7.97,1.18-11.96.51-14-3-27-4-40-4-40.21-.91-80.43,5.68-120.64-1.57-.72.27-1.65.47-2.85.58-10.98.99-16.67-.03-25.4,8.61-2.87,2.84-10.16,15.33-10.87,19.13-2.13,11.37-1.68,37.61-1.28,49.8.28,8.57,2,17.55,3.04,25.46,4.97.19,10.04-.26,15,0l2-8c-.08-.08-.75-1.5-1-2-.37-.72-.65-.96-1-2-8.82-25.82,21.77-51.34,42.5-33,1.01.89,5.3,6.14,5.5,7,31.47-1.48,64.75,1.99,96,0,.98-.06,2.11.15,3,0,5.04-.86,7.35-7.38,14.44-8.06,8.02-.77,17.01.84,21.56,8.06,12.8,7.58,21.62,21.81,31.49,33,3.24-1.41.85-18.95.88-22.66.14-16.08,1.7-32.29-.37-48.33,2.5.21,4.13,2.19,5.21,4.41.1-.97.23-1.95.39-2.94-5.91-7.66-12.33-17.24-19.91-21.67Z"/><path class="cls-9" d="M493.95,594.47c-3.21-.44-1.79,1.13-1.53,3.02.86,6.4,2.29,12.32,1.53,18.97-1.36.56-3.4-1.03-3.99-1-.45-6.74-9.27-12.43-14-17-3.13-3.03-8.73-11.73-13.44-11.04-4.51.67-10.27,11.62-12.56,13.04-1.55.96-3.84-.25-5.9,3.67-1.54,2.94.22,4.09-.22,5.66-.28,1-13.7,11.22-15.89,13.15-27.5,24.21-60.33,45.8-82.38,74.62-8.58,11.22-20.38,25.13-18.61,39.89-6.3.79-3.81-5.26-9.76-5.83-3.82-.36-2.66,2.34-3.23,2.83-3.08,2.59-6.81,5.04-10,8-.34.32-.66.67-1,1s-.66.67-1,1c-2.49,2.41-7.6,4.66-5.5,8.98,9.06,6.9,15.87,16.57,25.22,22.87.95.12,1.1-.77,1.29-.85.57-.23,1.6-.66,2-1,.66,3.4,4.87,4.73,6,6,.22.25.22,1.67.96,2.5l8.04,9.5h-34.5l-14.5-3c-1.02-1.02-5.9-3.62-7.65-5.35-16.29-16.03-14.06-28.22-14.31-49.11-.28-23.3-.13-47.04-.24-70.04-.09-20.24-2.2-42.78.46-62.74,1.92-14.4,16.08-26.33,30.25-27.75,26-2.6,58.34.83,84.86.85,24.31.03,52.74-2.76,77.17-.9,17.18,1.3,21.58,9.16,32.46,20.04ZM309.95,687.47v-87.5c0-1.52-4.57-1.77-6-1.5.92,8.49-.84,17.26-1.05,25.46-.55,21.19,2.01,42.35,1.04,63.55h6.01ZM323.95,669.97v-70c0-1.5-4.6-2.1-6.07-1.07-1.67,1.18-.88,14.87-.93,18.05-.05,3.49-1.71,6.84.05,10.97.61,5.65-1.33,41.56.88,43.11,1.44,1.01,5.54.66,6.07-1.07Z"/><path class="cls-5" d="M584.95,569.47c47.34.68,95.03,1.6,142.54.96,2.88.21,5.79,1.09,8.46,2.04,7.87,2.8,17.87,12.32,21,20,2.07,5.09,2.71,13.47,3,19,.31,5.94-.08,12.04,0,18h-1c-2.52-6.44-7.07-11.85-11.47-17.07-.77-.91-2.4-.78-2.53-.93-.54-.6-1.52-3.77-3.03-5.47-5.77-6.46-12.47-9.09-21.24-7.3-3.83.78-5.28,3.78-7.8,5.2-5.37,3-11.01,2.16-11.87,11.19-.54,5.57,5.22,6.73.95,9.38-5.77-.96-7.31,1.83-11,3-11.86,3.76-14.9,5.14-23.51,14.99-3.65,4.18-20.52,27.74-21.3,31.76-1.11,5.71,3.13,7.27,5.81,11.25-3.48,2.81-13.2,6-18.02,8.48-5.73,2.94-10.77,7.48-16.98,9.52h-88c-.17-28.82.32-57.69.02-86.51-.02-1.69.64-4.45-1.02-5.49.34-13.1-.19-18.25,8.06-29.21,11.37-15.11,32.02-13.03,48.94-12.79Z"/><path class="cls-5" d="M238.95,335.47c.58,1.68.71,5.9,1,8-.06,20.98.08,42.02,0,63,0,.33,0,.67,0,1l-58-57c-3.02-5.57-7.01-10.88-13.01-13.49-4.27-1.85-15.11-5.9-19.23-5.3-11.91,1.74-25.27,20.96-18.6,32.13,2.41,4.03,9.95,8.91,14.85,8.65-.11,5.33,3.62,3.37,7.17,5.12s2.95,5.32,2.83,8.88c-2.38,4.18-1.41,3.91-2,8-.36,2.49-1.4,3.83-1,7.52.56,5.19,4.07,8.21.03,13.74-3.51,4.81-8.68,6.12-14.03,6.74-.47.05-.91.51-1,1-.48.1-1.48.08-2,0-.49-.07-2.06-1.65-3.38-1.07l-131.62.07c.06-20.48-3.39-73.71,3.82-89.68,4.23-9.38,8.36-11.22,16.94-15.02,1.13-.5,1.18-2.14,1.93-2.28,3.28-.65,4.96,1.22,7.74-2.09l179.06.08c11.24.87,24.88,11.44,28.51,21.99Z"/><path class="cls-1" d="M300.95,1.47c49.96.65,100.05-.87,150,0,25.53.45,30.69.5,44,23,.06.65-.1,1.37,0,2,1.51,9.94,1.02,14.56,1,24-11.1,3.28-19.27,16.03-31,17-1.79-1.51-3.65-3.64-6-4-4.49-9.98-17.12-20.44-27.31-24.19-35.55-13.1-72.05,17.8-63.69,54.19-1.95-.58-1.74,1.48-2.78,1.91-7.81,3.24-15.22,6.51-21.97,11.77-3.09,2.41-6.98,6.71-8.24,10.32-3.74-1.92-12.26-2.38-16.49-1.99-5.13.48-19.08,4.92-22.5,8.5-3.05,3.19-5.19,11.18-6.26,12.28-.54.55-1.58.09-1.75.22-2.3.16-6.06.41-7.98,1.54s-1.48,2.75-2.02,3.46c-.08.11-1.74-.48-2.03.66-.85,3.33,2.1,5.73-5.4,4.41-1.25-.22.06-3.58-1.57-4.06,0-1,0-2,0-3,0-1.05,0-2.87,0-4-.11-15.61.58-31.42,0-47l.49-60.01c4.69-13.84,16.17-26.07,31.51-26.99Z"/><path class="cls-2" d="M493.95,594.47c5.32,5.32,10.68,10.67,16,16-.46,15.06.66,30.37-.13,45.37-1.5,28.4-2.7,56.78-4.07,85.13-1.01,21.09-1.66,54.29-23.6,64.2-9.2,4.16-14.56,2.48-23.69,3.31-40,3.67-80.88.72-121.05,2.95l-23.46,2.04c-7.94-7.8-15.17-16.17-23-24l14.5,3h34.5l-8.04-9.5c-.75-.83-.74-2.25-.96-2.5,11.52-6.08,22.9-12.54,35.01-17.49,21.51-8.78,44.15-12.88,62.46-28.54,21.59-18.47,38.27-60.44,24.53-86.97-.29-.56-.14-1.56-1-2,2.58-4.67,7.83-8.27,11-13,.84,1.21,1.86,0,2.93.53,1.76.85,2.1,3.33,5.37,2.35,1.95-.58,5.05-5.82,4.7-7.87,4.85.53,10.71-11.82,14-12,.6-.03,2.64,1.56,3.99,1,.76-6.65-.67-12.57-1.53-18.97-.25-1.9-1.68-3.46,1.53-3.02ZM465.95,686.47h-6.01s-1.04,62.55-1.04,62.55c-.21,4.45,3.69,3.48,7.05,3.45v-66Z"/><path class="cls-4" d="M237.95,23.47c.56,1.5.56,4.27,1,6,.11.43.59.8,1,1,.9,9.35,0,21.3,0,31-4.64,1.12-1.6-2.93-4.97-3.59-5.64-1.1-6.4,11.6-8.5,13.61-1.22,1.17-3.36.71-5,2s-7.04,9.06-7.74,11.25c-2.35,7.33-.5,5.04,2.22,7.72-6.54,1.07-27.73-2.07-31.96,1.53-3.55,3.02-2.31,7.69,2.52,8.37,4.55.65,25.38.92,29.44.09-5.92,2.98-16.61-.56-22.29.99-.97.26-1.19,2.45-2.92,3.28-6.28,3.02-8.62,3.3-15.46,7.55-2.66,1.65-7.36.93-6.32,5.18-8.6-1.8-16.1.61-24.34,2.9-15.75-28.93-57.36-28.5-67.8,3.97-17.56,1.6-41.9-6.88-39.73,19.51,1.12,13.69,7.82,26.03,18.39,34.6l9.48,6.02H22.45c-1.06,0-6.03,3.72-6.96,5.04-2.64,3.76-4.08,12.1-.6,15.51,2.35,2.31,6.06,1.12,6.06,1.44v18H1.95c-3.64-38.37-.12-79.43,0-118,3.37-2.05,8.64,3.24,9.49,3,.8-.22,1.11-2.26,1.8-2.69,1.5-.94,11.03-6.74,11.69-6.93,1.84-.52,3.3.61,4.97.11,2.45-.74,3.54-3.81,5.33-4.8,3.08-1.69,6.76-1.2,9.74-2.18,3.84-1.27,7.42-5.29,9.92-6.08,4.45-1.4,11.9-1.53,16.32-2.68,3.14-.81,5.81-5.72,9.74-5.76.04.66-.06,1.33,0,1.99,3.71-.58,20.06,1.2,21.57-.92,1.26-1.78.12-5.86-1.57-7.07,2.35-5.24,6.31-4.32,10.41-6.09,3.14-1.35,5.47-5.18,8.33-5.74,2.24-.44,8.64-.22,7.26,3.84-.85.22-1.84-.13-2.97.49-3.84,2.1-1.87,10.51.47,10.51h42c6.15,0,5.61-8.6.81-10.81-11.73.28-23.58-2.25-35.31-1.19-.2-3.05,2.91-3.18,4.04-4.73,2.63-3.63,2.83-6.85,7.45-10.28,1.69-1.26,5.15-1.53,6.01-2.99s.77-4.89,2.29-7.71c1.43-2.65,4.77-4.46,5.66-6.34,2-4.2,1.91-13,6.62-16.39,1.38-.99,3.83-.91,4.72-1.78s.85-3.42,1.75-4.74c1.77-2.58,6.59-4.05,6.46-9.04,2.71.03,4.99-1.07,7.46-1.04,23.39.27,43.69-3.09,53.54,23.04ZM199.59,43.82c-10.6-10.6-28.41-3.47-30.43,10.4-.33,2.28.73,9.48,2.02,11,1.16,1.37,21.02,2.49,24.25,2.22,5.66-.46,8.65-.48,9.42-6.58s-.95-12.73-5.26-17.05ZM135.45,85.47c-2.43.99-1.73,7,0,7h16c2.12,0,3.19-7,0-7h-16Z"/><path class="cls-6" d="M758.95,28.47c-.41,2.42,0,2.05,0,3-.22,49.32.17,98.68,0,147.99-2.32.62-1.67-.54-2.29-1.27-4.58-5.35-9.32-11.33-13.71-16.73-14.67-18.07-24.49-29.49-42-45-7.42-6.57-10.12-13.02-21.76-14.74-10.28-1.52-25.05,3.64-31.49,11.99-1.95,2.52-3.53,9.27-3.95,9.56-1.83,1.26-5.26.08-7.67,4.82-2.06,4.06-1.65,20.18.08,24.66,2.34,6.01,6.18,4.9,9.79,7.71.1.08-.11,1.57,1.01,2.44,6.84,5.34,8.07,2.9,10.99,12.56.16.54-.14,1.41,0,2-3.84-.19-6.96,3.02-11,4-.36.09-5.17.68-7,1-6.48,1.13-10.13,1.3-16,3-4.03,1.17-7.78,1.29-12,4-.19-2.19-.92-4.24-1.04-6.46-.65-12.39-1.79-57.39,1.27-66.81.73-2.24,1.86-3.11,2.77-4.73,6.78-2.05,14.29-3.8,20.69-6.81,5.92-2.79,8.95-6.29,16.07-7.93,11.89-2.75,18.25,1.83,7.22-11.73-3.38-4.15-8.84-8.65-11.97-12.53-5.58-6.9-9.65-16.51-17-22,.02-.31.05-.7,0-1,4.72-2.34,8.01.84,12.58,1.92,4.17.99,12.05,3.2,15.94,3.17s8.43-2.98,12.22-3.86c2.21-.51,4.99.23,6.66-.35,1.91-.66,1.24-3.29,1.76-3.73.55-.47,3.19.05,4.84-.66,1.41-.62,3.24-3.69,5.11-4.9,2.05-1.34,6.76-4.55,8.14-5.34,3.06-1.76,13.31-2.28,20.72-6.8,5.65-3.45,13.37-12.62,18.71-13.07,1.29-.11,7.31,1.75,6.35-1.87-.31-1.17-4.37-1.11-3.01-4.51l5.01-1c8.07,5.52,10.78,10.72,14,20ZM611.95,123.47v30c7.38-.47,4.53-10.1,6.11-16.39,1.1-4.37,4.09-8.97,5.9-13.1l-12.01-.51Z"/><path class="cls-2" d="M239.95,23.47c.85,3.54,4.17,5.27,6.23,8.27,8.58,12.54,8.47,51.06,8.82,67.19.74,33.98-.37,68.08-.1,102.08.15,18.2,4.53,40.05-2.45,57.46-7.66,19.11-18.99,24.45-39.01,25.99-38.17,2.93-81.12.51-120.03.97-12.25.14-26.68,1.88-38.95,1.03-2.92-.2-5.66-1.5-8.51-1.99-9.23-8.11-19.12-17.45-28-26,2.8-.99,7.35-.19,10.49,0,22.39,1.41,54.58,2.92,76.73-.28,6.92-1,17.34-5.2,23.36-5.73,2.06-.18,3.98,1.17,5.68.82,4.52-.93,8.64-5.96,4.09-9.71-5.84.16-12.04.24-17.9-.06-32.99-1.69-66.33-1.04-99.46-1.04-1.22-3.25,2.31-3.07,2.85-4.62s-.22-7.38.15-7.38h104c.75,2.89-8.02,8.03-6,10,2.59-.4,5.03.81,7.52.99,34.07,2.48,70.73-.31,105.03,1.06,6.78-.63,5.27-10.86,5.45-16.05,1.91-54.13.04-110.62,0-165,0-9.7.9-21.65,0-31-.04-.45-.53-.9-1-1-.44-1.73-.44-4.5-1-6,.66.02,1.34-.03,2,0Z"/><path class="cls-8" d="M744.95,8.47l-5.01,1c-1.36,3.39,2.7,3.33,3.01,4.51.96,3.62-5.06,1.76-6.35,1.87-5.34.45-13.06,9.61-18.71,13.07-7.4,4.53-17.66,5.04-20.72,6.8-1.38.79-6.09,4-8.14,5.34-1.87,1.22-3.69,4.29-5.11,4.9-1.64.71-4.29.19-4.84.66-.52.44.16,3.07-1.76,3.73-1.67.58-4.45-.17-6.66.35-3.79.88-8.16,3.82-12.22,3.86s-11.77-2.18-15.94-3.17c-4.57-1.08-7.85-4.26-12.58-1.92-.2-1.24-5.13-10.59-6.2-12.3-13.73-21.98-44.67-20.68-55.3,3.3-3.83,8.64-.82,14.95-2.71,21.29-.6,2.02-7.06,6.94-8.99,10.01-2.87,4.57-3.96,9.94-4.79,15.21.11,44.16-.2,88.34-.02,132.48h-23c-.17-61.15.12-122.33.02-183.48,1.97-20.08,15.02-34.06,35.45-35.55,7.35-.54,14.18,1.02,20.99,1.09,45.1.45,97.04-3.56,141.08-.08,7.65.6,12.3,2.82,18.46,7.04Z"/><path class="cls-2" d="M238.95,595.47c4.63,5.73,10.11,11.34,15,18-1.49,6.37-.99,12.97-.99,19.49,0,32.66-.32,66.08-.06,99.05.15,19.41,3.3,38.17-3.48,57.44-3.25,9.25-8.08,15.96-17.67,19.33-13.18,4.65-29.75,2.54-43.32,2.88-25.18.63-49.96,1.39-74.96,1.84-22.18.4-44.37.63-66.54.96-4.15-3.63-7.93-6.26-12.03-10.47-3.6-3.7-8.26-9.12-10.97-13.53,12.94,5.53,32.16,2.81,46,1.99l-19-18.99c11.6,7.63,44.58,4.01,59.46,3.96,32.75-.11,65.6,3.3,97.78,8.86,11.87-5.19,13.77-14.14,10.52-26.07-.66-2.44-8.32-12.51-10.33-14.67s-9.13-5.6-9.43-6.07c-.2-.32.23-1.91-.53-2.93-5.52-7.34-20.17,2.97-19.48-12.54.25-5.59,2.62-12.81,3.02-17.53,2.14,2.84,6.49.1,8,0,16.22-1.12,33.65.83,50.01,0v-103.01s-1.01-3-1.01-3c-.18-1.63.13-3.36,0-5Z"/><path class="cls-4" d="M186.95,590.47c-8.67-3.7-22.43-3.1-27.86,5.64-1.34,2.16-5.19,10.04-1.14,11.36.38,3.71,1.89,6.65,5,9l-1,7c-6.18-.23-12.04-.34-18,1-6.5,1.46-10.29,4.99-16,7-.89.31-5.09,1.95-5.37,1.91-.95-.17-1.73-1.96-2.66-2.41-5.44-2.61-37.31,8.66-43.31,12.67-11.76,7.87-21.74,17.56-31.64,27.36-7.67,7.59-11.66,13.79-18.5,21.5-3.29,3.71-8.56,6.81-11.52,11.49-.42,2.26.99,1.38,2.48,1.49,16.19,1.18,34.52-.22,51.03-.02,1.69.02,4.44-.64,5.49,1.02-23.98.11-48.02-.08-72,0-.23-19.43-1.57-39.3-1-59,0-.13,1-1.13,1.04-2.42.28-8.27-.29-16.61-.06-24.87,8.31-4.32,16.54-22.3,24.75-24.48,5.45-1.45,6.51-1.44,11.62-4.36,20.14-11.51,32.99-10.88,55.14-12.88,25.36-2.29,51.76-6.27,76.84-3.61,9.72,1.03,14.92,5.98,16.67,15.62Z"/><path class="cls-1" d="M99.95.47c.41,1.56,3.68,1.5,4,0,24.35-.24,48.98.78,73,1,.12,4.99-4.69,6.46-6.46,9.04-.9,1.32-.88,3.88-1.75,4.74s-3.34.79-4.72,1.78c-4.71,3.39-4.62,12.18-6.62,16.39-.89,1.88-4.23,3.69-5.66,6.34-1.52,2.82-1.39,6.19-2.29,7.71s-4.32,1.73-6.01,2.99c-4.62,3.43-4.82,6.65-7.45,10.28-1.12,1.55-4.24,1.68-4.04,4.73-.65.06-4.19.79-5,1,1.38-4.06-5.02-4.28-7.26-3.84-2.86.56-5.19,4.39-8.33,5.74-4.1,1.77-8.06.85-10.41,6.09-1.91-1.38-14.83-1.53-17.3-.8-3.03.9-2.84,4.26-2.7,6.8-3.92.04-6.6,4.95-9.74,5.76-4.42,1.14-11.87,1.28-16.32,2.68-2.5.79-6.08,4.81-9.92,6.08-2.98.98-6.65.49-9.74,2.18-1.8.99-2.89,4.06-5.33,4.8-1.67.5-3.13-.63-4.97-.11-.66.19-10.18,5.99-11.69,6.93-.69.43-1,2.47-1.8,2.69-.86.23-6.12-5.05-9.49-3,.03-11.26-1.04-22.62-1-34v-41c.27-3.95,1.43-7.37,2.08-11.23C9.94,12.08,17.37,2.61,30.95,1.47,50.13-.15,72.67.74,91.95.47c2.66-.04,5.34.03,8,0ZM105.69,36.7c-13.5,2.32-12.06,25.72,5.31,23.33,15.06-2.07,11.76-26.27-5.31-23.33ZM34.28,59.13c13.15,13.15,32.92-9.6,16.99-19.49-13.65-8.48-27.29,9.19-16.99,19.49Z"/><path class="cls-2" d="M577.95,559.47c-2.15-.36-13.54-9.31-16.01-11.49-2.75-2.41-6.84-6.06-7.99-9.51,12.2,4.62,31.84.64,45,1.99l-25-25.99c46.32,2.39,105.51,3.98,151.55,1.05,1.81-.12,9.67-.92,10.51-1.49,2.81-1.9-.59-14.98-.15-18.47-.51-.61-16.74-2.4-13.91-6.08.19-.25,3.52-1.05,5.53-2.98,7.8-7.48,12.45-20.46,11.02-31.1-5.37-4.2-34.73,1.65-36.56-2.93,3.23,0,14.93,1.23,16.27.84,1.17-.34,8.1-7.47,9.14-8.93,5.63-7.89,4.58-16.98-.42-24.92,12.8,7.58,21.62,21.81,31.49,33,3.24-1.41.85-18.95.88-22.66.14-16.08,1.7-32.29-.37-48.33,3.84.33,5.64,4.8,6.54,7.95,5.09,17.85,2.92,39.87,3.59,58.41.86,23.49,4.32,51.83.81,75.07-2.66,17.6-17.65,32.06-35.46,33.54-26.37,2.19-57.38.65-83.94,1.06-20.44.32-40.67.46-61.08.92-3.72.08-7.36,1.72-11.46,1.04Z"/><path class="cls-8" d="M56.95,568.47c48.81-.76,97.71.6,146.54-.04,4.63.37,14.54,2.76,18.46,5.04,9.38,5.43,11.37,15.03,17,22,.13,1.64-.18,3.37,0,5,.12,1.07-.36,2.51,1,3v103.01c-16.35.82-33.78-1.12-50,0-.95-5.5.95-14.37,2.81-19.69,2.66-7.61,2.03-6.85,3.3-14.7,1.61-9.96,6.68-23.66,6.92-33.16.13-5.01-2.59-12.05-3.03-18.45,3.43-1.02,1.6-7.63,2.05-10.55l-4.05-7.45c0-.31.06-.71,0-1-.85-3.98-7.31-9.43-11-11-1.75-9.64-6.96-14.59-16.67-15.62-25.08-2.66-51.48,1.32-76.84,3.61-22.15,2-35,1.38-55.14,12.88-5.11,2.92-6.17,2.91-11.62,4.36-8.21,2.18-16.43,20.16-24.75,24.48-.23,8.27.34,16.61.06,24.87-.04,1.29-1.04,2.29-1.04,2.42,1.77-23.35-7.04-55.25,15.27-71.23,13.5-9.67,25.18-7.53,40.73-7.77Z"/><path class="cls-8" d="M268.95,439.47c0-.13,1-1.13,1.04-2.42.28-8.84-.29-17.74-.04-26.57.41-.45,8.65,3.94,10.5,3.94,2.91,0,5.04-4.65,7.03,1.05.41,1.18.34,3.85.48,3.99,1.27,1.27,12.21-3.14,14.98-1.98,0,1.62-.16,3.43,0,5l-.98.5.98.5c3.5,28.19,16.51,40.33,35,59,14.83,14.98,30.53,29.62,47.01,43.49,1.58,1.33,4.94,3.41,4.99,5.51-29.1.1-61.27,1.66-90,0-1.85-1.7-4.7-1.57-7-2-1.19-.22-2.97.29-4,0-8.11-2.26-18.54-17.44-19.74-25.76-2.38-16.57-.74-46.55-.26-64.24Z"/><path class="cls-2" d="M257.95,353.47c1.86,8.1-.5,16.35-.99,24.51-2.66,44.01-.4,87.94-1.05,132.03-.1,6.86.5,11.47-1.07,18.85-5.31,24.97-18.7,34.37-44.31,32.53-37.51-2.69-77.09-2.03-115.04-1.97-15.52.02-31.13-.51-46.54,1.04-8.07-6.13-13.82-9.75-21.01-17.48-.75-.81-3.35-2.67-.99-3.52,9.16,2.68,30.33.91,41,1,47.72.39,95.51-.08,143.24-.26,18.76-3.84,27.2-16.62,29.76-34.74,2.71-19.22,1.27-45.42,1.02-65.51-.02-1.69.64-4.45-1.02-5.49,0-9.32.04-18.68,0-28-.1-20.53,1.82-42.93-1-63-.29-2.1-.42-6.32-1-8-.2-3.33.51-1.83,2-.5,6.53,5.84,11.22,12.41,17,18.5Z"/><path class="cls-7" d="M135.95,423.47c-5.58,2.84-9.39,12.1-13.63,14.87-7.79,5.1-31.04,11.44-41.73,16.27-13.34,6.02-39.47,17.94-49.23,27.79-1.23,1.24-1.09,3.46-2.05,4.16-3.99,2.88-10.25-.47-13.74,7.02-6.13,13.17,4.84,10.72,13.39,10.89.27.97,1.15.94,2,1l37,35c-10.67-.09-31.84,1.68-41-1-12.95-3.79-24.99-20.17-26.04-33.46-2.03-25.71-.04-57.19.04-83.54l131.62-.07c1.32-.57,2.89,1,3.38,1.07Z"/><path class="cls-10" d="M168.95,119.47c9.77,2.05,23.51,12.09,28,21,.37.74,3,8.05,3,8.5v16c0,3.18-7.03,14.71-9.48,17.52-1.55,1.78-3.64,2.26-4.52,3.97,9.89.99,23.64-1.68,32.99,1.01,3.78,1.09,7.37,5.72,7.94,9.57,2.04,13.7-10.94,10.49-10.94,11.43v17l24,1c-.18,5.18,1.32,15.41-5.45,16.05-34.3-1.37-70.97,1.42-105.03-1.06-2.49-.18-4.92-1.39-7.52-.99-2.01-1.96,6.75-7.11,6-10H23.95c-.37,0,.4,5.79-.15,7.38s-4.07,1.37-2.85,4.62H4.95c-2.95-6.91-2.34-9.05-3-16h19v-18c0-.32-3.71.86-6.06-1.44-3.47-3.41-2.03-11.75.6-15.51.93-1.32,5.9-5.04,6.96-5.04h42.5l-9.48-6.02c-10.58-8.58-17.27-20.92-18.39-34.6-2.16-26.38,22.18-17.91,39.73-19.51,10.44-32.46,52.05-32.9,67.8-3.97,8.24-2.29,15.74-4.7,24.34-2.9ZM81.95,141.47c.31,5.21,1.08,2.94,1.96,4.74.36.73-.15,1.96.04,2.26,8.44,13.8,25.45,18.58,39.83,10.83-.88-10.86,2.03-19.34,9.19-27.32,1.89-2.1,6.94-4.92,6.96-6.98.04-4.15-11.24-14.73-14.98-16.53s-8.87-3.4-13-3c-3.05-2.2-7.74-.54-10.97.53-14.5,4.79-25.53,20.35-19.03,35.47ZM144.95,128.47c-14.41,8.17-19.73,19.91-15,36,.73,2.49.96,2.82,2,5,6.34,13.35,14.69,17.21,29.51,17.99,12.83.67,22.4-1.09,29.46-12.52,13.55-21.93-.95-49.3-25.97-51.47-2.37-.21-6.75-.32-9,0-4.37.62-7.76,3.16-11,5ZM78.45,186.47c8.61.95,18.72-.7,27.5,0v-19c-18.8-3.21-28.7-17.57-30.1-35.89-1.14-.97-28.12-.31-29.87.42-7.29,3.03-3.71,20.53-1.51,26.46,4.85,13.09,19.85,26.46,33.98,28.02ZM110.95,167.97v18.5h29c-6.21-6.3-13.22-12.93-15.05-21.95-.62-.56-13.54,2.19-13.95,3.45ZM105.95,203.47c38.29.07,76.81.35,115.01-.49,3.5-4.7,1.93-10.79-4.49-11.53-24.34-2.8-58.45.31-84.06.06-7.1-.07-14.88-.99-22.46-1.04-24.88-.16-59.82-2.67-83.5,0-9.7,1.09-13.08,11.87-2,13,24.12,2.44,56.41-.04,81.5,0ZM73.95,208.47H25.95l-1,18h49v-18ZM153.95,208.47h-74c.55,1.28-1,2.96-1,3.5v14.5h73.5c.11,0,1.5-1.39,1.5-1.5v-16.5ZM210.95,208.47h-52v18h50.5c.11,0,1.5-1.39,1.5-1.5v-16.5Z"/><path class="cls-2" d="M773.95,610.47l1.04,11.54c-3.25,25.74-1.95,52.44-1.99,77.92-.04,23.44,3.76,65.85-3.32,86.76-10.86,32.08-42.21,22.06-68.18,21.74-32.36-.4-64.54.35-97,1.08-10.85.25-21.81.23-32.54-1.04-5.83-5.62-12.15-12.39-18.62-16.89l.62-1.11c12.45,4.23,22.87,2.09,35,2,42.15-.3,84.49,1.05,126.5,1.06,22.54,0,40.7-7.1,44.5-31.06.08-.53,1.63-2.05,1.07-3.38-.59-47.37.53-94.77-.06-142.13-.02-1.69.64-4.45-1.02-5.49-.29-5.53-.93-13.91-3-19,.42-2,2.54,1.04,3,1.5,5.6,5.6,9.56,10.94,14,16.5Z"/><path class="cls-2" d="M498.95,28.47c.7,3.78,3.56,6.04,4.72,9.78,4.62,14.97,1.52,48.63,1.33,65.76-.17,15.16-.63,30.6-.14,45.85.95,29.32,3.26,61.45,1.13,91.15-.62,8.65-5.6,24.2-11.02,30.98-1.62,2.03-4.7,3.54-6.72,5.28-10.03,2.1-19.8,1.89-29.81,2.12-28.26.65-56.7,0-85.15.46-16.16.26-32.02.3-47.85,1.61-5.06.42-10.4-.26-15.48.02-8.41-7.1-14.33-13.28-22-21,9.7,2.97,19.96,1.88,30,2,48.49.58,97.04-.47,145.54.04,15.08-.24,28.4-11.48,32.46-25.54.04-45.5-.05-91.01,0-136.5.02-16.65-.04-33.35,0-50,.02-9.44.51-14.06-1-24h1c1.93-.4,2.4,1.62,3,2Z"/><path class="cls-2" d="M495.95,359.47c4.05-.48,2.36.22,3.1,2.36,8.49,24.43,4.57,46.47,4.86,72.18.29,25.92,3.17,51.44-1.72,77.2-2.51,13.23-3.51,19.53-13.22,29.78-7.33,7.73-18.39,8.93-28.57,9.52-36.43,2.09-75.25-.08-111.97-.03-12.69.02-26.23,1.92-38.49.99-.7-.05-1.37-.07-1.96-.5-7.33-6-14.56-12.99-19.04-21.5,1.03.29,2.81-.22,4,0,1.81,1.95,4.57,1.86,7,2,28.73,1.66,60.9.1,90,0,16.68-.06,33.47-.81,50-1,7.35-.08,16.8,1.96,25,1,.76-.09.93-.99,1-1,16.88-3.05,26.3-14.55,29-31,.03-.16.83-1,1-3,.61-7.11-.92-14.46-1-21-.07-5.65.09-11.35,0-17-.03-1.85,0-4.33,0-6,0-3.99,0-8.01,0-12v-8c1.14-7.73.83-14.3,1-22,.36-16.68.44-34.34,0-51Z"/><path class="cls-6" d="M84.95,705.47c3.09,3.19,17.07,12,17.51,13,.96,2.15-2.63,1.84-3.51,2-4.47-1.85-10.92-.99-16-1-4.79,0-19.8-.81-23.02,1.5-1.43,1.03-.71,2.42-.98,3.5-.44,1.75-.79,6.71-1.04,6.96-.35.36-7.3,1.16-9.96,2.04-.91.3-5.42,2.15-5.68,2.33-4.98,3.3-2.37,7.77-2.32,12.67-6.05,2.76-6.43,6.3-6.04,12.55.57,9.12,3.77,3.67,9.79,6.21,2.32.98,4.67,4.54,7.26,6.24l19,18.99c-13.84.82-33.06,3.54-46-1.99-2.44-1.04-8.26-4.75-10.73-6.7-3.67-2.9-10.35-12.53-11.03-17.04-2.48-16.51-.02-42.53-.24-60.26,23.98-.08,48.02.11,72,0,3.46-.02,8.36.84,11-1Z"/><path class="cls-4" d="M465.95,312.47c17.28,5.47,18.12,11.94,28,24,1.89,7.93,1.79,14.99,2,23,.44,16.66.36,34.32,0,51l-13.51-13.99c-8.06-11.08-18.26-20.73-27.49-30.01-15.87-15.97-31.88-32.11-56-35,3.49-6.66,14.97-4.25,19.58-7.92,1.47-1.17,3.81-8.71,4.42-11.08,11.12.04,22.43-.47,33.54-.04,3.25.12,6.38,2.18,9.46.04Z"/><path class="cls-4" d="M286.95,318.47c2.57,2.94,3.46,13.49,4.47,15.03,1.17,1.77,12.17,4.75,14.48,6.52,2.82,2.16.54,5.88,8.41,5.39,3.31-.21,6.76-2.72,9.23-2.94,2.05-.18,3.83,1.05,5.69.81,3.42-.44,12.78-5.22,15.72-.81-26.2,15.54-42.13,44.59-42,75-2.77-1.16-13.71,3.25-14.98,1.98-.14-.14-.07-2.81-.48-3.99-1.99-5.7-4.12-1.05-7.03-1.05-1.85,0-10.09-4.39-10.5-3.94-.26,8.83.31,17.74.04,26.57-.04,1.29-1.04,2.29-1.04,2.42v-28c.23-16.31-.3-32.69,0-49,.38-20.54-1.23-32.24,18-44Z"/><path class="cls-7" d="M616.95,703.47c-12.79,12.92-31.55,17.12-45.5,29-1.45,1.23-1.86,3.48-3.54,4.46-2.31,1.34-5.94,1.04-8.92,3.08-4.42,3.03-3.73,8.08-4.09,8.41-.38.36-7.8-.5-10.05,2.45-1.46,1.91-1.17,9.58.23,10.45.95.59,12.28.11,14.86.14l29,31c-12.13.09-22.55,2.23-35-2-11.81-4.01-22.06-15.98-24-28-2.81-17.45-.89-40.78-1-59h88Z"/><path class="cls-7" d="M551.95,219.47c.07,17-2.27,43.8.06,59.44.98,6.59,7.18,9.9,7.8,12.29,1.08,4.19-3.49,5.86,4.14,9.27,2.49,1.11,4.75,1.13,6.97,2.54l31.03,29.46h-46c-.35-.29-.63-.71-1-1l-3-1c-10.43-8.69-20.52-14.29-22.74-29.76-3.16-22.07-.19-57.61-.26-81.24h23Z"/><path class="cls-8" d="M543.95,457.47c.13,0,1.14.95,2.42,1.04,3.8.27,7.77-.27,11.58-.05-1.23,12.76,3.72,26.64,15.99,32.01v1c-.66.03-1.34-.05-2,0v6.01c-1.66.03-3.35-.09-5,0l-.44-.72-.56.72c-.96.1-2.76-.55-3.06.55l.05,16.46c3.65.13,7.36-.19,11.01,0l25,25.99c-13.16-1.35-32.8,2.63-45-1.99-7.38-2.79-17.15-12.66-20.86-19.64-8.85-16.67-1.69-42.71-4.14-61.36,4.97.19,10.04-.26,15,0Z"/><path class="cls-1" d="M422.95,312.47c-.61,2.37-2.95,9.9-4.42,11.08-4.61,3.67-16.09,1.26-19.58,7.92-17.23-2.06-39.05,2.13-54,11-2.94-4.41-12.3.37-15.72.81-1.87.24-3.64-.99-5.69-.81-2.46.22-5.92,2.73-9.23,2.94-7.86.49-5.59-3.24-8.41-5.39-2.31-1.77-13.31-4.74-14.48-6.52-1.01-1.54-1.91-12.09-4.47-15.03,3.69-2.26,6.55-4.53,11-6,41.65.11,83.35-.14,125,0Z"/><path class="cls-4" d="M277.95,141.47c.33,3.93-.61,8.45.26,12.26.16.7,6.87,8.89,7.74,9.74.26,3.74-4.47,3.11-4.02,5.5.14.74,1.49.37,1.67.79,1.31,3.08,3.45,9.45,6.63,11.47.99.63,2.42.06,2.72.24.59.36,5.75,8.43,5.95,9.55,1.38,7.41-.4,19.4,1.05,27.46-6.51.46-17.74-.17-15.83,9.26.85,4.18,4.45,4.24,4.82,4.74.22.29-.14,2.33,1.43,4.04,8.38,9.14,21.27,15.15,27.57,25.96-10.04-.12-20.3.97-30-2-6.22-6.26-14.34-11.34-18-20-.21-.5-.75-4.67-1-6v-36c0-6.99,0-14.01,0-21,0-2.99,0-6.01,0-9,0-8.65.05-17.35,0-26,1.63.48.32,3.84,1.57,4.06,7.5,1.33,4.55-1.08,5.4-4.41.29-1.13,1.95-.55,2.03-.66Z"/><path class="cls-9" d="M20.95,242.47c33.13,0,66.47-.65,99.46,1.04,5.86.3,12.05.22,17.9.06,4.55,3.75.43,8.78-4.09,9.71-1.7.35-3.62-1-5.68-.82-6.02.53-16.44,4.73-23.36,5.73-22.15,3.2-54.34,1.69-76.73.28-3.13-.2-7.69-.99-10.49,0-5.93-5.71-9.6-8.05-13-16h16Z"/><rect class="cls-9" x="33.95" y="311.47" width="178" height="1"/><path class="cls-9" d="M465.95,312.47c-3.08,2.13-6.21.08-9.46-.04-11.11-.42-22.42.08-33.54.04-41.65-.14-83.35.11-125,0,1.04-1.66,3.8-1,5.49-1.02,53.03-.56,106.09.51,159.12-.05,1.55-.59,2.68.84,3.39,1.07Z"/><path class="cls-11" d="M528.95,703.47c.11,18.22-1.81,41.55,1,59-3.03.56-1.92-1.53-2-3.45-1.87-47.24-1.24-100.16,0-147.55,1.66,1.04,1,3.79,1.02,5.49.3,28.83-.19,57.7-.02,86.51Z"/><path class="cls-8" d="M450.95,1.47c-49.95-.87-100.04.65-150,0h150Z"/><path class="cls-4" d="M91.95.47c-19.28.27-41.81-.61-61,1L91.95.47Z"/><path class="cls-4" d="M.95,74.47c.04-13.24-.89-28,0-41v41Z"/><path class="cls-4" d="M103.95.47c-.32,1.5-3.59,1.56-4,0,1.33-.01,2.67.01,4,0Z"/><path class="cls-2" d="M554.95,331.47c-.12-.1-1.48.27-3-1l3,1Z"/><path class="cls-9" d="M495.95,26.47h-1c-.1-.63.06-1.35,0-2,.35.59,1.1,1.04,1,2Z"/><path class="cls-10" d="M573.95,453.47c7.66.11,57.56-1.72,59.81.24.46.4.07,1.65.19,1.76l-2.5,4h-69.51c-.29,11.49,5.52,22.44,15.98,27.52l135.82.25c5.63-8.82,12.17-16.43,10.22-27.78-3.35-.79-25.1-.06-26.01-1-1.71-1.77,1.9-3.37,1.99-3.69.22-.8-.03-1.57.02-2.3.67,0,1.33,0,2,0,1.83,4.58,31.19-1.27,36.56,2.93,1.42,10.65-3.23,23.62-11.02,31.1-2.01,1.93-5.34,2.73-5.53,2.98-2.84,3.67,13.4,5.46,13.91,6.08-.43,3.49,2.96,16.57.15,18.47-.84.57-8.7,1.37-10.51,1.49-46.04,2.93-105.22,1.34-151.55-1.05-3.64-.19-7.36.14-11.01,0l-.05-16.46c.3-1.1,2.1-.45,3.06-.55.33-.03.67.02,1,0,1.65-.09,3.34.03,5,0,49.29-.76,98.7.57,148,0-.9-1.22-1.4-3.92-2.25-4.74-2.25-2.19-21.11-1.2-25.75-1.25-1.04-1.66-3.79-1-5.49-1.02-37.49-.46-75.03.38-112.51.02-12.27-5.37-17.23-19.24-15.99-32.01-3.81-.23-7.78.32-11.58.05-1.29-.09-2.29-1.03-2.42-1.04l2-8c5.96,6.04,19.79,3.89,28,4Z"/><path class="cls-3" d="M687.95,419.47v2c-8.98,1.4-38.17,26.88-50,33l-2,1c-.5.04-1.91.08-2,0-.12-.11.27-1.36-.19-1.76-2.26-1.96-52.15-.13-59.81-.24,2.81-5.05,7.09-6.72,10.39-12.11,2.55-4.16,8.66-17.49,7.61-21.89,31.47-1.48,64.75,1.99,96,0Z"/><path class="cls-4" d="M591.95,419.47c1.05,4.4-5.06,17.73-7.61,21.89-3.3,5.39-7.58,7.06-10.39,12.11-8.21-.11-22.04,2.04-28-4-.08-.08-.75-1.5-1-2l-1-2c-8.82-25.82,21.77-51.34,42.5-33,1.01.89,5.3,6.14,5.5,7Z"/><path class="cls-6" d="M690.95,419.47c5.04-.86,7.35-7.38,14.44-8.06,8.02-.77,17.01.84,21.56,8.06,5,7.93,6.04,17.03.42,24.92-1.04,1.46-7.97,8.59-9.14,8.93-1.35.39-13.04-.84-16.27-.84-1.01-2.66,1.45-2.88,1.66-3.32.36-.76,2.38-4.82,2.42-5.11.26-1.94.29-10.22-.11-11.87-.15-.62-1.35-.51-1.9-1.51-1.05-1.91,1.49-1.5-2.08-3.19-.83-3.05-1.57-1.55-2-2-.24-.25.31-2.46-2-2-1.41-3.36-1.83-1.99-6-2l-1-2Z"/><path class="cls-1" d="M690.95,419.47l1,2c-1.26,0-2.85-.18-4,0v-2c.98-.06,2.11.15,3,0Z"/><path class="cls-10" d="M544.95,447.47c-.37-.72-.65-.96-1-2l1,2Z"/><path class="cls-10" d="M449.95,600.47c6.01,7.87,14.4,13.78,21,21,.94,1.02,4.89,5.38,5,6,.36,2.06-2.75,7.29-4.7,7.87-3.28.98-3.61-1.49-5.37-2.35-1.07-.52-2.08.68-2.93-.53-2.42-3.45-4.34-5.7-7-9-4.6-5.71-5.38-14.03-14.47-6.97-10.19,7.91-19.13,17.68-29.05,25.94-26.18,21.78-55.69,40.15-72.47,71.03-2.05,2.1-8.55,10.66-7.9,13.29.33,1.31,12.11,12.3,13.9,12.71.25,1.29-1.9,3-.42,4.07,15.97,11.49,51.5-3.04,66.72-12.26,30.14-18.25,40.65-49.74,40.69-83.81,13.74,26.53-2.94,68.5-24.53,86.97-18.31,15.67-40.94,19.77-62.46,28.54-12.12,4.94-23.49,11.41-35.01,17.49-1.13-1.27-5.34-2.6-6-6,2.4-2.05,5.3-5.61,8-8,2.47-2.19,8.05-4.01,6.85-8.29-.55-1.98-15.13-15.22-17.85-17.71s-1.84-3.22-6-5c-.55-.24-1.14-1.04-2-1,.58-.49-.58-3.19,3.23-2.83,5.95.56,3.46,6.62,9.76,5.83-1.77-14.76,10.02-28.67,18.61-39.89,22.05-28.82,54.88-50.4,82.38-74.62,2.19-1.93,15.61-12.15,15.89-13.15.44-1.57-1.32-2.73.22-5.66,2.05-3.92,4.34-2.71,5.9-3.67Z"/><path class="cls-3" d="M309.95,687.47h-6.01c.97-21.19-1.59-42.36-1.04-63.55.21-8.2,1.97-16.96,1.05-25.46,1.43-.26,6-.02,6,1.5v87.5Z"/><path class="cls-3" d="M323.95,669.97c-.54,1.73-4.63,2.07-6.07,1.07-2.22-1.55-.27-37.45-.88-43.11-1.76-4.13-.1-7.48-.05-10.97.05-3.19-.74-16.87.93-18.05,1.47-1.04,6.07-.43,6.07,1.07v70Z"/><path class="cls-1" d="M475.95,598.47c-1.73,1.53-5.55,9.93-5.8,11.71-.46,3.29,2.82,8.14.8,11.29-6.6-7.22-14.99-13.13-21-21,2.29-1.42,8.04-12.37,12.56-13.04,4.71-.7,10.31,8.01,13.44,11.04Z"/><path class="cls-5" d="M321.95,740.47c0,9.77,11.27,16,11,26-2.7,2.39-5.6,5.95-8,8-.4.34-1.43.77-2,1-5.45-.43-1.12-5.01-.96-6.57.35-3.53-3.19-4.75-4.36-6.67-2.47-4.05-4.09-8.29-6.02-12.44-.8-1.72-3.59-.77-1.66-6.32,1.22-3.51,4.14-5.07,6-8,4.16,1.78,3.42,2.64,6,5Z"/><path class="cls-1" d="M309.95,743.47c-1.93,5.55.86,4.61,1.66,6.32,1.93,4.15,3.55,8.39,6.02,12.44,1.17,1.92,4.7,3.14,4.36,6.67-.15,1.56-4.48,6.14.96,6.57-.19.08-.34.97-1.29.85-9.35-6.31-16.15-15.97-25.22-22.87-2.1-4.32,3.01-6.57,5.5-8.98l1-1c.34-.33.66-.68,1-1l6,1Z"/><path class="cls-5" d="M489.95,615.47c-3.29.18-9.15,12.53-14,12-.11-.62-4.06-4.98-5-6,2.02-3.15-1.26-8-.8-11.29.25-1.78,4.07-10.18,5.8-11.71,4.73,4.57,13.55,10.26,14,17Z"/><path class="cls-2" d="M313.95,734.47c.86-.04,1.45.76,2,1-1.86,2.93-4.78,4.49-6,8l-6-1c3.19-2.96,6.92-5.41,10-8Z"/><path class="cls-2" d="M301.95,744.47c.34-.33.66-.67,1-1l-1,1Z"/><path class="cls-11" d="M758.95,629.47c-3.63,5.62-8.85,11.62-13.76,16.02-3.21,2.88-9.16,5.01-11.65,9.07-2.3,3.74-6.94,15.48-8.09,19.91-2.32,8.87-2.76,19.07-5.49,28l40,1.01v59c-3.8,23.96-21.96,31.07-44.5,31.06-42.01-.01-84.35-1.36-126.5-1.06l-29-31c56.77.66,113.62-.42,170.4-.1,5.47-.46,6.6-3.12,5.57-8.38s-6.44-2.79-10.23-3.76c-1.59-.41-4.01-2.84-6.21-3.78-5.83-2.51-8.78.8-9.53-6.98l2.04-24.46c-1.11-15.9-.99-23.75,3.47-38.53.79-2.62,2.72-8.49,1.49-11.01,1.6-5.34.59-16.34,6.99-13,.32-3.31.18-5.27-1.31-8.21-1.02-2.03-10.55-8.71-8.68-10.78,4.67-.46,7.57,4.33,11.58,4.95,4.56.7,11.55-2.43,12.77-7.15,1.04-4.04-2.17-4.05-5.35-4.8,7.77,1.5,13.01-6.91,12-14,.13.14,1.76.02,2.53.93,4.4,5.22,8.95,10.63,11.47,17.07Z"/><path class="cls-10" d="M651.95,685.47c2.95-2.38,3.35-7.18,6-10.5,2.36-2.96,6.26-4.88,9.02-7.98,7.75-8.71,10.81-23.47,17-33.51l1.99.5c-3.02,7.05.03,13.88,6.06,17.92,2.96,1.99,9,2.58,9.78,5.28.39,1.34-2.46,18.06-3.11,20.52-.53,2.02-1.88,3.85-2.74,5.76-5.48.84-6.57,8.91-6.98,13.51-.12,1.31-.85,6.21.97,6.48.46-4.06,1.1-10.34,2.49-14.04.71-1.88,2.42-2.72,2.52-2.96-3.07,11.43-3.41,22.73-3.04,34.54.19,5.94.8,15.84,2.04,21.46.17.75-.4,1.84.22,2.76s6.79,4.96,8.35,5.19c3.71.57,6.86-.85,10.44-.96l-7-4.99c-1.64-3.91-.05-6.9.05-10.46.37-14.2-1.06-29.57-.05-43.54,2.45-5.73,4.7,2.52,5.03,5.47,1.47,13.22-2.37,28.66-1.03,42.53.75,7.78,3.7,4.47,9.53,6.98,2.19.95,4.61,3.38,6.21,3.78,3.8.97,9.18-1.58,10.23,3.76s-.1,7.92-5.57,8.38c-56.78-.32-113.63.76-170.4.1-2.58-.03-13.91.45-14.86-.14-1.41-.88-1.69-8.54-.23-10.45,2.25-2.95,9.67-2.09,10.05-2.45.35-.34-.34-5.38,4.09-8.41,2.98-2.04,6.61-1.74,8.92-3.08,1.68-.98,2.1-3.23,3.54-4.46,13.95-11.88,32.71-16.09,45.5-29,6.21-2.04,11.25-6.58,16.98-9.52,4.82-2.48,14.54-5.67,18.02-8.48ZM589.95,747.47h97l-5-36c-12.13-1.04-22.49,7.27-33.76,11.75-15.84,6.3-44.47,12.06-56.98,21.96-.8.64-1.83-.05-1.27,2.29ZM685.95,711.47v15.5l3.01,17.49c1.74.24.94-2.27.99-3.48.37-9.37-.84-18.74-2.01-28.02-.17-1.37-.72-3.18-1.99-1.49ZM727.95,752.47h-178c1.02.93.79,4,1,4h177c.2,0,.14-3.86,0-4Z"/><path class="cls-7" d="M732.95,625.47c3.18.75,6.39.76,5.35,4.8-1.22,4.72-8.21,7.85-12.77,7.15-4-.61-6.91-5.41-11.58-4.95-1.87,2.07,7.66,8.76,8.68,10.78,1.48,2.94,1.63,4.9,1.31,8.21-6.4-3.34-5.39,7.67-6.99,13-2.01,6.69-5.88,15.16-8.7,21.77-.78,1.84-1.98-.12-2.3,4.23-1.01,13.97.42,29.34.05,43.54-.09,3.56-1.68,6.55-.05,10.46-2.64,4.97-7.86-1.82-12-2-1.24-5.62-1.85-15.51-2.04-21.46-.37-11.81-.03-23.11,3.04-34.54.44-1.04.64-2.21,1-3,.86-1.92,2.21-3.74,2.74-5.76.65-2.46,3.5-19.18,3.11-20.52-.78-2.71-6.82-3.3-9.78-5.28-6.02-4.04-9.08-10.87-6.06-17.92l-1.99-.5c-6.19,10.04-9.25,24.81-17,33.51-2.76,3.1-6.66,5.02-9.02,7.98-2.65,3.32-3.05,8.12-6,10.5-2.69-3.98-6.92-5.54-5.81-11.25.78-4.02,17.65-27.59,21.3-31.76,8.61-9.85,11.65-11.23,23.51-14.99-.25,3.5.61,1.38,2.3.8,4.46-1.53,5.55-2.11,10.7-1.8,1.24.08,5.29,1.71,6,1.01.27-.27.27-5.66,1.91-7.37,1.16-1.21,5.38-.62,6.59-3.62,4.37,9.8,5.9,6.97,14.5,8.98ZM723.94,628.47h-1.99s0,2.99,0,2.99c1.45-.34,2.29-1.61,1.98-2.99Z"/><path class="cls-7" d="M759.95,703.47l-40-1.01c2.73-8.93,3.17-19.12,5.49-28,1.16-4.43,5.79-16.16,8.09-19.91,2.5-4.06,8.44-6.18,11.65-9.07,4.91-4.41,10.13-10.4,13.76-16.02h1c.34,24.63,0,49.36,0,74Z"/><path class="cls-10" d="M744.95,611.47c1.01,7.09-4.23,15.5-12,14-8.6-2.01-10.13.82-14.5-8.98-1.22,3-5.43,2.41-6.59,3.62-1.64,1.7-1.64,7.1-1.91,7.37-.71.71-4.76-.93-6-1.01-.55-.4-1.62-1.94-2-2,4.27-2.65-1.48-3.82-.95-9.38.87-9.03,6.51-8.19,11.87-11.19,2.53-1.41,3.97-4.42,7.8-5.2,8.77-1.79,15.47.84,21.24,7.3,1.52,1.7,2.5,4.87,3.03,5.47Z"/><path class="cls-11" d="M701.95,624.47c.38.06,1.45,1.6,2,2-5.15-.31-6.24.27-10.7,1.8-1.69.58-2.55,2.69-2.3-.8,3.69-1.17,5.23-3.96,11-3Z"/><path class="cls-11" d="M240.95,434.47v71c-2.55,18.12-11,30.9-29.76,34.74-47.73.18-95.52.65-143.24.26l-37-35c54,4.13,113.07-3.15,167.61.07,1.57.54,2.56-.77,3.39-1.07.88-.32,2.81-.75,3.03-1.67.44-1.86.04-6.92-.97-8.63-.34-.57-9.62-6.26-11.14-7.11-1.63-.9-3.93-.71-5.25-1.51-3.33-2,.23-19.21.38-23.54.26-7.56.21-15.98-.04-23.54,2.55-6.86,9.78-11.77,14-17,12.69-.14,25.61.11,37.99,2,.04-5.32-.01-10.68,0-16,0-.33,0-.67,0-1h1c.04,9.32,0,18.68,0,28Z"/><path class="cls-10" d="M187.95,401.47c1.84.15,3.14-.94,3.01,1.49-.51,9.49-12.96,25.79-21.01,30.51-.35.2-1.82-.6-2.05.62-.16,8.29.37,16.64.05,24.92-.08,1.92,1.03,4.01-2,3.45-.35-2.32-5.83-6.34-7.76-6.82-2.96-.74-16.05,7.99-20.72,9.84-18.22,7.23-41.32,9.81-60.73,16.27-1.61.54-23.52,8.44-21.8,9.69,16.65-.14,33.35.23,50,0l62.35.05,2.65-5.05c.65,6.15,1.74,2.61,4.26,3.18,1.35.3,2.57,2.19,4.44,2.63,3.11.73,6.99-.26,10.29,1.19l-1.01-4.99-1.48,1.99c-6.06-2.66-4.37-8.57-4.51-14,1.82-13.18-.54-28.92,5-41,1.3.48.96,1.9,1,3,.25,7.56.3,15.98.04,23.54-.15,4.33-3.71,21.54-.38,23.54,1.33.8,3.63.6,5.25,1.51,1.52.85,10.81,6.54,11.14,7.11,1.02,1.71,1.42,6.77.97,8.63-.22.92-2.15,1.35-3.03,1.67-57.62-.88-115.4,1.18-173,0-8.55-.18-19.52,2.28-13.39-10.89,3.49-7.49,9.75-4.14,13.74-7.02.97-.7.83-2.92,2.05-4.16,9.77-9.85,35.89-21.77,49.23-27.79,10.69-4.83,33.95-11.17,41.73-16.27,4.23-2.77,8.05-12.03,13.63-14.87.52.08,1.52.1,2,0,.54-.11.87-.48,1-1,5.35-.63,10.51-1.93,14.03-6.74,4.04-5.53.54-8.55-.03-13.74-.4-3.69.65-5.03,1-7.52,3.45.19,3.81,3.64,6.03,5.47,4.31,3.53,12.15,4.35,17.52,3.59,3.91-.56,4.88-2.51,10.45-2.05ZM197.94,495.47l-177,1.5,3.46,2.54c47.99-.92,96.18.59,144.01.99,9.95.08,19.63-.7,29.55-1.05-.16-.97.25-3.73,0-3.99Z"/><path class="cls-7" d="M145.95,372.47c0-.12.98-.68.84-2.19-.26-2.81-6.17-14.44-4.84-15.81,4.37-.21,9.18.78,13.27-1.23,2.81-.2,5.42-8.64,7.21-7.76,3.07,1.51,1.75,14.44,3.73,15.79,1.05.72,3.8.03,5.77,1.72s1.72,4.99,2.15,5.35c.52.43,3.47.09,4.92.57,4.04,1.35,7.81,3.53,11.94,4.56.88-.87-7.77-20.74-9-22.99l58,57c-.02,5.32.03,10.68,0,16-12.38-1.89-25.3-2.14-37.99-2,1.68-2.08,2.22-4.9,3-6,.64-.89,3.07-1.94,4.87-5.63.37-.75,3.77-6.91.64-6.38-1.32,4.4-3.75,8.36-6.51,12.01-5.32,7.03-13.22,11.74-17,20-5.54,12.08-3.18,27.82-5,41-.05.35-1.34,1.46-1.04,2.42l.03,6.58-2-11.99c-3.9.98-3.56,5.56-8.99,3.99-.36-14.64.27-29.36,0-44,8.05-4.73,20.5-21.03,21.01-30.51.13-2.43-1.16-1.33-3.01-1.49-1.74-1.57-4.32-.88-6.73-1.77-9.63-3.59-14.33-17.79-14.28-27.23-3.71,3.76-8.42,9.49-10.99,14,.13-3.56.8-7.09-2.83-8.88s-7.28.21-7.17-5.12Z"/><path class="cls-10" d="M181.95,350.47c1.22,2.26,9.87,22.13,9,22.99-4.13-1.03-7.91-3.21-11.94-4.56-1.45-.48-4.4-.14-4.92-.57-.44-.36-.23-3.7-2.15-5.35s-4.72-1-5.77-1.72c-1.98-1.35-.66-14.28-3.73-15.79-1.79-.88-4.4,7.56-7.21,7.76-4.09,2.02-8.9,1.02-13.27,1.23-1.33,1.37,4.59,13,4.84,15.81.14,1.51-.84,2.07-.84,2.19-4.89.26-12.44-4.62-14.85-8.65-6.66-11.17,6.69-30.4,18.6-32.13,4.12-.6,14.97,3.44,19.23,5.3,6,2.6,9.99,7.92,13.01,13.49Z"/><path class="cls-2" d="M187.95,401.47c-5.56-.46-6.54,1.49-10.45,2.05-5.37.77-13.21-.06-17.52-3.59-2.23-1.83-2.59-5.28-6.03-5.47.59-4.09-.38-3.82,2-8,2.57-4.51,7.28-10.24,10.99-14-.05,9.44,4.65,23.63,14.28,27.23,2.41.9,4.99.2,6.73,1.77Z"/><path class="cls-7" d="M240.95,406.47h-1c.08-20.98-.06-42.02,0-63,2.82,20.07.9,42.47,1,63Z"/><path class="cls-7" d="M137.95,423.47c.09-.49.53-.95,1-1-.13.52-.46.89-1,1Z"/><path class="cls-6" d="M464.95,67.47c10,8.43,18.22,20.74,27.01,30.49,1.17,1.3,2.02,2.47,3.99,2.51-.05,45.49.04,91,0,136.5-4.05,14.06-17.38,25.3-32.46,25.54-48.5-.51-97.05.54-145.54-.04-6.29-10.81-19.19-16.81-27.57-25.96-1.57-1.72-1.21-3.75-1.43-4.04,6.15-.21,12.38.28,18.54.04,49.45-1.91,99.46-1.33,148.92,0,6.35.17,23.27,2.16,21.38-8.3-.93-5.18-6.03-4.53-9.84-4.74-4.75-3.49-15.14,2.62-17-4,0-.33.04-.68,0-1-.15-1.31-.71-1.41-1-2-.66-1.37-5.38-7.32-6.27-7.72-1.52-.68-3.16-.2-4.73-.28-6.76-2.29-14.91-.38-21.99-1.01l4.99-2.99c20.13-.53,40.36.39,60.51,0,1.82.35,4.23-4.34,3.49-5-1.65-.08-3.34.08-5,0l-.5-.98-.5.98c-1.33-.04-2.67.02-4,0-3.04-2.2-8.21-.5-12-1-.2-.61-.15-4.61.1-4.9.91-1.1,18.23-4.4,21.35-9.15,3.8-5.79-.3-29.14-2.96-35.93-13.1-33.46-52.49-1.03-74.48,2.99.76-6.46-5.44-12.34-6.99-17.53-.96-3.2,7.03.27,8.59.41,15.36,1.42,35.49-6.78,44.45-19.35,1.25-1.76,5.55-9.35,6.43-11.55,4.2-10.51,3.14-25.7-1.49-35.99,2.35.36,4.21,2.49,6,4Z"/><path class="cls-10" d="M458.95,63.47c4.63,10.29,5.69,25.48,1.49,35.99-.88,2.2-5.17,9.8-6.43,11.55-8.96,12.57-29.09,20.77-44.45,19.35-1.56-.14-9.55-3.61-8.59-.41,1.55,5.18,7.76,11.06,6.99,17.53,21.99-4.02,61.38-36.45,74.48-2.99,2.66,6.8,6.76,30.14,2.96,35.93-3.11,4.74-20.43,8.05-21.35,9.15-.25.3-.3,4.29-.1,4.9.57,1.76,9.51.97,12,1,1.33.02,2.67-.04,4,0,.33.01.67-.02,1,0,1.65.09,3.34-.07,5,0,.75.66-1.67,5.35-3.49,5-20.15.38-40.38-.54-60.51,0-6.56.17-15.41-1.62-20,3.99,12.27.49,24.75-.63,37,0,1.57.08,3.22-.4,4.73.28.89.4,5.6,6.35,6.27,7.72l1,2c.04.32,0,.67,0,1-.02.93-1.45,3.59-1,3.99,5.96.25,12.04-.32,18,0,3.82.21,8.91-.44,9.84,4.74,1.89,10.46-15.03,8.47-21.38,8.3-49.46-1.33-99.47-1.91-148.92,0-6.16.24-12.39-.26-18.54-.04-.37-.5-3.98-.56-4.82-4.74-1.91-9.43,9.32-8.79,15.83-9.26-1.45-8.06.33-20.05-1.05-27.46-.21-1.12-5.36-9.18-5.95-9.55,6.03-1.13,1.4-7.48,1-12-.53-5.98,1.77-9.41,2-14,3.7-10.74,11.73-21.55,23-25,6.86-2.1,15.85-2,23-2.01-6.63-10.55-22.92-11.7-33-5.99-11.34,6.42-13.41,16.78-14,29-.59-.94-4.25-3.66-4.97-4.75-.79-1.19-4.38-8.65-4.03-9.24.06-.1,1.12-.36,2-1.01.18-.13,1.22.34,1.75-.22,1.06-1.1,3.21-9.09,6.26-12.28,3.42-3.58,17.37-8.02,22.5-8.5,4.23-.39,12.75.07,16.49,1.99,1.14.58,11.61,11.1,12.99,12.79,2.85,3.49,6.97,10.17,9.01,14.21,8.97,17.71,12.23,37.51,15,57-.11,0-1.32,1.61-1.99,1.01-.18-.17-.41-3.1-2.04-4.49-4.29-3.65-16.71-2.72-21.98-1.52l-11-25c.69-2.61,2.25-5.61-1-7-.13-3.35-1.38-11.63-4.7-12.82-7.38-2.63-1.64,8.61-3.36,11.17-3.67,5.46-13.01,2.53-15.93,7.63,1.1,0,2.01.63,2.99,1.01.99,3.07-2.87,2.02-5,1-3.09-1.48-3.73-5.66-6.99-7-.65,2.97-2.95,16.58-1,17.99,1.83,1.33,5.98-7.31,6.99-9l1,3c-.35.31-.63,1.43-1,2-.77,1.2-2.79,5.39-2.95,6.56-.52,3.86-.12,8.7-.05,12.44.13,6.65-.1,13.35,0,20,2.48,2.08,21.24.79,22,0,2.6-2.71-6.91-4.98-3-7.99,13.42,8.2,32.71,9.57,48.22,7.72s25.76-13.97,36.78-23.72c4.55.94,9.21-.17,14,0,1.33.05,2.67-.04,4,0,.18,0,1.58,1.03,3.38,1.07,6.87.16,23.14,1.04,28.9-.29,3.78-.87,5-4.2,4.71-7.79,2.44-.39,17.14-8.48,17.81-10.69,2.34-7.68-2.63-22.9-5.86-30.27l-2.92.48-47.03,29.47c-5.57.8-10.1,1.03-15,4l-2.47-23.03c-1.51-7.89-3.93-13.01-7.53-19.97-8.41-16.24-28.02-26.69-32-44-8.36-36.39,28.14-67.29,63.69-54.19,10.19,3.75,22.82,14.21,27.31,24.19ZM409.95,40.47c-3.56.55-4.74.99-8,2-8.32,2.59-8.3,2.25-15,8-10.97,9.42-15.32,18.24-15,33,.01.66-.05,1.34,0,2,2.52,32.75,41.2,52.43,68.91,31.41,37.13-28.16,9.75-82.68-30.91-76.41ZM444.95,218.47c1.19-8.02-3.65-9.46-10.47-10.03-5.57-.47-32.38-.67-35.91,1.16-2.41,1.25-7.51,6.63-9.63,8.87h56ZM290.95,223.47c-.03.33.04.67,0,1-.15,1.3.08,2.7,0,4.01l175.55.04c3.92.92,4.74-5.3,1.87-5.93-.73-.16-3.28.9-4.88.93-50.1,1.06-101.37.26-151.54-.05-5.05-.03-10.6-1.19-15-1-1.88.14-4.88-.77-6,1Z"/><path class="cls-8" d="M367.95,93.47c3.98,17.31,23.59,27.76,32,44-3.74-.69-7.57,2.49-10.73,2.79s-7.2.96-9.83,1.16c-5.63.42-14.07-.93-18.95.04-1.89.38-2.4,1.73-3.49,3.01-2.04-4.04-6.16-10.72-9.01-14.21-1.38-1.69-11.85-12.21-12.99-12.79,1.26-3.61,5.15-7.92,8.24-10.32,6.75-5.26,14.17-8.52,21.97-11.77,1.04-.43.84-2.49,2.78-1.91ZM365.94,107.48c-4.08-.69-22.32,7.66-23.51,9.97-.65,1.26-.5,2.68-.47,4.02l23.99-13.99Z"/><path class="cls-4" d="M495.95,50.47c-.04,16.65.02,33.35,0,50-1.97-.04-2.81-1.21-3.99-2.51-8.79-9.75-17.01-22.06-27.01-30.49,11.73-.97,19.9-13.72,31-17Z"/><path class="cls-6" d="M287.95,136.47c-.88.66-1.94.92-2,1.01-.36.59,3.24,8.05,4.03,9.24.72,1.08,4.38,3.81,4.97,4.75.77,1.23,1.07,2.55,1,4-.23,4.59-2.53,8.02-2,14-2.94-.81-4.36-3.64-6.38-5.6-.48-.47-1.48-.26-1.62-.4-.87-.85-7.58-9.04-7.74-9.74-.87-3.81.06-8.33-.26-12.26.54-.71.04-2.29,2.02-3.46s5.68-1.39,7.98-1.54Z"/><path class="cls-4" d="M268.95,139.47v-4c0,1.13,0,2.95,0,4Z"/><path class="cls-6" d="M451.95,645.47c.86.44.71,1.44,1,2-.04,34.07-10.55,65.56-40.69,83.81-15.22,9.22-50.75,23.75-66.72,12.26-1.48-1.06.66-2.78.42-4.07,4.64,1.05,7.21-5.14,10.31-7.68,32.56-26.67,64.07-57.53,95.69-86.32Z"/><path class="cls-11" d="M462.95,632.47c-3.17,4.73-8.42,8.33-11,13-31.62,28.79-63.13,59.66-95.69,86.32-3.1,2.54-5.67,8.73-10.31,7.68-1.78-.4-13.57-11.4-13.9-12.71-.66-2.63,5.85-11.19,7.9-13.29.15-.16,2.8-.87,3.66-2.33.56-.96.11-2.4.69-3.33.82-1.33,12.29-5.76,15.98-8.51,11.9-8.85,23.25-19.05,34.76-28.24,7.91-6.31,16.63-11.41,24.38-16.58,10.97-7.33,22.11-15.87,32.06-24.99,1.76-1.62,4.17-3.48,4.48-6.02,2.66,3.3,4.58,5.55,7,9Z"/><path class="cls-1" d="M465.95,686.47v66c-3.36.03-7.26,1-7.05-3.45l1.04-62.55h6.01Z"/><path class="cls-8" d="M215.95,92.47c-2.72-2.68-4.57-.39-2.22-7.72.7-2.19,6.05-9.93,7.74-11.25s3.78-.83,5-2c2.11-2.01,2.86-14.71,8.5-13.61,3.37.66.33,4.71,4.97,3.59.04,54.38,1.91,110.87,0,165l-24-1v-17c0-.94,12.98,2.27,10.94-11.43-.57-3.85-4.16-8.48-7.94-9.57,2.71-14.2-5-32.33-14.49-43.01-1.26-1.42-5.42-6.89-7.51-3.99-4.49-8.91-18.23-18.95-28-21-1.03-4.25,3.67-3.53,6.32-5.18,6.85-4.24,9.18-4.53,15.46-7.55,1.73-.83,1.96-3.02,2.92-3.28,5.68-1.55,16.37,1.99,22.29-.99.07-.01.77-.77,1-1,.29-.29.91-.56,1-1,.54-2.65-.05-6.07-2-8Z"/><path class="cls-3" d="M199.59,43.82c4.31,4.31,6.02,11.03,5.26,17.05s-3.75,6.12-9.42,6.58c-3.23.26-23.09-.85-24.25-2.22-1.29-1.53-2.35-8.72-2.02-11,2.01-13.86,19.82-21,30.43-10.4Z"/><path class="cls-3" d="M126.95,66.47c.81-.21,4.35-.94,5-1,11.73-1.06,23.57,1.48,35.31,1.19,4.81,2.2,5.35,10.81-.81,10.81h-42c-2.34,0-4.31-8.41-.47-10.51,1.13-.62,2.12-.27,2.97-.49Z"/><path class="cls-3" d="M215.95,92.47c1.95,1.93,2.54,5.35,2,8l-1,1c-.23.23-.93.99-1,1-4.06.82-24.89.55-29.44-.09-4.83-.69-6.06-5.35-2.52-8.37,4.23-3.61,25.41-.47,31.96-1.53Z"/><path class="cls-3" d="M100.95,74.47c1.68,1.21,2.83,5.29,1.57,7.07-1.51,2.12-17.86.34-21.57.92-.06-.66.04-1.33,0-1.99-.14-2.54-.32-5.9,2.7-6.8,2.47-.73,15.39-.58,17.3.8Z"/><path class="cls-3" d="M135.45,85.47h16c3.19,0,2.12,7,0,7h-16c-1.73,0-2.43-6.01,0-7Z"/><path class="cls-8" d="M239.95,30.47c-.41-.2-.89-.57-1-1,.47.1.96.55,1,1Z"/><path class="cls-10" d="M629.95,49.47c.05.3.02.69,0,1,0,.14-1.01,1.11-1.05,2.41-.31,11.02-2.29,21.37-8.15,30.89-7.04,11.45-10.15,9.25-20.8,13.7-4.02,1.68-5.79,3.07-9,6h-1v-1c2.4-10.93,4.06-6.79,12.02-9.48s9.83-6.08,13.98-12.52c4.48-6.96,7.59-10.99,8-20,2.35-5.88.59-15.68-2.61-20.93-.8-1.31-2.03-1.6-2.39-2.07-2.77-3.66-3.78-6.75-9-8-.31-.07-.67.06-1,0-.61-2.35-2.44-1.63-4-2-7.91-1.89-9.15-2.88-17,0-5.48,2.01-5.12,2.06-9,6-9.02,9.17-11.65,18.84-6.01,30.94-6.38,2.07-8.62,5.08-11.99,10.06-5.32,7.87-4.56,8.47-5,18-.17,3.64.05,7.35,0,11-.13,8.64-.09,17.36,0,26l.23,147.27c1.81,4.17,3.66,9.04,8.49,10.51,9.63-.06,19.15-.65,28.8-.77,1.69-.02,4.45.64,5.49-1.02,1.18-.08,2.75.41,3.76-.22,2.05-1.29,10.77-17.49,12.24-20.78,9.62,4.96,18.35,12.32,29.99,10.99.39-2.02-1.83-2.62-2-4.52s1.26-4.13.99-6.88c-.67-6.86-5.76-5.74-10.67-8.42-3.8-2.07-8.73-4.77-11.32-8.18.34-1.33-.25-3.49,0-5,.32-.37,7.81,3.4,8.99,4,.29.15.89,1.6,2.25,2.21,15.36,6.85,35.04,5.67,50.75.79-6.5,5.92-12.74,12.29-18.98,18.5.02.56,7.16,4.9,8.45,6.54,2.81,3.57,2.49,8.45,5.04,11.96h30.5c.04-6.06-.85-11.94-1-18-.27-11.01-.33-22-.99-32.99l2.99,11.99c.33,12.07.28,25.48,4,37,.15.48-.2,1.34.01,1.96l13.98.03,6.01-65.99c2.14,13.9,2.68,24,1.99,38.49-.44,9.32-3.14,18.9-1.99,28.51h16.5c2.44,0,1.25,10.75,1.51,13.01h-188.01c-7.63-3.42-3.06-5.09-4.14-9.28-.62-2.39-6.82-5.7-7.8-12.29-2.33-15.64,0-42.44-.06-59.44-.18-44.15.12-88.33.02-132.48.83-5.27,1.92-10.64,4.79-15.21,1.93-3.07,8.39-7.99,8.99-10.01,1.88-6.34-1.12-12.66,2.71-21.29,10.63-23.99,41.57-25.28,55.3-3.3,1.07,1.72,5.99,11.06,6.2,12.3ZM591.95,292.47c-.67,0-2.56-1.05-4.43-1.04-2.26,0-20.43-.47-20.58.55-.1.74-.12,3.36,0,3.49.86.9,21.53,0,25,0,50.46.18,100.95-.15,151.42.01l.58-3.51c-49.13-.66-98.4-.84-147.58-.55-1.86.01-3.74,1.04-4.43,1.04Z"/><path class="cls-5" d="M623.95,185.47c.23,4.62,4.18,7.97,6.54,11.96,1.2,2.02,1.41,4.57,2.42,6.33.69,1.2,3.67,1.75,3.9,4.4.09,1.05-10.78,14.14-8.86,18.32-.37.22-.64.79-1,1-.29.18-1.32-.42-2.1.64-.54.73-.59,2.37-.9,3.36-1.97,6.17-2.72,12.68-4,19-1.66,4.57-3.03,9.59-5,14-1.47,3.29-10.18,19.49-12.24,20.78-1.01.63-2.59.14-3.76.22-2.83.2-6.12.07-9,0,.03-1.67-.05-3.34,0-5,2.91.97,2.74-3.31,1-5,.97-7.32.04-15.1.91-21.57.26-1.92,2.09-1.35,2.11-2,.03-1.16-1.18-2.95-1.11-4.92.08-2.39,1.78-4,2.04-6.06.47-3.82-.27-11.07.05-13.45,1.71-12.84,5.44-30.58,17-38,4.22-2.71,7.97-2.83,12-4Z"/><path class="cls-2" d="M646.95,72.47c-6.63,3.99-10.11,12.37-15.03,18.47-5.63,6.99-12.5,12.65-16.97,20.53-.92,1.62-2.05,2.49-2.77,4.73-3.06,9.43-1.92,54.42-1.27,66.81.12,2.22.85,4.27,1.04,6.46-11.56,7.42-15.29,25.16-17,38-.77-1.25-1.34-2.35-3-2-.44-3.29-1.73-5.05-2-10,.56.12,1.83-.18,2,0,.2.21-.25,1.72.04,1.96,2.62,2.15,3.79-6.79,3.95-8.47,2.88-31.46-2.09-67.11-.02-99.02l4.04-12.46c10.66-4.44,13.76-2.25,20.8-13.7,5.86-9.52,7.84-19.88,8.15-30.89.04-1.3,1.04-2.28,1.05-2.41,7.35,5.49,11.42,15.1,17,22Z"/><path class="cls-10" d="M700.95,116.47c.29,5.78,8.74,10.05,10.88,13.62,3.79,6.28,3.47,27.17-4.83,29.94-3.17,1.06-5.9-1.16-5.06,3.45-1.13.15-.93-.97-.99-1.01-1.19-3.62,2.87-15.59.07-17.57-5.12-3.61-7.12,4.55-7.68,4.64-1.48.24-5.43-1.81-7.88-2.08-4.1-.45-6.24.51-9.51,1-2.87.44-5.88,2.61-7.84-.66-2.62-4.37,1.63-6.43-8.17-5.34-.16,9.43-2.78,15.1,4.01,23l-2.09,8.92c-.22.2-1.8-.99-1.91-.92l-2.01-16c-4.09,1.53-7.25,3.82-11.99,3-3.6-2.81-7.45-1.7-9.79-7.71-1.74-4.47-2.14-20.6-.08-24.66,2.41-4.74,5.83-3.56,7.67-4.82.43-.29,2.01-7.04,3.95-9.56,6.44-8.35,21.21-13.51,31.49-11.99,11.64,1.72,14.34,8.17,21.76,14.74ZM693.95,113.47c-8.35-14.99-43.51-9.3-45,9.99l8.48,3.03c.56-.01,1.51-5.11,2.47-6.36.78-1.01,1.89-.52,2.05-.66,2.13-.24,2.24-.13,2,2-4.29,3.55-4.31,7.59-4,13,8.34,1.66,16.8-3.82,24.5-4.07,4.99-.16,11.44,1.45,16.5,2.06.7-5.42-.7-12.35-5.99-15,.48-1.92-.21-2.59-1-4Z"/><path class="cls-9" d="M742.95,161.47c-4.76.78-3.72,6.84-5.99,10.51-3.78,6.14-12.92,10.55-13.01,18.49-.36-.28-1.59-.91-2-1,.43-2.81-.96-1.63-2-2-5.2-1.83-11.01-2.43-16-4-3.58-1.13-6.25-3.72-10-4-.19-.45-1.18-.84-1-2,.12-.82,4.07-6.99,5-10,.09-.3-.08-.68,0-1,1.84-.52,2.17-2.26,2-4,.23.15.75-.15,1,0,.06.04-.13,1.16.99,1.01-.84-4.61,1.89-2.39,5.06-3.45,8.3-2.77,8.62-23.66,4.83-29.94-2.15-3.56-10.6-7.84-10.88-13.62,17.51,15.51,27.33,26.93,42,45Z"/><path class="cls-11" d="M692.95,177.47c-.18,1.16.81,1.55,1,2,.14.34-.27,1.28.21,1.76.95.97,3.52.58,3.84,1.9.69,2.79.01,12.14-.03,15.86-.02,1.69.64,4.44-1.02,5.49.07-1.66-.04-3.35,0-5-2.63,1.84-4.27-.81-6.54-.97-7.24-.52-15.95,3.89-23.39-1.58-2.23-1.64-2.39-4.52-5.06-4.44.1-.83.1-2.16,0-3-.23-1.88.76-2.29-2-2-.55-4.09-1.05-6.11-2-10-.14-.59.16-1.46,0-2,2.42.76,1.85-1.91,2-2,.11-.07,1.68,1.11,1.91.92l2.09-8.92c6.13,7.14,19.52,13.18,29,12Z"/><path class="cls-9" d="M614.95,111.47c4.47-7.87,11.34-13.54,16.97-20.53,4.92-6.1,8.39-14.49,15.03-18.47,3.14,3.88,8.6,8.38,11.97,12.53,11.03,13.56,4.67,8.98-7.22,11.73-7.11,1.64-10.14,5.14-16.07,7.93-6.4,3.01-13.9,4.76-20.69,6.81Z"/><path class="cls-7" d="M639.95,182.47c2.86,9.86,3.15,21.26,0,31-.95,2.95-1.93,5.63-4,8-2.59,2.97-5.32,3.44-8,5-1.92-4.17,8.95-17.27,8.86-18.32-.22-2.65-3.2-3.2-3.9-4.4-1.02-1.76-1.23-4.3-2.42-6.33-2.35-3.99-6.31-7.34-6.54-11.96,5.87-1.7,9.52-1.87,16-3Z"/><path class="cls-5" d="M657.95,177.47c.95,3.89,1.45,5.91,2,10,.25,1.85-.79,2.3,2,2,.1.84.1,2.17,0,3-.29,2.3-1.89,5.27-1.77,6.3.31,2.52,6.58,7.99,5.76,8.7h-12c.22,2.92-.3,6.15,0,9.01h-1c-.16-2.03-.74-3.98-1-6-.08-.65.09-1.35,0-2-1.22-9.01-3.17-18.1-5-27,4.04-.98,7.16-4.19,11-4Z"/><path class="cls-10" d="M646.95,181.47c1.83,8.9,3.78,17.99,5,27l-.88.63.88,1.37c.26,2.02.84,3.97,1,6,.08.98.6,3.3-.99,3,2.05-5.07-4.67-7.69-8.63-8.02-1.94-.16-1.04,2.68-3.38,2.03,3.15-9.74,2.86-21.14,0-31,1.83-.32,6.64-.91,7-1Z"/><path class="cls-8" d="M611.95,123.47l12.01.51c-1.81,4.14-4.79,8.73-5.9,13.1-1.59,6.29,1.27,15.92-6.11,16.39v-30Z"/><path class="cls-11" d="M197.95,620.47c-.34,2.56.54,5.94-.03,8.3-.16.67-1.49.68-1.63,1.03-2.15,5.37-2.2,4.12-5.92,8.12-.58.62-.37,1.5-.44,1.54-.45.27-6.67-3.99-9.98-1.98-.73,2.36,1.96,3.74,2.03,5.49.03.66-1.86-.06-2.12,1.93-.9,6.7-.85,30.36,0,37.14.24,1.91,1.92.95,2.16,2.87.63,4.98.36,16.33-.08,21.57-.39,4.72-2.77,11.94-3.02,17.53-.68,15.51,13.97,5.2,19.48,12.54.76,1.02.33,2.61.53,2.93-2.84,3.04,1.5,10.08-3.5,11l-154.08.09c-1.38.09-1.64-.84-1.42-2.09-.06-4.9-2.66-9.37,2.32-12.67.26-.17,4.78-2.03,5.68-2.33l75.06-1.44,6.94-50.56v-2s-16,1-16,1c-3.29-1.63-8.13-7.53-11-9,4.46-.13,3.35-7.23,8-6,3.34,6.36,9.79,13.57,17.52,13.03,2.76-.19,4.6-10.93,5.48-14.03,1.63-5.76,3.72-11.83,3.99-18-3.54,1.44-3.92,12.24-8.99,9-3.15-2.34-4.66-5.99-7-9,3.07-12.28,24.94-23.88,36.31-18.81,4.99,2.23,1.65,17.11,1.69,21.81-1.08,1.95-1.85,5.49-3,8-5.21,11.34-9.93,17.17-11,30-.4,4.81-.71,5.11-2,9-1.58,4.77-12.42,32.46-10.58,35.03,1.17,1.63,30.86,1.06,35.57,1.96-.36-2.34-.7-4.64-1-6.99-.95-7.59-1.68-13.24-2-21-.14-3.3.62-8.55-.02-11.31-.19-.81-1.81-.27-2.06-2.12-1.28-9.79,1.11-22.44.08-32.57.15-.13,1.15.44,2.06-.64,2.82-3.32,2.52-11.73-.06-15.36.35-3.16-.98-13.14.95-14.58,1.15-.85,5.45.87,8.29.37,8.33-1.47,9.36-7.44,22.76-8.79ZM124.95,749.47c1.33.87,15.94-.65,19,0,2.39-8.64-6.6-14.93-14.5-15.08s-5.09,5.9-8.13,6.94c-2.79.95-8.16-.4-11.36.14-.44,2.63.42,1.77,2.16,2.28,3.29.96,8.52.77,11.26,2.83,1.53,1.14,1.43,2.8,1.57,2.89Z"/><path class="cls-10" d="M198.95,739.47c.3.47,7.5,4,9.43,6.07s9.67,12.23,10.33,14.67c3.25,11.93,1.35,20.88-10.52,26.07-32.18-5.56-65.03-8.97-97.78-8.86-14.88.05-47.86,3.68-59.46-3.96-2.59-1.7-4.94-5.26-7.26-6.24-6.02-2.55-9.22,2.91-9.79-6.21-.39-6.25,0-9.78,6.04-12.55-.22,1.25.04,2.18,1.42,2.09l154.08-.09c4.99-.92.66-7.96,3.5-11Z"/><path class="cls-6" d="M199.95,620.47c.44,6.4,3.15,13.43,3.03,18.45-.25,9.5-5.31,23.2-6.92,33.16-1.27,7.85-.63,7.1-3.3,14.7-1.86,5.32-3.75,14.19-2.81,19.69-1.51.1-5.86,2.84-8,0,.43-5.24.71-16.58.08-21.57-.24-1.91-1.92-.95-2.16-2.87-.86-6.78-.91-30.44,0-37.14.27-1.99,2.15-1.27,2.12-1.93-.07-1.75-2.76-3.13-2.03-5.49,3.31-2.01,9.52,2.25,9.98,1.98.07-.04-.14-.92.44-1.54,3.72-4,3.77-2.74,5.92-8.12.14-.34,1.47-.36,1.63-1.03.57-2.36-.31-5.74.03-8.3.65-.07,1.5.15,2,0Z"/><path class="cls-6" d="M239.95,603.47c-1.36-.49-.88-1.93-1-3l1,3Z"/><path class="cls-1" d="M127.95,631.47l-8,12c-.13-.09-.66,0-1,0-2.91-.04-10.37,5.35-11,8-1.94.08-3.81-.4-5.7.33-5.9,2.29-16.38,10-21.3,15.67-.84.96-2.39,1.34-3.42,3.07-6.65,11.1-.86,26.38,7.42,34.93-2.64,1.84-7.54.98-11,1-1.04-1.66-3.8-1-5.49-1.02-16.51-.2-34.84,1.2-51.03.02-1.49-.11-2.89.78-2.48-1.49,2.95-4.68,8.23-7.78,11.52-11.49,6.84-7.71,10.83-13.91,18.5-21.5,9.9-9.8,19.87-19.49,31.64-27.36,5.99-4.01,37.86-15.28,43.31-12.67.93.45,1.71,2.24,2.66,2.41.28.05,4.47-1.59,5.37-1.91Z"/><path class="cls-10" d="M159.95,600.47c-.36,6.78-1.64,8.88,4.66,12.84,7.29,4.59,21.93,4.09,29.89,1.21,5.15-1.86,4.05-1.87,3.45-7.05.31.22,1.77-.62,2.05.58.67,2.84-.3,8.88-.05,12.42-.5.15-1.35-.07-2,0-13.4,1.35-14.43,7.31-22.76,8.79-2.84.5-7.14-1.22-8.29-.37-1.94,1.44-.6,11.42-.95,14.58-.53,4.8-3.29,13.65-7,17-1.13-.54-2.66,1.02-2-3,1.15-2.51,1.92-6.05,3-8,.05-.09,1.74.45,2.03-.65.49-1.89.18-17.57-.55-19.33-2.85-6.85-12.36-2.2-17.48-5.02,5.96-1.34,11.82-1.23,18-1,3.57.13,9.03,1.97,12.37,1.7,1.63-.13,7.34-2.51,3.17-3.73-4.79-1.4-10.38-1.82-14.54-4.97-3.11-2.35-4.62-5.29-5-9-.15-1.47-.33-5.2-.04-6.37s1.89-.48,2.04-.63Z"/><path class="cls-2" d="M186.95,590.47c3.69,1.57,10.15,7.02,11,11l-2,1c-5.97-8.37-19.58-14.58-29.35-8.85-2.77,1.62-4.5,4.67-6.65,6.85-.15.15-1.75-.57-2.04.63s-.11,4.89.04,6.37c-4.05-1.31-.2-9.2,1.14-11.36,5.43-8.75,19.19-9.34,27.86-5.64Z"/><path class="cls-2" d="M143.95,624.47c5.11,2.82,14.63-1.83,17.48,5.02.73,1.76,1.04,17.44.55,19.33-.29,1.11-1.97.56-2.03.65-.04-4.7,3.3-19.58-1.69-21.81-11.37-5.07-33.24,6.53-36.31,18.81-.62-.79-1.85-2.9-2-3l8-12c5.71-2.01,9.5-5.54,16-7Z"/><path class="cls-1" d="M162.95,616.47c4.17,3.15,9.75,3.57,14.54,4.97,4.18,1.22-1.54,3.6-3.17,3.73-3.34.26-8.81-1.57-12.37-1.7l1-7Z"/><path class="cls-3" d="M34.28,59.13c-10.3-10.3,3.33-27.97,16.99-19.49,15.93,9.89-3.84,32.64-16.99,19.49Z"/><path class="cls-3" d="M105.69,36.7c17.07-2.94,20.37,21.26,5.31,23.33-17.37,2.39-18.81-21.01-5.31-23.33Z"/><path class="cls-2" d="M197.95,602.47l4.05,7.45c-.45,2.92,1.38,9.54-2.05,10.55-.24-3.54.72-9.58.05-12.42-.28-1.2-1.75-.36-2.05-.58-1.65-1.17-.7-2.47-1-3,.93-.31.99-1.14,1-2Z"/><path class="cls-10" d="M197.95,601.47c.06.29,0,.69,0,1-.01.86-.07,1.69-1,2-.37-.65-.8-1.72-1-2l2-1Z"/><path class="cls-6" d="M495.95,410.47c-.17,7.7.14,14.27-1,22-.28,1.91-2.74,5.72,0,8,0,3.99,0,8.01,0,12-1.64,1.01-1.61,5.05,0,6,.09,5.65-.07,11.35,0,17-9.47-1.83-6.58,3.05-10.53,7.96-2.05,2.55-8.02,5.41-9.52,7.48-1.2,1.66-1.01,4.02-2.07,5.93-3.38,6.1-13.71,8.82-18.41,12.59-1.22.98-1.66,3.01-2.97,4.03-2.59,2.04-11.03,7.2-11.28,9.69-.22,2.25,1.33,4.79-.22,7.31-16.53.19-33.32.94-50,1-.05-2.1-3.41-4.18-4.99-5.51-16.48-13.86-32.18-28.51-47.01-43.49,37.99,24.91,83.99,18.44,112.97-16.53,24.47-29.53,23.61-67.62,4.03-99.47,9.23,9.29,19.42,18.93,27.49,30.01l13.51,13.99Z"/><path class="cls-10" d="M398.95,331.47c24.12,2.89,40.13,19.03,56,35,19.58,31.85,20.44,69.94-4.03,99.47-28.98,34.97-74.98,41.44-112.97,16.53-18.49-18.67-31.5-30.81-35-59-.04-.33.03-.67,0-1-.16-1.57,0-3.38,0-5-.13-30.41,15.8-59.46,42-75,14.95-8.87,36.77-13.06,54-11ZM307.95,413.47c-.97,45.32,37.88,80.94,82.55,79.05,40.71-1.72,74.66-38.65,74.45-79.05-.22-42.22-36.94-78.02-79-78-41.76.02-77.12,37.01-78,78Z"/><path class="cls-6" d="M299.95,531.47c-2.43-.14-5.19-.05-7-2,2.3.43,5.15.3,7,2Z"/><path class="cls-4" d="M302.95,423.47l-.98-.5.98-.5c.03.33-.04.67,0,1Z"/><path class="cls-9" d="M240.95,505.47v-71c1.66,1.04,1,3.79,1.02,5.49.25,20.1,1.69,46.3-1.02,65.51Z"/><path class="cls-4" d="M78.45,186.47c-14.13-1.56-29.13-14.93-33.98-28.02-2.2-5.94-5.79-23.43,1.51-26.46,1.75-.73,28.73-1.38,29.87-.42,1.4,18.32,11.3,32.69,30.1,35.89v19c-8.78-.7-18.89.95-27.5,0Z"/><path class="cls-7" d="M164.95,123.47c2.62,3.64,8.54,6.01,11.01,9.49,5.69,8.04,11.34,26.13,5.82,34.84-7.54,11.89-20.38,12.75-33.48,9.82-7.11-1.59-9.96-6.29-16.35-8.15-1.04-2.18-1.27-2.51-2-5-1.17-2.66,1.84-3.02,1.98-3.69.49-2.32-.34-5.21.09-7.75.88-5.21,10-19.17,14.94-21.56,4.14-2,10.83-.85,9-8,2.25-.32,6.63-.21,9,0Z"/><path class="cls-4" d="M105.95,203.47l4-13c7.58.05,15.36.97,22.46,1.04,25.61.25,59.72-2.85,84.06-.06,6.42.74,7.99,6.83,4.49,11.53-38.19.84-76.71.56-115.01.49Z"/><path class="cls-3" d="M153.95,208.47v16.5c0,.11-1.39,1.5-1.5,1.5h-73.5v-14.5c0-.54,1.55-2.22,1-3.5h74Z"/><path class="cls-7" d="M111.95,105.47c4.13-.4,9.28,1.21,13,3-7.54,2.5-.36,7.83.03,10.54.84,5.7-8.55,18.6-10.47,24.52-4.32,4.45-24.32,2.87-30.57,4.93-.19-.31.32-1.53-.04-2.26-.88-1.79-1.65.47-1.96-4.74-.81-13.49,4.7-20.92,15.22-28.33,2.85-2.01,11.97-7.39,14.78-7.67Z"/><path class="cls-3" d="M109.95,190.47l-4,13c-25.09-.05-57.37,2.44-81.5,0-11.08-1.12-7.7-11.9,2-13,23.68-2.67,58.62-.16,83.5,0Z"/><path class="cls-11" d="M164.95,123.47c25.02,2.17,39.53,29.55,25.97,51.47-7.06,11.43-16.63,13.19-29.46,12.52-14.82-.78-23.17-4.65-29.51-17.99,6.39,1.86,9.24,6.56,16.35,8.15,13.1,2.93,25.94,2.07,33.48-9.82,5.52-8.71-.13-26.8-5.82-34.84-2.47-3.48-8.39-5.85-11.01-9.49Z"/><path class="cls-11" d="M124.95,108.47c3.75,1.8,15.02,12.39,14.98,16.53-.02,2.06-5.07,4.88-6.96,6.98-7.17,7.98-10.07,16.46-9.19,27.32-14.38,7.74-31.39,2.97-39.83-10.83,6.25-2.06,26.25-.48,30.57-4.93,1.91-5.92,11.3-18.82,10.47-24.52-.4-2.72-7.58-8.04-.03-10.54Z"/><path class="cls-1" d="M210.95,208.47v16.5c0,.11-1.39,1.5-1.5,1.5h-50.5v-18h52Z"/><polygon class="cls-3" points="73.95 208.47 73.95 226.47 24.95 226.47 25.95 208.47 73.95 208.47"/><path class="cls-6" d="M218.95,187.47c-9.36-2.69-23.11-.02-32.99-1.01.88-1.71,2.97-2.19,4.52-3.97,2.45-2.81,9.48-14.34,9.48-17.52v-16c0-.45-2.63-7.76-3-8.5,2.09-2.9,6.25,2.57,7.51,3.99,9.48,10.68,17.2,28.81,14.49,43.01Z"/><path class="cls-6" d="M110.95,167.97c.41-1.26,13.32-4.01,13.95-3.45,1.84,9.02,8.84,15.65,15.05,21.95h-29v-18.5Z"/><path class="cls-5" d="M111.95,105.47c-2.81.27-11.93,5.66-14.78,7.67-10.52,7.42-16.03,14.85-15.22,28.33-6.5-15.13,4.53-30.69,19.03-35.47,3.23-1.07,7.92-2.73,10.97-.53Z"/><path class="cls-1" d="M146.95,131.47c-4.93,2.39-14.06,16.35-14.94,21.56-.43,2.53.4,5.43-.09,7.75-.14.67-3.15,1.03-1.98,3.69-4.73-16.09.59-27.83,15-36,1.43.43,1.99,1.54,2,3Z"/><path class="cls-5" d="M155.95,123.47c1.83,7.15-4.86,6-9,8-.01-1.46-.57-2.57-2-3,3.24-1.84,6.63-4.38,11-5Z"/><path class="cls-11" d="M759.95,219.47c-.07,28.8.1,57.63-.06,86.44-4.67,14.28-16.46,24.55-31.45,26.55-42.16.02-84.34,0-126.49,0l-31.03-29.46c-2.21-1.41-4.48-1.42-6.97-2.54h188.01c-.25-2.25.94-13-1.51-13h-16.5c-1.15-9.61,1.55-19.19,1.99-28.51.69-14.49.15-24.59-1.99-38.49-.05-.33.05-.68,0-1h26Z"/><path class="cls-8" d="M494.95,475.47c.08,6.54,1.61,13.89,1,21l-1,3c-2.7,16.45-12.12,27.95-29,31l-1,1c-8.2.96-17.65-1.08-25-1,1.55-2.53,0-5.06.22-7.31.24-2.49,8.69-7.65,11.28-9.69,1.3-1.03,1.74-3.05,2.97-4.03,4.71-3.77,15.03-6.49,18.41-12.59,1.06-1.91.87-4.27,2.07-5.93,1.5-2.07,7.47-4.93,9.52-7.48,3.95-4.91,1.07-9.8,10.53-7.96Z"/><path class="cls-8" d="M494.95,458.47c-1.61-.95-1.64-4.99,0-6,0,1.67-.03,4.15,0,6Z"/><path class="cls-8" d="M494.95,440.47c-2.74-2.28-.28-6.09,0-8v8Z"/><path class="cls-6" d="M494.95,499.47l1-3c-.17,2-.97,2.84-1,3Z"/><path class="cls-6" d="M464.95,531.47l1-1c-.07.01-.24.91-1,1Z"/><path class="cls-10" d="M102.95,671.47c2.87,1.47,7.71,7.37,11,9,4.92,2.44,10.43-1.86,16,1l-6.94,50.56-75.06,1.44c2.67-.87,9.61-1.67,9.96-2.04.25-.25.6-5.22,1.04-6.96,7.43-1.49,15.11-1.25,22.58-1.96,1.29-.12,2.22-1.02,2.42-1.04,4.97-.51,9.71,0,15-1,.89-.17,4.47.15,3.51-2-.45-1-14.42-9.81-17.51-13-8.29-8.55-14.07-23.84-7.42-34.93,1.03-1.73,2.59-2.1,3.42-3.07,2.76-.03,5.49-.15,8.25.26,2.46.36,11.82,2.75,13.75,3.74Z"/><path class="cls-1" d="M82.95,719.47l1,2c-.2.02-1.12.92-2.42,1.04-7.47.71-15.16.47-22.58,1.96.27-1.08-.46-2.47.98-3.5,3.22-2.31,18.23-1.51,23.02-1.5Z"/><path class="cls-4" d="M98.95,720.47c-5.29,1-10.03.49-15,1l-1-2c5.08.01,11.53-.85,16,1Z"/><path class="cls-6" d="M573.95,491.47c37.77-1.91,79.87-.42,118,0,4.64.05,23.5-.94,25.75,1.25.84.82,1.35,3.52,2.25,4.74-49.3.58-98.7-.75-148,0v-6.01c.66-.05,1.34.04,2,0Z"/><path class="cls-2" d="M691.95,491.47c-38.13-.42-80.23-1.91-118,0v-1c37.48.37,75.02-.48,112.51-.02,1.69.02,4.45-.64,5.49,1.02Z"/><path class="cls-6" d="M566.95,497.47c-.33.02-.67-.03-1,0l.56-.72.44.72Z"/><path class="cls-8" d="M285.95,163.47c.14.14,1.13-.07,1.62.4,2.02,1.96,3.45,4.8,6.38,5.6.4,4.52,5.03,10.87-1,12-.3-.18-1.72.39-2.72-.24-3.18-2.01-5.33-8.39-6.63-11.47-.18-.42-1.53-.05-1.67-.79-.45-2.39,4.28-1.76,4.02-5.5Z"/><path class="cls-11" d="M687.95,421.47c1.15-.18,2.74,0,4,0,4.17,0,4.59-1.36,6,2s1.28,1.31,2,2c.5.48-.9.63,2,2,2.48,9.11-5.52,13.11-3.98,19.31.23.94,2.37-.14,1.98,5.69-.05.73.2,1.51-.02,2.3-.09.33-3.7,1.92-1.99,3.69.9.94,22.65.21,26.01,1,1.95,11.36-4.58,18.97-10.22,27.78l-135.82-.25c-10.45-5.09-16.26-16.04-15.98-27.53h69.51s2.5-4,2.5-4c.09.08,1.5.04,2,0,1.37-.12,1.39-.68,2-1,11.83-6.12,41.02-31.6,50-33Z"/><path class="cls-7" d="M697.95,423.47c2.31-.46,1.76,1.75,2,2,.43.45,1.17-1.05,2,2,3.56,1.68,1.02,1.27,2.08,3.19.55,1,1.74.89,1.9,1.51.4,1.65.37,9.92.11,11.87-.04.29-2.06,4.35-2.42,5.11-.21.45-2.67.66-1.66,3.32-.67,0-1.33,0-2,0,.38-5.83-1.75-4.75-1.98-5.69-1.54-6.21,6.46-10.2,3.98-19.31-2.9-1.37-1.5-1.52-2-2-.72-.69-.61,1.3-2-2Z"/><path class="cls-10" d="M637.95,454.47c-.61.32-.63.88-2,1l2-1Z"/><path class="cls-7" d="M455.95,623.47c-.31,2.55-2.71,4.41-4.48,6.02-9.94,9.12-21.09,17.66-32.06,24.99-7.75,5.18-16.46,10.27-24.38,16.58-11.52,9.18-22.87,19.38-34.76,28.24-3.7,2.75-15.16,7.18-15.98,8.51-.58.93-.12,2.37-.69,3.33-.86,1.46-3.51,2.18-3.66,2.33,16.78-30.87,46.29-49.24,72.47-71.03,9.93-8.26,18.86-18.03,29.05-25.94,9.09-7.06,9.87,1.26,14.47,6.97Z"/><path class="cls-7" d="M321.95,740.47c2.72,2.49,17.3,15.73,17.85,17.71,1.2,4.27-4.39,6.1-6.85,8.29.27-10-11-16.23-11-26Z"/><path class="cls-2" d="M709.95,738.47c-1.34-13.87,2.5-29.31,1.03-42.53-.33-2.96-2.58-11.2-5.03-5.47.32-4.36,1.51-2.39,2.3-4.23,2.82-6.61,6.69-15.08,8.7-21.77,1.24,2.53-.7,8.39-1.49,11.01-4.46,14.78-4.58,22.62-3.47,38.53l-2.04,24.46Z"/><path class="cls-11" d="M589.95,747.47c-.57-2.33.46-1.65,1.27-2.29,12.51-9.9,41.14-15.66,56.98-21.96,11.27-4.48,21.63-12.8,33.76-11.75l5,36h-97Z"/><path class="cls-11" d="M727.95,752.47c.14.14.2,4,0,4h-177c-.21,0,.02-3.07-1-4h178Z"/><path class="cls-11" d="M685.95,711.47c1.27-1.69,1.82.12,1.99,1.49,1.17,9.28,2.38,18.65,2.01,28.02-.05,1.21.75,3.72-.99,3.48l-3.01-17.49v-15.5Z"/><path class="cls-11" d="M705.95,744.47l7,4.99c-3.58.11-6.72,1.52-10.44.96-1.56-.24-7.75-4.32-8.35-5.19s-.05-2.01-.22-2.76c4.14.18,9.36,6.97,12,2Z"/><path class="cls-2" d="M695.95,683.47c-.36.79-.56,1.96-1,3-.1.23-1.81,1.08-2.52,2.96-1.39,3.7-2.03,9.98-2.49,14.04-1.82-.27-1.09-5.17-.97-6.48.41-4.6,1.5-12.67,6.98-13.51Z"/><path class="cls-11" d="M723.94,628.47c.31,1.38-.54,2.66-1.98,2.99v-2.99s1.98,0,1.98,0Z"/><path class="cls-2" d="M204.95,415.47c-.78,1.1-1.32,3.92-3,6-4.22,5.23-11.45,10.14-14,17-.04-1.1.3-2.52-1-3,3.78-8.26,11.68-12.97,17-20h1Z"/><path class="cls-11" d="M165.95,462.47c1.24,8.32-.92,19.35,0,28.01-19.19.25-38.43-.31-57.62-.08-1.82.02-3.2,1.07-3.38,1.07-16.65.22-33.35-.15-50,0-1.73-1.26,20.18-9.16,21.8-9.69,19.41-6.46,42.51-9.04,60.73-16.27,4.67-1.85,17.76-10.59,20.72-9.84,1.93.48,7.41,4.5,7.76,6.82Z"/><path class="cls-11" d="M197.94,495.47c.25.26-.15,3.02,0,3.99-9.91.35-19.6,1.13-29.55,1.05-47.83-.4-96.02-1.91-144.01-.99l-3.46-2.54,177-1.5Z"/><path class="cls-2" d="M169.95,433.47c.27,14.64-.36,29.36,0,44,.07,2.91-.3,6.2,0,9l-2.65,5.05-62.35-.05c.18,0,1.56-1.05,3.38-1.07,19.2-.24,38.44.32,57.62.08-.92-8.65,1.23-19.68,0-28.01,3.03.56,1.92-1.53,2-3.45.33-8.28-.21-16.64-.05-24.92.23-1.22,1.7-.42,2.05-.62Z"/><path class="cls-11" d="M169.95,477.47c5.43,1.56,5.09-3.01,8.99-3.99l2,11.99-.03-6.58c-.3-.96.99-2.07,1.04-2.42.13,5.42-1.55,11.34,4.51,14l1.48-1.99,1.01,4.99c-3.31-1.45-7.18-.47-10.29-1.19-1.88-.44-3.1-2.32-4.44-2.63-2.52-.57-3.61,2.97-4.26-3.18-.3-2.8.07-6.09,0-9Z"/><path class="cls-11" d="M203.95,415.47c2.76-3.65,5.19-7.61,6.51-12.01,3.14-.53-.27,5.62-.64,6.38-1.8,3.69-4.24,4.74-4.87,5.63h-1Z"/><path class="cls-9" d="M421.95,200.47l-4.99,2.99c7.08.62,15.24-1.29,21.99,1.01-12.25-.64-24.73.48-37,0,4.59-5.61,13.44-3.82,20-3.99Z"/><path class="cls-2" d="M450.95,215.47c1.86,6.62,12.25.51,17,4-5.95-.32-12.03.24-18,0-.45-.4.98-3.07,1-3.99Z"/><path class="cls-9" d="M475.95,195.47c-2.49-.03-11.43.76-12-1,3.79.5,8.96-1.2,12,1Z"/><path class="cls-2" d="M450.95,214.47l-1-2c.29.59.85.69,1,2Z"/><path class="cls-9" d="M480.95,195.47c-.33-.02-.67.01-1,0l.5-.98.5.98Z"/><path class="cls-7" d="M409.95,40.47c40.66-6.27,68.04,48.25,30.91,76.41-27.71,21.02-66.39,1.33-68.91-31.41,2.9-.59,12.06.91,13.83-.17.65-.4,4.15-12.28,4.98-14.51.9-2.43,3.67-5.91,4.02-8.07.41-2.55-1.14-5.06-.95-7.78.09-1.22,1.34-1.22,2.11-3.47,1.14-.43,2.49,1.09,2-2,3.4-.81,2.98-1.56,4-2,3.46-1.49,7.63-1.48,8.77-5.94l-.77-1.06Z"/><path class="cls-6" d="M399.95,137.47c3.6,6.96,6.02,12.08,7.53,19.97l2.47,23.03c-3.96,2.4-8.28,9.91-12.1,12.44-7.24,4.8-17.4,8.05-25.9,8.56-2.77-19.49-6.03-39.29-15-57,1.1-1.28,1.6-2.63,3.49-3.01,4.88-.98,13.32.37,18.95-.04,2.62-.19,6.54-.85,9.83-1.16s6.99-3.48,10.73-2.79Z"/><path class="cls-5" d="M424.95,176.47c1.33.65.7,2.34,1,3-4.99,2.36-8.66,7.32-13,11-1.62,1.37-3.39,2.58-5,4-11.02,9.75-21.08,21.85-36.78,23.72s-34.8.48-48.22-7.72c-.74-.45-1.41-.67-2-1-.29-.36-.7-.64-1-1-1.25-1.52-4.5-4.7-6-6,4.7-2.95,11.95,1.41,16-3,3.85.6,6.66-.29,10-1,2.23-.47,4.4-1.63,6-2,5.27-1.2,17.69-2.13,21.98,1.52,1.62,1.38,1.85,4.32,2.04,4.49.66.6,1.87-1,1.99-1.01,8.5-.5,18.67-3.75,25.9-8.56,3.82-2.53,8.13-10.05,12.1-12.44,4.9-2.97,9.43-3.2,15-4Z"/><path class="cls-6" d="M424.95,176.47l47.03-29.47,2.92-.48c3.23,7.37,8.2,22.58,5.86,30.27-.67,2.21-15.38,10.3-17.81,10.69-2.02.32-10.56.39-12.31-.02-.81-.19-.27-1.82-2.12-2.06-6.92-.89-9.52,1.47-14.57,2.08s-3.96,1.8-4.69,1.98c-1.38.33-5.76.26-7.31.02-.55-.08-5.74-1.44-4-2.99.67-.6,7.63-2.51,9.52-5.01.99-1.32-1.25-1.43-1.52-2.01-.3-.66.33-2.35-1-3Z"/><path class="cls-6" d="M311.95,223.47c50.17.31,101.44,1.11,151.54.05,1.59-.03,4.14-1.09,4.88-.93,2.87.63,2.05,6.86-1.87,5.93l-175.55-.04c.09-1.31-.14-2.7,0-4.01,5.08,3.33,11.52,1.33,17.54,1,1.92-.11,4.01,1.06,3.46-2Z"/><path class="cls-6" d="M444.95,218.47h-56c2.12-2.25,7.22-7.62,9.63-8.87,3.53-1.83,30.34-1.63,35.91-1.16,6.81.58,11.65,2.02,10.47,10.03Z"/><path class="cls-5" d="M397.95,49.47c.49,3.09-.86,1.57-2,2-.77,2.25-2.03,2.25-2.11,3.47-.19,2.71,1.36,5.23.95,7.78-.35,2.16-3.12,5.63-4.02,8.07-.83,2.23-4.33,14.11-4.98,14.51-1.77,1.08-10.93-.42-13.83.17-.05-.66.01-1.34,0-2,5.52,3.14,3.49-4.38,4.24-7.26,1.31-5.08,6.95-15.65,10.32-19.72.92-1.11,1.67-.7,2.44-1.01.73-.25.89-.23,1-1,.04-.26.08-.81,0-1,2-.59,4.06-1.27,6-2,.18-.53-.24-1.76,0-2,.22-.22,1.42.14,2,0Z"/><path class="cls-11" d="M433.95,187.47c5.05-.61,7.64-2.97,14.57-2.08,1.85.24,1.31,1.87,2.12,2.06,1.75.41,10.3.35,12.31.02.29,3.58-.93,6.92-4.71,7.79-5.76,1.32-22.04.45-28.9.29-1.8-.04-3.2-1.07-3.38-1.07-1.72-5.09,8.15-2.4,8-7Z"/><path class="cls-6" d="M334.95,171.47l11,25c-1.6.37-3.77,1.53-6,2-8.34.95-4.06-6.77-5.73-10.73-1.54-3.64-7.79-7.14-10.27-10.27,3.39-2.2,6.68-5.02,11-6Z"/><path class="cls-2" d="M308.95,122.47c10.08-5.71,26.37-4.56,33,5.99-7.15,0-16.14-.09-23,2.01-3.53-2.61-10.47-2.37-10-8Z"/><path class="cls-9" d="M308.95,122.47c-.47,5.63,6.47,5.39,10,8-11.27,3.45-19.3,14.26-23,25,.07-1.45-.23-2.77-1-4,.59-12.22,2.66-22.58,14-29Z"/><path class="cls-7" d="M333.95,164.47c.09,2.21.76,5.93-1.68,6.82-6.68,2.43-12.67,2.76-19.32.18-.98-.38-1.89-1.01-2.99-1.01,2.92-5.1,12.25-2.18,15.93-7.63,1.73-2.56-4.02-13.81,3.36-11.17,3.33,1.19,4.57,9.47,4.7,12.82Z"/><path class="cls-5" d="M323.95,195.47c-2.36-1.37-5.6-1.44-7.25-4.3l-9.75-5.7c-.22-1.9.16-4.05,0-6,.37-.57.65-1.69,1-2,10.45-9.25,16.92,10.23,16,18Z"/><path class="cls-2" d="M306.95,185.47c.57,4.85,1.8,6.8-1,11.99,3.97.24,5.56,2.91,8,5.01,1.5,1.3,4.75,4.48,6,6,.29.35.6.77,1,1,.59.33,1.26.55,2,1-3.9,3.01,5.6,5.28,3,7.99-.76.8-19.53,2.08-22,0,2.42-.24,20,.88,20.01-1.5-5.7-3.41-12.36-3.74-15.57-10.44-1.47-3.07-.6-7.92-4.44-8.06-.08-3.73-.47-8.58.05-12.44.16-1.18,2.18-5.36,2.95-6.56.16,1.95-.22,4.1,0,6Z"/><path class="cls-3" d="M389.95,53.47c.08.19.04.74,0,1-.41.19-.73.89-1,1-.78.32-1.53-.09-2.44,1.01-3.37,4.07-9.01,14.64-10.32,19.72-.74,2.88,1.28,10.4-4.24,7.26-.32-14.76,4.03-23.58,15-33,.87.58,2.68,2.19,3,3Z"/><path class="cls-4" d="M303.95,198.47c3.84.14,2.97,5,4.44,8.06,3.21,6.69,9.87,7.03,15.57,10.44,0,2.38-17.59,1.26-20.01,1.5-.1-6.65.13-13.35,0-20Z"/><path class="cls-2" d="M334.95,171.47c-4.32.98-7.61,3.8-11,6-.3.2-1.39-.13-1.99.01v.97c2.65-.2,3.81,7.96,4.03,10.47.17,1.84,1.02,7.61-2.04,6.54.92-7.77-5.55-27.25-16-18l-1-3c.38-.64.64-1.35,1-2,2.13,1.02,5.99,2.07,5-1,6.65,2.58,12.63,2.25,19.32-.18,2.44-.89,1.77-4.6,1.68-6.82,3.25,1.39,1.69,4.39,1,7Z"/><path class="cls-1" d="M401.95,42.47c1.88.82.33,3.47,0,5-1.02.44-.6,1.19-4,2-.58.14-1.78-.21-2,0-.24.24.18,1.47,0,2-1.94.73-4,1.41-6,2-.32-.81-2.13-2.42-3-3,6.7-5.75,6.68-5.41,15-8Z"/><path class="cls-4" d="M307.95,172.47c-.36.65-.62,1.36-1,2-1.01,1.69-5.16,10.32-6.99,9-1.95-1.42.36-15.03,1-17.99,3.26,1.34,3.9,5.52,6.99,7Z"/><path class="cls-8" d="M311.95,223.47c.56,3.06-1.54,1.89-3.46,2-6.02.33-12.46,2.33-17.54-1,.04-.33-.03-.67,0-1,2.06,1.03,5.17-.96,6-1,4.4-.19,9.95.97,15,1Z"/><path class="cls-5" d="M409.95,40.47l.77,1.06c-1.14,4.46-5.31,4.45-8.77,5.94.33-1.53,1.88-4.18,0-5,3.26-1.01,4.44-1.45,8-2Z"/><path class="cls-8" d="M433.95,187.47c.15,4.6-9.72,1.91-8,7-1.33-.04-2.67.05-4,0v-5c1.55.23,5.93.3,7.31-.02.73-.17-.1-1.39,4.69-1.98Z"/><path class="cls-6" d="M296.95,222.47c-.83.04-3.94,2.03-6,1,1.12-1.77,4.12-.86,6-1Z"/><path class="cls-3" d="M365.94,107.48l-23.99,13.99c-.03-1.34-.18-2.76.47-4.02,1.19-2.31,19.44-10.66,23.51-9.97Z"/><path class="cls-4" d="M216.95,101.47l1-1c-.09.44-.71.71-1,1Z"/><path class="cls-7" d="M587.95,65.47c.18.17-.52,3.71,2,1,3.68,2.54,7.31,2.59,11,4,5.72,2.19,2.22,3.54,1,7.99,4.83,1.69,10.04-1.51,14,2.01-4.15,6.44-5.97,9.81-13.98,12.52s-9.62-1.45-12.02,9.48c-4.2,19.08-1.25,64.57-1.02,86.51.02,1.69-.64,4.45,1.02,5.49.08,6.94-.38,14.1,0,21,.27,4.95,1.56,6.71,2,10,.98,7.41-.97,43.65-3.58,49.92-1.23,2.95-4.97,5.18-5.43,8.58-.36,2.62,5.03,1.45,7.02,1.5,2.88.07,6.17.2,9,0-1.04,1.66-3.79,1-5.49,1.02-9.65.12-19.18.71-28.8.77-4.82-1.47-6.68-6.34-8.49-10.51l-.23-147.27c.15,15.07-.78,41.24,1.26,55.24.57,3.93,1.96,7.4,5.3,9.72,1.7.38,1.91-1.39,2.61-2.28,4.57-5.78,4.06-26.73,4.83-35.17,1.17-12.86,3.04-25.98,4.04-38.96.42-5.43-.66-11.6.04-16.96.59-4.44,3.95-9.46,4.68-13.32.87-4.6-.98-8.58-.59-11.6.21-1.61,1.72-2.36,1.83-2.67,1.37.05,2.84.23,4,1,1.08.72,1.4,2.08,3.42,3.07,2.64,1.3,6.6,2.06,9.57,1.92l-9.04-5.45c-1.5-2.25-3.16-11.44.04-8.54ZM557.95,220.47v-24h-1v24h1Z"/><path class="cls-2" d="M703.95,183.47c.1,8.82-.13,17.68-.02,26.51.02,1.69-.64,4.45,1.02,5.49-.03.66.05,1.34,0,2-1.29,18.49-9.58,21.58-21,32-15.71,4.87-35.39,6.06-50.75-.79-1.36-.61-1.96-2.06-2.25-2.21,2.91-4.25,1.36-9.05,2.06-13.44.58-3.66,4.32-6.93,2.94-11.56,2.07-2.37,3.05-5.05,4-8,2.34.66,1.44-2.19,3.38-2.03,3.96.33,10.68,2.95,8.63,8.02,1.59.31,1.07-2.01.99-3h1c1.43,13.56,23.96,13.39,32.96,7.46,6.56-4.33,9.71-11.76,10.04-19.46,1.66-1.04,1-3.8,1.02-5.49.05-3.71.72-13.06.03-15.86-.32-1.32-2.89-.93-3.84-1.9-.47-.48-.07-1.42-.21-1.76,3.75.28,6.42,2.87,10,4Z"/><path class="cls-7" d="M704.95,215.47c.48-9.94-.37-20.04.01-29.99,1.65-.42.42,1.7,1.65,2,3.69.91,9.48,1.19,13.34,1.99.61.13,1.4-.13,2,0,.41.09,1.64.72,2,1,.39.3,5.71,7.35,5.91,7.8,1.73,3.85,2.16,9.07,3.09,13.2.24,2.19-.9,5.58,1,7,.06.32-.05.68,0,1s-.05.67,0,1l-6.01,65.99-13.98-.03c-.22-.62.14-1.49-.01-1.96l.05-12.55c-.6-7.77-2.02-17.28-2.09-24.91-.03-4,2.04-26.6,1.04-27.54-.31-.29-6.54.09-8-2,.05-.66-.03-1.34,0-2Z"/><path class="cls-5" d="M560.95,74.47c.88,10.17,9.53-5.11,14.5-4.95,1.46.05,5.06,2.27,4.5,3.95-.1.31-1.61,1.06-1.83,2.67-.4,3.01,1.46,7,.59,11.6-.73,3.86-4.09,8.88-4.68,13.32-.71,5.35.37,11.52-.04,16.96-.99,12.99-2.86,26.1-4.04,38.96-.77,8.45-.25,29.39-4.83,35.17-.71.89-.91,2.66-2.61,2.28-3.35-2.32-4.73-5.79-5.3-9.72-2.05-14-1.11-40.17-1.26-55.24-.09-8.64-.13-17.36,0-26,1.66-2.34,1.71-8.46,0-11,.44-9.53-.32-10.13,5-18Z"/><path class="cls-11" d="M704.95,217.47c1.46,2.1,7.69,1.72,8,2,1.01.94-1.07,23.54-1.04,27.54.06,7.63,1.49,17.14,2.09,24.91l-.05,12.55c-3.72-11.52-3.67-24.93-4-37-.1-3.47,1.19-22.95-2.5-22.98-2.81-.02-.96,19.48-1.54,22.52l2.04,21.46c.15,6.06,1.04,11.94,1,18h-30.5c-2.55-3.52-2.23-8.39-5.04-11.96-1.29-1.63-8.43-5.97-8.45-6.54,6.24-6.21,12.48-12.58,18.98-18.5,11.42-10.42,19.71-13.51,21-32Z"/><path class="cls-11" d="M591.95,292.47c.69,0,2.57-1.03,4.43-1.04,49.18-.29,98.44-.12,147.58.55l-.58,3.51c-50.47-.16-100.97.17-151.42-.01v-3Z"/><path class="cls-6" d="M599.95,97.47l-4.04,12.46c-2.06,31.91,2.91,67.56.02,99.02-.15,1.69-1.33,10.63-3.95,8.47-.28-.23.16-1.75-.04-1.96l-1-112c3.21-2.93,4.98-4.32,9-6Z"/><path class="cls-2" d="M621.95,247.47c2.59,3.42,7.52,6.11,11.32,8.18,4.91,2.67,9.99,1.55,10.67,8.42.27,2.75-1.17,4.96-.99,6.88s2.39,2.5,2,4.52c-11.65,1.32-20.37-6.03-29.99-10.99,1.97-4.41,3.34-9.43,5-14,.33-.92,1.81-2.26,2-3Z"/><path class="cls-5" d="M587.95,27.47c-.22,1.65.42,3.86.02,5.34-.25.9-5.62,1.04.98,3.66-6.86,5.4-8.45,13.74-5.2,21.7.33.82,3.9,7,4.2,7.3.08.08,1.33.54,2,1-2.52,2.71-1.82-.83-2-1-3.21-2.9-1.54,6.29-.04,8.54l9.04,5.45c-2.98.15-6.93-.61-9.57-1.92-2.02-1-2.34-2.35-3.42-3.07-2.39-7-10.67-9.22-10.72-17.69,0-.76,4.18-12.98,4.86-14.46.88-1.93,4.25-5.69,5.85-7.36l-4.99-1.49c3.88-3.94,3.52-3.99,9-6Z"/><path class="cls-1" d="M578.95,33.47l4.99,1.49c-1.6,1.67-4.97,5.44-5.85,7.36-.68,1.47-4.86,13.7-4.86,14.46.05,8.47,8.33,10.69,10.72,17.69-1.16-.77-2.63-.95-4-1,.56-1.68-3.04-3.9-4.5-3.95-4.97-.16-13.62,15.12-14.5,4.95,3.36-4.98,5.6-8,11.99-10.06-5.63-12.09-3-21.77,6.01-30.94Z"/><path class="cls-11" d="M623.95,60.47c-.41,9.01-3.52,13.04-8,20-3.95-3.51-9.17-.32-14-2.01,1.21-4.46,4.71-5.81-1-7.99,8.83.84,19.97-4.57,21-14l1.01-1.99h.98c-.04,1.98.1,4,.01,5.99ZM606.45,71.47v1c.65-.33.65-.67,0-1Z"/><path class="cls-9" d="M630.95,246.47c-1.18-.6-8.67-4.37-8.99-4-.25,1.51.34,3.67,0,5-.19.74-1.67,2.08-2,3,1.28-6.32,2.03-12.83,4-19l1.45,1.96c-.2-.75,6.05-6.67,1.55-5.96.36-.21.63-.78,1-1,2.68-1.56,5.41-2.03,8-5,1.38,4.62-2.36,7.89-2.94,11.56-.69,4.39.85,9.2-2.06,13.44Z"/><path class="cls-7" d="M604.95,27.47c-.64,3.27,1.67,1.59,4,2,.33.06.69-.07,1,0,.56,3.01-1.53,1.94-3.45,2-3.75.12-8.86-1.16-11.55,2-1.73.47-4.65,1.93-6,3-6.6-2.63-1.23-2.76-.98-3.66.41-1.48-.24-3.69-.02-5.34,7.85-2.88,9.09-1.89,17,0Z"/><path class="cls-9" d="M591.95,215.47c-.17-.18-1.44.12-2,0-.38-6.9.08-14.06,0-21-.36-30.31.27-60.69,0-91h1l1,112Z"/><path class="cls-7" d="M591.95,292.47v3c-3.47-.01-24.14.9-25,0-.12-.13-.11-2.75,0-3.49.14-1.02,18.32-.54,20.58-.55,1.86,0,3.76,1.04,4.43,1.04Z"/><path class="cls-2" d="M709.95,247.47l-2.99-11.99c.66,10.99.72,21.99.99,32.99l-2.04-21.46c.58-3.04-1.27-22.54,1.54-22.52,3.69.03,2.4,19.51,2.5,22.98Z"/><path class="cls-11" d="M589.95,103.47c.27,30.31-.36,60.69,0,91-1.66-1.04-1-3.8-1.02-5.49-.23-21.94-3.18-67.44,1.02-86.51v1Z"/><path class="cls-2" d="M623.95,60.47c.09-1.99-.05-4.01-.01-6h-.98s-1.01,2-1.01,2c.69-6.33.22-12.97-4-18l1-1c.35.47,1.59.76,2.39,2.07,3.2,5.25,4.96,15.05,2.61,20.93Z"/><path class="cls-11" d="M618.95,37.47l-1,1c-5.59-6.67-15.08-7.17-23-5,2.69-3.16,7.79-1.87,11.55-2,1.92-.06,4.01,1.01,3.45-2,5.22,1.25,6.23,4.34,9,8Z"/><path class="cls-7" d="M555.95,103.47c.05-3.65-.17-7.36,0-11,1.71,2.54,1.66,8.66,0,11Z"/><path class="cls-11" d="M608.95,29.47c-2.33-.41-4.64,1.27-4-2,1.56.37,3.39-.35,4,2Z"/><path class="cls-11" d="M591.95,225.47c1.66-.35,2.23.75,3,2-.32,2.38.42,9.63-.05,13.45-.26,2.06-1.96,3.67-2.04,6.06-.06,1.97,1.14,3.76,1.11,4.92-.02.65-1.85.08-2.11,2-.88,6.47.05,14.25-.91,21.57-.18,1.37-.93,2.38-1,5-.05,1.66.03,3.33,0,5-1.98-.05-7.37,1.12-7.02-1.5.46-3.4,4.21-5.63,5.43-8.58,2.61-6.27,4.56-42.51,3.58-49.92Z"/><path class="cls-10" d="M626.95,227.47c4.5-.71-1.74,5.21-1.55,5.96l-1.45-1.96c.32-.99.37-2.63.9-3.36.78-1.06,1.8-.46,2.1-.64Z"/><path class="cls-7" d="M590.95,275.47c1.74,1.69,1.91,5.97-1,5,.07-2.62.82-3.63,1-5Z"/><path class="cls-5" d="M663.95,165.47c-6.78-7.9-4.16-13.58-4.01-23,9.8-1.09,5.55.97,8.17,5.34,1.96,3.27,4.97,1.1,7.84.66h11.01c-1.78,2.42.7,3.68.95,5.54.64,4.82-.72,13,5.72,15.31,3.09,1.11,1.52-2.25,4.32-1.85-.93,3.01-4.88,9.18-5,10-9.48,1.18-22.87-4.86-29-12Z"/><path class="cls-5" d="M694.95,117.47c5.3,2.64,6.69,9.58,5.99,15-5.05-.62-11.51-2.22-16.5-2.06-7.7.25-16.16,5.73-24.5,4.07-.3-5.41-.29-9.45,4-13,7.53-6.24,22.35-8.32,31-4Z"/><path class="cls-3" d="M693.95,113.47c-12.48-2.04-22.05-2.33-32,6-.16.13-1.27-.35-2.05.66-.96,1.25-1.91,6.35-2.47,6.36l-8.48-3.03c1.49-19.29,36.66-24.98,45-9.99Z"/><path class="cls-7" d="M700.95,162.47c-.25-.15-.77.15-1,0-.06-.04.13-1.16-.99-1-.6,1.6-.62,3.48-1.01,5-.08.32.09.7,0,1-2.8-.39-1.24,2.96-4.32,1.85-6.44-2.31-5.08-10.49-5.72-15.31-.25-1.86-2.73-3.12-.95-5.54h-11.01c3.27-.5,5.41-1.46,9.51-1.01,2.45.27,6.4,2.33,7.88,2.08.56-.09,2.56-8.26,7.68-4.64,2.79,1.97-1.26,13.95-.07,17.57Z"/><path class="cls-2" d="M693.95,113.47c.79,1.41,1.48,2.08,1,4-8.65-4.32-23.47-2.24-31,4,.24-2.13.13-2.24-2-2,9.95-8.33,19.52-8.04,32-6Z"/><path class="cls-11" d="M733.95,218.47c-1.9-1.42-.76-4.81-1-7,.64,2.84.57,4.48,1,7Z"/><path class="cls-11" d="M719.95,187.47v2c-3.86-.81-9.65-1.09-13.34-1.99-1.24-.3,0-2.42-1.65-2-.38,9.95.47,20.06-.01,29.99-1.66-1.04-1-3.79-1.02-5.49-.11-8.83.12-17.69.02-26.51,4.99,1.57,10.8,2.17,16,4Z"/><path class="cls-5" d="M699.95,162.47c.17,1.74-.16,3.48-2,4,.39-1.52.42-3.4,1.01-5,1.12-.17.93.96.99,1Z"/><path class="cls-7" d="M661.95,192.47c2.67-.08,2.83,2.8,5.06,4.44,7.44,5.47,16.15,1.06,23.39,1.58,2.27.16,3.91,2.81,6.54.97-.03,1.66.08,3.35,0,5-.34,7.7-3.48,15.13-10.04,19.46-9,5.93-31.53,6.1-32.96-7.46-.3-2.86.21-6.08,0-9.01h12c.82-.71-5.45-6.18-5.76-8.7-.13-1.02,1.48-4,1.77-6.3Z"/><path class="cls-7" d="M659.95,187.47c2.76-.29,1.77.12,2,2-2.79.3-1.75-.15-2-2Z"/><path class="cls-2" d="M651.95,210.47l-.88-1.37.88-.63c.09.65-.08,1.35,0,2Z"/><path class="cls-10" d="M158.95,705.47c-.27,5.46,3.72,8.97,3.09,14.52-.29,2.58-4.63,2.18-4.09,5.48l9.99,1.01c.29,2.35.64,4.66,1,6.99-4.72-.9-34.4-.33-35.57-1.96-1.84-2.57,9-30.26,10.58-35.03,6.64,1.45,7.77,8,15,9Z"/><path class="cls-6" d="M163.95,659.47c1.03,10.13-1.36,22.78-.08,32.57.24,1.85,1.87,1.31,2.06,2.12.65,2.76-.12,8.01.02,11.31-2.24-.21-4.84.3-7,0-7.23-1-8.36-7.55-15-9,1.29-3.89,1.6-4.19,2-9,4.15-9.99,6.46-18.75,15-26,.9-.76,2.09-1.25,3-2Z"/><path class="cls-3" d="M118.95,643.47c.56,8.88,5.4,19.21,15,21-.88,3.1-2.72,13.84-5.48,14.03-7.73.54-14.18-6.67-17.52-13.03-2.05-3.91-4.05-9.58-3-14,.63-2.65,8.09-8.04,11-8Z"/><path class="cls-7" d="M107.95,651.47c-1.05,4.42.95,10.09,3,14-4.65-1.23-3.54,5.87-8,6-1.93-.99-11.3-3.39-13.75-3.74-2.76-.4-5.49-.28-8.25-.26,4.91-5.67,15.4-13.37,21.3-15.67,1.9-.74,3.77-.26,5.7-.33Z"/><path class="cls-7" d="M124.95,749.47c-.14-.09-.04-1.74-1.57-2.89-2.74-2.05-7.97-1.86-11.26-2.83-1.74-.51-2.6.35-2.16-2.28,3.19-.54,8.57.81,11.36-.14,3.05-1.04-.14-7.1,8.13-6.94s16.9,6.44,14.5,15.08c-3.06-.65-17.67.87-19,0Z"/><path class="cls-2" d="M165.95,705.47c.32,7.76,1.05,13.41,2,21l-9.99-1.01c-.54-3.3,3.79-2.9,4.09-5.48.63-5.55-3.36-9.06-3.09-14.52,2.16.3,4.76-.21,7,0Z"/><path class="cls-10" d="M121.95,646.47c2.34,3.01,3.85,6.66,7,9,.2.15.26,1.13,1.01,1.49,4.33,2.1,4.56-1.48,3.99,7.51-9.6-1.79-14.44-12.12-15-21,.34,0,.87-.09,1,0,.15.1,1.38,2.21,2,3Z"/><path class="cls-2" d="M156.95,657.47c-.66,4.02.87,2.46,2,3,.6.29,1.17.97,2,1-8.54,7.25-10.85,16.01-15,26,1.07-12.83,5.79-18.66,11-30Z"/><path class="cls-3" d="M165.95,643.47c2.59,3.63,2.89,12.04.06,15.36-.92,1.08-1.91.51-2.06.64-.91.75-2.1,1.24-3,2-.83-.03-1.4-.71-2-1,3.71-3.35,6.47-12.2,7-17Z"/><path class="cls-2" d="M133.95,664.47c.57-8.99.33-5.41-3.99-7.51-.74-.36-.8-1.34-1.01-1.49,5.07,3.24,5.45-7.56,8.99-9-.26,6.17-2.36,12.23-3.99,18Z"/><path class="cls-2" d="M113.95,680.47l16.01-1v2c-5.57-2.86-11.09,1.44-16.01-1Z"/><path class="cls-3" d="M195.95,602.47c.2.28.63,1.35,1,2,.3.53-.65,1.83,1,3,.6,5.18,1.69,5.19-3.45,7.05-7.95,2.87-22.59,3.38-29.89-1.21-6.3-3.96-5.02-6.06-4.66-12.84,2.15-2.18,3.88-5.23,6.65-6.85,9.77-5.73,23.38.48,29.35,8.85Z"/><path class="cls-11" d="M307.95,413.47l35.35-.05c.62.15,2.27,4.99,2.65,6.05,4.44,12.25,8.4,20.21,20.31,27.19,26.31,15.44,59.4-3.32,60.69-33.19h38c.21,40.4-33.75,77.32-74.45,79.05-44.67,1.89-83.52-33.72-82.55-79.05Z"/><path class="cls-6" d="M464.95,413.47h-38c1.03-23.74-16.91-43.42-41-43v-35c42.06-.02,78.78,35.78,79,78Z"/><path class="cls-5" d="M385.95,335.47v35c-24.73.43-43.81,24.95-40,49-.38-1.06-2.04-5.9-2.65-6.05l-35.35.05c.88-40.99,36.24-77.98,78-78ZM341.58,361.85c-2.8-1.74-4.38-1.47-7.28.02-4.75,2.44-15.48,19-16.29,24.17-.97,6.22-.85,12.97,7.19,11.39,2.28-.44,2.83-5.35,3.5-6.67,2.87-5.62,6.2-11.03,9.82-16.2,3.1-4.43,10.45-8.12,3.05-12.71Z"/><path class="cls-3" d="M306.95,185.47l9.75,5.7c1.65,2.85,4.9,2.93,7.25,4.3.08.05-.2,1.43.27,1.69.66.36,5.28,2.24,5.73,2.31-4.05,4.41-11.3.05-16,3-2.44-2.11-4.03-4.77-8-5.01,2.8-5.18,1.57-7.14,1-11.99Z"/><path class="cls-4" d="M323.95,177.47c2.48,3.13,8.72,6.62,10.27,10.27,1.68,3.96-2.61,11.68,5.73,10.73-3.34.71-6.15,1.6-10,1-.45-.07-5.07-1.95-5.73-2.31-.46-.25-.19-1.64-.27-1.69,3.06,1.07,2.21-4.7,2.04-6.54-.23-2.51-1.39-10.67-4.03-10.47v-.97c.6-.14,1.69.19,1.99-.01Z"/><path class="cls-2" d="M425.95,179.47c.26.58,2.51.69,1.52,2.01-1.88,2.49-8.85,4.41-9.52,5.01-1.74,1.55,3.45,2.91,4,2.99v1h-1c-2.41.53-6.13,2.25-8,0,4.34-3.68,8.01-8.64,13-11Z"/><path class="cls-10" d="M320.95,209.47c-.4-.23-.71-.65-1-1,.3.36.71.64,1,1Z"/><path class="cls-1" d="M388.95,55.47c.27-.11.59-.81,1-1-.11.77-.27.75-1,1Z"/><polygon class="cls-6" points="421.95 191.47 420.95 190.47 421.95 190.47 421.95 191.47"/><path class="cls-10" d="M617.95,38.47c4.22,5.03,4.69,11.67,4,18-1.03,9.43-12.17,14.84-21,14-3.69-1.41-7.32-1.46-11-4-.67-.46-1.92-.92-2-1-.3-.3-3.86-6.48-4.2-7.3-3.25-7.96-1.66-16.3,5.2-21.7,1.35-1.07,4.27-2.53,6-3,7.92-2.17,17.41-1.67,23,5Z"/><rect class="cls-5" x="556.95" y="196.47" width="1" height="24"/><path class="cls-7" d="M606.45,71.47c.65.33.65.67,0,1v-1Z"/><path class="cls-3" d="M385.95,370.47c24.09-.42,42.03,19.26,41,43-1.29,29.87-34.38,48.63-60.69,33.19-11.9-6.99-15.87-14.94-20.31-27.19-3.81-24.05,15.27-48.57,40-49Z"/><path class="cls-1" d="M341.58,361.85c7.4,4.59.05,8.28-3.05,12.71-3.61,5.16-6.95,10.58-9.82,16.2-.68,1.32-1.23,6.22-3.5,6.67-8.05,1.57-8.17-5.17-7.19-11.39.81-5.17,11.54-21.73,16.29-24.17,2.9-1.49,4.49-1.76,7.28-.02Z"/></g></svg>