<?xml version="1.0" encoding="UTF-8"?><svg id="Camada_2" xmlns="http://www.w3.org/2000/svg" viewBox="0 0 586.31 580.83"><defs><style>.cls-1{fill:#f5bb80;}.cls-2{fill:#c5806e;}.cls-3{fill:#549fb5;}.cls-4{fill:#f5e9cc;}.cls-5{fill:#de6f4e;}.cls-6{fill:#39333e;}.cls-7{fill:#fefefe;}.cls-8{fill:#80c1d3;}</style></defs><g id="Camada_1-2"><path class="cls-2" d="M272.42,2.28c12.55-.52,26.34-.26,38.96,0,1.66.03,3.33-.05,4.99,0,1.2.03,4.41.9,6.99,1,1.33.05,2.67,0,4,0,2.74,2.04,6.72,2.04,9.99,2,.66,0,1.34.05,2,0,.66,1.43,2.71,1.06,4,1,.66-.03,1.33.01,2,0,1.76,1.47,4.78,1.88,6.99,2,.66.04,1.34-.06,2,0,3.14,1.78,7.43,2.49,10.99,3,.64.09,1.36-.09,2,0,1.66,1.94,5.44,2.62,7.99,3,.63.09,1.38-.11,2,0,5.81,2.92,12.74,5.1,18.98,6.99,1.31.4,2.69.61,4,1,3.63,2.78,8.69,4.48,12.99,5.99,1.65.58,3.71.54,4.99,1-.1,2.77,7.35,5.32,9.99,5.99.56.14,1.37-.1,2,0-.34,1.91.1,2.32,2,2,.32.46,8.72,4.61,9.99,4.99-.34,1.91.1,2.32,2,2,.45.55,2.19.75,3,1-.24,2.12-.12,2.24,2,2,.08.15.69-.12,1,0-.34,1.92.08,2.32,2,2,1.19,1.09,5.26,3.03,6.99,4-.24,2.12-.12,2.24,2,2,.08.15.69-.12,1,0-.35,1.82.19,2.31,2,2,.43.66,1.38.71,2,1-.35,1.82.19,2.31,2,2,.43.66,1.37.7,2,1-.37,1.79.25,2.27,2,2,.75,1.08,13.75,12.22,14.98,12.99.49,1.41,1.51,2.02,3,2,3.57,5.06,12.04,13.01,16.98,16.98.26,2.58,2.44,4.74,4.99,4.99,2.68,4.11,4.46,6.38,7.99,9.99-.08,2.02,1.02,3.08,3,3,.38.57.63,1.65,1,2-.32,1.91.08,2.34,2,2,.29.62.34,1.57,1,2-.31,1.8.18,2.35,2,2,.12.31-.15.92,0,1-.24,2.12-.13,2.24,2,2,.28.56.69,1.71,1,2-.32,1.9.08,2.34,2,2,.82,2.32,2.21,5.33,4,6.99-.3,1.8.18,2.36,2,2,.83,2.47,6.38,12.38,7.99,13.98-.32,1.88.1,2.34,2,2,.32,1.04.62,1.97,1,3,.72,1.95.21,4.62,3,4,.16.56-.17,1.46,0,2,.69,2.23,1.3,6.61,4,5.99.17.54-.17,1.46,0,2,.72,2.23,1.27,6.6,4,5.99.17.54-.18,1.47,0,2,1.03,3.1,2.21,6.06,3.46,9.08.63,1.53-.1,3.5,2.53,2.91.17.57-.2,1.81,0,2-.24,2.12-.13,2.24,2,2,.15,1.27-.22,2.82,0,4,.83,4.43,2.98,9.91,4.99,13.98.11.62-.1,1.37,0,2,.55,3.57,1.18,7.83,3,10.99.06.66-.04,1.34,0,2,.14,2.38.65,6,2,7.99-.01.66.06,1.34,0,2-.11,1.26-.39,3.36,1,4-.07.64,0,1.35,0,2,.04,2.95.67,7.34,2,9.99-.01,1.66.04,3.33,0,4.99-.05,1.86-.62,4.94,1,5.99-.15,2.3.05,4.68,0,6.99-.24,11.62.03,23.33,0,34.96,0,1.66,0,3.33,0,4.99h-2c2.93-45.41-2.76-86.67-20.8-128.54C486.65,9.12,268.67-52.64,115.7,63.81,48.29,115.13,4.1,202.55,4.72,288.96c.93,129.73,83.44,237.72,206.98,274.98,8.6,2.59,16.82,4.64,25.76,5.71.11.01.23.93,2,1,.97.04,2.03.08,3,0,11.9,2.85,24.72,4.47,36.96,4.99-.56,3.02,1.53,1.93,3.45,2,69.11,2.3,132.66-19.08,187.29-60.5,19.13-14.5,41.33-34.87,55.39-55.45.49-.71,3.27-4.29,1.59-4.91,18.63-24.58,36.06-58.16,44.66-87.69,3.63-12.47,6.43-25.32,8.28-38.17,0,.16.82,1.51,1,3,.12.97-.1,2.02,0,3-1.46.68-1.01,2.69-1,4,.01,1,0,2,0,3-2.16,1.39-1.93,3.72-2,5.99-.03.99.07,2.01,0,3-1.67,3.07-2.88,6.51-3,9.99-.02.66.06,1.34,0,2-2.34,2.03-2.53,6.01-3,8.99-.1.63.11,1.38,0,2l-11.78,28.68c-3.3,6.01-7.12,12.75-9.2,19.27-.17.53.16,1.44,0,2-2.01-.1-2.99,1-3,3-.52.63-2.03,3.23-2.41,4.07-41.27,89.91-161.65,151.49-258.83,147.8C50.12,571.68-87.1,303.95,62.11,113.11c2.46-3.15,5.09-4.12,7.53-8.95,2.02.12,2.95-1.01,3-3,1.12-1.11,1.29-1.99,2-3,2.36-.12,3.88-1.67,4-4,5.04-4.15,9.85-8.93,13.98-13.98,1.98.08,3.07-.97,3-3,3.22-1.87,3.51-1.6,5.99-4.99,1.98.08,3.07-.97,3-3,2.02-1.01,2.18-.9,4-3,1.98.08,3.07-.97,3-3,3.45-1.97,7.08-4.34,9.99-6.99,1.88.32,2.34-.1,2-2,.62-.29,1.57-.34,2-1,1.8.31,2.35-.18,2-2,.31-.12.92.15,1,0,2.12.24,2.24.13,2-2,1.8-.64,4.59-1.85,5.99-3,2,0,3.09-.99,3-3,4.26-1.56,7.54-3.71,11.99-5.99,2.77-1.42,9.97-3,9.99-5.99.29-.1.69.09,1,0,2.27-.68,5.76-.29,4.99-3,.58-.15,1.46.17,2,0,6.9-2.14,14.38-5.93,20.98-8.99.56-.14,1.35.08,2,0,5.97-.78,16.64-6.23,22.97-7.99.62-.11,1.37.1,2,0,3.07-.47,7.24-1.52,9.99-3,.99-.07,2,.03,3,0,2.17-.06,5.27-.57,6.99-2,.66.02,1.34-.06,2,0,1.26.11,3.36.39,4-1,.64.07,1.35,0,2,0,3.8-.04,7.83-1.73,10.99-2,1.64-.14,3.35.11,4.99,0,2.55-.17,5.54-.92,6.99-1,1.32-.08,2.67.06,4,0Z"/><path class="cls-8" d="M572.08,375.86c-2.68,14.62-10.92,31.69-18.16,45.32-.74,1.4-.4,3.16-2.81,2.63,2.08-6.52,5.9-13.26,9.2-19.27l11.78-28.68Z"/><path class="cls-8" d="M272.42,2.28c-.56-3.02,1.53-1.93,3.45-2,10.27-.34,21.8-.41,32.05,0,1.92.08,4.01-1.03,3.45,2-12.61-.26-26.41-.52-38.96,0Z"/><path class="cls-8" d="M584.07,310.93c-.03,5.51.52,11.4-.12,17.36-.15,1.4-.23,6.43-2.88,5.61-.18-1.48-.99-2.84-1-3-.3-6.59,1.57-13.36,2-19.98h2Z"/><path class="cls-8" d="M584.07,270.98c3.03-.56,1.92,1.53,2,3.45.36,8.98.3,19.06,0,28.06-.06,1.92,1.02,4.01-2,3.45.03-11.63-.24-23.34,0-34.96Z"/><path class="cls-8" d="M215.48,11.27c-6.33,1.77-17.01,7.22-22.97,7.99-.52-2.47,1.16-2.11,2.71-2.74,7.4-2.99,13.25-4.04,20.27-5.26Z"/><path class="cls-8" d="M190.51,19.26c-6.6,3.06-14.08,6.85-20.98,8.99-.5-2.31,1.13-2.15,2.6-2.84,6.78-3.18,11.81-4.55,18.37-6.15Z"/><path class="cls-8" d="M377.3,14.27c5.5,1,10.49,2,16.27,4.26,1.56.61,3.22.27,2.71,2.73-6.23-1.89-13.17-4.07-18.98-6.99Z"/><path class="cls-8" d="M400.27,22.26c3.08.93,6.31,1.29,10.38,3.16,1.48.68,3.1.54,2.6,2.84-4.3-1.51-9.35-3.21-12.99-5.99Z"/><path class="cls-8" d="M570.08,198.06c2.52-.51,2.13,1.14,2.68,2.76,1.37,3.98,1.69,7.72,2.31,11.22-2.01-4.07-4.17-9.55-4.99-13.98Z"/><path class="cls-8" d="M562.09,178.08c2.57-.54,2.05,1.24,2.71,2.73,1.34,3.03,2.35,6.08,3.28,9.25-2.64.59-1.9-1.38-2.53-2.91-1.25-3.02-2.43-5.98-3.46-9.08Z"/><path class="cls-8" d="M575.08,214.04c2.56-.97,3.64,6.85,3.8,8.84.13,1.52-.81,2.03-.81,2.15-1.81-3.15-2.44-7.42-3-10.99Z"/><path class="cls-8" d="M256.44,3.28c-3.15.27-7.19,1.95-10.99,2,.06-.56-.2-1.82.01-1.97.46-.33,10.27-1.76,10.98-.03Z"/><path class="cls-8" d="M161.54,31.25c-.02,2.99-7.22,4.57-9.99,5.99.08-3.26,6.92-4.94,9.99-5.99Z"/><path class="cls-8" d="M418.25,29.25c2.85,1.02,9.95,2.95,9.99,5.99-2.64-.67-10.09-3.22-9.99-5.99Z"/><path class="cls-8" d="M354.33,8.27c.12.01.65-.97,2.17-.82.95.09,8.41,1.62,8.76,1.9.29.23.03,1.36.06,1.92-3.56-.5-7.84-1.22-10.99-3Z"/><path class="cls-8" d="M327.36,3.28c.12,0,.81-.97,2.31-.96.81,0,7.37.74,7.69.96.18.13-.11,1.56,0,1.99-3.27.05-7.25.04-9.99-2Z"/><path class="cls-8" d="M578.07,352.88c0,.12.93.65.82,2.17s-1.54,8.95-3.82,7.82c.12-3.48,1.32-6.91,3-9.99Z"/><path class="cls-8" d="M581.07,243.01c2.21-1.39,3.04,5.55,3.05,7.58,0,1.4-1.05,2.28-1.05,2.41-1.33-2.65-1.96-7.04-2-9.99Z"/><path class="cls-8" d="M227.47,8.27c-2.75,1.47-6.92,2.53-9.99,3-1.16-2.14,6.29-3.93,7.64-3.99,1.47-.07,2.22,1,2.35.99Z"/><path class="cls-8" d="M575.08,364.87c-.01.12,1.1.66.86,2.19-.08.5-1.72,6.46-1.93,6.74s-1.36.02-1.93.05c.46-2.98.66-6.96,3-8.99Z"/><path class="cls-8" d="M367.31,11.27c.07.01.56-.82,1.31-.74,1.75.19,7.84,1.69,6.69,3.74-2.55-.38-6.33-1.05-7.99-3Z"/><path class="cls-8" d="M578.07,227.03c2.2-1.15,2.92,3.78,2.96,5.68.02,1.52-.95,2.18-.96,2.31-1.35-1.99-1.86-5.62-2-7.99Z"/><path class="cls-8" d="M268.42,2.28c-1.45.08-4.45.83-6.99,1-1.15-3.1,5.16-2.65,6.99-1Z"/><path class="cls-8" d="M316.37,2.28c1.83-1.65,8.14-2.1,6.99,1-2.58-.1-5.79-.97-6.99-1Z"/><path class="cls-8" d="M237.46,6.27c-1.72,1.43-4.83,1.94-6.99,2-.89-2.47,3.61-2.98,5.43-2.96.82.01,1.4.96,1.56.96Z"/><path class="cls-8" d="M345.34,6.27c.12,0,.62-.86,1.45-.86,1.99,0,6.64.59,5.54,2.86-2.22-.12-5.24-.53-6.99-2Z"/><path class="cls-8" d="M580.07,343.89c0,1.17,2.13,6.47-2,5.99.07-2.27-.16-4.6,2-5.99Z"/><path class="cls-8" d="M512.15,100.17c-2.55-.25-4.73-2.41-4.99-4.99,3.2,2.57,2.17.67,4.99,4.99Z"/><path class="cls-8" d="M554.1,162.1c2.71-.61,3.29,3.76,4,5.99-2.69.61-3.31-3.77-4-5.99Z"/><path class="cls-8" d="M583.07,257.99c4.36-.69,1.11,4.26,1,5.99-1.62-1.06-1.05-4.14-1-5.99Z"/><path class="cls-8" d="M558.1,170.09c2.71-.61,3.28,3.76,4,5.99-2.72.61-3.27-3.77-4-5.99Z"/><path class="cls-8" d="M78.64,94.18c-.12,2.33-1.63,3.87-4,4,2.47-3.5,1.37-1.84,4-4Z"/><path class="cls-8" d="M167.54,28.25c.76,2.71-2.73,2.32-4.99,3-.77-2.64,2.73-2.39,4.99-3Z"/><path class="cls-8" d="M581.07,336.9c.15,1.37,3.17,4.5-1,4-.02-1.31-.47-3.32,1-4Z"/><path class="cls-8" d="M551.1,156.11c2.65-.61,2.43,1.97,3,4-2.78.63-2.28-2.05-3-4Z"/><path class="cls-8" d="M580.07,237.01c4.18-.5,1.14,2.64,1,4-1.39-.64-1.11-2.73-1-4Z"/><path class="cls-8" d="M339.34,5.28c1.21-.09,4.53-3.22,4,1-1.29.06-3.34.43-4-1Z"/><path class="cls-8" d="M243.45,5.28c-.64,1.39-2.74,1.11-4,1-.5-4.18,2.64-1.14,4-1Z"/><path class="cls-8" d="M139.57,43.23c.1,2.01-1,2.99-3,3,.48-.4-1.04-1.51,3-3Z"/><path class="cls-8" d="M551.1,425.8c-1.15,4.02-2.6,2.52-3,3,0-2,.99-3.09,3-3Z"/><path class="cls-8" d="M111.6,63.21c.08,2.02-1.02,3.08-3,3,1.3-1.51-.5-1,3-3Z"/><path class="cls-8" d="M523.14,113.15c-1.98.08-3.07-.97-3-3,1.07,1.09.94-.05,3,3Z"/><path class="cls-8" d="M95.62,77.19c.08,2.02-1.02,3.08-3,3,1.41-1.72-.44-1.01,3-3Z"/><path class="cls-8" d="M72.64,101.17c-.05,1.98-.98,3.11-3,3,1.95-3.87,2.07-2.08,3-3Z"/><path class="cls-8" d="M104.61,69.2c.08,2.02-1.02,3.08-3,3,1.4-1.92-.6-1.21,3-3Z"/><path class="cls-8" d="M487.18,76.2c2.01,1.23.61-1.39,3,2-1.49.02-2.51-.59-3-2Z"/><path class="cls-8" d="M538.12,135.13c.91.85.75-1.7,2,2-1.82.36-2.3-.2-2-2Z"/><path class="cls-8" d="M466.2,58.22c.39.18,1.61-.3,1.95.04s-.16,1.65.05,1.96c-1.8.31-2.35-.18-2-2Z"/><path class="cls-8" d="M470.2,61.21c.39.18,1.61-.3,1.95.04s-.16,1.66.05,1.96c-1.75.27-2.37-.21-2-2Z"/><path class="cls-8" d="M442.23,42.23c3.68,1.12,1.14.94,2,2-1.9.33-2.34-.09-2-2Z"/><path class="cls-8" d="M447.22,45.23c.48.15,1.64-.28,1.95.04.33.33-.16,1.61.04,1.96-2.12.24-2.24.13-2-2Z"/><path class="cls-8" d="M527.13,119.15c.35.23,1.74-.25,2,0s-.19,1.49,0,2c-1.82.35-2.31-.19-2-2Z"/><path class="cls-8" d="M529.13,122.14c.31.17,1.47-.33,1.9.11.41.41-.07,1.56.1,1.89-2.12.24-2.24.12-2-2Z"/><path class="cls-8" d="M568.09,192.07c.72.66,1.58-1.67,2,2-2.12.24-2.24.12-2-2Z"/><path class="cls-8" d="M524.13,115.15c.99.93.36-1.48,2,2-1.91.34-2.32-.09-2-2Z"/><path class="cls-8" d="M548.11,151.11c.88.87.81-1.82,2,2-1.9.35-2.32-.11-2-2Z"/><path class="cls-8" d="M430.24,35.24c3.59.6,1.21.87,2,2-1.9.33-2.34-.09-2-2Z"/><path class="cls-8" d="M450.22,47.23c3.7,1.45,1.14,1.21,2,2-1.91.32-2.33-.08-2-2Z"/><path class="cls-8" d="M532.13,126.14c.91.86.68-1.73,2,2-1.91.34-2.32-.09-2-2Z"/><path class="cls-8" d="M130.58,49.23c.24,2.12.12,2.24-2,2,.2-.36-.28-1.65.04-1.97s1.49.14,1.96-.03Z"/><path class="cls-8" d="M127.58,51.22c.35,1.82-.19,2.31-2,2,.23-.35-.25-1.74,0-2s1.5.19,2,0Z"/><path class="cls-8" d="M459.21,53.22c.3.17,1.49-.31,1.9.09.43.43-.07,1.59.1,1.91-2.12.24-2.24.13-2-2Z"/><path class="cls-8" d="M123.59,54.22c.35,1.89-.12,2.32-2,2,.8-.73-1.52-.34,2-2Z"/><path class="cls-8" d="M462.2,55.22c.5.19,1.75-.24,2,0s-.22,1.65,0,2c-1.8.31-2.35-.18-2-2Z"/><path class="cls-4" d="M4.72,288.96c-.62-86.4,43.57-173.83,110.98-225.14,152.97-116.45,370.95-54.69,445.58,118.58,18.03,41.87,23.72,83.12,20.8,128.54-.43,6.61-2.3,13.39-2,19.98-1.85,12.85-4.65,25.7-8.28,38.17-8.6,29.53-26.03,63.11-44.66,87.69-37.74,49.81-107.04,101.42-169.81,111.87.23-3.31,5.74-2.68,8.75-4.63,1.2-.78,1.59-2.45,2.25-2.8,2.56-1.35,9.12-1.6,9.97-6.55.61-.12,1.37.1,2,0,3.04-.51,9.93.39,9.99-4,1-.35,2.04-.65,3-1,1.84,4.72,12.87-1.08,11.99-4.99,142.75-60.3,213.32-232.8,140.84-373.58-30.36-58.96-72.1-104.24-133.18-132.02-6.84-3.11-11.75-4.71-18.65-5.82-1.81-.29-15.26-3.6-15.98-4-.09-.05.29-1.63-.73-1.97C234.5-20.6,85.4,54.87,33.69,194.06c-10.71,28.82-19.17,56.73-19.98,87.9-3.94.48-4.45,6.71-8.99,6.99Z"/><path class="cls-1" d="M13.71,281.96c-3.67,140.95,104.77,264.45,243.73,282.68-.66,1.71-1.82,2.38-3.43,3.06-1.91.8-9.69,2.77-11.55,2.93-.96.08-2.02.04-3,0l-2-1c-8.94-1.06-17.16-3.11-25.76-5.71C88.16,526.68,5.65,418.69,4.72,288.96c4.54-.28,5.05-6.51,8.99-6.99Z"/><path class="cls-4" d="M260.43,564.65l12.01,5.47c6.29,4.69,16.41-2.42,20.7-.8,1.35.51,1.07,2.55,3.92,3.09,4.28.8,6.87-.75,9.86-.64,1.74.06,3.49,1.62,5.91,1.9,9.45,1.1,8.83-4.31,14.25-4.81,3.44-.31,9.14,1.65,12.75,1.78,1.53.06,4.25.02,5.5,0-21.38,4.79-43.98,5.93-65.93,4.99-12.23-.52-25.06-2.15-36.96-4.99,1.86-.16,9.64-2.13,11.55-2.93,1.61-.68,2.77-1.35,3.43-3.06.96.13,2.03-.12,3,0Z"/><path class="cls-6" d="M527.13,456.77c1.68.61-1.1,4.2-1.59,4.91-14.06,20.59-36.27,40.95-55.39,55.45-54.63,41.43-118.18,62.8-187.29,60.5-1.92-.06-4.01,1.02-3.45-2,21.95.94,44.55-.2,65.93-4.99.66-.01,1.34.04,2,0,2.37-.14,6-.65,7.99-2,.64-.09,1.37.1,2,0,62.77-10.45,132.06-62.07,169.81-111.87Z"/><path class="cls-4" d="M239.46,570.64c-1.77-.06-1.89-.99-2-1l2,1Z"/><path class="cls-6" d="M378.3,29.25c.73.4,14.17,3.7,15.98,4,13.99,6.87,27.82,13.87,40.67,22.75,44.87,31.02,79.39,71.73,103.16,121.08,84.68,175.79-43.97,376.38-237.19,379.61-112.54,1.88-213.78-61.05-255.74-165.87-22.78-56.91-22.83-143.62-.51-200.76,9-23.04,32.09-61.67,52.94-74.92l-4.02,6.47c-23.94,26.7-41.39,60.56-50.63,95.2-1.58,5.91-3.46,12.75-4.22,18.77-.39,3.06,4.08.48,5.8,1.56,1.03.65,5.86,19.9,7.11,23.35,5.84,16.14,15.19,32.07,26.98,44.43,5.69-36.95,14.63-73.37,28.98-107.87-16.28-4.63-32.96-7.74-49.44-2-.92-.06-.61-1.59-.47-2.46.58-3.53,5.99-15.07,7.77-19.21,8.85-20.52,23.95-43.93,38.13-61.26.3-.37.7-.65,1-1l1-1c19.49-22.1,59.15-46.75,86.9-56.94,15.57-5.72,33.53-6.27,48.94-13l-5.61-1.86-36.33,1.87c.4-.57-.39-1.81,1.68-2.79,2.86-1.36,13.65-2.94,17.3-3.2,43.21-3.04,76.74,10.15,113.87,29.97,9.22,4.92,17.74,11.09,26.97,15.98,2.54,2.62,10.02,9.03,13.46,9,5.99-.06,18.35-4.44,24.92-6.07,2.05-.51,4.72-2.5,6.57-2.93,5.11-1.18,12.55-.94,17.98-2,6.76,2.11,15.86,2.1,22.97,3.99-3.49-15.24-19.44-26.41-32.04-34.37-11.13-7.03-22.85-10.38-33.88-16.57-.76-.43-2.32-.12-2.99-1.5l1.99-.49ZM308.37,60.23c-12.07-4.79-23.99-12.38-37.44-11.99-53.91,1.56-90.79,40.02-121.35,79.43-14.5,18.7-29.09,39.45-37.98,61.4l12.16-18.29c37.4-52.74,107.45-102.7,173.13-108.55,3.24-.29,6.88.39,10,0,1.39-.18,2.9-.53,1.48-1.98ZM335.35,75.2c-11.91-9.95-27.76-8.71-42.31-6.85-22.46,2.87-45.38,11.63-64.57,23.34,27.87,2.97,52.66,13.36,77.91,24.47,2.77,1.22,5.46,4.84,8.99,3.58,15.46-9.4,30.91-19.23,47.95-25.57,1.06-1.45-2.73-4.04-3.67-4.81-3.34-2.72-21.12-13.91-24.3-14.16ZM477.19,124.14c1.74-1.39,1.43-3.67,2.1-5.2.41-.93,1.84-.85,1.93-1.45.31-2.18-2.68-7.83-3.86-10-4.32-7.97-12.6-13.42-17.21-19.75-1.07-1.46-.82-3.52-1.9-5.09-1.4-2.03-5.43-5.7-8-5.97,2.76,4.26,1.99,10.6,3,14.8.18.76,1.69.58,1.92,1.41,2.49,8.94,3.51,26.27,1.6,35.3-1.22,5.75-9.9,23.77-9.37,27.2.42,2.71,8.68,9.9,11.19,12.36.48.47,1.51.22,1.63.34s-.13,1.17.34,1.63c2.95,2.87,33.02,30.24,35.61,27.34.33-14.46-.26-29.16-4.27-43.16-2.25-7.85-8.99-24.15-14.7-29.75ZM450.22,109.16c-.71-15.78-1.73-21.42-18.5-22.96-18.69-1.71-35.94,3.37-53.42,8.98-.54.52,10.41,8.57,11.99,8.98.25.39.72.64,1,1,1.61,2.04,3.08,4.76,5.99,4.99,7.6,9.34,19.79,18.32,28.49,26.94,5.62,5.57,10.09,12.18,16.44,17.01-.54-5.44,2.83-9.92,4.27-15.22,2.49-9.19,4.16-20.17,3.73-29.73ZM321.37,124.16c-.32,1.44.14,1.62,1.03,2.44,4.06,3.72,15.11,9,20.46,12.51,21.02,13.78,50.25,38.49,71.72,48.14,12.67,5.7,15.99,3.06,21.34-8.98,2.16-4.86,5.24-11.7,2.36-16.72-15.33-14.24-29.15-30.21-44.48-44.42-3.22-2.99-19.1-17.54-21.57-18.47-2.35-.88-6.08,1.3-8.59,2.34-14.84,6.13-28.45,15.17-42.27,23.17ZM238.46,101.17c-8.87-2.12-20.44-3.43-29.17-.69-1.22.38-5.48,1.62-4.79,3.69-.73.34-1.3.64-2,1-.41.21-.69.83-1,1-.26.14-.75-.14-1,0-3,1.72-8.83,5.44-10.99,7.99-.3.35-.69.64-1,1-1.91-.13-2.46,1.73-4,3-.36.3-.64.71-1,1-1.68,1.36-1.77,1.8-2,2-.19.16-.8-.16-1,0-1.3,1.1-2.18,2.31-3,3-.36.3-.64.7-1,1-.88.75-1.43,1.51-2,2-.28.25-1.29.38-2,1-1.6,1.4-4.01,3.17-5.99,4.99-2.16,1.98-3.95,3.99-5.99,5.99-.34.33-.67.67-1,1-3.08,3.09-6.16,5.54-8.99,8.99-1.06,1.29-2.26,2.45-3,4-.67.67-1.32,1.33-2,2-.34.33-.66.67-1,1-.69.69-1.32,1.28-2,2-2.88,3.03-6.27,6.04-7.99,9.99-25.93,30.47-43.14,89.97-47.82,129.48-1.07,9-3.41,14.59,3.34,21.37,20.01,20.1,46.64,32.2,71.45,44.92.6.31.89,2.74,2.99,1.99l10.49-40.95c11.16-27.77,20.43-56.34,33.61-83.26,22.66-46.29,53.97-85.69,95.73-116.01-13.98-9.92-31.97-17.42-48.93-20.48-1.86-2.07-6.22-2.88-8.99-3-.64-.03-1.38-.07-2,0-.47-1.26-1.9-1.01-3-1-.99.01-2.01-.07-3,0ZM520.51,156.75c-6.27-10.61-14.21-25.75-22.83-34.62-1.04-1.07-1.74-2.34-3.5-1.98,10.31,27.87,16.42,56.09,17.42,85.95,10.78,3.46,22.28,4.26,33.52,3.93,2.55-2.43-16.95-41.45-19.8-46.61-1.33-2.41-3.75-4.9-4.8-6.68ZM311.37,132.13c-14.96,3.91-47.43,38.47-57.91,51.47-1.67,2.07-13.72,18.43-13.01,19.43,36.76,21.28,70.76,47.19,107.01,69.31,5.79,3.53,12.77,7.79,18.84,10.62.75,1.77,2.43,2.29,4,3,.28.13.73-.13,1,0,1.17,2.33,3.91,2.86,5.99,4,.26.14.74-.14,1,0,.3.16.58.79,1,1,.66.33,1.35.66,2,1,.18.09.45.72,1,1,.26.13.74-.14,1,0,2.23,3.4,6.63,4.27,9.99,5.99.68.35,1.31.67,2,1,.16.08.44.72,1,1,.27.13.73-.13,1,0,.17.09.45.72,1,1,.27.13.73-.13,1,0,2.99,3.17,8.93,6.38,12.99,7.99.29.11.71-.11,1,0,.93,2.31,2.99,2.39,4.99,3,.31.09.71-.1,1,0,.64,1.83,2.24,2.07,3.74,2.75,8.01,3.67,16.19,6.75,24.23,10.23.28.12.72-.12,1,0,.18.08.47.76,1,1,9.67,4.29,18.96,7.8,28.29,13.16,4.27,2.46,6.41,8.06,9.72,1.37,13.71-27.79,19-86.28,16.94-116.93-.25-3.72.61-8.66,0-11.98-.67-3.61-8.25-4.9-10.99-6.49-16.46-9.55-31.3-23.35-45.46-35.95-2.65-1.14-2.16,7-2.48,7.98-.79,2.4-4.43,9.19-5.97,11.51-11.3,17.01-30.75,3.4-43.5-4.5-25.1-15.55-48.89-35.56-74.48-50.38-4.73-2.74-4.43-4.01-9.9-2.58ZM229.47,222.03c-.54.89-1.75,1.85-3,4-19.64,33.71-35.88,78.58-47.21,116.1-1.11,3.67-7.23,23.14-6.62,25.07,1.5,4.77,48.25,17.83,55.8,17.62,5.73-24.15,17.33-46.6,29.23-68.21.73-1.33.5-3.19.77-3.67,3.61-6.44,10.84-18.11,14.98-23.97,1.99-2.82,13.31-16.58,15.48-17.99,1.8-1.17,10.01-4,9.5-.5-.27,1.84-2.75,6.31-3.81,8.19-9.18,16.32-17.61,30.29-26.17,47.25-8.41,16.67-22.09,40.6-27.51,57.9-.32,1.03-.66,1.92-.46,3.03,33.41,1.02,66.74-.78,99.1-9.27,30.65-8.04,64.02-22.56,87.69-43.67,1.36-1.21,7.02-3.81,4.98-5.48-28.04-13.05-54.56-28.74-80.81-45.05-36.37-22.6-73.8-51.87-110.66-72.13-.95-.52-3.43-2.33-4.32-1.77-1.51,3.65-4.35,6.45-6.41,9.66-.67,1.04-.35,2.56-.56,2.9ZM510.15,367.87c9.47,9.82,17.87,21.49,23.47,33.96,29.79-56.19,31.41-124.12,15.48-184.79-1.02.22-1.89.95-2.99,1-5.32.25-14.06-.43-19.46-1.01-5.19-.56-10.38-2-15.49-2.98,1.98,31.9.27,63.51-6.68,94.71-1.13,5.05-2.45,10.17-3.81,15.16-1.43,5.26-8.57,23.23-8.57,26.49,0,1.31.25,2.01,1.01,3.05,1.67,2.26,11.04,8.02,14.08,10.9,1.24,1.18,1.99,2.49,2.97,3.51ZM72.26,310.31c-1.42-1.64-7.36-9.03-8.12-9.35-3.68-1.54,2.12,7.53,2.67,8.32,13.81,19.98,38.75,38.88,59.47,51.4,29.31,17.71,61.55,29.9,94.78,38.11l-20.57,48.47c.31,1.59,11.35,3.2,13.03,2.06,4.54-3.08,12.79-47.81,15.94-55.47-24.26-4.7-48-11.89-70.6-21.81-33.27-14.6-62.74-34.16-86.61-61.73ZM79.63,379.85c.34-.31-3.46-6.69-4-7.47-12.07-17.59-26.23-33.97-31.46-55.44l-3.48-6c-.24,5.74,2.21,11.85,4.22,17.24,5.44,14.62,16.38,32.53,26.34,44.58,1.16,1.4,6.27,9.03,8.38,7.09ZM77.64,387.84c-16.41-19.04-24.98-27.77-35.82-51.58-.56-1.23-5.2-14.63-6.13-13.34,3.88,49.62,24.23,96.28,56.43,133.84-.28-7.88-3.08-18-6.5-24.97-.88-13.22-4.01-26.16-4.01-39.47.18-1.71-1.54-1.95-1.99-2.48-.3-.36-.71-.64-1-1l-1-1ZM236.46,400.83c-1.09,4.31-1.96,8.75-3,12.99-2.11,8.68-5.23,17.47-6.72,26.74-.31,1.95-1.9,10.47-.68,11.33,4.22.77,8.65,1.42,12.91,1.88,31.78,3.44,64.33,2.45,96.02-.88,1.64-.17,4.33-.82,5.36.89-20.47,4.25-39.78,7.39-60.39,8.03-26.4.82-52.66-1.75-78.45-7.03-1.27,3.33,1.44,5.37,1.99,6.99,1.59,4.62,5.77,18.73,9.6,20.87,4.73,2.63,23.2,2.89,29.36,3.11.33.01.67-.01,1,0,8.05.25,16.93.29,24.97,0,.33-.01.67.01,1,0,44.05-1.79,89.9-11.84,127.86-33.96.5-.29,1.15-.48,2-1,2.85-1.74,6.99-2.81,8.99-5.99.26-.14.73.13,1,0,.72-.35.93-.96,1-1,13.19-6.98,27.21-20.07,35.96-31.96,11.37-7.62,27.05-39.99,31.96-52.94.07-.18,1.94-1.15,2.54-2.92,1.88-5.56.2-4.76-3.54-6.07-1.2-1.36-2.75-2.3-4.33-3.16-4.94-2.71-26.9-13.45-31.08-12.85-1.58.23-20.99,15.75-24.79,18.23-48.91,32.01-112.01,44.6-170.08,42.77-2.77-.09-9.15-2.81-10.31.62-.56,1.67.21,3.95-.14,5.33ZM280.41,492.73c-6.89.33-14.06.02-20.98,0-1,0-2,.01-3,0-13.2-.19-25.96.17-38.95-2.99-.89.88,3.18,5.58,3.96,6.51,5.27,6.26,11.92,11.28,18.01,16.46,46.25,39.35,100,40.04,154.83,18.98,46.18-17.74,85.23-47.45,114.68-87.54,3.8-5.18,19.29-27.83,19.13-32.72-.07-2.1-5.74-14.42-7.13-16.91-3.46-6.21-8.18-11.38-12.81-16.65-4.19-4.78-13.72-15.73-18.46-18.99-.84-.58-1-1.39-2.5-.98-30.95,85.87-119.19,130.69-206.78,134.85ZM89.62,399.83c.08,1.46.91,3.17,1,4.99.92,20.02,5.33,44.3,13.81,62.6,6.58,14.19,15.96,20.5,28.14,29.3,6.99,5.05,11.4,7.84,18.98,11.99,4.84,2.65,9.63,5.79,14.96,7.5l-10.9-32.04c-.69-10.96-3.59-21.57-5.06-32.39-.04-.33.04-.67,0-1-.19-1.48-.97-2.75-1-3-.46-4.13.51-8.67-.16-12.83-20.99-9.69-39.26-24.02-58.77-36.12-.06-.04.13-1.16-.99-1v2ZM158.55,447.78c1.54,11.2,2.37,19.64,4.99,30.97,2.17,9.39,8.6,35.65,13.96,42.48,4.18,5.33,23.47,12.03,30.48,14.47,3.03,1.05,6.1,1.23,8.51,1.98.32.1,1.26,1.31,2.7,1.74,30.9,9.25,62.91,12.51,95.18,11.23l-20.16-3.3c-8.81-1.77-17.95-4.79-25.58-7.58-2.71-.99-8.13-3.81-10.19-4.09-8.74-5.59-17.53-11.25-25.44-18.01-19.26-16.44-32.3-32.97-38.48-57.91-.35-1.4-1.14-5.8-1.58-6.12l-36.38-11.85c-.25.19,1.89,5.21,2,5.98Z"/><path class="cls-2" d="M546.11,171.09c72.48,140.78,1.91,313.28-140.84,373.58-3.71,1.57-8.36,3.67-11.99,4.99-.96.35-2,.65-3,1-2.99,1.06-8.21.74-9.99,4-.63.1-1.39-.12-2,0-43.36,8.55-72.34,15.43-117.87,9.99-.97-.12-2.03.13-3,0C118.48,546.42,10.04,422.91,13.71,281.96c.81-31.17,9.27-59.08,19.98-87.9l10.99-4c-22.32,57.14-22.27,143.85.51,200.76,41.96,104.82,143.19,167.75,255.74,165.87,193.22-3.23,321.87-203.82,237.19-379.61,1.83-3.95,2.71-8.45,7.99-5.99Z"/><path class="cls-1" d="M33.69,194.06C85.4,54.87,234.5-20.6,377.57,27.28c1.02.34.63,1.92.73,1.97l-1.99.49c.67,1.38,2.23,1.07,2.99,1.5-.86,1.47-4.03.19-5.36-.14-45.38-11.17-108.51-17.43-152.74.4-1.55.63-3.23.25-2.71,2.73-3.65.26-14.44,1.84-17.3,3.2-2.07.98-1.27,2.22-1.68,2.79-2.56,3.67-6.06,8.66-6.99,12.99-27.75,10.19-67.41,34.84-86.9,56.94-.31.35-.69.64-1,1s-.7.63-1,1c-2.64.08-4.09,1.79-5.99,3-20.85,13.25-43.94,51.87-52.94,74.92l-10.99,4Z"/><path class="cls-1" d="M394.28,33.24c6.91,1.11,11.81,2.71,18.65,5.82,61.07,27.79,102.82,73.06,133.18,132.02-5.28-2.46-6.16,2.04-7.99,5.99-23.77-49.35-58.3-90.06-103.16-121.08-12.86-8.89-26.68-15.88-40.67-22.75Z"/><path class="cls-1" d="M378.3,554.66c-.85,4.95-7.42,5.2-9.97,6.55-.66.35-1.05,2.02-2.25,2.8-3.01,1.95-8.52,1.32-8.75,4.63-.62.1-1.36-.09-2,0-1.44.19-6.8-1.53-7.99,2-.66.04-1.33-.01-2,0-1.25.02-3.96.06-5.5,0-3.61-.14-9.31-2.1-12.75-1.78-5.41.49-4.8,5.9-14.25,4.81-2.42-.28-4.16-1.84-5.91-1.9-2.99-.11-5.58,1.44-9.86.64-2.85-.53-2.57-2.58-3.92-3.09-4.3-1.62-14.41,5.49-20.7.8l-12.01-5.47c45.53,5.44,74.51-1.44,117.87-9.99Z"/><path class="cls-1" d="M405.27,544.67c.89,3.92-10.15,9.71-11.99,4.99,3.63-1.32,8.27-3.43,11.99-4.99Z"/><path class="cls-1" d="M390.29,550.66c-.06,4.39-6.94,3.49-9.99,4,1.78-3.26,7-2.94,9.99-4Z"/><path class="cls-4" d="M355.33,568.64c-1.99,1.35-5.62,1.86-7.99,2,1.19-3.53,6.55-1.81,7.99-2Z"/><path class="cls-3" d="M508.15,377.86c4.63,5.28,9.36,10.45,12.81,16.65,1.39,2.49,7.06,14.81,7.13,16.91.17,4.89-15.32,27.54-19.13,32.72-29.46,40.09-68.5,69.8-114.68,87.54-1.08-2.35-4.24-2.75-6.5-3-10.59-1.13-21.62,1.13-31.96,1-25.74-.31-51.33-3.06-76.96-5.04-2.5-.19-4.71,1.1-6.73.85-5.83-.74-19.71-14.24-26.45-16.61-2.5-.63-6.17.68-6.23,3.82-6.08-5.18-12.74-10.19-18.01-16.46-.79-.94-4.85-5.64-3.96-6.51,12.99,3.17,25.75,2.81,38.95,2.99-.88,2.98,3.77,3.17,3,0,6.92.02,14.09.33,20.98,0,.12,1.93,1.94,4.27,3.71,4.79,7.26,2.11,32.82-3.26,41.43-5.1,58.75-12.51,111.38-40.25,144.89-91.34,4.1-1.32,9.06-.69,13.02-1.47,2.52-.5,7.37-1.55,9.75-2.24,6.29-1.82,12.46-13.58,14.95-19.51Z"/><path class="cls-5" d="M218.48,101.17c-34.43,31.15-56.48,81.48-51.81,128.23,1.59,15.92,5.78,38.43,22.89,44.15-12.2,29.15-21.12,59.49-28.01,90.33-24.81-12.73-51.43-24.82-71.45-44.92-6.75-6.78-4.41-12.37-3.34-21.37,4.68-39.51,21.89-99.02,47.82-129.48.11-.12,1.23.33,1.81-.16l6.18-9.83c.68-.72,1.31-1.31,2-2l1-1c.68-.67,1.33-1.33,2-2,1.14-1.14,3.17-1.49,3-4,2.82-3.45,5.91-5.9,8.99-8.99l1-1c2.05-2,3.84-4.01,5.99-5.99,2.18-.69,6.31-2.64,5.99-4.99.71-.62,1.71-.75,2-1l2-2c.35-.3.64-.7,1-1,1.71-.72,3.54-.74,3-3,.19-.16.81.16,1,0,2.12.24,2.24.13,2-2,.36-.29.64-.7,1-1,4.25.2,3.58-2.52,4-3,.31-.36.7-.65,1-1l6.24-3,4.74-4.99c.25-.14.74.14,1,0l1-1c.7-.36,1.27-.66,2-1,3.94-1.83,6.96-4.26,11.53-4.07,1.28.05,2.31,1.07,2.46,1.08Z"/><path class="cls-1" d="M311.37,136.13c.08.11,1.46-.32,1.8.17,1.33,1.96,2.26,5.3,3.78,7.74,23.72,38.23,94.84,97.61,142.5,90.72,11.89-1.72,19-10.92,16.52-22.99-2.12-10.3-22.75-26.6-30.74-33.69.32-.98-.16-9.12,2.48-7.98,14.16,12.6,29,26.4,45.46,35.95,1.07,22.93,3,47.58-3.5,69.91-8.08,27.76-29.69,22.82-52.65,16.7-47.06-12.53-128.19-56.39-147.1-103.62-10.8-26.96,1.98-36.79,21.46-52.92Z"/><path class="cls-1" d="M238.46,101.17c.98-.07,2.01.01,3,0-.47,4.03,1.99,1.12,3,1,.62-.07,1.36-.03,2,0-.94,2.42,5.03,3.28,7.03,3.6,1.33.22,1.86-.62,1.96-.61,16.96,3.05,34.95,10.56,48.93,20.48-41.76,30.32-73.07,69.72-95.73,116.01-13.18,26.92-22.45,55.49-33.61,83.26l-10.49,40.95c-2.1.74-2.39-1.69-2.99-1.99,6.9-30.84,15.81-61.18,28.01-90.33-17.11-5.72-21.3-28.22-22.89-44.15-4.67-46.75,17.38-97.08,51.81-128.23,7.09.27,13.2.5,19.98,0Z"/><path class="cls-8" d="M427.24,333.91c.49-2.86-1.2-2.31-3.06-1.56-6.58,2.65-14.15,8.52-21.24,11.72-39.41,17.79-83.75,20.32-119.87-6.34-5.07-3.74-9.2-8.89-14.65-11.82,8.56-16.96,16.98-30.93,26.17-47.25,1.06-1.88,3.54-6.35,3.81-8.19.51-3.5-7.7-.67-9.5.5-2.17,1.4-13.48,15.16-15.48,17.99l-43.95-66.92c.21-.34-.11-1.86.56-2.9,2.06-3.21,4.9-6.01,6.41-9.66.9-.55,3.38,1.25,4.32,1.77,36.86,20.26,74.29,49.53,110.66,72.13,26.25,16.31,52.77,32,80.81,45.05,2.03,1.67-3.62,4.27-4.98,5.48Z"/><path class="cls-5" d="M478.19,358.88c-4.91,12.95-20.59,45.32-31.96,52.94-14.61,9.78-32.64,18.34-48.94,24.97-19.53,7.95-36.29,12.7-56.94,16.98-1.03-1.71-3.72-1.06-5.36-.89-31.69,3.33-64.24,4.33-96.02.88-4.26-.46-8.69-1.11-12.91-1.88-1.22-.86.37-9.38.68-11.33,1.49-9.26,4.61-18.06,6.72-26.74,15.5.04,30.99.24,46.44-1.01,17.11-1.38,34.1-5.22,50.89-5.94.6-.03.51-2.05,1.15-2.12,1.31-.15,2.84,1.17,3.84,1.13.32-.01-.35-.92,4.98-1.02.56-.01.44-1.72,1.31-1.97,8.86-2.58,18.05-4.04,26.99-6.81,23.67-7.33,47.63-19.11,69.09-32.78,3.91-2.49,18.24-13.69,20.79-14.23,4.28-.9,16.66,5.7,19.24,9.82Z"/><path class="cls-5" d="M311.37,132.13c.21.94-.3,3.59,0,4-19.48,16.13-32.25,25.96-21.46,52.92,18.91,47.23,100.04,91.09,147.1,103.62,22.96,6.11,44.57,11.05,52.65-16.7,6.5-22.33,4.57-46.98,3.5-69.91,2.74,1.59,10.32,2.88,10.99,6.49.62,3.32-.24,8.26,0,11.98,2.05,30.65-3.23,89.14-16.94,116.93-3.3,6.69-5.45,1.09-9.72-1.37-9.33-5.37-18.62-8.88-28.29-13.16l-1-1c-.28-.12-.72.12-1,0-4.08-3.98-11.44-5.58-16.67-7.8-4.25-1.8-6.66-3.54-11.29-5.19-.29-.1-.69.09-1,0,.67-3.28-3.19-2.32-4.99-3-.29-.11-.71.11-1,0-3.29-4.46-8.37-5.68-12.99-7.99-.27-.13-.73.13-1,0l-1-1c-.27-.13-.73.13-1,0l-1-1c-.69-.33-1.32-.65-2-1-2.72-3.27-6.43-4.16-9.99-5.99-.26-.14-.74.13-1,0l-1-1c-.65-.34-1.34-.67-2-1l-1-1c-.26-.14-.74.14-1,0-1.18-2.24-3.88-2.96-5.99-4-.27-.13-.72.13-1,0,.66-2.92-2.22-2.17-4-3-6.07-2.83-13.05-7.09-18.84-10.62-36.25-22.12-70.25-48.03-107.01-69.31-.71-1,11.34-17.35,13.01-19.43,10.48-13,42.95-47.56,57.91-51.47Z"/><path class="cls-2" d="M226.47,226.03c3.06-.55,1.88,1.54,2,3.45,1.83,30.33,10.57,59.79,29.97,83.45-.27.48-.04,2.35-.77,3.67-11.89,21.62-23.5,44.06-29.23,68.21-7.55.21-54.3-12.85-55.8-17.62-.61-1.92,5.51-21.39,6.62-25.07,11.34-37.52,27.58-82.39,47.21-116.1Z"/><path class="cls-4" d="M445.22,178.08c7.98,7.09,28.62,23.38,30.74,33.69,2.48,12.07-4.62,21.27-16.52,22.99-47.66,6.89-118.78-52.49-142.5-90.72-1.51-2.44-2.44-5.77-3.78-7.74-.34-.5-1.72-.06-1.8-.17-.3-.4.21-3.06,0-4,5.47-1.43,5.17-.16,9.9,2.58,25.59,14.82,49.39,34.83,74.48,50.38,12.74,7.9,32.2,21.51,43.5,4.5,1.54-2.32,5.18-9.11,5.97-11.51Z"/><path class="cls-5" d="M379.3,31.25c11.02,6.18,22.75,9.53,33.88,16.57,12.6,7.96,28.55,19.14,32.04,34.37-7.11-1.89-16.21-1.88-22.97-3.99-5.01-1.57-10.2-6.3-14.94-8.54-20.01-9.43-42.84-17.24-65.17-12.14-3.3.75-10.55,2.12-9.79,6.69-37.14-19.82-70.66-33.01-113.87-29.97-.52-2.48,1.16-2.11,2.71-2.73,44.23-17.83,107.37-11.57,152.74-.4,1.34.33,4.5,1.61,5.36.14Z"/><path class="cls-7" d="M321.37,124.16c13.82-8,27.43-17.04,42.27-23.17,2.51-1.04,6.24-3.22,8.59-2.34,2.47.93,18.35,15.48,21.57,18.47,15.33,14.21,29.15,30.18,44.48,44.42,2.88,5.03-.2,11.86-2.36,16.72-5.35,12.04-8.66,14.68-21.34,8.98-21.47-9.65-50.7-34.37-71.72-48.14-5.35-3.5-16.4-8.79-20.46-12.51-.9-.82-1.35-1-1.03-2.44Z"/><path class="cls-2" d="M103.61,112.16c-14.18,17.32-29.28,40.74-38.13,61.26-1.79,4.14-7.19,15.68-7.77,19.21-.14.87-.45,2.39.47,2.46,16.47-5.75,33.16-2.63,49.44,2-14.35,34.5-23.29,70.91-28.98,107.87-11.79-12.36-21.14-28.29-26.98-44.43-1.25-3.46-6.08-22.7-7.11-23.35-1.72-1.09-6.18,1.49-5.8-1.56.76-6.02,2.65-12.86,4.22-18.77,9.25-34.64,26.69-68.5,50.63-95.2l4.02-6.47c1.9-1.21,3.35-2.91,5.99-3Z"/><path class="cls-3" d="M268.42,325.91c5.46,2.93,9.59,8.08,14.65,11.82,36.12,26.65,80.46,24.13,119.87,6.34,7.09-3.2,14.67-9.07,21.24-11.72,1.85-.75,3.54-1.3,3.06,1.56-23.66,21.1-57.04,35.62-87.69,43.67-32.36,8.49-65.69,10.29-99.1,9.27-.2-1.11.13-2,.46-3.03,5.42-17.3,19.1-41.23,27.51-57.9Z"/><path class="cls-8" d="M546.11,218.04c.5,5.16-8.55,3.54-9.05,5.65.99,10.29,3.11,20.52,4.05,30.81,3.89,42.93-6.17,72.01-26.81,109.03-.88,1.57-1.85,4.72-4.15,4.33-.98-1.02-1.73-2.33-2.97-3.51-3.03-2.88-12.41-8.65-14.08-10.9-.77-1.04-1.01-1.74-1.01-3.05,0-3.26,7.14-21.23,8.57-26.49s2.69-10.11,3.81-15.16c6.95-31.2,8.67-62.81,6.68-94.71,5.11.98,10.3,2.42,15.49,2.98,5.41.58,14.15,1.26,19.46,1.01Z"/><path class="cls-3" d="M546.11,218.04c1.09-.05,1.96-.78,2.99-1,15.93,60.67,14.31,128.6-15.48,184.79-5.6-12.46-13.99-24.13-23.47-33.96,2.3.39,3.27-2.76,4.15-4.33,20.64-37.02,30.7-66.1,26.81-109.03-.93-10.29-3.06-20.52-4.05-30.81.5-2.11,9.55-.49,9.05-5.65Z"/><path class="cls-3" d="M308.37,60.23c1.42,1.45-.09,1.81-1.48,1.98-3.11.4-6.75-.28-10,0-65.68,5.85-135.73,55.81-173.13,108.55l-12.16,18.29c8.88-21.95,23.47-42.69,37.98-61.4,30.56-39.41,67.44-77.87,121.35-79.43,13.45-.39,25.38,7.2,37.44,11.99Z"/><path class="cls-1" d="M477.19,349.89c3.75,1.31,5.42.51,3.54,6.07-.6,1.78-2.47,2.74-2.54,2.92-2.58-4.12-14.96-10.72-19.24-9.82-2.56.54-16.88,11.73-20.79,14.23-21.46,13.68-45.41,25.46-69.09,32.78-8.94,2.77-18.13,4.23-26.99,6.81-.87.25-.74,1.96-1.31,1.97-5.33.1-4.66,1.01-4.98,1.02-1,.03-2.53-1.29-3.84-1.13-.64.08-.55,2.1-1.15,2.12-16.79.73-33.78,4.56-50.89,5.94-15.45,1.25-30.94,1.05-46.44,1.01,1.03-4.24,1.91-8.68,3-12.99,11.13-.34,22.37.44,33.5.04,35.01-1.26,71.76-7.81,104.59-20.27,25.62-9.73,46.64-23.79,69.43-38.52,4.53-1.08,9,2.71,12.96,3.58,7.35,1.61,12.43,1.49,20.25,4.23Z"/><path class="cls-1" d="M397.28,436.79l-3.2,11.28c-.82,2.05-3.27,1.49-3.8,4.2-.89,4.55,5.46-2.85,7-.49-37.96,22.13-83.8,32.17-127.86,33.96-.55-3.1,1.56-1.84,3.46-1.98,3.55-.26,7.02-.38,10.52-1.02-2.67-1.66-12.66-15.47-13.65-15.81-3.18-1.08-12.61.1-16.86-.12-9.63-.51-19.86-1.02-29.43-2.04-6.43-.68-13.32-3.26-19.98-3-.56-1.61-3.26-3.65-1.99-6.99,25.78,5.27,52.04,7.85,78.45,7.03,20.62-.64,39.92-3.79,60.39-8.03,20.64-4.28,37.41-9.03,56.94-16.98Z"/><path class="cls-5" d="M194.51,459.76c6.19,24.93,19.22,41.47,38.48,57.91,7.92,6.76,16.71,12.42,25.44,18.01-4.03-.55-8.47-1.26-12.99-2-.92-.15-2.04.12-3,0,.32-2.86-.24-1.7-2-2-8.49-1.47-23.7-9.29-31.64-13.81-17.81-10.15-31.48-24.24-45.28-39.13-2.62-11.33-3.46-19.76-4.99-30.97l35.96,11.99Z"/><path class="cls-7" d="M335.35,75.2c3.18.25,20.96,11.43,24.3,14.16.94.77,4.72,3.36,3.67,4.81-17.04,6.34-32.49,16.17-47.95,25.57-3.53,1.26-6.22-2.37-8.99-3.58-5.34-9.4-27.65-23.11-17.44-35.92,9.41-11.8,31.71-6.14,44.25-4.23,1.41.21,2.04-.81,2.15-.8Z"/><path class="cls-8" d="M508.15,377.86c-2.49,5.93-8.66,17.69-14.95,19.51-2.37.69-7.23,1.74-9.75,2.24-3.96.78-8.92.15-13.02,1.47-33.51,51.09-86.13,78.83-144.89,91.34-8.61,1.83-34.17,7.21-41.43,5.1-1.77-.51-3.59-2.85-3.71-4.79,87.59-4.15,175.83-48.97,206.78-134.85,1.5-.41,1.66.4,2.5.98,4.74,3.26,14.27,14.21,18.46,18.99Z"/><path class="cls-8" d="M394.28,531.68c-54.82,21.06-108.58,20.37-154.83-18.98.06-3.13,3.73-4.45,6.23-3.82,6.74,2.37,20.62,15.87,26.45,16.61,2.01.26,4.23-1.04,6.73-.85,25.63,1.98,51.22,4.73,76.96,5.04,10.35.13,21.38-2.13,31.96-1,2.26.24,5.42.65,6.5,3Z"/><path class="cls-4" d="M450.22,109.16c.43,9.56-1.24,20.54-3.73,29.73-1.44,5.3-4.8,9.78-4.27,15.22-6.36-4.83-10.82-11.44-16.44-17.01-8.7-8.62-20.89-17.6-28.49-26.94-1.39-1.71-1.48-5.73-5.99-4.99-.28-.36-.75-.61-1-1-3.71-5.81-4.91-8.13,3.5-8.99,10.82-1.11,23.72.56,34,3.96,8.16,2.7,14.38,8.02,22.44,10.02Z"/><path class="cls-8" d="M520.51,156.75c1.05,1.77,3.47,4.27,4.8,6.68,2.85,5.16,22.35,44.18,19.8,46.61-11.24.33-22.73-.47-33.52-3.93-1-29.86-7.11-58.08-17.42-85.95,1.76-.36,2.46.9,3.5,1.98,8.62,8.87,16.57,24.01,22.83,34.62Z"/><path class="cls-8" d="M335.35,75.2c-.11,0-.75,1.02-2.15.8-12.54-1.91-34.84-7.56-44.25,4.23-10.22,12.8,12.1,26.51,17.44,35.92-25.25-11.11-50.04-21.5-77.91-24.47,19.19-11.71,42.11-20.47,64.57-23.34,14.55-1.86,30.4-3.1,42.31,6.85Z"/><path class="cls-8" d="M477.19,124.14c5.71,5.6,12.45,21.9,14.7,29.75,4.01,14,4.6,28.7,4.27,43.16-2.6,2.9-32.66-24.47-35.61-27.34-.47-.45-.22-1.51-.34-1.63,7.62-15.25,7.43-33.23,8-49.94.32-.43,8.38,5.4,8.98,5.99Z"/><path class="cls-3" d="M273.42,288.96c-4.14,5.86-11.38,17.54-14.98,23.97-19.39-23.66-28.13-53.12-29.97-83.45-.12-1.91,1.07-4.01-2-3.45,1.25-2.15,2.45-3.11,3-4l43.95,66.92Z"/><path class="cls-4" d="M477.19,349.89c-7.82-2.73-12.9-2.61-20.25-4.23-3.96-.87-8.43-4.66-12.96-3.58-22.79,14.73-43.81,28.79-69.43,38.52-32.82,12.46-69.58,19.02-104.59,20.27-11.13.4-22.37-.38-33.5-.04.35-1.39-.42-3.67.14-5.33,1.15-3.43,7.53-.71,10.31-.62,58.06,1.83,121.17-10.76,170.08-42.77,3.8-2.49,23.21-18.01,24.79-18.23,4.18-.6,26.13,10.14,31.08,12.85,1.58.87,3.13,1.8,4.33,3.16Z"/><path class="cls-3" d="M72.26,310.31c23.87,27.57,53.34,47.14,86.61,61.73,22.6,9.92,46.34,17.11,70.6,21.81-3.16,7.66-11.4,52.39-15.94,55.47-1.68,1.14-12.72-.47-13.03-2.06l20.57-48.47c-33.23-8.21-65.48-20.41-94.78-38.11-20.73-12.52-45.66-31.42-59.47-51.4-.55-.8-6.35-9.86-2.67-8.32.76.32,6.7,7.72,8.12,9.35Z"/><path class="cls-2" d="M77.64,387.84c.31.36.73.66,1,1,.29.36.7.64,1,1-.31,4.66-3.17,7.93-2,12.98-3.52.63-1.1-3.52-2.92-6.56-1.66-2.79-12.23-8.59-13.1-2.89-.32,2.11,6.64,17.64,8.18,20.8,1.4,2.88,5.89,12.65,8.53,13.44,1.69.5,5.88-.16,6.26.24.14.15.23,2.26,1.05,3.94,3.42,6.97,6.22,17.09,6.5,24.97-32.21-37.57-52.55-84.23-56.43-133.84.93-1.28,5.57,12.11,6.13,13.34,10.84,23.81,19.41,32.54,35.82,51.58Z"/><path class="cls-1" d="M240.45,531.68c-.29,2.76.13,1.77,2,2,.96.12,2.07-.15,3,0,.03,3.77,5.75,1.5,8.07,4.41.95,1.19,1.1,2.09.91,3.57-6.69-.96-13.72-1.04-20.38-2.09-4.55-.72-9.78-2.99-14.59-3.51-2.2-.24-1.75-.53-2.98,1.61-2.41-.75-5.47-.93-8.51-1.98-7.01-2.44-26.3-9.14-30.48-14.47-5.35-6.83-11.78-33.09-13.96-42.48,13.8,14.88,27.47,28.98,45.28,39.13,7.94,4.52,23.15,12.35,31.64,13.81Z"/><path class="cls-3" d="M460.21,168.09c-.12-.12-1.15.14-1.63-.34-2.5-2.46-10.77-9.66-11.19-12.36-.53-3.43,8.15-21.45,9.37-27.2,1.91-9.02.89-26.36-1.6-35.3-.23-.83-1.74-.65-1.92-1.41-1.01-4.2-.24-10.54-3-14.8,2.57.27,6.61,3.94,8,5.97,1.08,1.57.84,3.63,1.9,5.09,4.61,6.33,12.89,11.78,17.21,19.75,1.18,2.18,4.17,7.83,3.86,10-.08.59-1.51.52-1.93,1.45-.67,1.53-.36,3.8-2.1,5.2-.6-.59-8.66-6.43-8.98-5.99-.57,16.71-.38,34.69-8,49.94Z"/><path class="cls-1" d="M422.25,78.19c-5.43,1.06-12.87.82-17.98,2-15.55-6.78-34.13-9.57-50.94-6.98.72,2.32,3.7,2.89,5.06,4.46.79.91.76,2.35.93,2.52-9.23-4.89-17.75-11.06-26.97-15.98-.76-4.58,6.49-5.94,9.79-6.69,22.33-5.1,45.16,2.71,65.17,12.14,4.73,2.23,9.92,6.97,14.94,8.54Z"/><path class="cls-5" d="M99.61,420.81c6.09,23.32,11.12,35.53,25.16,55.25,5.97,8.4,13.41,15.83,18.79,24.66-1.02-.3-2.87.33-4.25-.04-.39-.1-4.57-4-6.74-3.96-12.18-8.8-21.56-15.11-28.14-29.3-8.49-18.3-12.89-42.58-13.81-62.6,2.24-1.64,2.29-.95,3.85.64,3.98,4.05,3.77,10.08,5.14,15.34Z"/><path class="cls-2" d="M223.47,464.76c9.57,1.01,19.8,1.53,29.43,2.04,4.25.22,13.68-.96,16.86.12.99.34,10.98,14.14,13.65,15.81-3.5.64-6.97.76-10.52,1.02-1.91.14-4.02-1.12-3.46,1.98-.33.01-.67-.01-1,0-5.81-1.77-13.3-1.08-19.49-1.02-1.69.02-4.44-.64-5.48,1.02-.33-.01-.67.01-1,0-4.29-8.17-15.06-12.31-18.98-20.98Z"/><path class="cls-1" d="M450.22,109.16c-8.06-2.01-14.28-7.33-22.44-10.02-10.28-3.39-23.17-5.06-34-3.96-8.4.86-7.21,3.17-3.5,8.99-1.58-.41-12.53-8.46-11.99-8.98,17.48-5.61,34.73-10.7,53.42-8.98,16.77,1.54,17.79,7.18,18.5,22.96Z"/><path class="cls-2" d="M90.62,398.83c19.51,12.1,37.78,26.43,58.77,36.12.67,4.16-.3,8.69.16,12.83-7.94-.21-14.08-8.09-20.25-12.22-3.79-2.53-8.08-3.94-11.65-6.33-6.39-4.27-9.33-12.09-18.04-8.43-1.37-5.26-1.17-11.3-5.14-15.34-1.56-1.58-1.61-2.28-3.85-.64-.08-1.83-.92-3.53-1-4.99,0-.12.82-.62,1-1Z"/><path class="cls-2" d="M258.43,535.68c2.06.28,7.49,3.1,10.19,4.09,7.63,2.79,16.77,5.81,25.58,7.58l20.16,3.3c-32.27,1.28-64.28-1.98-95.18-11.23-1.44-.43-2.39-1.65-2.7-1.74,1.23-2.13.78-1.85,2.98-1.61,4.81.53,10.04,2.8,14.59,3.51,6.66,1.05,13.69,1.12,20.38,2.09.19-1.48.03-2.38-.91-3.57-2.32-2.91-8.04-.64-8.07-4.41,4.51.74,8.95,1.45,12.99,2Z"/><path class="cls-4" d="M404.27,80.19c-1.85.42-4.51,2.42-6.57,2.93-6.58,1.63-18.94,6.01-24.92,6.07-3.44.03-10.91-6.38-13.46-9-.17-.17-.15-1.62-.93-2.52-1.36-1.57-4.34-2.14-5.06-4.46,16.82-2.59,35.4.21,50.94,6.98Z"/><path class="cls-5" d="M223.47,464.76c3.92,8.67,14.69,12.81,18.98,20.98-6.16-.21-24.63-.48-29.36-3.11-3.83-2.13-8.01-16.25-9.6-20.87,6.66-.26,13.54,2.31,19.98,3Z"/><path class="cls-2" d="M446.22,411.82c-8.75,11.9-22.77,24.99-35.96,31.96l-.98-1.01-.02,2.01c-.27.13-.74-.14-1,0-3.41,1.79-2.57.74-6.35,3.7-1,.78-3.38-.54-2.64,2.29-.84.52-1.5.71-2,1-1.54-2.35-7.89,5.04-7,.49.53-2.71,2.98-2.14,3.8-4.2l3.2-11.28c16.31-6.64,34.34-15.19,48.94-24.97Z"/><path class="cls-1" d="M85.63,431.8c-.82-1.68-.91-3.79-1.05-3.94-.38-.4-4.57.26-6.26-.24-2.64-.79-7.14-10.56-8.53-13.44-1.54-3.17-8.5-18.7-8.18-20.8.87-5.7,11.44.11,13.1,2.89,1.82,3.04-.6,7.19,2.92,6.56-1.17-5.05,1.7-8.32,2-12.98.44.53,2.16.76,1.99,2.48,0,13.32,3.13,26.25,4.01,39.47ZM78.63,404.83h-1.99v2.99h1.99v-2.99Z"/><path class="cls-2" d="M199.5,40.24l36.33-1.87,5.61,1.86c-15.41,6.72-33.37,7.28-48.94,13,.93-4.33,4.43-9.32,6.99-12.99Z"/><path class="cls-3" d="M79.63,379.85c-2.11,1.94-7.22-5.69-8.38-7.09-9.96-12.05-20.89-29.97-26.34-44.58-2.01-5.39-4.46-11.5-4.22-17.24l3.48,6c5.23,21.47,19.39,37.85,31.46,55.44.54.79,4.34,7.16,4,7.47Z"/><path class="cls-1" d="M158.55,447.78c-.11-.78-2.25-5.79-2-5.98l36.38,11.85c.44.31,1.23,4.72,1.58,6.12l-35.96-11.99Z"/><path class="cls-2" d="M238.46,101.17c-6.78.5-12.88.27-19.98,0-.15,0-1.17-1.02-2.46-1.08-4.57-.19-7.59,2.25-11.53,4.07-.69-2.07,3.57-3.31,4.79-3.69,8.73-2.74,20.3-1.43,29.17.69Z"/><path class="cls-2" d="M132.58,496.72c2.17-.04,6.35,3.86,6.74,3.96,1.39.36,3.23-.26,4.25.04,1.61.47,8.14,5.64,7.99,7.99-7.58-4.15-11.99-6.94-18.98-11.99Z"/><path class="cls-1" d="M268.42,485.73c-8.04.29-16.92.25-24.97,0,1.04-1.65,3.79-1,5.48-1.02,6.19-.07,13.68-.76,19.49,1.02Z"/><path class="cls-2" d="M255.44,105.16c-.1-.02-.63.82-1.96.61-2-.33-7.97-1.18-7.03-3.6,2.77.12,7.13.93,8.99,3Z"/><path class="cls-1" d="M397.28,110.16c-2.91-.23-4.39-2.95-5.99-4.99,4.51-.74,4.6,3.28,5.99,4.99Z"/><path class="cls-1" d="M408.27,444.78c-2,3.18-6.14,4.26-8.99,5.99-.74-2.84,1.64-1.51,2.64-2.29,3.77-2.96,2.94-1.91,6.35-3.7Z"/><path class="cls-2" d="M447.22,325.91c-8.04-3.48-16.22-6.56-24.23-10.23-1.5-.69-3.1-.92-3.74-2.75,4.64,1.65,7.05,3.39,11.29,5.19,5.24,2.22,12.6,3.82,16.67,7.8Z"/><path class="cls-2" d="M412.26,309.93c-4.06-1.61-10-4.82-12.99-7.99,4.62,2.31,9.69,3.54,12.99,7.99Z"/><path class="cls-2" d="M413.26,309.93c1.8.67,5.66-.29,4.99,3-2.01-.6-4.06-.69-4.99-3Z"/><path class="cls-2" d="M393.28,298.95c-3.36-1.72-7.76-2.59-9.99-5.99,3.55,1.84,7.27,2.73,9.99,5.99Z"/><path class="cls-2" d="M366.31,282.96c1.78.83,4.66.08,4,3-1.56-.71-3.24-1.23-4-3Z"/><path class="cls-8" d="M259.43,492.73c.77,3.17-3.87,2.98-3,0,1,.01,2,0,3,0Z"/><path class="cls-2" d="M244.45,102.17c-1,.12-3.47,3.03-3-1,1.09-.01,2.53-.26,3,1Z"/><path class="cls-2" d="M200.5,106.16l-4.74,4.99-6.24,3c2.16-2.55,7.98-6.27,10.99-7.99Z"/><path class="cls-2" d="M188.51,115.15c-.42.48.25,3.2-4,3,1.54-1.27,2.08-3.13,4-3Z"/><path class="cls-2" d="M172.53,128.14c.32,2.35-3.82,4.31-5.99,4.99,1.98-1.82,4.39-3.59,5.99-4.99Z"/><path class="cls-2" d="M183.52,119.15c.24,2.12.12,2.24-2,2,.22-.2.32-.64,2-2Z"/><path class="cls-2" d="M142.56,158.1l-6.18,9.83c-.58.49-1.7.04-1.81.16,1.72-3.95,5.11-6.96,7.99-9.99Z"/><path class="cls-2" d="M180.52,121.15c.55,2.25-1.29,2.28-3,3,.82-.69,1.7-1.9,3-3Z"/><path class="cls-2" d="M377.3,289.96c-2.09-1.14-4.82-1.66-5.99-4,2.12,1.04,4.82,1.75,5.99,4Z"/><path class="cls-1" d="M410.26,443.78c-.07.04-.28.65-1,1l.02-2.01.98,1.01Z"/><path class="cls-2" d="M147.56,153.11c.73-1.54,1.94-2.7,3-4,.18,2.51-1.86,2.86-3,4Z"/><path class="cls-5" d="M90.62,398.83c-.18.38-1.01.88-1,1v-2c1.13-.17.94.96,1,1Z"/><path class="cls-2" d="M104.61,111.16c.31-.36.69-.65,1-1l-1,1Z"/><path class="cls-2" d="M449.22,326.91c-.53-.23-.82-.92-1-1l1,1Z"/><path class="cls-2" d="M201.5,106.16c.31-.17.59-.79,1-1l-1,1Z"/><path class="cls-2" d="M159.55,140.12c.33-.33.66-.67,1-1l-1,1Z"/><path class="cls-1" d="M78.64,388.84c-.27-.34-.69-.64-1-1l1,1Z"/><path class="cls-2" d="M144.56,156.11c.33-.33.66-.67,1-1l-1,1Z"/><path class="cls-2" d="M398.28,301.94c-.55-.28-.82-.91-1-1l1,1Z"/><path class="cls-1" d="M149.56,447.78c.03.24.81,1.51,1,3l-.98.5.98.5c1.47,10.82,4.37,21.44,5.06,32.39l10.9,32.04c-5.33-1.71-10.13-4.86-14.96-7.5.15-2.36-6.38-7.52-7.99-7.99-5.39-8.83-12.82-16.26-18.79-24.66-14.03-19.72-19.06-31.94-25.16-55.25,8.71-3.66,11.66,4.15,18.04,8.43,3.57,2.39,7.87,3.8,11.65,6.33,6.17,4.12,12.31,12,20.25,12.22Z"/><path class="cls-2" d="M174.53,127.14c.56-.49,1.11-1.25,2-2l-2,2Z"/><path class="cls-2" d="M379.3,290.95c-.42-.21-.7-.84-1-1l1,1Z"/><path class="cls-2" d="M382.29,292.95c-.55-.28-.82-.91-1-1l1,1Z"/><path class="cls-2" d="M396.28,300.94c-.56-.28-.84-.92-1-1l1,1Z"/><path class="cls-2" d="M150.56,451.77l-.98-.5.98-.5c.04.33-.04.67,0,1Z"/><path class="cls-2" d="M240.45,531.68c1.75.3,2.32-.87,2,2-1.87-.23-2.29.76-2-2Z"/><rect class="cls-2" x="76.64" y="404.83" width="1.99" height="2.99"/></g></svg>