<?xml version="1.0" encoding="UTF-8"?><svg id="Camada_2" xmlns="http://www.w3.org/2000/svg" viewBox="0 0 692.32 630.01"><defs><style>.cls-1{fill:#e6764c;}.cls-2{fill:#f0bc81;}.cls-3{fill:#a4583a;}.cls-4{fill:#f8e0c7;}.cls-5{fill:#ed8d49;}.cls-6{fill:#5ea4b9;}.cls-7{fill:#c99371;}.cls-8{fill:#434349;}.cls-9{fill:#fefefe;}</style></defs><g id="Camada_1-2"><path class="cls-7" d="M539.52,64.98c2.8,2.68,4.48,5.52,7.99,8l2,3c.36.71,5.09,5.31,5.99,6-.31,1.84.14,2.36,2,2,1.14,3.19,7.95,10.88,10.99,13l2,3c1.86,4.04,9.01,10.7,11.95,14.75,2.59,3.58,5.24,10.35,8.02,13.25-.31,1.82.16,2.36,2,2,.81,3.27,1.91,5.05,3,8,2.16,5.85,3.45,12.73,6.99,18-.04.46-.07,1.93,0,2-.04,2.37-.67,3.47,2,3,.07.78-.17,2.82,0,3l1,2c-.07.97-.04,2.02,0,3,.09,2.1.38,4.47,2,6-.05.81-.13,3.85,0,4l1,2c-.14,1.97.04,4.01,0,6-.04,2.16-.69,5.67,1,7-.06.99.04,2,0,3-.31,8.18-.14,16.8,0,25,.03,1.65-.12,3.36,0,5-1.31.48-.95,1.91-1,3-.07,1.6-.12,3.42,0,5l-1,2c-.13.15-.07,3.23,0,4-1.17,1.36-1.89,4.29-2,6-.06.9-.13,2.17,0,3l-1,2c-.08.07-.03,1.53,0,2-1.45.93-1.83,2.41-2,4-.11.98.08,2.01,0,3-1.47.94-1.79,2.41-2,4-.21,1.62.17,3.37,0,5-2.02-.3-2.3-.02-2,2-.71.53-.8,4.8-1,6-1.9-.34-2.33.11-2,2-.74.58-.66,2.4-1,3-1.38,2.42-2.73,3.85-3,7-.08.94-.07,2.05,0,3-1.6.84-.96,3.4-1,5-.04,1.99-.03,4.01,0,6,.03,1.89-.68,4.91,1,6-.03.66-.01,1.34,0,2,.05,2.2,1.53,9.97,4,9,.29,1.02.47,4.6,1,5-.3,2.01-.02,2.3,2,2,.09.6-.16,1.86,0,2-.24,2.12-.13,2.24,2,2,.73,3.03.95,5.07,4,7-.2,2,1.25,2.79,2,4,2.59,4.18,2.53,2.13,5.03,4.45,1.36,1.27,2.52,4.31,3.98,6.03,25.29,29.7,49.07,60.69,75.77,89.15,4.2,8.14-4.68,17.05-9.83,22.9-9.61,10.9-42.9,40.82-56.55,42.39-5.52.63-7.17-.18-10.92-3.9-9.46-9.39-18.56-23.9-27.48-34.49-19.44-23.11-53.1-65.43-80.92-75.99-22.77-8.64-46.45-3.39-69.88-.53-.5,2.63.46,1.55,1.43,2.07,1.24.67,3.38,1.73,4.68,2.31,27.8,12.41,56.69,23.09,84.48,35.42,6.18,2.74,15.73,6.82,13.09,15.48-1.31,4.3-25.2,17.85-30.49,21.48-15.36,10.54-30.26,21.82-45.69,32.26-2.75,1.86-6.42,4.55-9.52,4.98-1.09,1.16,6.69,8.27,7.98,9.5,17.23,16.49,37.64,31.91,54.48,48.46,7.42,7.29,10.33,10.4,2.99,20.05-7.11,9.34-27,27.12-36.47,35.49-2.1,1.86-7.29,6.64-9.3,7.69-6.89,3.58-16.2,1.85-20.72-4.66-16.6-23.93-34.14-49.69-53.9-71.54-1.35-1.49-2.59-3.06-3.99-4.55-2.44-2.6-2.09.32-3-4.45-.73-3.82-2.3-2.66-4.39-5.11-10.61-12.45-20.3-24.27-36.57-29.89v-4c1.6.37,3.37.7,4.99,1-1.15,2.69,5.81,3.02,7.99,3,10.05-.09,1.92-8.68-1.49-13.01-2.72-3.46-15.56-15.56-16.35-17.67-.87-2.33,3.95-4.76,5.85-6.32,7.68,5.41,13.57,12.76,20.48,19,5.96,5.39,18.4,17.54,24.42,21.56,1.78,1.19,2.72,1.88,5.05,1.44,20.08,19.14,39.98,37.09,58.45,57.99,3.3,3.73,18.87,25.07,21.96,25.05,2.15-.01,20.1-16.49,23.99-19.02,3.26-2.12,6.93-3.17,10.21-4.8.96-.48,1.6.26,1.25-1.7l-66.87-59.1c-.92-.85-.9-2.28-1.04-2.42v-5c2.55.84,5.76-1.43,7.91-2.59,15.81-8.51,32.76-23.14,48.03-33.41,5.24-3.53,10.03-5.9,15.76-10s18.14-8.18,12.67-16.96c-23.66-10.96-48-20.33-71.68-31.26-10.98-5.06-21.22-9.13-32.83-13.89-.85-.35-1.4-1.74-1.83-1.89v-3c2.25-.04,5.14-1.69,7.6-1.89,9.8-.81,18.64-2.22,27.85-3.11,7.46-.72,15.9.55,23.48,0-.44-2.34-6.13-.22-6.94-1.04-.25-.26-.29-4.82-1.05-5.95,47.13,2.26,68.67,30.58,97.4,63.99,16.7,19.41,31.63,40.29,48.1,59.89,1.22.42,2.36.15,3.57-.08,7.57-1.48,35.06-26.12,41.7-32.79.33-.33.67-.66,1-1,2.51-2.57,6.38-4.76,6.99-8,2.44-1.45,9.26-10.08,9.82-12.72,1.02-4.79-2.05-3.44-4.83-5.28,3.61.59,1.91-3.14,1.05-4.55-3.66-6.03-13.58-14.61-18.55-20.43-2.74-3.21-16.13-21.86-18.46-22.01-9.72-14.47-22.25-26.8-32.92-40.54-3.48-4.48-8.53-10.42-11.46-14.53-.86-1.21-6.77-12.79-7.55-11.93l-2.01,3c-3.27-5.99-5.24-9.13-6.7-16.8-1.1-5.8-3.18-36.64,3.29-38.04,3.42-.74,8.05,3.47,1.37-5.57,6.33-14.43,11.73-29.51,13.63-45.26.56-4.64,1.91-21.99,1.44-25.69-.09-.67-1.83-.52-2.03-1.31-.88-3.43.86-7.34.71-10.54-.67-14.07-7.6-35.88-14.71-47.78-8.82-14.77-16.08-30.61-26.56-44.91-10.1-13.79-28.34-28.88-36.37-41.09l1-1c.27.13.72-.13,1,0,2.98,4.32,7.26,7.43,10.99,11ZM401.67,536.97c.43-1.88-1.06-2.37-1.99-3.5-2.4-2.9-6.17-6.35-8.98-9.01-3.9-3.7-9.38-8.77-13.98-11,6.14,7.09,14.25,15.54,21.45,21.51,1.12.93,1.62,2.42,3.49,1.99ZM401.68,538.98c-1.02.37-2.29-.11-2.85,1.62-2.01,6.2,1.77,6.1,2.9,8.08,14.33,25.2,39.49,48.37,55.06,73.63,2.39,3.26,7.4,4.69,11.17,3.69,1.11-.3.56-1.96.65-2.02,12.94-8.68,24.35-20.03,35.49-30.97,2.25-2.21,16.76-15.54,14.45-18.02-2.97,1.15-6.6,4.34-9,6.48-10.54,9.37-19.92,21.12-30.43,30.54-3.78,3.39-11.23,11.97-15.51,6.97-.24-.37-.75-.64-1-1v-2c7.25-1.55,7.38-7.29,4.86-13.37-1.42-3.43-25.97-37.69-28.37-39.6-1.75-1.39-4.19-1.21-6.43-2.56-5.16-3.11-10.48-11.35-16.68-15.3-1.43-.91-5.34-3.47-6.32-1.17-1.81-1.66-3.93-2.72-5.99-4-.39-.24-.68-.84-1-1-.2-.1-.23-.83-.52-.84s-.34.79-.48.84Z"/><path class="cls-7" d="M663.38,471.98c-1.98.33-6.05,2.07-4.84-2.33.55-1.99,14.93-14.92,17.35-15.65,1.58-1.1,1.48,3.64,1.48,3.99-.01.95.16,2.17,0,3-4.19,2.5-4.13,2.43-7.99,6-.71.66-1.49,1.57-2,2-.37.32-.67.75-1,1-.61.47-2.65-1.16-2,2-.29.08-.66-.06-1,0Z"/><path class="cls-4" d="M251.85,81.98c-.86,2.6-3.54,7.36-4.99,10-.22.39-.82.67-1,1-.42.75-.69,1.43-1,2-15.26,27.83-20.68,42.13-20.98,75-.04,4.21-.28,8.87,0,13-1.37.47-.87,1.95-1,3s.27,2.22-.16,3.3c-1.42,3.61-20.93,7.57-25.77,9.24-16.36,5.65-39.59,17.47-51.99,29.45-3.98-.69-3.18,1.94-4,3-3.5,4.57-6.28,5.18-9.23,8-25.9,24.71-41.01,71.13-38.76,106.54.89,14,6.78,27.36,6.03,41.46-3.33.26-15.15,9.91-19.06,12.42-17.65,11.29-35.91,21.88-53.17,33.77-6.43,4.43-22.95,14.34-24.45,21.6-1.13,5.46,3.89,7.66,5.23,11.26,2.51,6.7,2.94,6.64,5.76,12.23,1.2,2.38,1.66,7.73,3.32,9.68,2.72,3.2,16.04,7.32,20.43,9.04,3.36,1.32,6.6,2.77,9.99,4,2,.73,4.01,1.3,5.99,2-.02.56-.26,1.6.13,1.84,1.98,1.21,8.36,3.07,10.85,3.16,1.63,1.62,5.94,2.11,7.99,3,34,14.81,68.65,29.54,102.56,44.82,10.48,4.72,21.38,11.67,32.28,15.18.56.18,1.81-.21,2,0,.68.74-1.7,1.49,2,2,.64.09,1.42-.13,2,0-.54,2.58,1.25,2.05,2.73,2.72,3.25,1.46,7.13,2.79,10.25,4.28,3.36,1.61,6.67,3.39,9.99,5,8.89,4.3,18.1,10.09,27.97,13,.57.17,1.81-.2,2,0,.73.79-1.74,1.3,2,2,.81.15,2.74-.23,3,0,.74.65-1.83,1.28,2,2,.81.15,2.74-.23,3,0,.79.7-1.7.65,2,2,3.85,1.41,6.96,2.75,10.99,4,2.13.66,2.73,1.68,5.99,2,3.56.35,10.5.42,13.98,0,7-.84,15.71-6.99,21.51-11.02,1.24-.86,2.96-.75,2.47-2.98.32-.07.68.06,1,0,.59-.12,1.79.21,2,0,.26-.25-.22-1.62,0-2,.09-.15.69.12,1,0,.5-.19,1.75.24,2,0s-.22-1.62,0-2c.09-.15.69.12,1,0,.5-.19,1.75.24,2,0s-.22-1.62,0-2c.09-.15.69.12,1,0,.5-.19,1.75.24,2,0s-.22-1.62,0-2c.09-.16.72.14,1,0,2.28-1.17,5.52-1.98,7.99-3l-5.21,5.26c-11.64,5.42-25.45,20.36-38.24,21.74-21.34,2.3-37.26-6.65-56.11-14.84-69.57-30.21-137.58-64.3-207.93-92.83-8.46-3.43-17.37-5.35-25.81-9.16-6.99-3.15-15.86-7.11-18.03-14.95-1.1-3.96-2.78-22.87-2.32-26.76.28-2.35,2.39-6.28,3.99-8.03,25.81-17.97,53.38-33.76,79.1-51.81,2.13-1.5,11.68-8.2,12.34-9.64,2.81-6.18-1.3-14.85-2.21-20.76-12.43-80.67,32.67-145.21,108.38-169.94,4.37-1.43,15.89-2.43,18.1-5.88,2.38-3.72.68-17.53,1.06-22.94,2.06-29.52,10.15-52.81,25.61-77.37,1.13-1.79,3.01-4.98,5.4-5.09Z"/><path class="cls-4" d="M510.55,40.98c.2.14,1.24,1.55,3.25,3,3.31,2.4,6.48,7.01,10.74,8,.37.29.69.82,1,1,.37.64.6,1.39,1,2,8.03,12.21,26.27,27.3,36.37,41.09,10.48,14.3,17.74,30.15,26.56,44.91.7,6.75,4.09,12.92,5.91,19.58,5.01,18.24,7.54,36.59,6.07,55.42l-1,2c-.91.07-.9-.71-1.01-1.45-1.28-8.49-.86-19.11-2.1-27.93-10.26-72.93-78.02-151.72-149.27-171.03-55.78-15.11-111.82-3.45-156.83,32.36-1.85.7-1.43-2.22-3.44-2.95,5.58-4.77,11.95-9.85,17.98-14,.39-.27.67-.78,1-1,1.2-.81,3.75-2.86,4-3,.73-.42,2.91-1.44,4-2C379.82-6.72,450.34.4,510.55,40.98Z"/><path class="cls-4" d="M344.74,10.98c-7.33,5.1-16.35,7.09-24.21,11.26-2.77,1.47-5.1,4.27-5.76,4.74-.2.14-3.76,1.93-4,2-.71.22-2.06-.1-3,0l5.76-4.95c9.91-5.36,20.65-11.61,31.2-13.05Z"/><path class="cls-4" d="M306.78,28.98c-.16.75.23,2.73,0,3-.09.11-1.42-.04-2,0-.15-.93.08-2.03,0-3,.66-.06,1.33.04,2,0Z"/><path class="cls-6" d="M433.64,4.98c.67.01,1.33,0,2,0,2.69,1.93,7.61,2.74,10.99,3,.66.05,1.34-.03,2,0,2.77,2.81,6.6,2.57,9.8,3.69,11.15,3.93,21.26,9.89,32.16,14.31,1.03.42,1.95.67,3,1-.35,1.89.12,2.32,2,2,1.28,1.27,2.62,1.37,4,2-.49,2.45,2.96,3.37,4.99,4,.29.09.67-.08,1,0-.37,1.7.36,2.2,2,2,1.22,3.03,1.01,1.17,2.64,2.34.59.42.28,1.62.35,1.66.1.07,1.6.08,2,0l2,1c.82,1.38.89.76,2,1l1,2c-.05.49,6.01,6.23,6.99,7-4.25-.99-7.42-5.6-10.74-8-2.01-1.45-3.05-2.86-3.25-3C450.34.4,379.82-6.72,314.77,26.98c.66-.47,2.99-3.26,5.76-4.74,7.85-4.18,16.88-6.16,24.21-11.26.64-.09,1.35.06,2,0,5.34-.47,10.27-3.46,15.76-4.72,25.95-5.97,45.97-1.7,71.14-1.28Z"/><path class="cls-6" d="M314.77,26.98c-1.09.56-3.26,1.58-4,2,.23-.07,3.8-1.86,4-2Z"/><path class="cls-6" d="M310.78,28.98c-.25.14-2.79,2.19-4,3,.23-.27-.16-2.25,0-3,.33-.02.67.04,1,0,.93-.1,2.29.22,3,0Z"/><path class="cls-6" d="M306.78,31.98c-.33.22-.61.73-1,1-.48-.11-.92-.53-1-1,.58-.04,1.9.11,2,0Z"/><path class="cls-4" d="M388.69,542.98c.99.05,2-.03,3,0,.91,4.76.57,1.85,3,4.45,1.4,1.49,2.64,3.06,3.99,4.55-7.06-1-4.92,1.93-6.76,5.73-2.14,4.43-15.21,10.92-19.71,14.27-6.82,5.07-8.28,9.07-17.48,13-.43-3,2.31-2.45,3-3,2.63-2.12,5.37-5.42,7.99-8,1.9.32,2.34-.09,2-2,.9-.7,1.66-1.77,2-2,3.98-2.79,14.65-7.56,16.51-12.03.85-2.05-2.11-11.46.47-14.97.57.11,1.34-.03,2,0Z"/><path class="cls-4" d="M346.74,10.98c-.5-2.38,1.1-2.18,2.7-2.75,24.7-8.81,55.35-10.35,81.08-5.57,1.78.33,3.71-.39,3.13,2.32-25.17-.42-45.19-4.69-71.14,1.28-5.49,1.26-10.41,4.25-15.76,4.72Z"/><path class="cls-7" d="M305.78,32.98c-6.03,4.15-12.4,9.23-17.98,14-14.07,12.02-29.96,29.44-39.96,45h-1c1.45-2.64,4.13-7.4,4.99-10,.09-.28-.08-.67,0-1,2.12.24,2.24.12,2-2,.16-.09-.14-.73,0-1,2.69-.73,5.43-4.69,7.46-7.05.51-.6.35-1.74.53-1.95.31-.35.68-.65,1-1,4.4-4.83,9.66-10.54,13.98-15,.32-.33.67-.66,1-1,1.03-1.06,3.67-2.45,5.99-5,.9-.99,1.83-1.58,3-3,1.98.08,3.07-.98,3-3,.21-.16.84.17,1,0,1.99.09,3.06-.97,3-3,.3-.11.72.12,1,0,3.62-1.51,6.22-3.27,8.99-6,.31-.06.67.02,1,0,.08.47.52.89,1,1Z"/><path class="cls-4" d="M448.62,7.98c10.48.51,29.67,9.22,39.32,15.18,1.3.8,3.2.34,2.63,2.82-10.89-4.42-21.01-10.38-32.16-14.31-3.2-1.13-7.03-.88-9.8-3.69Z"/><path class="cls-4" d="M609.44,196.98c3.03-.56,1.92,1.53,2,3.45.23,5.82.19,12.26,0,18.09-.06,1.93,1.02,4.01-2,3.45-.14-8.2-.31-16.82,0-25Z"/><path class="cls-4" d="M276.82,52.98c-4.32,4.46-9.59,10.17-13.98,15,1.42-5.81,8.96-12.05,13.98-15Z"/><path class="cls-4" d="M595.46,137.98c2.76-.59,1.87,1.43,2.47,2.98,1.79,4.69,4.91,10.75,4.53,15.02-3.54-5.27-4.83-12.15-6.99-18Z"/><path class="cls-4" d="M539.52,64.98c-3.73-3.57-8.01-6.68-10.99-11,1.09.49,1.87-.1,4.04,1.44,2.2,1.56,7.2,6.53,6.95,9.56Z"/><path class="cls-4" d="M435.64,4.98c.17,0,.84-.97,1.61-.98,2.24-.04,10.26,1.39,9.38,3.98-3.38-.26-8.3-1.07-10.99-3Z"/><path class="cls-6" d="M357.73,581.98c-.69.55-3.43,0-3,3-.28.12-.71-.12-1,0-2.47,1.02-5.71,1.83-7.99,3l7.21-6.31,4.77.31Z"/><path class="cls-4" d="M303.79,31.98c-2.77,2.73-5.37,4.49-8.99,6,1.02-4.36,5.23-5.27,8.99-6Z"/><path class="cls-4" d="M591.46,311.98c.56.03,1.7-.24,1.93.05.28.36,1.58,7.22,2.07,8.95-2.47.97-3.95-6.8-4-9Z"/><path class="cls-4" d="M608.44,186.98c4.4-.74,1.11,5.24,1,7-1.69-1.33-1.04-4.84-1-7Z"/><path class="cls-4" d="M283.81,46.98c-2.32,2.55-4.97,3.94-5.99,5,.43-2.96,2.95-5.33,5.99-5Z"/><path class="cls-4" d="M261.83,68.98c-.19.21-.02,1.35-.53,1.95-2.02,2.36-4.77,6.32-7.46,7.05,1.52-2.95,4.69-8.48,7.99-9Z"/><path class="cls-4" d="M594.46,282.98c1.3,1.43-.76,7.96-3,7,.27-3.15,1.62-4.58,3-7Z"/><path class="cls-4" d="M605.45,168.98c4.04-.41,2.09,4.54,2,6-1.62-1.53-1.9-3.9-2-6Z"/><path class="cls-4" d="M607.44,240.98c.16,1.74,2.51,6.11-2,6,.11-1.71.83-4.64,2-6Z"/><path class="cls-4" d="M590.46,303.98c4.38-.71,1.08,4.35,1,6-1.68-1.09-.97-4.11-1-6Z"/><path class="cls-4" d="M504.56,34.98c-2.04-.63-5.49-1.55-4.99-4,2.02.93,5.05.53,4.99,4Z"/><path class="cls-4" d="M591.46,292.98c.11,1.54,3.3,5.61-1,5,.04-1.6-.6-4.16,1-5Z"/><path class="cls-4" d="M602.45,260.98c-.05.64,1.99,4.5-2,4,.2-1.59.53-3.06,2-4Z"/><path class="cls-4" d="M604.45,253.98c.1,1.38,1.79,4.32-2,4,.17-1.59.55-3.07,2-4Z"/><path class="cls-4" d="M293.8,37.98c.07,2.03-1,3.09-3,3,.79-.84-1.04-1.53,3-3Z"/><path class="cls-4" d="M289.8,40.98c.08,2.02-1.02,3.08-3,3,.23-.28-.07-1.71.97-2.53.72-.57,1.81-.31,2.03-.47Z"/><path class="cls-4" d="M602.45,157.98c1,.91,1.57-2.08,2,3-2.67.47-2.04-.63-2-3Z"/><path class="cls-4" d="M609.44,226.98c.06.87,3.06,3.5-1,3,.05-1.09-.31-2.52,1-3Z"/><path class="cls-4" d="M604.45,338.98c1.08.68,2.8-1.27,2,4-.75-1.21-2.19-2-2-4Z"/><path class="cls-4" d="M547.51,72.98c.24.17,1.52-.34,1.89.09.52.59-.16,2.4.1,2.91l-2-3Z"/><path class="cls-4" d="M568.49,96.98c.24.17,1.52-.34,1.89.09.51.59-.15,2.35.1,2.91l-2-3Z"/><path class="cls-4" d="M493.57,26.98c3.82,1.19,1.17,1.18,2,2-1.88.32-2.35-.11-2-2Z"/><path class="cls-4" d="M555.5,81.98c1.4,1.07.71-1.62,2,2-1.86.36-2.31-.16-2-2Z"/><path class="cls-4" d="M505.56,34.98c.58.14,1.78-.22,2,0,.24.24-.2,1.5,0,2-1.64.2-2.36-.3-2-2Z"/><path class="cls-4" d="M512.55,40.98c.11-.02,1.34-1.64,1.99-1,.26.25-.22,1.62,0,2l-2-1Z"/><path class="cls-4" d="M516.55,42.98c4.22.91,1.05,1.57,1,2l-1-2Z"/><path class="cls-4" d="M253.84,78.98c.24,2.12.13,2.24-2,2,.81-3.51.29-1.02,2-2Z"/><path class="cls-4" d="M598.46,329.98c.85.78,1.09-1.76,2,2-2.12.24-2.24.12-2-2Z"/><path class="cls-4" d="M596.46,325.98c.96.72,1.45-1.63,2,2-2.01.3-2.3.01-2-2Z"/><path class="cls-4" d="M600.45,269.98c-.38,3.6-1.07,1.3-2,2-.3-2.02-.02-2.3,2-2Z"/><path class="cls-4" d="M605.45,249.98c.02.11,1.63,1.34.99,1.99-.22.23-1.73-.22-1.99,0l1-2Z"/><path class="cls-4" d="M608.44,234.98c0,.11,1.39.95.99,1.99-.58.11-1.86-.16-1.99,0l1-2Z"/><path class="cls-4" d="M597.46,277.98c-.62,3.66-1.07,1.27-2,2-.33-1.89.1-2.34,2-2Z"/><path class="cls-4" d="M607.44,178.98c.14.17,1.42-.11,1.99,0,.4,1.05-.99,1.88-.99,1.99l-1-2Z"/><path class="cls-4" d="M604.45,163.98c.16.17,1.41-.11,1.99,0,.41,1.08-.99,1.88-.99,1.99l-1-2Z"/><path class="cls-4" d="M590.46,127.98c.76.79,1.04-1.84,2,2-1.84.36-2.31-.18-2-2Z"/><path class="cls-6" d="M527.53,53.98l-1,1c-.4-.61-.63-1.36-1-2,.65.37,1.33.68,2,1Z"/><path class="cls-8" d="M589.47,140.98c7.11,11.9,14.04,33.71,14.71,47.78.15,3.2-1.58,7.11-.71,10.54.2.78,1.94.64,2.03,1.31.48,3.7-.87,21.06-1.44,25.69-1.9,15.75-7.3,30.84-13.63,45.26,6.68,9.04,2.06,4.83-1.37,5.57-6.47,1.41-4.4,32.24-3.29,38.04,1.46,7.67,3.43,10.81,6.7,16.8,12.06,22.11,30.11,40.88,45.95,60,.3.36.7.64,1,1s.7.64,1,1c9.49,11.36,31.29,41.93,41.95,49,2.78,1.84,5.85.49,4.83,5.28-.56,2.64-7.39,11.27-9.82,12.72.16-.83-.01-2.05,0-3,4.02-3.35,7.62-6.65,1-9,1.18-1.28,2.66-3.2,1.54-4.98l-123.53-141.89c-2.88-1.66-16.82,12.42-19.85,14.87-2.05,1.66-3.99,3.34-5.99,5-1.63,1.35-4.81,3.19-6.99,5-3.12,2.58-6,5.28-8.99,8-.32.29-2.59.12-2.99,1.54-.67,2.38,8.07,11.5,9.99,13.99,8.78,11.37,18.82,23.03,27.95,34.47.29.36.71.64,1,1,.6.76,1.12,1.9,2,3,.29.36.71.64,1,1s.67.66,1,1l75.35,96.07c.57.53,1.26.96,2.06.96,2.01-.01,13-10.87,15.48-13.03,2.3-2.01,5.04-3.6,6.99-6h1c-.03.07.88.64.71,1.3-.55,2.23-2.75,3.08-.7,6.7.39.29,8.79-2.52,7.98-5,.34-.06.71.08,1,0,1.25-.36,2.46.86,2-2,.32-.25.63-.68,1-1l2,1c-6.64,6.67-34.13,31.31-41.7,32.79-1.21.24-2.36.5-3.57.08-16.47-19.6-31.4-40.47-48.1-59.89-28.73-33.4-50.27-61.73-97.4-63.99-16.48-.79-30.33,2.12-46.57,4.88-5.58.95-8.48-1.79-6.24,7.03.6.28,1.24.11,1.86.1v3c-.19-.06-2.57,1.14-3.99-.01-1.12,13.17-13.73,26.16-14.98,38.52-1.88,18.69,3.52,35.05,16.73,48.23,1.34,1.34,1.48,2.83,4.24,2.26.75,7.15,3.56,5.36,7.04,8.45,2.89,2.57,5.08,6.43,7.42,8.57.43.4,5.2,3.87,5.52,3.98v5c-23.44-21.69-42.61-30.15-46.95-66-.08-.65.06-1.34,0-2-.09-.98.05-2.01,0-3s-.02-2.01,0-3c0-.33-.01-.67,0-1,.07-2.05.21-3.97.51-5.98-7.04,5.82-14.04,11.61-20.49,17.98-.62.61-4.67.95-2.99,2.98.13.16,2.68.81,3.75,1.74,6.19,5.38,12.32,10.87,18.67,16.34-.28,1.75,4.56,4.77,3.53,5.94-1.21,1.37-24.73-22.85-28.32-22.9-7.52,4.19,6.57,11.88,10.36,15.39,4.81,4.45,10.47,9.21,14.97,13.51,1.59,1.53,3.01,5.04,4,6l-2,1c-.32-.25-1.62-.24-2.5-.96-4.93-4.05-28.34-27.19-31.18-27.92-2.82-.73-13.59,9.66-16.27,11.89-.91.76-2.08,1.25-3,2-1.9,1.56-6.72,3.99-5.85,6.32.79,2.11,13.62,14.21,16.35,17.67,3.41,4.33,11.54,12.92,1.49,13.01-.13-.95.19-2.14,0-3-.52-2.41-2.91-6.06-4.47-8.03-1.75-2.21-14.22-14.99-15.96-16.03-1.05-.63-1.59-1.14-3-1-.93.09-12.46,9.28-15.07,10.97-.52.33-3.32.33-1.46,2.08.86.8,19.41,4.74,22.74,5.74,5.05,1.53,10.81,3.32,15.22,6.26-3.48,1.07-2.58.63-5.99,0-1.62-.3-3.39-.63-4.99-1-6.44-1.49-12.74-3.92-19.62-4.86-6.08-.83-17.96-4.28-17.33,4.85,11.09-.13,23.22-.03,33.96,3.01.79.22,2.13.7,3,1,16.26,5.63,25.95,17.45,36.57,29.89,2.09,2.45,3.66,1.28,4.39,5.11-1-.03-2,.05-3,0,.32-3.49-1.03-1.82-3-1-.8.34-1.22.47-2,1-7.75,5.27-16.33,16.9-16,26.48.03.87,1.84.66,2.01.52-.33.23-1.1,1.3-2,2-2.17,1.69-1.3,1.32-2,2-2.62,2.58-5.36,5.88-7.99,8l-4.77-.31-7.21,6.31c-.27.14-.91-.16-1,0-2.12-.24-2.24-.13-2,2-.31.12-.91-.15-1,0-2.12-.24-2.24-.13-2,2-.31.12-.91-.15-1,0-2.12-.24-2.24-.13-2,2-.31.12-.91-.15-1,0-2.12-.24-2.24-.13-2,2-.32.06-.68-.07-1,0-4.56,1.02-14.96,8.88-21.06,11.46-1.51.64-3.5-.12-2.91,2.54-3.49.42-10.43.35-13.98,0,.83-2.95-3.02-2.03-5.41-2.76l-.58.76c-4.03-1.25-7.14-2.59-10.99-4,.24-2.13.12-2.24-2-2-.25-.23-2.19.15-3,0,.24-2.13.12-2.24-2-2-.26-.23-2.19.15-3,0,.24-2.13.12-2.24-2-2-.19-.2-1.43.17-2,0,.38-2.16-4.44-3.57-6.12-4.38-4.05-1.94-8.27-3.56-12.18-5.8l-9.67-2.82c-3.32-1.61-6.63-3.39-9.99-5-.95-3.67-9.63-6.24-12.99-7-.57-.13-1.36.09-2,0,.24-2.13.12-2.24-2-2-.19-.21-1.44.18-2,0,.13-2.35-5.36-4.58-7.1-5.39-20.25-9.46-40.16-18.25-60.2-27.73-22.43-10.62-37.97-19.42-62.35-26.57-1.31-.38-4.33-1.91-5.2-.3-2.05-.89-6.36-1.38-7.99-3-3.34-3.31-5.71-3.15-10.99-5-1.98-.7-4-1.27-5.99-2,1.22-4.68-4.04-2.42-4.62-5.96-.41-2.54,2.18-3.24,1.21-5.05-1.75-3.29-16.5-7.57-5.58-11.99,3.89,1.8,8.83,3.09,12.68,4.81,24.05,10.75,47.73,22.55,72.23,32.19,1.08.88,1.38.67,2,1,1.46.78,1.41.69,3,1,.33.06.7-.08,1,0,1.55,2.29,5.23,3.69,7.99,4,.65.73,1.66.72,2,1,3.12,2.54,3.7,2.02,6.99,3,.31.09.7-.1,1,0,.64,1.84,2.24,2.06,3.74,2.76,7.26,3.35,14.79,6.33,22.23,9.24.56.22,1.21.69,2,1,1.17.46,2.23.7,3,1,.29.11.71-.12,1,0,5.19,3.78,12.35,7.39,18.3,10.18,15.61,7.29,31.74,13.3,47.62,19.82.58.24,1.21.68,2,1,7.13,2.91,13.67,6.48,20.98,9,.3.1.7-.1,1,0,2.67,3.56,7.9,4.73,11.99,6,.3.09.69-.09,1,0,1.85,2.79,7.71,4.49,10.99,5,.94.15.95,0,1,0,3.78.32,9.17.26,12.99,0,.1,0,.19.11,1,0,8.37-1.17,23.07-12.45,29.97-18,.38-.3.66-.73,1-1,5.05-2.14,10.36-5.87,13.98-10,.26-.14.74.14,1,0,2.08-1.11,5.6-1.52,4.99-4,3.87-1.64,24.13-14.8,24.86-17.7.35-1.39-.15-1.83-.83-2.84-2.22-3.29-12.16-11.74-15.72-14.28-38.81-27.67-70.56-5.15-111.58-10.3-64.93-8.14-121.47-58.13-150.45-114.88-1.38-2.7-2.14-10.3-5.99-10,.74-14.09-5.15-27.46-6.03-41.46-2.24-35.42,12.86-81.84,38.76-106.54,2.95-2.81,5.73-3.42,9.23-8,2.53.2,2.89-1.94,4-3,12.4-11.99,35.62-23.81,51.99-29.45,4.84-1.67,24.35-5.64,25.77-9.24.43-1.08.03-2.29.16-3.3,4.07.5,1.06-2.16,1-3-.28-4.13-.04-8.79,0-13h2c-.07,4.2,1.27,8.92,1,14-.04.77-2.92,4,1,5,1.02.26,3.69.06,4.99,0,1.09-.05,2.52.31,3-1,7.48-.32,13.78.45,20.98,1h1c6.15.53,14.17.78,19.98,2,44.04,9.25,104.32,52.31,125.86,92,4.38,8.07,10.02,20.43,13.47,29.02,8.83,21.97,11.88,43.24,10.51,66.98,11.04-1.39,22.19-3.54,31.96-9,10.4-5.81,22.89-16.43,32.44-24.03,25.72-20.48,51.17-41.92,76.44-62.97,18.07-15.05,18.6-12.56,25.97-36,1.05-3.34,3.17-7.61,4-11l.85-1.51-.85-.49c.69-3.03,1.49-5.91,2-9v-2c.24-1.72.84-3.49,1-5,.15-1.38-.02-1.8,0-2,1.47-18.83-1.07-37.18-6.07-55.42-1.83-6.66-5.21-12.83-5.91-19.58ZM390.69,276.98c-54.39-83.44-171.18-116.13-247.73-40.51-31.31,30.93-40.44,61.38-37.95,104.51.39,6.8.89,13.53.96,18.44,0,.32,1-.49,1.02,4.98,0,.58,1.64.57,1.95,1.34,18.26,45.5,32.49,67.48,71.99,97.24,2.77,2.09,4.9,3.9,7.99,6,35.83,24.31,78.27,34.96,121.08,21.72,18.76-5.8,43.91-29.21,59.78-42.18,23.59-19.29,41.19-28.15,48.21-60.71,2.85-13.24,2.63-22.81,1.67-35.83-.07-.99.1-2.02,0-3-.22-2.26-.8-3.6-1-5-3.23-22.84-8.66-34.43-19.98-54-2.87-4.95-5-8.41-7.99-13ZM585.46,327.97c-6.39-15.55-5.99-32.63-3.48-48.97-2.86,3.67-22.51,17.36-22.52,20.48l26,28.49ZM495.57,349.98c-2.77,2.13-5.72,5.3-7.99,7-.61.46-2.42.76-3.72,1.74-6.74,5.1-13.8,9.8-20.25,15.25,15.36-3.01,30.92.85,45.95,4.01,2.65,2.83,12.97,7.07,17.21,10,7.83,5.4,17.87,14.14,24.75,21,9.07,9.05,18.57,20.64,26.94,30.53,14.2,16.77,28.71,39.27,43.46,54.49,1.03,1.06,1.74,2.33,3.49,1.98,2.84-4.86,1.57-5.17-1.16-9.31-18.52-28.06-44.43-56.31-65.74-82.69-4.96-6.14-13.84-20.36-19.98-24l-29.99-38.55c-2.92-1.45-10.59,6.73-12.96,8.55ZM100.01,342.98c-3.18-1.02-2.13,4.53-1.89,6.39,8.75,67.3,78.51,139.2,144.53,152.31,16.63,3.3,48.66,5.06,64.14-2.2,3.05-1.43,4.67-4.52.93-3.07-59.82,23.11-133.02-20.05-169.72-65.96-19.43-24.31-35.07-56.2-37.99-87.47Z"/><path class="cls-8" d="M677.37,460.98c-.61,3.24-4.48,5.43-6.99,8l-1-2c3.86-3.57,3.8-3.5,7.99-6Z"/><path class="cls-4" d="M449.62,508.98c.15.14.12,1.57,1.04,2.42l66.87,59.1c.35,1.96-.29,1.23-1.25,1.7-3.29,1.63-6.95,2.68-10.21,4.8-3.89,2.53-21.83,19.01-23.99,19.02-3.09.02-18.66-21.32-21.96-25.05-18.47-20.9-38.37-38.84-58.45-57.99-5.14-4.9-9.74-10.61-14.97-15.51-10.39-9.75-21.6-18.73-31.98-28.49,2.68-2.23,13.45-12.62,16.27-11.89,2.84.74,26.25,23.87,31.18,27.92.87.72,2.18.71,2.5.96,3.88,3.08,6.09,6.05,10.99,9,2.2,1.33,5.56,3.04,7.99,4,1.33-1.44-4.89-8.99-6.02-10.47-2.4-3.16-9.16-11.42-12.63-12.36-3.15-.85-2.34.61-2.32,2.83-4.5-4.3-10.16-9.07-14.97-13.51-3.79-3.5-17.88-11.19-10.36-15.39,3.59.05,27.11,24.27,28.32,22.9,1.03-1.17-3.81-4.19-3.53-5.94-6.36-5.47-12.48-10.96-18.67-16.34-1.07-.93-3.62-1.58-3.75-1.74-1.69-2.03,2.37-2.37,2.99-2.98.9,5.68,5.33.1,5.68.02,3.96-.92,11.38,1.5,14.3-3.02,4.33,35.85,23.51,44.31,46.95,66Z"/><path class="cls-3" d="M427.65,393.98c.43.14.98,1.54,1.83,1.89,11.61,4.76,21.85,8.83,32.83,13.89,23.69,10.92,48.02,20.3,71.68,31.26,5.47,8.78-6.94,12.86-12.67,16.96s-10.51,6.48-15.76,10c-19.8-12.98-36.26-21.52-59.91-11.48-10.9,4.63-17.28,14.3-16,26.48-2.75.57-2.89-.92-4.24-2.26-13.2-13.18-18.61-29.54-16.73-48.23,1.25-12.37,13.86-25.35,14.98-38.52,1.42,1.16,3.8-.05,3.99.01Z"/><path class="cls-2" d="M505.56,467.98c-15.27,10.27-32.22,24.91-48.03,33.41-2.15,1.15-5.36,3.43-7.91,2.59-.32-.11-5.08-3.58-5.52-3.98-2.34-2.13-4.54-5.99-7.42-8.57-3.48-3.1-6.29-1.3-7.04-8.45-1.28-12.18,5.1-21.86,16-26.48,23.66-10.04,40.11-1.5,59.91,11.48Z"/><path class="cls-1" d="M401.68,538.98h1c.32.16.61.76,1,1,.37,1.76,4.43,7.22,5.99,6,.25-.19-.2-1.52,0-2,.98-2.3,4.89.26,6.32,1.17,6.2,3.95,11.52,12.19,16.68,15.3,2.24,1.35,4.68,1.17,6.43,2.56,2.4,1.91,26.95,36.17,28.37,39.6,2.51,6.08,2.39,11.82-4.86,13.37-.58.12-1.35-.09-2,0-.61.67,1.78,1.68,2,1.99.25.36.76.63,1,1,.93,1.47-.21,5.72,4.99,5-.1.06.46,1.72-.65,2.02-3.77,1-8.78-.43-11.17-3.69-15.57-25.26-40.73-48.43-55.06-73.63-1.13-1.98-4.91-1.89-2.9-8.08.56-1.73,1.83-1.24,2.85-1.62ZM412.35,548.3c-.23-.21-2.27-1.41-2.66-.83l4.97,5.51c.1-1.37-1.4-3.87-2.31-4.68ZM416.15,555c-.99.7.54,1.37,1.02,1.96.99-.66-.47-1.32-1.02-1.96ZM419.64,557.98c-.97-.95-3.07.63-1.97,1.98.07.08,1.47-.15,1.99.7.44.73,3.81,9.48,5.98,7.31,1.3-1.3-4.27-5.84-5-6.72s-.76-3.04-1-3.28ZM443.62,591.97c.96-.93-13.53-18.46-14.76-20.71l-3.21-2.28,14.57,20.9c.45,1.02,2.58,2.89,3.39,2.09ZM446.41,594.2l-2.76-.73,3.98,5.76,4.99,4.74-6.21-9.77ZM455.61,607.97c1.02-1-1.95-4.01-2.99-2.99s1.95,4.01,2.99,2.99ZM457.61,608.99c-1.09-1.09-3.08.9-1.99,1.99,1.09,1.09,3.08-.9,1.99-1.99ZM459.61,611.99c-1.09-1.09-3.08.9-1.99,1.99s3.08-.9,1.99-1.99Z"/><path class="cls-3" d="M478.59,378.98c.75,1.13.79,5.7,1.05,5.95.81.81,6.5-1.31,6.94,1.04-7.58.56-16.02-.72-23.48,0-9.22.89-18.05,2.3-27.85,3.11-2.46.2-5.36,1.85-7.6,1.89-.63.01-1.26.18-1.86-.1-2.24-8.82.66-6.08,6.24-7.03,16.24-2.76,30.09-5.66,46.57-4.88Z"/><path class="cls-2" d="M646.4,395.98c-.19-.01-1.13,1.32-1.99,1,.57-3.8-.66-3.16-4-3-.3-.36-.7-.64-1-1l-1-1c-15.84-19.12-33.88-37.89-45.95-60l2.01-3c.78-.86,6.69,10.72,7.55,11.93,2.93,4.1,7.98,10.05,11.46,14.53,10.67,13.74,23.2,26.07,32.92,40.54Z"/><path class="cls-8" d="M463.61,618.98c4.28,5,11.73-3.58,15.51-6.97,10.5-9.42,19.89-21.17,30.43-30.54,2.4-2.14,6.03-5.34,9-6.48,2.3,2.48-12.2,15.81-14.45,18.02-11.13,10.94-22.55,22.3-35.49,30.97-5.2.72-4.07-3.53-4.99-5Z"/><path class="cls-4" d="M640.41,393.98c3.34-.15,4.57-.79,4,3,.86.32,1.8-1.02,1.99-1,2.33.15,15.73,18.8,18.46,22.01,4.96,5.83,14.89,14.4,18.55,20.43.86,1.42,2.55,5.15-1.05,4.55-10.66-7.07-32.46-37.64-41.95-49Z"/><path class="cls-2" d="M401.68,512.98c-2.33.44-3.27-.26-5.05-1.44-6.02-4.02-18.46-16.16-24.42-21.56-6.91-6.25-12.79-13.59-20.48-19,.92-.75,2.09-1.24,3-2,10.38,9.76,21.59,18.73,31.98,28.49,5.23,4.9,9.83,10.61,14.97,15.51Z"/><path class="cls-3" d="M350.73,503.98v4c-.86-.3-2.21-.78-3-1,.22.22,1.02-.15,1-.5-.07-1.09-1.47.03-1,.5-10.74-3.04-22.87-3.14-33.96-3.01-.63-9.13,11.25-5.68,17.33-4.85,6.88.94,13.18,3.36,19.62,4.86Z"/><path class="cls-3" d="M401.67,536.97c-1.88.43-2.37-1.06-3.49-1.99-7.2-5.98-15.32-14.42-21.45-21.51,4.6,2.22,10.07,7.3,13.98,11,2.81,2.66,6.58,6.11,8.98,9.01.93,1.13,2.42,1.62,1.99,3.5Z"/><path class="cls-3" d="M361.72,504.98c.52-.16,1.37.11,2,0,.19.86-.13,2.05,0,3-2.18.02-9.15-.31-7.99-3,3.42.63,2.51,1.07,5.99,0Z"/><path class="cls-3" d="M409.67,543.98c-.2.47.24,1.81,0,2-1.56,1.22-5.62-4.24-5.99-6,2.06,1.28,4.18,2.34,5.99,4Z"/><path class="cls-3" d="M670.37,468.98c-.33.34-.67.67-1,1l-2-1c.51-.43,1.29-1.34,2-2l1,2Z"/><path class="cls-3" d="M462.61,615.98v2c-.21-.31-2.61-1.32-2-1.99.65-.1,1.42.11,2,0Z"/><path class="cls-3" d="M402.68,538.98h-1c.15-.05.2-.85.48-.84s.32.74.52.84Z"/><path class="cls-7" d="M105.01,396.98c-1.67.03-4.06,2.62-4.88,3.84-12.46,18.65-16.46,37.11-3.34,56.89,9.58,14.45,23.78,24.71,37.19,35.27-6.2-.97-7.16-1.33-12.7-2.78-16.1-4.21-12.83,3.68-9.33,14.37.4,1.22-.39,3.54.21,4.27.53.65,9.06,3.24,10.24,4.06,1.01.7.49,1.99.6,2.08-24.5-9.64-48.18-21.44-72.23-32.19-3.85-1.72-8.79-3.01-12.68-4.81-.16-.07-.65-1.24-1.71-1.75-1.93-.93-9.31-4.47-10.74-4.3-7.6,9.94,5.75,8.52,7.99,14.07.64,1.6-.94,3.57-.16,6.03.84,2.65,3.91,2.24,3.62,4.95-4.39-1.72-17.71-5.85-20.43-9.04-1.66-1.95-2.12-7.29-3.32-9.68-2.82-5.59-3.26-5.53-5.76-12.23-1.35-3.6-6.36-5.8-5.23-11.26,1.5-7.26,18.02-17.16,24.45-21.6,17.25-11.89,35.52-22.48,53.17-33.77,3.91-2.5,15.74-12.16,19.06-12.42,3.85-.3,4.62,7.3,5.99,10Z"/><path class="cls-6" d="M72.05,510.98c.87-1.61,3.88-.08,5.2.3,24.39,7.15,39.92,15.96,62.35,26.57,20.04,9.48,39.95,18.27,60.2,27.73,1.74.81,7.22,3.05,7.1,5.39-10.91-3.51-21.8-10.46-32.28-15.18-33.91-15.28-68.56-30.01-102.56-44.82Z"/><path class="cls-6" d="M38.09,477.98c-10.92,4.42,3.84,8.7,5.58,11.99.97,1.82-1.63,2.52-1.21,5.05.58,3.54,5.84,1.28,4.62,5.96-3.39-1.23-6.63-2.68-9.99-4,.29-2.71-2.78-2.3-3.62-4.95-.78-2.46.81-4.43.16-6.03-2.24-5.55-15.59-4.13-7.99-14.07,1.44-.18,8.81,3.37,10.74,4.3,1.06.51,1.55,1.68,1.71,1.75Z"/><path class="cls-3" d="M246.85,94.98c-.15.24.15.76,0,1-.12.2-.69.46-1,1-.14.25.14.75,0,1-.2.35-.8.63-1,1-12.46,22.9-18.56,44.58-18.98,71h-2c.3-32.87,5.72-47.17,20.98-75l1-2c.18-.33.78-.61,1-1h1c-.33.51-.38,2-1,3Z"/><path class="cls-6" d="M235.86,584.98l9.67,2.82c3.92,2.24,8.13,3.86,12.18,5.8,1.68.8,6.5,2.22,6.12,4.38-9.86-2.91-19.08-8.7-27.97-13Z"/><path class="cls-6" d="M332.75,595.98c.5,2.23-1.23,2.12-2.47,2.98-5.8,4.03-14.51,10.18-21.51,11.02-.59-2.65,1.39-1.9,2.91-2.54,6.1-2.58,16.51-10.45,21.06-11.46Z"/><path class="cls-6" d="M225.87,579.98c-3.13-1.5-7-2.82-10.25-4.28-1.49-.67-3.27-.14-2.73-2.72,3.36.76,12.04,3.33,12.99,7Z"/><path class="cls-6" d="M53.07,502.98c5.28,1.85,7.65,1.69,10.99,5-2.49-.08-8.88-1.94-10.85-3.16-.39-.24-.16-1.28-.13-1.84Z"/><path class="cls-6" d="M288.8,607.98l.58-.76c2.39.73,6.25-.19,5.41,2.76-3.27-.32-3.87-1.34-5.99-2Z"/><path class="cls-6" d="M144.97,227.98c-1.1,1.06-1.47,3.2-4,3,.81-1.06.02-3.69,4-3Z"/><path class="cls-3" d="M223.88,182.98c.06.84,3.07,3.5-1,3,.13-1.05-.38-2.53,1-3Z"/><path class="cls-6" d="M344.74,587.98c-.22.38.25,1.74,0,2s-1.49-.19-2,0c-.24-2.13-.12-2.24,2-2Z"/><path class="cls-6" d="M341.74,589.98c-.22.38.25,1.74,0,2s-1.49-.19-2,0c-.24-2.13-.12-2.24,2-2Z"/><path class="cls-6" d="M338.75,591.98c-.22.38.25,1.74,0,2s-1.49-.19-2,0c-.24-2.13-.12-2.24,2-2Z"/><path class="cls-6" d="M335.75,593.98c-.22.38.25,1.74,0,2-.21.21-1.4-.12-2,0-.24-2.13-.12-2.24,2-2Z"/><path class="cls-6" d="M265.83,597.98c2.12-.24,2.24-.13,2,2-3.74-.7-1.27-1.21-2-2Z"/><path class="cls-6" d="M270.82,599.98c2.12-.24,2.24-.13,2,2-3.83-.72-1.26-1.35-2-2Z"/><path class="cls-6" d="M275.82,601.98c2.12-.24,2.24-.13,2,2-3.7-1.35-1.21-1.3-2-2Z"/><path class="cls-6" d="M208.89,570.98c2.12-.24,2.24-.13,2,2-3.7-.51-1.32-1.26-2-2Z"/><path class="cls-7" d="M244.85,94.98c.31-.57.58-1.25,1-2l-1,2Z"/><path class="cls-2" d="M287.8,46.98c2,.73,1.58,3.65,3.44,2.95C336.25,14.12,392.29,2.46,448.07,17.57c71.25,19.3,139.01,98.1,149.27,171.03,1.24,8.82.82,19.44,2.1,27.93.11.75.1,1.52,1.01,1.45h1c-.16,1.51-.76,3.28-1,5-.21,1.49.02,1.88,0,2-.51,3.09-1.3,5.97-2,9-.64,2.78.03,1.86,0,2-.82,3.39-2.94,7.66-4,11-.63-1.96-2.46-1.91-3.98-2.51-22.3-8.84-44.67-17.59-66.94-26.49h-3c.89-4.92-1.6-3.56-2.89-5.57-2.08-3.25-5.54-10.94-8.1-15.43-2.28-4-3.44-8.27-7.01-12.48-10.11-11.93-25.67-13.92-38.93-5.52-13.32-5.91-28.15-7.46-42.17-11.28-49.61-13.55-94.5-39.17-122.06-83.8-5.38-8.71-11.76-19.52-11.58-29.92-3.57,3.69-8.51,6.96-12.02,10.45-5.56,5.54-19.98,26.19-23.93,28.55-1.11.66-3.73.8-4.99,2,.62-1,.67-2.49,1-3,9.99-15.56,25.88-32.98,39.96-45ZM448.28,26.14c-3.4,4.82-9.92,6.98-13.1,11.88-6.08,9.36,1.91,10.29,7.46,15.44,9.34,8.69,42.21,42.9,52.5,44.45,7.08,1.07,12.03-2.6,15.29-8.56,1.97-3.59,8.83-20.58,7.94-23.65-1.13-3.92-15-16.22-18.89-19.15-9.69-7.27-39.52-24.46-51.2-20.42Z"/><path class="cls-3" d="M601.45,217.98h-1l1-2c-.02.2.15.62,0,2Z"/><path class="cls-7" d="M385.69,541.98c.14.47.53.91,1,1-2.58,3.52.38,12.92-.47,14.97-1.86,4.46-12.53,9.24-16.51,12.03,1.58-1.31,1.75-7.21,2.51-8.98,1.19-2.76,9.14-7.55,9.96-9.03,1.07-1.93.67-6.55,1.51-8.99.78-.53,1.19-.66,2-1Z"/><path class="cls-6" d="M385.69,541.98c1.97-.82,3.32-2.49,3,1-.65-.03-1.43.11-2,0-.47-.09-.86-.53-1-1Z"/><path class="cls-7" d="M367.71,571.98c.34,1.91-.1,2.32-2,2,.7-.68-.17-.31,2-2Z"/><path class="cls-6" d="M105.01,340.98c51.19,7.98,96.41-15.22,121.69-59.67,14.81-26.04,13.19-43.5,15.17-71.82.17-2.38.91-10.81,2.63-11.37,5.62-1.85,26.67,1.76,33.33,3.35,42.59,10.15,84.13,40.62,109.87,75.51,2.53,3.42,4.26,8.27,7.58,11.91.47.52,3,3.02,3.41,1.09,11.32,19.57,16.74,31.16,19.98,54-2.39-.03-4.92.68-5.99,3-.32.07-.69-.08-1,0-5.37,1.47-10.26,4.94-14.98,7-.84.36-1.46.76-2,1-61.37,27.33-123.02,59.5-182.81,90.49-10.48,5.43-21.34,10.74-30.95,17.51-39.5-29.76-53.73-51.74-71.99-97.24-.31-.77-1.95-.76-1.95-1.34-.02-5.47-1.02-4.66-1.02-4.98-.07-4.91-.56-11.64-.96-18.44Z"/><path class="cls-5" d="M463.61,178.98c-.67.43-6.26,5.78-6.69,6.34-.7.92-.13,2.41-.3,2.66-.09.14-1.82-.11-2.8,1.66-5.84,10.52-4.7,23.94,2.8,33.34-3.8,24.22,11.9,49.87,25.56,68.91,4.32,6.02,11.6,16.11,16.37,21.33,9.5,10.37,8.22,3.73,15.27.52,1.61-.73,11.03-2.47,11.72-1.76,1.42,7.77-4.32,5.92-8.23,8.98-1.87,1.45-3.34,5.18-5.23,7.04-10.88,10.71-33.22,26.78-46.37,34.59-4.2,2.49-3.5,5.61-9.09,3.39-9.92-27.59-25.98-51.5-43.98-74.47l-8.96-8.53c-21.54-39.69-81.82-82.75-125.86-92-14.16-5.41-29.97-3.76-44.95-3.99-3.11-23.97-.79-45.42,7.54-67.96,3.32-8.97,8.45-17,11.44-26.05,3.95-2.36,18.37-23.01,23.93-28.55,3.51-3.5,8.45-6.76,12.02-10.45-.18,10.39,6.2,21.21,11.58,29.92,27.56,44.63,72.45,70.25,122.06,83.8,14.02,3.83,28.85,5.38,42.17,11.28Z"/><path class="cls-9" d="M105.01,340.98c-2.49-43.13,6.63-73.58,37.95-104.51,76.55-75.62,193.34-42.92,247.73,40.51h-3c-25.74-34.89-67.28-65.36-109.87-75.51-6.66-1.59-27.71-5.2-33.33-3.35-1.71.56-2.46,8.99-2.63,11.37-1.98,28.32-.35,45.77-15.17,71.82-25.28,44.45-70.5,67.65-121.69,59.67Z"/><path class="cls-1" d="M419.66,351.98c.95,13.02,1.18,22.59-1.67,35.83-7.02,32.56-24.61,41.42-48.21,60.71-15.86,12.97-41.02,36.38-59.78,42.18-42.82,13.24-85.25,2.59-121.08-21.72.38-.22.71-.89,1-1,6.63-2.56,16.36-10.25,22.74-11.73,5.94-1.38,12.38,1.06,19.27-.71,32.35-8.34,57.62-30.32,84.95-47.95,6.46-4.17,13.68-7.62,20.05-11.95,1.75-1.19,2.3-1.02,1.82-3.65,8.34-3.97,16.65-8.02,24.97-12,17.56-8.4,34.77-17.01,52.57-24.87,1.66-.73,3.55-.13,3.37-3.13Z"/><path class="cls-3" d="M105.01,396.98c28.98,56.75,85.53,106.73,150.45,114.88,41.02,5.14,72.77-17.37,111.58,10.3,3.56,2.53,13.5,10.98,15.72,14.28.68,1.01,1.19,1.45.83,2.84-.74,2.9-21,16.07-24.86,17.7-.47.2-1.49-.19-2,0-4.06-4.34-11.72-7.75-17.31-10.17-28.44-12.32-50.52-8.44-79.95-11.95-29.62-3.54-65.86-12.81-93.2-24.7-6.31-2.74-28.96-16.65-32.29-17.17-13.41-10.56-27.61-20.82-37.19-35.27-13.11-19.78-9.11-38.24,3.34-56.89.82-1.23,3.22-3.81,4.88-3.84Z"/><path class="cls-2" d="M133.98,492.98c3.33.52,25.98,14.43,32.29,17.17,27.34,11.89,63.58,21.16,93.2,24.7,29.43,3.52,51.51-.37,79.95,11.95,5.59,2.42,13.25,5.84,17.31,10.17-1.8.7-2.31,2.45-3,4-.26.14-.74-.14-1,0-5.45,2.9-10,6.86-13.98,10-.34.27-.62.7-1,1-2.02-.24-3.3.66-4.93,1.56-7.34,4.02-12.65,11.02-21.37,13.61-10.89,3.23-19.23.96-29.63-2.17-.31-.09-.7.09-1,0-.71-3.98-8.82-4.95-11.99-6-.3-.1-.7.1-1,0l-8.31-5.18c-2.88-1.11-5.75-2.23-8.61-3.38-1.07-.43-3.47-2.43-4.05-.45-.78-.32-1.42-.76-2-1,.5-2.3-1.13-2.16-2.61-2.84-20.81-9.61-42.31-18.74-63.32-27.16-.29-.12-.71.11-1,0-.43-1.57-2.44-3.17-3-1-.79-.31-1.44-.78-2-1,.51-2.37-1.18-2.11-2.61-2.83-7.18-3.59-15.74-6.74-23.36-9.17-.3-.1-.69.09-1,0,.82-2.98-4.21-1.88-6.47-4.01l-.52,1.01c-.34-.28-1.35-.27-2-1-.21-.24.27-1.8-.02-1.98-.38-.24-6.93-1.74-7.98-2.02-.3-.08-.67.06-1,0-.43-1.57-2.44-3.17-3-1-.61-.33-.91-.12-2-1-.11-.09.41-1.38-.6-2.08-1.18-.82-9.71-3.41-10.24-4.06-.6-.73.19-3.05-.21-4.27-3.5-10.69-6.76-18.59,9.33-14.37,5.54,1.45,6.5,1.82,12.7,2.78Z"/><path class="cls-1" d="M523.54,217.98c-.49,2.38.31,3.26,1.46,5.04,5.43,8.46,12.53,16.37,18.35,24.63,8.32,11.8,15.64,24.44,25.14,35.33-25.27,21.05-50.72,42.49-76.44,62.97-9.54,7.6-22.03,18.22-32.44,24.03-2.77.62-2.3-2.05-3-4,5.59,2.22,4.89-.9,9.09-3.39,13.15-7.8,35.49-23.87,46.37-34.59,1.89-1.86,3.37-5.59,5.23-7.04,3.92-3.06,9.65-1.21,8.23-8.98-.69-.7-10.12,1.03-11.72,1.76-7.05,3.2-5.77,9.85-15.27-.52-4.78-5.22-12.06-15.31-16.37-21.33-13.66-19.04-29.36-44.7-25.56-68.91.8,1,5.89,5.62,7.05,6.44,5.68,3.99,17.52,7.72,23.91,5.56,9.4,7.73,15.21,19.61,25.28,26.28,5.13,1.58,21.13-2.36,22.44-7.99,2.5-10.74-4.92-15.75-10.2-23.36-1.94-2.79-3.73-7.64-5.56-9.93-.57-1.41.98-1.89,1-2h3Z"/><path class="cls-4" d="M536.52,316.98c3.03-2.45,16.96-16.53,19.85-14.87l123.53,141.89c1.12,1.78-.36,3.7-1.54,4.98-3.17,3.42-10.8,8.15-14.98,12l-126.86-144Z"/><path class="cls-2" d="M647.4,474.98c-2.48,2.17-13.47,13.02-15.48,13.03-.8,0-1.49-.43-2.06-.96l-75.35-96.07-1-1c-.29-.36-.71-.64-1-1,.01-1.48-.6-2.51-2-3-.29-.36-.71-.64-1-1l-34.96-50c2.99-2.72,5.87-5.42,8.99-8l123.86,148Z"/><path class="cls-4" d="M530.53,321.98l123.86,147c-1.95,2.4-4.7,3.99-6.99,6l-123.86-148c2.18-1.81,5.36-3.65,6.99-5Z"/><path class="cls-5" d="M594.46,246.98c-7.37,23.44-7.9,20.95-25.97,36-9.5-10.89-16.82-23.53-25.14-35.33-5.82-8.26-12.92-16.17-18.35-24.63-1.14-1.78-1.94-2.66-1.46-5.04,22.27,8.9,44.63,17.64,66.94,26.49,1.52.6,3.35.55,3.98,2.51Z"/><path class="cls-2" d="M663.38,460.98c-2.2,2.03-6.95,5.56-7.99,8h-1l-123.86-147c2.01-1.66,3.95-3.34,5.99-5l126.86,144Z"/><path class="cls-3" d="M403.67,282.98l8.96,8.53c18,22.98,34.06,46.88,43.98,74.47.7,1.95.23,4.62,3,4-9.77,5.46-20.92,7.61-31.96,9,1.37-23.74-1.67-45.02-10.51-66.98-3.45-8.59-9.09-20.95-13.47-29.02Z"/><path class="cls-7" d="M394.68,354.98c.03,2.07-4.87,4.19-6.49,5.01-3.81,1.94-16.97,7.25-19.19,9.28-.81.74-5.04,8.8-5.29,10.71-8.33,3.98-16.63,8.03-24.97,12-23.62,11.25-47.45,24.92-72.48,30.95-1.44.35-3.25-.23-4.74.07-.67.14-9.14,7.89-10.72,8.5s-2.87-.71-4.89-.04c-2.3.76-7.26,5.47-10.13,6.96-7.91,4.09-18.16,6.9-26.76,11.21-6.19,3.11-22.98,10.05-19.12,18.36-.29.11-.62.78-1,1-3.09-2.1-5.22-3.91-7.99-6,9.61-6.78,20.47-12.08,30.95-17.51,59.79-30.99,121.43-63.16,182.81-90.49Z"/><path class="cls-7" d="M558.5,403.98c21.31,26.37,47.21,54.62,65.74,82.69,2.73,4.14,4,4.44,1.16,9.31-1.75.35-2.46-.92-3.49-1.98-14.75-15.22-29.26-37.72-43.46-54.49-8.37-9.89-17.88-21.47-26.94-30.53,2.15-2.21,3.3-5.47,6.99-5Z"/><path class="cls-2" d="M538.52,379.98c6.14,3.64,15.01,17.86,19.98,24-3.7-.47-4.85,2.79-6.99,5-6.87-6.86-16.92-15.6-24.75-21-4.24-2.93-14.56-7.16-17.21-10-.25-.26-3.52-5.2-4-6,5.11.26,7.91-1.55,7-7,2.08-2.21,16.21,10.15,18.65,11.83,2.46,1.68,5.85,2.31,7.31,3.18Z"/><path class="cls-6" d="M100.01,342.98c2.92,31.26,18.56,63.16,37.99,87.47,36.69,45.91,109.9,89.07,169.72,65.96,3.74-1.45,2.13,1.64-.93,3.07-15.48,7.25-47.51,5.5-64.14,2.2-66.02-13.11-135.78-85.01-144.53-152.31-.24-1.86-1.29-7.41,1.89-6.39Z"/><path class="cls-4" d="M538.52,379.98c-1.47-.87-4.85-1.5-7.31-3.18-2.45-1.67-16.58-14.03-18.65-11.83.92,5.45-1.89,7.26-7,7-.75-1.26-1.33-2.68-2-4-2.95-5.83-4.68-12.32-7.99-18,2.37-1.82,10.04-10,12.96-8.55l29.99,38.55Z"/><path class="cls-7" d="M251.85,92.98c-2.99,9.05-8.12,17.08-11.44,26.05-8.33,22.54-10.65,43.99-7.54,67.96,14.98.23,30.79-1.42,44.95,3.99-5.8-1.22-13.83-1.47-19.98-2-.53-.05-.84.01-1,0-7.2-.55-13.49-1.32-20.98-1-1.09.05-2.51-.31-3,1-1.31.06-3.97.26-4.99,0l-1-5c.27-5.08-1.07-9.8-1-14,.42-26.42,6.51-48.1,18.98-71l1-1c.14-.25-.14-.75,0-1l1-1c.15-.24-.15-.76,0-1,1.27-1.2,3.89-1.34,4.99-2Z"/><path class="cls-2" d="M585.46,327.97l-26-28.49c0-3.12,19.66-16.81,22.52-20.48-2.51,16.34-2.91,33.42,3.48,48.97Z"/><path class="cls-5" d="M412.66,346.98c4.01-.9,5.76-2.38,6.99,2,.1.98-.07,2.01,0,3,.19,3-1.71,2.4-3.37,3.13-17.8,7.86-35.01,16.47-52.57,24.87.25-1.91,4.48-9.98,5.29-10.71,2.22-2.03,15.38-7.33,19.19-9.28,1.61-.82,6.52-2.94,6.49-5.01.54-.24,1.16-.64,2-1l4.01-.48,10.97-6.52c.31-.08.68.07,1,0Z"/><path class="cls-7" d="M487.58,356.98c4.97-.63,5,4.22,7.05,6.44,1.22,1.33,6.75,5.41,8.94,4.56.67,1.32,1.24,2.74,2,4,.48.8,3.75,5.74,4,6-15.03-3.16-30.59-7.02-45.95-4.01,6.46-5.44,13.52-10.15,20.25-15.25,1.3-.98,3.11-1.28,3.72-1.74Z"/><path class="cls-4" d="M363.72,504.98c-.62.11-1.48-.16-2,0-4.4-2.94-10.17-4.74-15.22-6.26-3.33-1.01-21.88-4.94-22.74-5.74-1.86-1.75.94-1.74,1.46-2.08,2.62-1.68,14.15-10.88,15.07-10.97,1.42-.14,1.95.38,3,1,1.74,1.03,14.2,13.81,15.96,16.03,1.56,1.97,3.94,5.62,4.47,8.03Z"/><path class="cls-2" d="M402.68,433.98l-.98.5.98.5c-.02.99-.05,2.01,0,3-1.5.14-1.5,2.86,0,3,.06.66-.08,1.35,0,2-2.92,4.52-10.34,2.1-14.3,3.02-.35.08-4.78,5.66-5.68-.02,6.44-6.37,13.45-12.16,20.49-17.98-.3,2.01-.44,3.93-.51,5.98Z"/><path class="cls-7" d="M178.93,538.98c21.01,8.42,42.51,17.55,63.32,27.16,1.48.68,3.1.54,2.61,2.84-15.88-6.53-32.01-12.53-47.62-19.82-5.95-2.78-13.11-6.4-18.3-10.18Z"/><path class="cls-4" d="M514.55,334.98l34.96,50c-9.13-11.44-19.18-23.1-27.95-34.47-1.92-2.49-10.67-11.61-9.99-13.99.4-1.42,2.66-1.25,2.99-1.54Z"/><path class="cls-3" d="M677.37,457.98c0-.34.1-5.09-1.48-3.99-2.42.73-16.8,13.66-17.35,15.65-1.2,4.4,2.86,2.67,4.84,2.33.81,2.48-7.59,5.29-7.98,5-2.05-3.61.15-4.47.7-6.7.16-.66-.74-1.24-.71-1.3,1.04-2.44,5.79-5.97,7.99-8,4.19-3.85,11.81-8.58,14.98-12,6.62,2.35,3.02,5.65-1,9Z"/><path class="cls-2" d="M402.68,478.98c-.02-2.22-.82-3.68,2.32-2.83,3.48.94,10.23,9.2,12.63,12.36,1.13,1.48,7.35,9.03,6.02,10.47-2.43-.95-5.78-2.67-7.99-4,1.38-2.26,1.44-1.72-.24-3.3-2.36-2.23-7.18-5.17-8.75-6.7-.99-.96-2.4-4.47-4-6Z"/><path class="cls-2" d="M503.56,367.98c-2.19.85-7.72-3.23-8.94-4.56-2.04-2.23-2.07-7.08-7.05-6.44,2.27-1.7,5.22-4.87,7.99-7,3.31,5.68,5.04,12.17,7.99,18Z"/><path class="cls-6" d="M369.71,569.98c-.17.14-1.98.36-2.01-.52-.33-9.58,8.25-21.21,16-26.48-.84,2.44-.43,7.07-1.51,8.99-.82,1.48-8.77,6.27-9.96,9.03-.76,1.77-.93,7.68-2.51,8.98Z"/><path class="cls-7" d="M337.75,571.98c-6.89,5.55-21.6,16.83-29.97,18h-1c-3.81.26-9.21.32-12.99,0h-1c-3.27-.51-9.14-2.21-10.99-5,10.41,3.13,18.74,5.4,29.63,2.17,8.72-2.59,14.03-9.6,21.37-13.61,1.63-.89,2.91-1.79,4.93-1.56Z"/><path class="cls-4" d="M390.69,276.98c2.99,4.59,5.12,8.05,7.99,13-.4,1.93-2.94-.57-3.41-1.09-3.32-3.63-5.05-8.49-7.58-11.91h3Z"/><path class="cls-7" d="M246.85,569.98c.58-1.98,2.98.02,4.05.45,2.86,1.15,5.74,2.26,8.61,3.38l8.31,5.18c-7.31-2.52-13.85-6.09-20.98-9Z"/><path class="cls-3" d="M406.67,484.98c1.57,1.53,6.39,4.47,8.75,6.7,1.67,1.58,1.62,1.04.24,3.3-4.9-2.95-7.11-5.92-10.99-9l2-1Z"/><path class="cls-7" d="M146.96,524.98c7.61,2.43,16.18,5.58,23.36,9.17,1.44.72,3.12.46,2.61,2.83-7.44-2.91-14.97-5.89-22.23-9.24-1.5-.69-3.1-.92-3.74-2.76Z"/><path class="cls-7" d="M268.83,578.98c3.17,1.05,11.27,2.02,11.99,6-4.09-1.27-9.32-2.44-11.99-6Z"/><path class="cls-7" d="M418.66,343.98c.2,1.4.78,2.74,1,5-1.23-4.38-2.98-2.9-6.99-2,1.07-2.32,3.61-3.03,5.99-3Z"/><path class="cls-7" d="M138.97,521.98l.52-1.01c2.26,2.13,7.29,1.03,6.47,4.01-3.29-.98-3.87-.46-6.99-3Z"/><path class="cls-7" d="M358.73,556.98c.61,2.48-2.91,2.89-4.99,4,.69-1.55,1.2-3.3,3-4,.5-.19,1.53.2,2,0Z"/><path class="cls-7" d="M128.98,516.98c1.05.28,7.59,1.78,7.98,2.02.29.18-.2,1.74.02,1.98-2.76-.31-6.44-1.71-7.99-4Z"/><path class="cls-7" d="M338.75,570.98c3.98-3.14,8.53-7.1,13.98-10-3.62,4.13-8.93,7.86-13.98,10Z"/><path class="cls-7" d="M127.98,516.98c-1.59-.31-1.54-.22-3-1,.56-2.17,2.56-.57,3,1Z"/><path class="cls-7" d="M177.93,538.98c-.76-.3-1.83-.54-3-1,.56-2.17,2.56-.57,3,1Z"/><path class="cls-3" d="M666.38,469.98c.46,2.86-.75,1.64-2,2-.66-3.16,1.38-1.53,2-2Z"/><path class="cls-3" d="M227.87,188.98c-3.92-1-1.04-4.23-1-5l1,5Z"/><path class="cls-3" d="M235.86,187.98c-.48,1.31-1.9.95-3,1,.48-1.31,1.9-.95,3-1Z"/><path class="cls-3" d="M598.46,235.98c.03-.14-.64.78,0-2l.85.49-.85,1.51Z"/><path class="cls-4" d="M402.68,440.98c-1.5-.14-1.5-2.86,0-3,.05.99-.09,2.02,0,3Z"/><path class="cls-4" d="M552.51,388.98c-.88-1.1-1.39-2.24-2-3,1.4.49,2.01,1.52,2,3Z"/><path class="cls-3" d="M600.45,224.98c.02-.12-.21-.51,0-2v2Z"/><path class="cls-4" d="M639.41,392.98c-.3-.36-.7-.64-1-1l1,1Z"/><path class="cls-4" d="M402.68,434.98l-.98-.5.98-.5c-.01.33,0,.67,0,1Z"/><path class="cls-3" d="M292.8,589.98h1s-.06.15-1,0Z"/><path class="cls-3" d="M306.78,589.98h1c-.81.11-.9,0-1,0Z"/><path class="cls-3" d="M257.84,188.98h-1c.16.01.47-.05,1,0Z"/><path class="cls-4" d="M554.5,390.98c-.33-.34-.71-.63-1-1l1,1Z"/><path class="cls-3" d="M443.62,591.97c-.82.8-2.95-1.07-3.39-2.09l-14.57-20.9,3.21,2.28c1.24,2.25,15.72,19.78,14.76,20.71Z"/><path class="cls-3" d="M419.64,557.98c.24.24.23,2.36,1,3.28s6.3,5.42,5,6.72c-2.17,2.17-5.53-6.58-5.98-7.31-.52-.86-1.92-.62-1.99-.7-1.1-1.35,1-2.93,1.97-1.98Z"/><path class="cls-3" d="M412.35,548.3c.91.81,2.41,3.31,2.31,4.68l-4.97-5.51c.39-.58,2.42.62,2.66.83Z"/><path class="cls-3" d="M455.61,607.97c-1.04,1.02-4-1.99-2.99-2.99s4,1.99,2.99,2.99Z"/><polygon class="cls-3" points="446.41 594.2 452.61 603.97 447.63 599.23 443.65 593.47 446.41 594.2"/><path class="cls-3" d="M457.61,608.99c1.09,1.09-.9,3.08-1.99,1.99-1.09-1.09.9-3.08,1.99-1.99Z"/><path class="cls-3" d="M459.61,611.99c1.09,1.09-.9,3.08-1.99,1.99s.9-3.08,1.99-1.99Z"/><path class="cls-3" d="M416.15,555c.55.64,2.01,1.3,1.02,1.96-.48-.59-2.01-1.26-1.02-1.96Z"/><path class="cls-7" d="M347.74,506.98c-.47-.47.92-1.59,1-.5.02.35-.77.72-1,.5Z"/><path class="cls-2" d="M244.85,98.98c.2-.37.8-.65,1-1l-1,1Z"/><path class="cls-2" d="M245.85,96.98c.31-.54.88-.8,1-1l-1,1Z"/><path class="cls-4" d="M448.28,26.14c11.68-4.04,41.5,13.15,51.2,20.42,3.89,2.92,17.76,15.23,18.89,19.15.89,3.07-5.97,20.05-7.94,23.65-3.27,5.96-8.21,9.63-15.29,8.56-10.29-1.55-43.15-35.76-52.5-44.45-5.55-5.16-13.54-6.08-7.46-15.44,3.18-4.9,9.7-7.06,13.1-11.88Z"/><path class="cls-4" d="M509.56,196.98c-.64,5.13.89,12.19,0,17-1.4,7.58-14.79,18.58-21.98,21-6.39,2.16-18.23-1.58-23.91-5.56-1.17-.82-6.26-5.44-7.05-6.44-7.5-9.4-8.64-22.83-2.8-33.34.98-1.77,2.71-1.52,2.8-1.66-1.22,1.91.29,10.02,2,12.5,7.75,11.25,29.71,14.89,39.48,4.52,16.55-17.59-13.71-36.69-32.81-23.85-2.34,1.57-4.17,3.9-6.18,5.87-.82.81-2.41.86-2.48.97.17-.25-.4-1.74.3-2.66.43-.56,6.02-5.91,6.69-6.34,13.26-8.39,28.82-6.41,38.93,5.52,3.57,4.21,4.73,8.48,7.01,12.48Z"/><path class="cls-7" d="M509.56,196.98c2.56,4.49,6.02,12.18,8.1,15.43,1.29,2.01,3.78.65,2.89,5.57-.02.11-1.57.59-1,2-1.88-2.34-6.76-6.29-9.99-6,.89-4.81-.64-11.87,0-17Z"/><path class="cls-7" d="M411.67,346.98l-10.97,6.52-4.01.48c4.72-2.06,9.62-5.53,14.98-7Z"/><path class="cls-5" d="M338.75,391.98c.48,2.63-.07,2.46-1.82,3.65-6.37,4.34-13.59,7.79-20.05,11.95-27.33,17.63-52.6,39.6-84.95,47.95-6.89,1.78-13.33-.67-19.27.71-6.38,1.48-16.11,9.17-22.74,11.73-3.87-8.31,12.92-15.26,19.12-18.36,8.6-4.31,18.85-7.12,26.76-11.21,2.87-1.48,7.82-6.2,10.13-6.96,2.02-.66,3.36.62,4.89.04s10.05-8.36,10.72-8.5c1.48-.3,3.29.28,4.74-.07,25.03-6.03,48.86-19.7,72.48-30.95Z"/><path class="cls-3" d="M519.54,219.98c1.84,2.29,3.62,7.14,5.56,9.93,5.28,7.6,12.7,12.62,10.2,23.36-1.31,5.63-17.32,9.57-22.44,7.99-10.07-6.67-15.89-18.55-25.28-26.28,7.18-2.42,20.57-13.42,21.98-21,3.23-.29,8.11,3.66,9.99,6Z"/><path class="cls-9" d="M456.61,187.98c.07-.11,1.66-.16,2.48-.97,2-1.96,3.83-4.29,6.18-5.87,19.11-12.84,49.36,6.26,32.81,23.85-9.76,10.38-31.72,6.73-39.48-4.52-1.71-2.48-3.22-10.59-2-12.5Z"/></g></svg>