<?xml version="1.0" encoding="UTF-8"?><svg id="Camada_2" xmlns="http://www.w3.org/2000/svg" viewBox="0 0 721.11 602.11"><defs><style>.cls-1{fill:#8dc8d3;}.cls-2{fill:#332836;}.cls-3{fill:#8f5c58;}.cls-4{fill:#ea7959;}.cls-5{fill:#fefefe;}.cls-6{fill:#f1a38d;}</style></defs><g id="Camada_1-2"><path class="cls-2" d="M308.32.36c13.26-1.58,26.34,2.49,39.52,3.75,29.85,7.43,58.86,24.11,77.11,49.43,9.11,12.74,17.53,27.12,22.87,41.79,4.44,12.1,4.64,36.88,21.45,17.74,9.26-8.86,19.52-18.19,31.19-22.87,30.15-9.39,63.19,2.57,81.72,27.77,7.82,9.87,12.25,20.72,14.39,32.84,1.56,5.46.22,14.38,4.69,18.07,2.2,1.85,6.59,1.98,10.34,1.83,15.43-.42,30.85,3.34,44.13,10.98,24.22,12.92,39.12,38.58,44.38,64.97,1.65,12.36-.54,24.91-3.38,37.08-3.64,15.22-11.96,27.91-22.82,39.27-5.45,5.34-4.15,9.3,1.29,12.97,7.06,5.14,14.3,10.48,20.32,16.85,29.52,28.21,35.91,67.45,6.29,98.24-9.31,11.5-22.56,18.65-32.18,29.7-16.6,22.22-21.42,42.43-49.73,54.92-14.5,6.48-30.9,10.93-47,10.23-8.37-.3-17.2-3.69-25.15-4.03-7.08-.32-13.89,2.43-20.72,3.95-8.04,1.86-16.99,2.1-25.41,3.77-80.55,14.06-171.69,11.44-252.93,3.78,41.09,10.55,89.42,13.42,133.11,16.09,17.49.8,36.13-1.69,53.05,1.07,6.48,1.45,12.27,5.32,18.94,6.59,7.28,1.31,15.14.5,22.49.47,14.71-.23,29.38-.36,44.17-.8,22.02.23,44.01-.92,66-1.25,14.02.8,22.18-5.4,30.57-16.11,8.37-10.06,17.31-19.58,25.55-29.9,4.04-5.15,6.81-11.13,11.22-15.94,5.59-5.85,13.15-9.67,19.05-15.26,10.61-9.56,18.84-19.6,26.52-31.72,1.83-3.27,8.58-12.01,5.85-2.41-11.15,28.04-26.76,59.81-41.55,86.5-3.64,6.42-8.3,13.56-14.27,17.73-11.03,7.34-26.88,11.85-39.42,15.24-7.24,1.81-13.17,1.5-20.51,1.18-42.36.39-84.89,1.31-127.2,2.84-10.43,1.61-6.22,11.55-9.99,14.4-3.78.15-6.75-4.38-11.02-6.71-5.43-3.88-11.76-4.5-18.35-4.27-57.7.89-115.15-4.47-171.99-14.1-14.96-2.82-30.25-7.86-44.55-7.69-15.8,2.68-25.92,4.81-42.23-.4-42.82-13.59-78.69-41.36-108.39-73.81-14.52-17.43-24.47-37.05-37.48-59.13-9.92-18.88-20.71-38.29-17.78-59.86,1.26-7.72,4.43-14.67,8.41-21.32,7.55-14.17,19.33-25.22,33.37-33.01,24.34-11.92,24.53-12.49,14.37-37.79-3.86-10.88-6.63-22.31-6.42-33.98.39-7.59-.48-14.89.93-22.19,6.19-29.54,19.35-57.44,41.28-78.38,9.76-10.21,21.61-18.45,34.76-23.83,7.27-3.06,14.67-6.91,22.11-8.12,28.14-2.64,21.86-10.29,31.5-31.24,7.93-16.72,17.78-32.94,30.66-46.43C237.53,15.36,272.81,2.52,308.15.37h.17ZM356.82,33.29c-10.85-22.13-22.31-27.07-46.28-26.83-58.26.91-113.09,42.76-128.32,98.89-.52,2.35-.56,4.41.2,5.9,1.2,2.63,5.24,3.37,8.24,3.71,29.76,3.52,58.95,17.63,78.7,40.31,4.65,5.93,10.44,13.77,15.13,19.9,3.24,4.44,6,6.02,10.54,3.3,11.69-6.93,24.1-12.57,36.99-16.96,6.42-2.47,13.85-3.42,20.1-6.03,6.3-3.19,8.49-11.13,10.39-17.48,8.83-32.9,9.7-74.4-5.62-104.52l-.09-.18ZM408.15,46.92c-13-14.51-30.33-24.33-48.41-31.41-2-.63-6.94-2.91-7.84-1.24-.2.73.66,2.17,2.08,4.08,26.63,32.08,24.24,79.44,15.49,118.43-3.14,13.46-8.03,18.29,9.79,16.65,5.24-.24,9.95-.17,15.46.22,5.01.32,11,.88,15.03.92,3.88.22,7.25-1.05,8.77-4.84,4.35-8.31,6.94-24.95,17.97-27.96,4.19-1.28,8.99-2.03,9.75-7.24,1.08-7.27-1.78-15.32-4.24-22.05-6.73-18.56-20.24-31.67-33.71-45.42l-.14-.15ZM466.81,122.38c-10.22,11.32-10.49,19.6-11.28,34.36-.15,3.14-.44,6.74.74,9.26,2.34,4.15,8.84,6.36,12.99,8.98,9.33,5.05,16.71,10.26,24.67,16.54,12.17,9.24,20.28,19.97,30.98,31.1,1.85,1.95,3.6,3.74,5.09,5.19,2.31,2.23,3.94,3.66,5.22,3.44,1.05-.15,1.93-1.43,2.9-3.56,1.72-3.93,3.4-8.8,5.24-12.72,4.64-10.29,12.64-18.58,21.69-25.2,5.54-4.14,11.73-7.18,17.98-10.18,3.1-1.53,6.44-3.3,7.56-6.51.63-1.67.8-3.75.83-6.05.02-6.52-.43-13.71-1.99-19.99-4.19-19.22-19-33.23-34.69-43.83-1.68-1.28-13.32-7.75-10.18-1.69,2.34,3.68,5.83,7.17,8.19,10.94,9.92,14.92,17.41,37.63,13.34,55.63-1.96,7.04-5.46,14.49-9.58,20.85-1.19,1.97-6.42,8.54-7.45,5.55-.04-3.75,4.74-8.76,6.63-12.33,14.61-26.3,1.74-67.22-21.32-84.78-7.33-4.87-16.69-4.21-25.17-2.78-17.11,3.16-31.35,14.48-42.27,27.62l-.13.15ZM62.66,282.76c16.7,61.71,85.22,97.26,145.97,81.36,2.47-1.09,5.6-2.56,5.5-5.45-.45-3.38-8.21-4.2-11.87-4.79-8.43-1.52-16.46-4.69-23.02-10.04-51.34-42.15,10.61-118.34,56.78-139.38,11.69-5.86,25.25-6.96,37.34-12.06,3.98-1.56,9.42-4.77,7.81-8.97-3.9-10.01-18.11-25.22-27.82-33.84-94.71-80.02-223.43,17.67-190.75,132.95l.06.2ZM457.16,176.01c-64.27-30.68-141.17-17.61-189.52,33.69-1.3,1.85-19.93,20.53-9.37,14.64,54.38-35.76,130.71-46.66,189.47-15.28,3.01,2,6.24,6.04,2.31,6.94-3.57.45-7.59-1.63-10.94-2.97-9.02-3.85-18.57-6.43-28.28-8.61-22.92-4.77-45.55-7.22-68.02-4.24-39.5,5.93-89,27.53-108.85,61.62-2.82,4.96-4.96,10.18-6.28,15.64-1.19,5.37-1.81,10.83-3.05,15.88-9.19,32.67-1.29,68.63,11.64,99.43,18.46,41.28,54.1,78.53,98.96,88.02,1.71-.43.32-2.23-2.26-4.43-10.99-8.59-22.45-15.28-32.63-25.21-30-29.88-49.66-74.16-52.24-115.97-1.06-20.42,1.62-42.38,6.58-61.81,1.12-4.15,2.17-8.54,3.99-12.45,2.35-4.97,6.08-7.13,6.19-.77-.81,9.83-4.75,20.53-6.25,30.43-3.22,18.87-3.57,38.75-.24,57.79,4.33,34.95,19.53,65.45,42.69,90.82,14.09,14.94,31.34,32,51.31,38.26,5.61,1.55,11.42,1.61,17.25,1.26,38.45-2.18,77.83-22.35,108.14-43.93,3.51-2.56,6.25-5.81,8-9.79,3.38-7.67,6.69-17.94,11.59-25.46,5.95-9.33,13.54-18.91,22.47-25.83,7.58-6.15,18.67-9.18,24.55-16.57,4.29-5.44,5.42-12.57,6.04-19.33,4.84-65.32-34.66-132.88-93.07-161.69l-.19-.09ZM544.07,232.15c-1.21,7.83,1.29,14.84,4.18,22.58,2.11,5.69,4.46,11.27,7.28,16.62,4.09,7.24,6.78,15.78,14.38,20.24,6.9,3.99,14.84,6.21,22.66,6.4,39.13.2,62.97-42.26,60.8-78.35-.94-22.48-12.7-40.88-36.9-41.55-30.32-.68-66.79,23.01-72.38,53.87l-.03.19ZM659.13,235.12c-4.63,41.84-38.04,75.39-81.47,68.32-3.83-.07-3.5,1.49-.59,3.04,7.87,3.95,16.9,4.47,25.58,5.29,24.9,1.62,56.14-1.85,71.68-23.36,6.33-8.9,8.64-20.02,8.61-30.78.13-16.35-2.63-37.31-8.42-50.52-2.84-6.8-8.6-11.12-14.65-15.18-2.89-1.96-6.19-4.15-8.81-5.5-5.87-3.06-3.65,1.11-1.72,4.26,1.44,2.41,3.03,4.97,4.24,7.51,5.37,11.47,7.03,24.19,5.58,36.72l-.02.2ZM237.57,212.68c-40.88,20.05-95.67,79.8-58.64,122.96,4.84,5.04,11.01,8.9,17.67,11.25,4.31,1.52,9.3,2.73,12.15,1.51,3.64-1.29,3.68-6.55,3.42-10.23-3.07-46.28,13.54-91.09,43.44-126.59,7.97-11.4-14.29-.95-17.86,1l-.17.09ZM6.55,385.45c3.2,43.02,46.4,70.56,82.62,87.9,9.63,4.37,23.36,10.74,31.73,13.34,4.74,1.8,8.56-4.44,7.49-8.59-.55-1.8-2.32-2.71-4.02-3.41-4.77-1.82-11.4-3.71-16.59-5.64-36.63-14.72-104.66-53.93-85.4-101.46,7.11-15.45,20.74-28.03,35.31-36.75,3.09-1.8,6.42-3.52,9.52-5.25,3.19-1.64,7.42-4.73,3.87-8.33-3.42-3.72-9.02-2.65-13.3,0-4.49,2.44-9.78,5.96-14,8.96-19.5,13.85-39.22,33.52-37.24,59.02v.2ZM109.68,355.9c-2.08-1.43-4.16-2.99-6.16-4.55-6.48-4.96-10.91-10.14-18.23-6.6-16.18,7.82-37.43,24.15-44.49,40.95-1.97,5.96,4.39,6.68,9.16,6.65,44.72.69,89.59-2.18,134.25-.29,10.74-.17,21.56-.6,32.26-.78,2.65-.06,6.52-.13,7.92-1.94,2.71-3.71-.06-12.67-3.87-15.09-2.69-1.68-6.7-.49-11.23.35-4.65.89-9.34,1.55-14.05,1.98-29.67,2.65-60.37-4.09-85.39-20.57l-.17-.12ZM495.82,470.6c9.95,35.97,41.62,68.69,81.37,65,9.53-2.27-9.08-15.55,7.54-40.06,16.54-25.72,70.79-49.06,68.81-80.61-1.34-6.53-4.9-12.18-8.72-18.05-3.86-5.67-7.5-9.77-14-11.05-12.02-2.31-26.19-1.71-38.48,1.23-13.09,2.27-27.08,5.65-36.99,10.7-13.01,5.92-25.96,16.72-39.34,26.88-3.35,2.47-9.12,4.54-4.72-1.88,25.55-27.58,71.38-45.15,109.59-42.73,5.52.25,9.21-.95,3.2-5.28-67.34-42.34-151.09,18.6-128.31,95.66l.06.2ZM694.44,407.74c-1.49-1.62-5.99-1.44-9.49-1.39-6.25.16-13.87.33-20.11.55-3.02.12-4.69,1.13-3.95,4.27.94,3.89,2.86,10.29,4.31,14.68,1.08,3.61,4.24,4.16,7.58,4,4.57-.08,11.79-.58,16.73-1.12,4.07-.36,7.89-1.44,8-6.25.12-4.42-.1-11.34-2.98-14.66l-.09-.08ZM239.7,481.64c1.37,1,2.81,1.11,4.5,1.15,11.79-.18,46.7.41,60.8-.22,3.54-.83,1.1-3.09-1.29-5.16-19.72-12.47-38.31-27.12-52.58-45.53-4.12-5.71-9.51-9.37-16.76-9.34-59.28-1.29-119.21-1.37-178.61.13-4.09.28-6.66,1.32-3.75,4.9,19.65,19.18,46.18,30.31,71.44,41.1,8.08,2.96,13.73-2.57,19.65-7.35,23.4-19.11,61.02-16.71,82.54,3.86,5.02,4.57,9.25,12.16,13.97,16.41l.09.07ZM657.89,427.48c-1.61-.21-3.78,3.75-4.79,5.59-4.87,9.11-11.19,17.52-18.85,24.42-19.09,18.57-53.61,37.66-50.83,65.31,1.01,7.21,5.28,13.18,13.15,12.14,45.17-7.66,74.25-59.73,63.76-103.99-.63-2.09-1.42-3.37-2.36-3.47h-.07ZM695.21,432.51c-.94-.71-3.22-.63-6.46-.28-4.18.52-9.21.99-13.42,1.55-8.8.86-5.18,8.38-5.19,15.08.21,3.77,0,7.8-.31,11.5.02,1.43-.72,5.35,1.45,4.58,3.52-1.57,27.97-28.88,24-32.38l-.06-.05ZM484.44,441.18c-1.06-.68-2.67-.11-4.74,1.12-20.22,13.36-40.54,26.86-63.48,34.61-12.93,4.54-27.21,6.31-40.62,9.18-1.57.28-6.06,1.28-5.23,1.88,29.35,8.29,63.6-.72,90.33-14.46,5.58-2.91,13.05-7.01,18.19-10.32,3.63-2.4,6-4.16,6.9-7.98.65-3.91,1.26-11.74-1.26-13.99l-.08-.05ZM57.39,466.82c-2.66-1.48-23.54-22.56-16.58-9.54,11.91,19.29,27.17,35,46.1,47.09,9.35,6.05,21.21,11.63,31.49,15.54,1.99.68,3.51.97,4.48.54,2.83-1.56,1.16-8.62,1.01-11.69-.67-6.05-1.94-9.82-8.55-12.16-7.58-3.12-15.54-5.83-22.86-9.36-11.95-5.97-24.35-12.5-34.94-20.31l-.16-.12ZM130.9,493.3c-1.89,6.97-2.62,14.13-.23,21.01,1.85,5.47,3.99,11.58,7.01,16.43,2.78,3.79,2.73-3.98,3.08-5.74,2.03-16.04,11.28-32.14,21.57-44.4,7.9-8.52,19.58-18.13,31.38-20.34,1.81-.24,3.22-.16,3.83.12,1.69.95-3.57,2.38-4.7,2.85-23.57,8.01-40.9,36.96-47.09,60.18-1.5,6.34.02,13.01,2.68,18.83,2.61,5.78,6.12,10.95,11.48,14.18,15.62,9.34,39.12,6.32,53.87-4.72,36.03-25.71,25.67-81.75-16.08-94.57-11.51-3.95-24.71-3.84-35.92.74-15.19,5.97-26.82,19.34-30.82,35.23l-.05.21ZM488.7,469.47c-1.22-1.16-3.13-.45-5.88,1.15-3.46,2.01-8.12,5.12-11.63,7.37-1.47,1.1-6.93,3.89-2.85,3.97,4.41-.14,14.2.16,19.61-.62,4.68-.76,2.89-9.37.84-11.79l-.09-.09ZM315.62,514.76c-19.76-.05-39.57-.08-59.34.09-8.88-.34-11.22,4.07-14.7,12.12-2.27,5.5-6.64,11.98,2.79,12.74,94.59,11.03,192.78,12.06,287.11-1.73,2.1-.23,6.06-.99,6.12-2.32.3-1.06-.86-2.41-2.78-3.95-2.21-1.77-5.24-3.78-7.97-5.93-7.21-5.46-13.46-13.04-23.07-12.73-12.9-.72-31.19.27-45.09.58-47.6.54-95.24,1.24-142.87,1.14h-.2Z"/><path class="cls-1" d="M670.07,192.8c-14.96-10.85-29.18-18.4-48-20-7.58-12.02-16.8-22.7-26.01-33.5-1.13-1.33-2.09-2.43-3.99-2.5-7.88-19.64-31.63-42.13-53-45,.44-3.95-1.72-.99-2-1-.99-.05-2.01.07-3,0v-2c16.99-1.15,38.22,14.56,48.97,27.53,10.19,12.3,31.74,48.49,45.05,53.95,20.6,8.46,25.57,4.5,41.99,22.51Z"/><path class="cls-1" d="M421.07,47.8c9.36,7.29,17.51,20.17,23.37,31.13,2.95,5.52,10.83,21.49,12.14,26.86,1.98,8.15-3.27,14.45,8.83,5.85,22.92-16.28,33.47-29.41,66-24.85,1.02.14.57,1.97.66,2.01v1c-13.67-.58-26.15-.09-39,5-5.57,2.2-11.32,5.86-15.93,9.57-3.33,2.68-18.4,20.16-21.05,18.43-.95-.62-3.21-18.67-4.3-22.21-4.54-14.74-20.5-41.05-30.72-52.78Z"/><path class="cls-3" d="M420.07,46.8c.31.35.69.65,1,1,10.22,11.74,26.17,38.05,30.72,52.78,1.09,3.54,3.35,21.59,4.3,22.21,2.65,1.73,17.73-15.75,21.05-18.43,4.61-3.71,10.36-7.36,15.93-9.57-3.86,5.97-12.3,9.57-18.01,14.49-9.48,8.19-18.19,27.23-23.33,5.28-1.24-5.31-.63-8.11-2.56-13.56-6.45-18.21-18.7-38.63-31.09-53.45-2.14-2.56-7.52-4.14-7.02-8.77,2.61,2.48,6.72,5.44,9,8Z"/><path class="cls-3" d="M298.07,1.8c1.22.09,3.92.78,6,1,.56,3.07-1.54,1.88-3.45,2-22.78,1.44-41.34,7.89-61.55,18-.52-2.41,1.24-2.08,2.62-2.82,6.76-3.63,13.52-6.61,20.67-9.43,1.55-.61,3.21-.29,2.71-2.74.57-.15,1.39.13,2,0,2.04-.43,10.03.47,9-3,.66-.06,1.35.07,2,0,1.41-.15,7.91,2.02,7-2,1.33-.03,2.67-.01,4,0s5.67,3.36,5-1c1.32.01,2.69-.1,4,0Z"/><path class="cls-3" d="M352.07,4.8c-.35,2.29.4,2.81,2,1,.58.15,1.43-.15,2,0-.81,2.49,2.82,2.59,5,3,1.2.23,2.79-.22,4,0-.31,1.99.01,2.31,2,2,10.84,3.74,15.05,7.22,25,12v2c-.34.08-.34,1.07-1.87.53-5.35-1.9-13.12-8.01-19.46-10.71-6.98-2.98-14.58-4.08-21.41-7.11-.53-.24-.19-1.68-.27-1.71l1-1c.59.14,1.44-.16,2,0Z"/><path class="cls-3" d="M336.07,2.8c.52.12,2.19,2.25,3,0,1.3.13,2.68-.05,4,0-.36,2.29.4,2.81,2,1,.58.15,1.41-.14,2,0v2c-.2.06-.45,1.91-2.3,1.85-2.41-.08-14.52-2.33-18-2.87-1.09-.17-.6-1.95-.7-1.98l2-1c2.71.23,5.34.38,8,1Z"/><path class="cls-3" d="M404.07,30.8c.5,2.7,3.75,4.88,6,7-4.64-.07-14.2-8.45-16-12,4.21-.18,6.86,2.95,10,5Z"/><path class="cls-1" d="M404.07,30.8c5.74,3.76,14.25,9.11,16,16-2.28-2.56-6.39-5.52-9-8-.34-.32-.66-.68-1-1-2.25-2.12-5.5-4.3-6-7Z"/><path class="cls-3" d="M320.07,1.8v1c-1.49.19-3.66,2.04-6.52,1.99-2.78-.04-4.82-1.93-5.48-1.99v-1c3.97.23,8.03-.18,12,0Z"/><path class="cls-1" d="M686.07,209.8c-.39-.41-1.61-.58-2-1-2.03-2.19-3.97-4.1-5-7,1.46,1.24,7.74,1.9,7,8Z"/><path class="cls-1" d="M308.07,1.8v1c-1.31-.12-2.69.14-4,0-2.08-.22-4.78-.91-6-1,2.7-2.86,7.8-.13,10,0Z"/><path class="cls-1" d="M276.07,4.8c1.03,3.47-6.96,2.57-9,3,2.12-2.25,6.1-2.72,9-3Z"/><path class="cls-1" d="M328.07,1.8l-2,1c-1.09-.26-4.72-.16-6,0v-1c2.24.1,4.29-.32,8,0Z"/><path class="cls-1" d="M285.07,2.8c.91,4.02-5.59,1.85-7,2,1.76-1.42,4.81-1.94,7-2Z"/><path class="cls-3" d="M686.07,209.8c.12.13.95,1.74,2,3,.09.63-.14,1.43,0,2-3.2-.07-3.98-3.38-4-6,.39.42,1.61.59,2,1Z"/><path class="cls-1" d="M294.07,1.8c.67,4.36-3.7,1.01-5,1,1-1.59,3.42-1.01,5-1Z"/><path class="cls-1" d="M356.07,5.8c2.25.6,5.76.34,5,3-2.18-.41-5.81-.51-5-3Z"/><path class="cls-1" d="M343.07,2.8c4.11.17,1.8.95,2,1-1.6,1.81-2.36,1.29-2-1Z"/><path class="cls-1" d="M339.07,2.8c-.81,2.25-2.48.12-3,0,.69-2.24,2.67-.03,3,0Z"/><path class="cls-1" d="M350.07,4.8l-1,1c-.25-.11-1.65-.11-2,0v-2c1.29.31,2.26.82,3,1Z"/><path class="cls-1" d="M392.07,22.8c.4.19,1.6-.29,1.96.03.31.28-.12,1.49.04,1.97-.63.09-1.42-.13-2,0v-2Z"/><path class="cls-3" d="M534.07,88.8v2c-.85-.06-1.76-.99-2-1v-1c.25.12,1.47.04,2,0Z"/><path class="cls-1" d="M365.07,8.8c3.67.68,1.46,1.81,2,2-1.99.31-2.31,0-2-2Z"/><path class="cls-1" d="M354.07,5.8c-1.6,1.81-2.35,1.29-2-1,1.27.36,1.89.97,2,1Z"/><path class="cls-4" d="M485.07,200.8c.58-.11,1.36,0,2,0,.39,0,1.91-.04,2,0,.3.13.78-.14,1,0,.25.16,1.61,2.31,4,4l1,1c.37.25.65.78,1,1,14.49,46.25,10.02,89.84-13.63,131.87-35.46,63.03-118.56,105.98-190.37,89.13-21.89-28.02-32.25-56.06-35-92l34.49,8.09c13.84-.88,27.89-1.03,41.88-3.22,34.49-5.4,74.63-57.14,92.05-85.95,6.06-10.02,13.42-31.28,23.58-35.92.83-.38,3.58.6,5.07-.45,1.21-.86.78-3.43.93-3.55,4.82-3.83,20.44-6.47,25.44-10.08,2.83-2.05-.86-2.93,4.56-3.92Z"/><path class="cls-3" d="M501.07,208.8c34.17,34.21,56.99,91.26,47.74,140.24-2.73,14.43-17.89,15.09-28.65,23.35-9.87,7.57-20.76,21.41-26.61,32.39-3.49,6.55-7.02,19.99-9.91,24.09-4.76,6.76-42.05,27.5-51.21,31.79-21.25,9.95-49.19,17.94-72.87,17.22-22.24-.68-54.45-33.38-67.49-50.08,71.81,16.85,154.91-26.1,190.37-89.13,23.65-42.03,28.12-85.62,13.63-131.87,1.53.94,3.2,1.71,5,2Z"/><path class="cls-4" d="M246.07,144.8c6.51,6.75,2.25,3.78,3.17,10.24.45,3.17,5.02,7.51,4.91,11.28l-10.08,34.47c-44.44,15.99-106.62,83-76,133-2.61-.64-7.11.37-10.36-.14-16.59-2.6-30.78-6.4-45.67-14.33-20.06-10.7-30.71-26.59-46.49-41.52l-2.49,4.99c-28.15-101.84,67.82-197.84,166.67-149.17,5.33,2.62,12.19,6.88,16.33,11.17ZM95.07,172.8c-2.55.04-3.36,2.3-4.37,4.13-5.27,9.53-12.83,30.75-5.65,40.4,4.87,6.54,19.9,16.46,26.62,22.4,1.32,1.16,1,3.78,2.04,4.13,3.24,1.09,16.25-1.67,20.17-2.76,21.25-5.9,61.27-33.13,71.08-52.92,9.77-19.71,12.98-57.79-15.64-62.12-32.32-4.88-76.29,12.27-91.24,40.74-1.02,1.94-2.16,3.98-3,6Z"/><path class="cls-6" d="M449.07,218.8c-10.16,4.64-17.52,25.9-23.58,35.92-17.43,28.81-57.56,80.55-92.05,85.95-13.98,2.19-28.04,2.34-41.88,3.22l-34.49-8.09c-.05-.66-.94-1.86-1-3,12.83-21.85,27.02-42.68,43.97-61.53,7.22-8.03,18.44-16.15,24.46-24.54,5.92-8.24,9.37-19.75,15.15-28.85,4.06-6.38,9.34-11.76,13.41-18.09,24.82-1.41,58.1,3.51,81.52,11.98,4.91,1.78,10.3,3.85,14.48,7.02Z"/><path class="cls-1" d="M356.43,34.45c15.86,30.58,14.06,77.54,3.13,110.34-4.67,14.02-8.73,9.34-21.49,13.51-17.03,5.57-33.62,12.24-48.46,22.5l-22-29.04c-22.56-23.11-54.04-37.21-86.55-37.95C193.59,50.33,256.71,2.79,321.6,7.76c19.96,1.53,26.33,10.3,34.82,26.69ZM232.06,89.81c1.72,1.53-7.97,10.29.76,13.74,9.1,3.58,49.42-5.77,60-9.48,20.06-7.03,31.18-17.42,35.77-38.23,3.74-16.93,6.35-33.22-14.15-38.91-32.43-9-77.4,14.7-93.19,43.58-4.07,7.45-8.5,16.14-3.68,24.31,3.98,6.74,13.87,4.46,14.48,5Z"/><path class="cls-4" d="M605.07,365.8l2,1c.51.19,1.51-.2,2,0l1,1c.28.12.72-.13,1,0,3.14,3.63,13.85,10.97,3,12-6.27-.03-10.82.3-17,1-5.22-9.92-15.04-16.8-26.49-17.08-1.61-.04-13,.64-13.51,1.09-.15.13-.02,3.33,0,3.99-12.25-1.19-35.69,14.23-40,25-5.12,1.24-10.83,15.51-11.02,19.6-.15,3.4,4.81,5.81,5.02,9.4-.31.35-.71.64-1,1l-1,1c-.14.24.14.73,0,1l-2,2c-.18,1.13.9,1.66,1,2,2.04,6.64,11.21,14.89,18.4,14.88,11.77-.01,45.29-22.15,54.13-30.86,7.16-7.06,13.67-17.02,15.48-27.02,2.33-.29,3.94-1.85,6.48-2.03,7.47-.52,27.4-.79,33.61,2.45,5.29,2.76,18.23,23.82,17.88,29.96-1.83,31.55-59.53,55.9-72.96,83.62-14.59,7.2-28.78,5.48-43.76,1.26-4.83-1.36-20.13-6.77-23.79-9.21-6.11-4.09-10.36-14.7-16.45-19.05-.1-.3.1-.7,0-1l-1-2c-19.77-67.58,41.34-127.27,109-105Z"/><path class="cls-1" d="M238.57,482.8c-.97-.29-9.75-13.63-11.99-16.01-18.04-19.16-48.25-23.95-71.89-12.87-9.85,4.62-15.38,12.76-23.87,17.74-28.48-13.26-59.23-25.06-80.75-48.85,64.02-1.63,128.68-1.66,192.57-.08,16.11,23.59,37.75,43.39,62.97,57.04,1.31.91-.55,3.03-1.03,3.03h-66Z"/><path class="cls-1" d="M615.07,292.8c-2.53.28-4.58-.59-6.71-1.8-3.92-2.22-10.81-10.75-15.03-13.24-4.91-2.9-11.8-4.43-17.27-7.45-17.09-9.43-24.01-21.26-31.98-38.52,8.57-47.23,95.78-81.01,107.71-23.21,6.27,30.36-7.57,70.74-36.71,84.21ZM582.07,230.79c2.71,2.85,16.37-11.47,17.53-15.96.8-3.11-.03-5.89.51-8.49.97-4.62,5.3-4.61,1.41-11.5-10.87-19.25-48.27,13.95-32.8,24.8,6.64,4.66,14.39-.79,15.34.16.69.69-2.68,10.26-1.99,10.99Z"/><path class="cls-5" d="M353.07,199.8c-4.07,6.33-9.36,11.7-13.41,18.09-5.78,9.1-9.23,20.61-15.15,28.85-6.02,8.38-17.24,16.51-24.46,24.54-16.95,18.85-31.15,39.68-43.97,61.53-.64-13.06.43-27.37,2.16-40.34,1.02-7.68,8.13-31.85,7.8-36.24-.17-2.27-2.32-3.07-4.33-2.32-1.69.63-4.62,11.29-5.33,13.69-6.1,20.57-9.38,45.76-8.29,67.21-12.48-6.27-21.15-27.92-22-41-3.65-56.26,81-91.38,127-94Z"/><path class="cls-1" d="M317.07,514.8c-.56,3.22,1.62,1.72,3.49,1.96,14.62,1.88,28.75,6.45,43.33,8.72,44.14,6.87,89.97,5.91,133.76-2.58l23.42,15.9c-92.3,13.82-189.59,11.12-282-.01l10.64-23.84c22.44-.21,44.92-.22,67.36-.14Z"/><path class="cls-6" d="M524.07,545.8c8.6.67,21.5,5.95,30.98,7.52,23.01,3.81,43.06,1.45,66.02-.52-5.56,6.18-14.38,19.64-22.59,20.91-3.54.55-7.73-.08-11.41.09-.66.03-1.34-.03-2,0-14.3.72-28.68.64-43,1-2.66.07-5.34-.06-8,0-17.01.37-33.97,1.01-51,1-.67,0-1.33,0-2,0-8.47-.06-22.89,1.29-30.44-.06-4.94-.88-7.95-6.2-13.02-6.98-15.86-2.46-41.81,0-59.08-.92-41.45-2.21-83.76-6.4-124.46-14.04v-1c67.64,6.25,153.05,7.23,220.48-.02,13.42-1.44,37.83-7.89,49.52-6.98Z"/><path class="cls-5" d="M445.07,207.8c-57.39-27.43-129.34-18.79-182.3,14.2-2.73,1.7-7.78,7.74-10.69,5.82l22.46-25.04c51.27-44.58,120.68-55.03,182.53-25.97.08,10.24,16,13.56,20,23-11.21-.09-18.92.74-29.27,5.28-1.5.66-3.26.17-2.73,2.72Z"/><path class="cls-1" d="M386.07,151.8c-3.38-.03-19.19,1.57-20,.99-.5-.36,3.19-9.64,3.68-11.8,9.61-41.87,13.63-95.7-19.68-128.18,19.38,5.56,37.41,15.78,52.55,28.94,1.7,1.48,3.43,5.07,4.44,6.05-3.97,4.57,3.91,6.84,3.94,11.5,0,1.7-1.93,3.3-1.8,4.95,2.55,34.45,4.93,47.01-16.31,76.88-2.57,3.61-7.56,5.69-6.83,10.67Z"/><path class="cls-4" d="M552.07,118.8c10.57,18.27,16.36,54.94-2,70-6.49,5.32-20.58,8.77-28.53,4.99-2.7-1.28-20.49-13.57-23.68-16.04-5.87-4.54-28.49-28.64-32.21-35.03-2.29-3.92-4.69-8.21-4.58-12.92,1.05-1.76,4.53-5.17,6-7,2.57,3.48,5.63,6.34,8,10,1.5,2.31,2.47,4.74,4,7,20.18,29.82,49.25,7.23,61.84-16.66.99-1.87,1-5.11,1.21-5.29.54-.49,8.44-.27,9.95.95Z"/><path class="cls-3" d="M658.06,425.8c14.4,40.64-8.93,89.54-49.46,104.03-12.78,4.57-24.16,7.61-25.56-10.49-2.04-26.19,42.28-49.44,58.54-67.53,7.63-8.48,11.37-15.98,16.48-26.01Z"/><path class="cls-3" d="M168.07,333.8c2.18.53,9.18,9.32,12.08,11.42,6.19,4.47,16.16,8.06,23.7,9.3,6.24,1.02,12.83-2.62,12.16,5.89-.28,3.55-15.1,5.78-18.58,6.25-59.09,8.03-118.26-25.61-134.36-83.86l2.49-4.99c15.77,14.94,26.42,30.82,46.49,41.52,14.89,7.94,29.08,11.73,45.67,14.33,3.26.51,7.75-.5,10.36.14Z"/><path class="cls-3" d="M565.07,111.8c14.73,10.66,23.94,25.18,25.87,43.63.31,2.95.75,17.82.16,19.68-.31.97-15.48,7.2-18.33,8.89-11.84,7.01-22.38,15.89-28.87,28.13-1.56,2.94-6.96,19.09-7.84,19.67-1.89,1.23-28.11-28.92-31.46-32.02-7.82-7.25-17.71-14.49-26.61-20.39-3.44-2.28-21.74-11.47-22.44-12.55-.75-1.15,1.11-24.52,1.62-27.45.63-3.68,2.03-6.43,3.91-9.59-.11,4.7,2.3,8.99,4.58,12.92,3.72,6.39,26.34,30.49,32.21,35.03,3.19,2.47,20.98,14.76,23.68,16.04,7.94,3.78,22.04.33,28.53-4.99.65,1.52-6.08,7.62-2.48,8,7.41.79,18.68-25.81,19.48-32,11.81-9.8,7.14-34.24.83-46.36-.82-1.57-2.46-2.08-2.83-2.64-.64-.95-.62-2.37-1-3l1-1Z"/><path class="cls-3" d="M661.07,194.8c2.35,1.81,6.4,3.06,8.57,5.93,10.27,13.56,13.92,52.73,11.14,69.29-7.06,42.15-60.52,45.49-94.91,38.48-1.08-.22-15.24-3.91-11.8-6.69,1.7-1.38,10.78,1.8,13.51,1.98,32.75,2.13,58.31-21.27,67.75-51.22,1.75-5.54,2.02-11.67,3.74-16.76,2.31-6.84,3.62-3.14,6.57-5.94,4.2-3.99-2.26-29-4.57-35.06Z"/><path class="cls-1" d="M110.07,356.8c-2.95,8.55-2.76,10.58,3.99,16.51,12.17,10.67,40.55,14.51,56.51,16.54,1.87.24,4.06-1.26,3.5,1.95-2.33.01-4.75-1.07-7.45-1.05-42.17.31-84.36,1.79-126.55,1.04,4.23-15.08,18.62-28.27,31.28-37.21,3.47-2.45,18.51-12.6,21.67-11.31,1.06.43,13.66,11.37,17.04,13.53Z"/><path class="cls-1" d="M236.07,213.8c1.29,14.37-7.08,20.25-13.17,31.33-3.69,6.72-8.7,15.64-11.3,22.7-3,8.12-4.52,24.64-7.03,29.97-.43.91-13.99,10.29-16.2,11.8-5.21,3.56-11.52,7.74-17.3,10.2-13.94-41.39,30.85-88.93,65-106Z"/><path class="cls-3" d="M317.07,514.8c45.59.16,90.91-.67,136.46-1.04,13.11-.1,45.24-2.24,56.01.07,1.38.3,15.27,12.99,18.63,15.37,1.36.97,12.69,6.64,9.4,7.6s-12.18,1.35-16.5,1.99l-23.42-15.9c-43.8,8.49-89.63,9.45-133.76,2.58-14.57-2.27-28.7-6.84-43.33-8.72-1.87-.24-4.06,1.26-3.49-1.96Z"/><path class="cls-3" d="M407.07,47.8c16.06,15.65,27.98,28.13,34.72,50.78,1.36,4.58,6.07,20.65-.42,22.04-3.72.8-7.04-3.32-12.32,1.65-6.23,5.86-11.06,29.66-14.18,31.32-1.27.68-24.24-1.75-28.79-1.8-.73-4.98,4.26-7.06,6.83-10.67,21.24-29.87,18.86-42.43,16.31-76.88-.12-1.65,1.81-3.25,1.8-4.95-.03-4.65-7.91-6.93-3.94-11.5Z"/><path class="cls-4" d="M226.07,293.8c.85,13.08,9.52,34.73,22,41,1.94,38.15,20.1,79.36,45,108-.02,2.25.9,3.63-2.29,2.79-8.3-2.18-39.55-43.37-45.68-52.33-2.18-3.19-9.27-20.79-13.04-11.46-9.22-25.21-15.48-58.63-8.47-85.03.44-1.66-.14-3.53,2.47-2.97Z"/><path class="cls-3" d="M148.07,539.8c18.18,15.16,49.77.29,61.4-17.1,10.23-15.29,17.16-51.73-4.4-59.9-1.46-.56-2.28-1-4-1,.11-.62-.16-1.49,0-2,.04-.12.98-.41,1-1,40.92,17.25,45.85,71.55,7.91,95.41-18.87,11.87-56.45,12.03-61.91-14.41Z"/><path class="cls-4" d="M205.07,462.8c21.56,8.18,14.63,44.61,4.4,59.9-11.63,17.39-43.22,32.26-61.4,17.1-3.8-3.17-3.63-11.67-2.95-16.48.3-2.14,1.86-3.13,1.95-3.52,7.25,2.4,12.5,2.26,19.78.28,8.02-2.19,27.73-16.6,32.65-23.35,7.86-10.78,7.79-21.13,5.57-33.93Z"/><path class="cls-6" d="M552.07,118.8c-1.51-1.22-9.4-1.43-9.95-.95-.2.18-.22,3.42-1.21,5.29-12.6,23.89-41.66,46.48-61.84,16.66,4.22.2,8.17.07,12.23-1.27,11.39-3.74,33.03-32.67,10.29-33.81-11.05-.55-31.55,15.17-26.52,28.08-2.37-3.66-5.43-6.52-8-10,15.07-18.84,36.2-31.68,61.52-28.02,8.32,1.2,19.34,16.88,23.48,24.02Z"/><path class="cls-6" d="M596.07,386.8c-1.8,10.01-8.31,19.96-15.48,27.02-8.84,8.71-42.35,30.85-54.13,30.86-7.18,0-16.35-8.24-18.4-14.88,2.26.36,3.05-.76,4.54-1.96,29.73-23.95,43.83-36.16,83.46-41.04Z"/><path class="cls-3" d="M236.07,213.8c7.06-3.53,14.69-8.08,22.99-7.51-35.09,38.55-52.89,90.15-46,142.5-18.75-.1-35.96-11.08-41.99-28.99,5.78-2.45,12.1-6.63,17.3-10.2,2.21-1.51,15.77-10.9,16.2-11.8,2.51-5.34,4.03-21.85,7.03-29.97,2.6-7.05,7.61-15.98,11.3-22.7,6.09-11.08,14.46-16.96,13.17-31.33Z"/><path class="cls-6" d="M201.07,461.8c1.72,0,2.54.44,4,1,2.21,12.8,2.29,23.15-5.57,33.93-4.92,6.75-24.64,21.16-32.65,23.35-7.27,1.99-12.53,2.12-19.78-.28,5.33-21.77,28.87-58.01,54-58Z"/><path class="cls-6" d="M19.07,384.8c.92,38.43,54.01,69.27,85.04,82.46,4.16,1.77,24.12,7.54,24.96,8.55.38.46-4.03,10.95-4.61,11.07-3.46.72-38.77-15.64-44.41-18.56-32.03-16.6-70.39-43.37-72.98-82.52l12-1Z"/><path class="cls-3" d="M581.07,500.8c-3.32,6.85-4.82,12.8-4.05,20.56,1.16,11.69,13.68,15.95-8.42,14.42-36.4-2.53-60.67-29.38-71.52-61.97,6.09,4.35,10.34,14.96,16.45,19.05,3.66,2.45,18.96,7.86,23.79,9.21,14.99,4.22,29.17,5.94,43.76-1.26Z"/><path class="cls-3" d="M110.07,356.8c32.57,20.82,72.78,25.77,109.99,15.01l5,18.99c-17.02-.05-33.97.93-51,1.01.56-3.22-1.63-1.72-3.5-1.95-15.96-2.03-44.34-5.87-56.51-16.54-6.76-5.92-6.94-7.96-3.99-16.51Z"/><path class="cls-3" d="M232.07,381.8c3.77-9.33,10.86,8.27,13.04,11.46,6.12,8.96,37.37,50.15,45.68,52.33,3.18.84,2.27-.54,2.29-2.79,12.93,14.87,26.71,22.34,41.91,33.59,1.52,1.13,5.27,3.32,5.09,5.41-51.04-11.67-90.34-51.71-107.99-99.99Z"/><path class="cls-3" d="M485.06,439.81c-2.19,4.49.96,16.18-.51,18.98-1.8,3.43-27.44,16.3-32.52,18.48-26.35,11.3-54.61,16.57-82.95,9.52l37.41-7.06c29.22-7.21,53.8-23.8,78.57-39.92Z"/><path class="cls-3" d="M58.41,468.44c9.8,6.89,25.32,15.01,36.3,20.21,3.94,1.87,25.38,9.17,26.18,10.33.59.87,2.88,20.03,2.17,20.81-1.1,1.21-23.74-9.3-26.66-10.83-25.48-13.32-43.93-31.9-58.31-56.68,7.53,3.04,13.94,11.67,20.32,16.16Z"/><path class="cls-6" d="M597.07,380.8c-28.07,3.18-66.99,20.67-86,42-.21-3.59-5.17-6-5.02-9.4.18-4.08,5.89-18.35,11.02-19.6-2.22,5.54-1.25,10.07,5.52,9.89,2.42-.06,30.41-19.41,32.49-22.38,4.17-5.96,2.14-7.08,2-12.5-.02-.66-.15-3.86,0-3.99.51-.45,11.89-1.13,13.51-1.09,11.45.28,21.27,7.16,26.49,17.08Z"/><path class="cls-3" d="M544.07,231.8c7.98,17.25,14.89,29.09,31.98,38.52,5.48,3.02,12.36,4.56,17.27,7.45,4.22,2.49,11.12,11.01,15.03,13.24,2.13,1.21,4.18,2.08,6.71,1.8-14.38,6.65-27.39,7.11-41.98.48-1.3-.59-9.49-5.23-9.78-5.72-.64-1.08.1-3.26-.79-4.69-6.59-10.6-10.95-19.14-14.91-31.11-2.68-8.1-5.13-11.16-3.53-19.97Z"/><path class="cls-1" d="M7.07,385.8c-1.54-23.18,12.46-38.99,29.53-52.97,5-4.09,24.43-18.26,29.99-18.11,3.13.08,8.6,6.29,7.47,8.06-.64,1.01-17.35,9.1-20.9,11.62-15.95,11.29-34.6,29.43-34.1,50.4l-12,1Z"/><path class="cls-6" d="M188.07,454.8l-6,2.99c3.31-.97,6.54,1.66,9,2.01-3.42,2.5-7.32,3.8-11,6-15.38-13.15-26.18-2.61-18,15-7.29,8.46-16.07,23.22-19,34-8.31-4.45-9.44-13.99-12-22,6.37-25.17,31.02-41.95,57-38Z"/><path class="cls-3" d="M704.07,457.8c-10.87,18.71-20.66,30.96-37.52,44.98-3.51,2.92-11.56,6.5-13.92,9.08-2.26,2.47-4.54,9.48-7.13,12.87-5.06,6.61-11.08,12.67-16.42,19.08-15.37,2.23-30.6,1.78-46,1,24.18-3.63,47.82-11.36,63.97-30.53,4.55-5.4,14.3-24.5,17.03-26.47.82-.59,3.58-.99,5.3-2.19,12.29-8.54,23.45-18,34.7-27.81Z"/><path class="cls-3" d="M246.07,144.8c8.33,2.84,36.44,35.11,35.75,41.52-.77,7.14-31.73,12.32-37.75,14.48l10.08-34.47c.11-3.77-4.46-8.11-4.91-11.28-.92-6.46,3.34-3.49-3.17-10.24Z"/><path class="cls-4" d="M583.07,544.8c15.4.78,30.63,1.23,46-1-2.64,3.16-5.55,6.28-8,9-22.96,1.96-43.01,4.33-66.02.52-9.48-1.57-22.38-6.85-30.98-7.52,6.05-1.8,16.48-6.13,22.51-6.08,5.5.05,15.4,4.09,22.13,4.94,4.63.59,9.67-.1,14.36.14Z"/><path class="cls-1" d="M694.07,406.8c1.56.97,4.37,18.51,1.79,20.8-1.08.95-27.54,2.96-28.68,2.09-.95-.73-4.51-19.92-7.11-22.88,4.99,1.04,31.79-1.37,34,0Z"/><path class="cls-3" d="M622.07,172.8c-8.2-.7-15.77-.59-23.99,1,.41-12.25-1.45-25.63-6.01-37,1.9.07,2.86,1.18,3.99,2.5,9.21,10.8,18.43,21.48,26.01,33.5Z"/><path class="cls-4" d="M706.07,454.8c-.46.83-1.35,1.88-2,3-11.25,9.81-22.4,19.27-34.7,27.81-1.73,1.2-4.49,1.61-5.3,2.19,4.19-12.02,18.73-18.85,28.01-27.49,8.96-8.34,20.47-21.05,24.99-32.51.1,9.39-6.61,19-11,27Z"/><path class="cls-4" d="M565.07,115.8c.37.56,2.02,1.07,2.83,2.64,6.31,12.13,10.97,36.56-.83,46.36,1.67-13-2.53-29.27-8-41,1.49-3.38,2.43-6.2,6-8Z"/><path class="cls-1" d="M661.07,194.8c2.31,6.07,8.77,31.07,4.57,35.06-2.95,2.8-4.26-.9-6.57,5.94.99-15.76-.77-29.03-8.81-42.69-.77-1.32-6.6-7.98-6.19-8.3,2.39-1.86,14.66,8.18,17,9.99Z"/><path class="cls-6" d="M477.07,199.8c2.46.02,6.1-.8,8,1-5.42.99-1.73,1.88-4.56,3.92-4.99,3.61-20.62,6.25-25.44,10.08-2.38-2.58-6.91-5.52-10-7-.53-2.55,1.23-2.06,2.73-2.72,10.35-4.54,18.06-5.37,29.27-5.28Z"/><path class="cls-1" d="M491.07,199.8l-1,1c-.22-.14-.7.13-1,0l-.49-.97-1.51.97c-.64,0-1.42-.11-2,0-1.9-1.8-5.54-.98-8-1-4-9.44-19.92-12.76-20-23,14.88,6.99,21.84,12.52,34,23Z"/><path class="cls-5" d="M180.07,465.8c-5.99,3.58-13.44,9.71-18,15-8.18-17.61,2.62-28.15,18-15Z"/><path class="cls-6" d="M556.07,104.8c.64,4.31,3.64,3.21,5,4,.54.31,1.19.5,2,1-2.79,1.07.72,2.54,1,3,.38.63.36,2.05,1,3-3.57,1.8-4.51,4.62-6,8-4.51-9.67-11.12-18.32-18.99-25.51,5.91-.94,11.37,3.35,15.99,6.51Z"/><path class="cls-4" d="M143.07,514.8c-.54,1.98-1.61,3.71-2,6-2.79.09-5.74-1.05-7,2-5.42-13.14-6.6-15.79-3-30,2.56,8.01,3.69,17.55,12,22Z"/><path class="cls-3" d="M488.06,468.8c.41.45,2.44,11.58,2.01,12-.86.83-20.63-.22-24,.99,3.09-.92,20.7-14.38,21.99-12.99Z"/><path class="cls-3" d="M75.07,171.8c-11.82,19.48-18.07,32.31-22.68,54.87-.36,1.75.42,3.72-2.32,3.13,2.26-19.07,10.16-39.54,21.36-55.15,1.01-1.41,1.46-2.94,3.64-2.85Z"/><path class="cls-3" d="M169.07,114.8c-.14.09.08,2.28-1.61,2.86-5.19,1.77-19.26.12-25.82,4.22l-27.57,11.93c17.45-10.82,33.85-18.34,55-19Z"/><path class="cls-3" d="M611.07,367.8c7.25,3.29,14.18,6.95,19.99,12.51-5.67.89-11.23-.48-16.99-.51,10.85-1.03.14-8.37-3-12Z"/><path class="cls-3" d="M141.07,520.8c-.69,4.02-.49,10.7-.49,14.98-3.12-3.84-4.66-8.49-6.51-12.98,1.26-3.05,4.21-1.91,7-2Z"/><path class="cls-4" d="M202.07,458.8c-.02.59-.96.88-1,1-2.65-.13-5.36.19-8,0l-.5-.98-.5.98c-.33-.04-.67.05-1,0-2.47-.34-5.7-2.97-9-2.01l6-2.99c4.82.73,9.53,2.12,14,4Z"/><path class="cls-3" d="M99.07,144.8l-24,26c7.08-11.69,14.11-17.59,24-26Z"/><path class="cls-3" d="M53.07,278.8c2.46-.51,2.12,1.16,2.74,2.71,2.54,6.38,7.74,18.9,8.26,23.29-4.23-6.74-9.74-18.23-11-26Z"/><path class="cls-3" d="M45.07,320.8c3.54-6.25,13.66-7.29,19-12-.02.14,1.82.71.04,2.47-3.14,3.11-14.5,7.06-19.04,9.53Z"/><path class="cls-3" d="M50.07,253.8c-.33-6.92-.43-9.8,0-17,1.68,4.75,1.69,12.18,0,17Z"/><path class="cls-3" d="M177.07,96.8c-.92,3.86-1.67,12.57-4,16.3-.77,1.24-1.91.59-2,.7l6-17Z"/><path class="cls-6" d="M491.07,199.8c3.58,3.08,6.58,5.58,10,9-1.8-.29-3.47-1.06-5-2-.35-.22-.63-.75-1-1s-.62-.73-1-1c-2.39-1.69-3.75-3.84-4-4l1-1Z"/><path class="cls-3" d="M50.07,262.8c3,.02,3.67,9.41,3.94,11.7.16,1.4-.96,2.18-.94,2.3-2.15-4.05-2.53-9.48-3-14Z"/><path class="cls-3" d="M254.07,552.8v1c-3.61-.68-7.75-.16-11.01-2.5,3.57-2.96,10.43,1.45,11.01,1.5Z"/><path class="cls-3" d="M111.07,135.8c-.79,3.46-6.51,6.57-10,7,4.13-3.33,5.98-4.32,10-7Z"/><path class="cls-3" d="M238.07,22.8l-3.5,4-11.5,6c5.81-4.6,8.2-6.56,15-10Z"/><path class="cls-3" d="M181.07,88.8c-.5,1.97.48,4.03-3,4,.58-2.02.35-4.6,3-4Z"/><path class="cls-3" d="M691.07,221.8c2.66-.6,2.41,1.98,3,4-2.93.7-2.18-2.35-3-4Z"/><path class="cls-3" d="M187.07,76.8c-.74,1.89-.16,4.62-3,4,.54-2.03.37-4.59,3-4Z"/><path class="cls-3" d="M184.07,82.8c-.56,2.02-.35,4.59-3,4,.52-2.04.39-4.59,3-4Z"/><path class="cls-4" d="M561.07,108.8c-1.36-.79-4.36.31-5-4,1.73,1.18,4.11,1.52,5,4Z"/><path class="cls-3" d="M542.07,574.8c-1.62,1.68-6.42,1.67-8,0,2.66-.06,5.34.07,8,0Z"/><path class="cls-3" d="M198.07,58.8c-.16.25.27,1.63-.57,2.92-.96,1.48-4.7,6.19-6.43,7.08,1.94-3.56,3.29-7.7,7-10Z"/><path class="cls-3" d="M.07,390.8c2.67-.51,2.64,1.05,1,3-.03-.16-.8-1.13-1-3Z"/><path class="cls-4" d="M565.07,111.8l-1,1c-.28-.46-3.79-1.93-1-3,1.11.68,1.51,1.64,2,2Z"/><path class="cls-6" d="M700.07,266.8c0-1.67,0-3.33,0-5,2.6,1.38.15,4.04,0,5Z"/><path class="cls-3" d="M204.07,50.8c.84,4.21-1.5,2.61-2,3-.27-1.97,1.33-2.2,2-3Z"/><path class="cls-3" d="M537.07,90.8c.28.01,2.44-2.95,2,1-.82-.11-1.67-.03-2-1Z"/><path class="cls-6" d="M700.07,257.8c.12-2.18,1.01-3.79,1-4l-1,4Z"/><path class="cls-3" d="M9.07,355.8c-1.6,3.15-1.91,1.82-2,2-.3-1.78.19-2.36,2-2Z"/><path class="cls-3" d="M689.07,217.8c2.12-.24,2.24-.12,2,2-.08-.18-.61,1.36-2-2Z"/><path class="cls-3" d="M6.07,361.8c-1.31,3.37-1.92,1.82-2,2-.3-1.8.18-2.36,2-2Z"/><path class="cls-3" d="M44.07,320.8c-.18.09,1,.32-2,2-.24-2.12-.12-2.24,2-2Z"/><path class="cls-3" d="M1.07,374.8c-.01.11,1.5,1.25.99,1.99-.13.19-1.91-.17-1.99,0l1-2Z"/><path class="cls-3" d="M483.07,575.8h-2c.67,0,1.33,0,2,0Z"/><path class="cls-3" d="M607.07,366.8l-2-1c.94.31,1.52.82,2,1Z"/><path class="cls-3" d="M587.07,573.8h-2c.66-.03,1.34.03,2,0Z"/><path class="cls-3" d="M497.07,472.8c-.12-.39-.71-1.02-1-2l1,2Z"/><path class="cls-6" d="M507.07,427.8l2-2c-.67,1.32-1.98,1.86-2,2Z"/><path class="cls-1" d="M695.06,432.81c3.66,3.26-21.56,31.03-25.51,32.97,2.42-10.25,1.87-20.8-.48-30.97,3.6,1.44,24.96-2.92,25.99-2Z"/><path class="cls-6" d="M509.07,424.8l1-1c-.29.37-.8.67-1,1Z"/><path class="cls-6" d="M193.07,459.8c-.33-.02-.67.04-1,0l.5-.98.5.98Z"/><path class="cls-3" d="M610.07,367.8l-1-1c.68.27.92.97,1,1Z"/><path class="cls-3" d="M495.07,205.8l-1-1c.38.27.65.76,1,1Z"/><path class="cls-6" d="M489.07,200.8c-.09-.04-1.61,0-2,0l1.51-.97.49.97Z"/><path class="cls-6" d="M98.07,166.8c14.95-28.46,58.92-45.62,91.24-40.74,28.62,4.32,25.41,42.4,15.64,62.12-9.81,19.79-49.83,47.02-71.08,52.92-3.91,1.09-16.93,3.85-20.17,2.76-1.04-.35-.72-2.97-2.04-4.13-6.72-5.94-21.76-15.86-26.62-22.4-7.18-9.65.39-30.87,5.65-40.4,1.01-1.83,1.82-4.09,4.37-4.13-3.13,7.51-10.2,23.4,5.31,15.81,3.25-1.59,5.65-4.35,8.19-6.81,10.65-10.29,20.5-25.05,31.38-35.69-6.1-8.58-21.68,1.1-27.9,6.17-5.29,4.31-8.66,10.63-13.99,14.51Z"/><path class="cls-5" d="M95.07,172.8c.84-2.02,1.98-4.06,3-6,5.33-3.88,8.7-10.2,13.99-14.51,6.22-5.07,21.8-14.75,27.9-6.17-10.88,10.63-20.72,25.4-31.38,35.69-2.54,2.46-4.94,5.22-8.19,6.81-15.51,7.58-8.44-8.3-5.31-15.81Z"/><path class="cls-5" d="M232.06,89.81c-.6-.54-10.49,1.74-14.48-5-4.82-8.16-.39-16.86,3.68-24.31,15.78-28.87,60.76-52.58,93.19-43.58,20.5,5.69,17.88,21.98,14.15,38.91-4.59,20.81-15.71,31.2-35.77,38.23-10.58,3.71-50.9,13.07-60,9.48-8.73-3.44.96-12.21-.76-13.74Z"/><path class="cls-5" d="M557.07,368.8c.14,5.42,2.17,6.54-2,12.5-2.08,2.98-30.06,22.32-32.49,22.38-6.77.18-7.73-4.34-5.52-9.89,4.31-10.77,27.75-26.19,40-25Z"/><path class="cls-5" d="M582.07,230.79c-.69-.72,2.68-10.29,1.99-10.99-.95-.95-8.7,4.5-15.34-.16-15.48-10.86,21.92-44.05,32.8-24.8,3.89,6.89-.44,6.88-1.41,11.5-.54,2.6.29,5.37-.51,8.49-1.16,4.49-14.82,18.81-17.53,15.96Z"/><path class="cls-5" d="M479.07,139.8c-1.53-2.26-2.5-4.69-4-7-5.03-12.9,15.47-28.63,26.52-28.08,22.74,1.14,1.1,30.07-10.29,33.81-4.06,1.33-8.01,1.47-12.23,1.27Z"/></g></svg>