<svg width="24" height="24" xmlns="http://www.w3.org/2000/svg">
 <g>
  <title>Layer 1</title>
  <g id="svg_7">
   <path transform="rotate(-45 12 12)" id="svg_2" d="m8.5,12.5c0,-2.1 1.7,-3.8 3.8,-3.8l0,0l0,0c1.0,0 2.0,0.4 2.7,1.1c0.7,0.7 1.1,1.7 1.1,2.7l0,0.5l1.1,0l-2.2,2.2l-2.2,-2.2l1.1,0l0,-0.5c0,-0.9 -0.7,-1.6 -1.6,-1.6l0,0l0,0c-0.9,0 -1.6,0.7 -1.6,1.6l-2.2,0z" stroke="#000" fill="#fff"/>
   <path transform="rotate(-45 12 12)" id="svg_4" d="m8.5,12.5c0,-2.1 1.7,-3.8 3.8,-3.8l0,0l0,0c1.0,0 2.0,0.4 2.7,1.1c0.7,0.7 1.1,1.7 1.1,2.7l0,0.5l1.1,0l-2.2,2.2l-2.2,-2.2l1.1,0l0,-0.5c0,-0.9 -0.7,-1.6 -1.6,-1.6l0,0l0,0c-0.9,0 -1.6,0.7 -1.6,1.6l-2.2,0z" stroke="#000" fill="#fff"/>
   <path transform="rotate(135 12 12)" id="svg_5" d="m8.5,12.5c0,-2.1 1.7,-3.8 3.8,-3.8l0,0l0,0c1.0,0 2.0,0.4 2.7,1.1c0.7,0.7 1.1,1.7 1.1,2.7l0,0.5l1.1,0l-2.2,2.2l-2.2,-2.2l1.1,0l0,-0.5c0,-0.9 -0.7,-1.6 -1.6,-1.6l0,0l0,0c-0.9,0 -1.6,0.7 -1.6,1.6l-2.2,0z" stroke="#000" fill="#fff"/>
  </g>
 </g>
</svg>

