<?xml version="1.0" encoding="UTF-8"?><svg id="Camada_2" xmlns="http://www.w3.org/2000/svg" viewBox="0 0 582.46 583"><defs><style>.cls-1{fill:#faf5e4;}.cls-2{fill:#3f3b44;}.cls-3{fill:#e89c80;}.cls-4{fill:#587588;}.cls-5{fill:#81afbb;}.cls-6{fill:#b75d54;}.cls-7{fill:#f6bd94;}.cls-8{fill:#f9ebd3;}.cls-9{fill:#f5a36b;}.cls-10{fill:#fae2c2;}.cls-11{fill:#425c71;}.cls-12{fill:#6a94a3;}.cls-13{fill:#a6d7dc;}.cls-14{fill:#dd7f68;}.cls-15{fill:#d7947b;}</style></defs><g id="Camada_1-2"><path class="cls-2" d="M309.95,2.19c-.67,4.3,3.77,1.09,4.99,1,1.61-.12,3.37-.05,4.99,0-.55,4.2,2.82,1.14,4,1s2.74-.04,4,0c-.35,2.29.39,2.8,2,1,1.6.16,3.47-.23,4.99,0-.37,2.26.45,2.84,2,1,.62.11,1.38-.11,2,0-.37,2.26.45,2.84,2,1,.61.12,1.4-.13,2,0,.36,4.18,7.69,3.56,10.99,4.49,9.27,2.62,18.5,5.87,27.93,8.05,1.53.35,4.06,1.29,5.04-.55,3,.99,6.03,1.87,8.99,3,1.32,4.33,10.14,5.56,13.98,6.99.89.33,1.82.54,3,1-.23,3.5,4.64,3.36,6.66,4.35.25.12,4.36,5.87,4.33.64.73.32,1.34.7,2,1-.1,2.51,1.41,2.56,3.02,3.47,5.65,3.2,12.21,5.46,17.95,8.51,3.42,1.82,6.04,4.03,8.99,5.99.59,1.83,2.18,2.16,4,2,.32.35.68.66,1,1,2.72,2.91,2,1.84,4.99,4,1.8,1.29,3.31,2.57,4.99,4,1.69,1.43,2.39,4.73,5.99,4,.31.26.6.66,1,1-.28,2.06-.06,2.28,2,2,.41.34,1.69.93,3,2,.45,3.7,3.32,4.61,5.99,5.99.26.14.74-.14,1,0,.33,4.07,4.64,5.27,6.99,6.99,1.56,1.14,2.35,1.67,4,3-.39,2.28.76,3.05,1.96,4.53,3.57,4.43,8.34,8.42,12.21,12.77,1.15,1.29,1.55,2.77,3.81,2.68.26.34.7.61,1,1-.29,3.23-.23,3.29,3,3,2.11,2.94,1.84,3.3,3,5.99.9,2.1.57,5.02,4,4.99.12.29-.12.72,0,1,5.31,12.19,13.43,22.86,18.98,34.96.21.46-.21,1.54,0,2-2.01-2.99-4.11-5.88-5.99-8.99-15.45-25.45-24.9-41.14-46.95-61.93-2.25-2.12-4.85-6.02-7.99-6.98,1.77,2.24,4.6,5.65,5.99,7.98,1.55,2.6,3.63,6.32,4.99,8.99,43.43,85.42,7.49,181.07-43.95,253.71-32.55,45.96-72.35,89.75-112.87,128.85-31.5,30.4-70.36,62.09-112.87,74.92-.3.09-.69-.09-1,0l-2,1c-3.6.87-7.3,1.54-10.99,2-1.56.19-3.79.99-4,1-.99.04-2,.02-3,0-.11,0-.26-.86-2-1-.33-.03-.67.04-1,0,.35-1.66-.75-2.23-2-3,45.92-1.52,101.72-49.05,133.85-78.91,15.47-14.38,26.8-26.74,40.95-41.95,4.72-5.07,10.05-10.46,14.98-15.98.11-.13,1.26.17,1.68-.3,23.44-26.37,44.58-54.76,64.5-83.91,1.59-4.54-8.6-18.23-11.24-22.67-1.64-2.77-3-11.09-6.52-8.02-6.4,5.6-16.99,23.92-23.05,31.89-11.83,15.54-24.89,32.54-37.81,47.09-8.19,9.23-17.44,18.98-25.97,27.97-4.01,4.23-8.68,8.69-13.53,11.94.48-1.04.29-3.55,1-4.99.81-1.66,2.31-3.53,3.49-5.01,8.92-11.13,22.46-20.61,29.27-33.27-1.18-1.94-2.54-3.78-3.79-5.67-5.02-7.56-10.92-15.26-16.98-21.98-1.58-1.76-4.77-7.72-7.02-6.53-10.91,10.11-20.88,22.17-31.93,32.01-5.34,4.76-14.84,10.39-19.04,14.92-3.56,3.85-7.46,11.6-11.43,16.54-12.62,15.72-28,29.02-41.47,43.94-28.91,23.78-49.96,44.44-84.69,61.64-6.53,3.23-14.17,7.06-21.18,8.28-2.78,2.44,11.23,8.49,11.98,8.98,3.68,2.39,5.83,4.74,9.99,6.99v1c-1.92,0-4.23-.27-5.99-1-.31-.34-.61-.76-1-1-3.75-2.31-5.46-2.01-8.99-3-.31-.09-.69.08-1,0,.14-2.28-1.51-2.58-2.87-3.62-4.86-3.69-10.13-6.84-15.11-10.37-.36-.25-.62-.73-1-1-2.74-1.97-7.69-4.24-9.99-5.99-.15-.11-.33-.68-2-2-2.61-2.06-6.93-5.18-8.99-6.99-.4-.35-1.88-1.97-3-3-1.53-1.41-3.28-3.36-4.99-4.99-36.59-34.86-74.09-90.96-82.93-141.32-.31-1.75-.13-3.48-1.98-4.52-.12-.97.12-2.03,0-3-.22-1.73-.99-1.89-1-2-.09-.98.11-2.02,0-3-.39-3.5-1.6-6.32-2-8.99-.31-2.11.17-4.75,0-6.99-.06-.85-.03-1.73-1-2,.14-1.88.09-4.09,0-5.99-.07-1.46.26-2.85-1-4,.17-2.29,0-4.69,0-6.99,0-7-.75-13.97-1-20.98-.21-5.89.43-12.18,0-17.98-.07-.99.08-2.01,0-3,1.49-.69.98-2.68,1-4,.02-1.64.12-3.37,0-4.99,1.3-.48.96-1.9,1-3,.06-1.65-.14-3.36,0-4.99,0-.11.93-.22,1-2,.06-1.61.12-3.39,0-4.99,1.41-.51.81-2,1-3,.11-.62-.11-1.38,0-2,.02-.11.7-.37,1-2,.17-.91-.19-2.12,0-3,.02-.11.67-.43,1-2,.19-.89-.19-2.11,0-3,.31-1.47,1.49-3.94,2-5.99.21-.85-.21-2.15,0-3,.08-.34.76-1.06,1-2,.15-.58-.15-1.42,0-2,.03-.11.71-.89,1-2,.34-1.32.65-2.69,1-4,.34-1.24,1.47-2.87,2-4.99.35-1.4.74-2.34,1-4,1.52-1.06,1.6-2.4,2-4,.32-1.32.78-2.67,1-4,1.66-1.01,1.48-2.6,2-4,1.12-2.99,2.02-5.95,3-8.99,2.64-1.06,3.33-3.27,3-5.99,1.34-2.26,1.9-4,3-5.99.16-.28.76-.56,1-1,1.78-3.25,3.16-6.78,4.99-9.99.16-.29.75-.56,1-1,.74-1.28,1.26-2.71,2-4,.04-.06.59-.3,1-1,.51-.87.85-2.11,2-4,.06-.09.61-.36,1-1,.15-.24-.15-.76,0-1,.1-.16,1.24-.86,2-2,.39-.58-.07-1.4,2-4,.8-1.01,2.68-1.28,2-4,4.93-6.76,12.6-20.51,18.98-24.97,1.38-.97,1.56,1.91,2-3,.09-.98-.13-2.04,0-3,.04-.33-.07-.69,0-1,2.18.29,3.1-.58,4.54-1.95,3.91-3.71,8.4-9.9,12.44-14.03,1.65-1.69,3.34-3.32,4.99-4.99,3.74-3.77,8.87-6.84,10.99-11.99.32-.09.71.1,1,0,2.92-.97,2.31-1.09,4-2,6.3-3.37,7.3-5.43,11.99-9.99.34-.33.66-.67,1-1l27.97-18.98c.3-.1.7.1,1,0,3.12-1.11,4.17-2.17,5.99-3,24.98-11.38,51.72-23.19,78.91-27.97,2.84-.5,9.01-.26,7.99-3,.61-.11,1.35.06,2,0,1.55,1.84,2.37,1.26,2-1,1.25-.06,2.77-.12,4,0,1.35.13,5.64,3.27,4.99-1,.66.05,1.34-.06,2,0,1.55.13,6.7,3.31,5.99-1,14.27-1.69,30.44-1.35,44.95-1ZM336.92,11.18c-22.13-4.06-56.1-6.67-78.16-2.74-9.03,1.61-43.06,21.36-51.19,27.72-1.26.98-2.79,2.17-2.5,3.99h16.48c2.58,0,9.33-3.7,13.48-2,.99.07,2.01-.07,3,0,50.69,3.84,81.28,11.57,127.86,30.97,2.54,1.06,18.2,9.86,19.97,7.99-2.1-16.24-8.74-33.12-17.56-46.86-10.45-16.28-12.93-15.68-31.38-19.06ZM236.04,13.19c-17.92,3-35.41,9.35-52.21,16.2-3.3,1.35-41.48,18.11-40.68,20.24,1.02,2.7,8.44-.78,10.78-1.2,18.15-3.24,39.56-2.5,52.23-16.69l29.88-18.56ZM413.84,86.1c3.47,1.15,24.72,9.18,25.97,7.99-2.04-7.12-4.33-14.43-7.23-21.25-.75-1.77-2.67-2.54-2.75-2.72-4.45-9.79-6.91-17.4-13.35-27.1-8.2-12.34-12.89-13.23-26.83-18.12-7.38-2.59-14.96-5.08-22.72-6.23,10.2,13.73,17.7,28.64,22.97,44.94,1.19,3.68,2.66,13.83,4.05,15.92,1.48,2.21,16.09,5.31,19.9,6.57ZM454.79,59.13c-3.12-2.23-6.45-6.09-10.08-8.4-4.57-2.9-16.78-10.18-21.4-11.56-1.4-.42-1.78.1-1.46,1.46,6.05,9.97,12.51,20.04,17.19,30.75,1.11,2.54,2.14,5.62,3.06,7.96,2.35,5.97,4.62,12.23,5.89,18.55,9.11,3.76,19.96,7.07,28.78,11.18,8.07,3.76,15.88,9.18,23.97,12.98-3.11-9.82-8-19.03-12.98-27.96-11.48-20.6-14.69-21.9-32.96-34.96ZM188.09,49.14c-13.96,1.94-37.53,4.48-49.94,9.99-.49.22-1.78-.23-2,0l-2,1c-6.35-.24-16.56,8.97-21.45,13.01-20.83,17.23-39.55,39.07-54.68,61.19-3.2,4.67-6.61,9.43-8.77,14.7-2.23,1.36-5.86,6.05-4.51,8.98,42.07-14.5,86.95-21.7,131.01-27.82,48.1-6.68,136.53-9.62,171.17-46.09,2.87-3.02,5.29-5.47,6.91-9.6.73-2.32-1.51-1.05-1.91-1.39-14.38-12.1-63.96-23.34-83.53-25.84-28.23-3.61-52.32-2.02-80.28,1.87ZM376.88,82.1c-1.39-1.74-3.52-2.27-5.48-3.02-14.74-5.64-9.18-1.36-17.47,7.54-4.6,4.94-11.32,8.59-16.01,13.46h-1c-.52.11-.76.87-1,1-48.1,26.89-111.98,29.44-165.81,36.96-.33.05-.67-.05-1,0-4.64.65-9.33,1.34-13.98,2-24.06,3.42-46.32,7.36-69.92,12.99-12.3,2.93-23.95,6.1-35.96,9.99-9.02,2.92-8.84-.44-14.16,9.31-10.91,20.01-19.25,50.16-22.8,72.6-.1.63.09,1.36,0,2s.09,1.36,0,2c-.37,2.72-1.63,6.85-2,9.99-.55,4.78-1.39,9.58-.91,14.42.1.73.57.44.91.56,1.78.61,31.63-6.75,36.77-7.68,65.55-11.75,129.42-14.02,195.45-19.3,19.2-1.54,73.65-5.48,88.08-15.34.44-.3.22-1.53.33-1.63,36.91-31.2,61.09-82.95,57.93-132.34-.19-3.02-.72-11.57-2.99-12.5-.28-.12-.71.11-1,0s-.7.11-1,0c-1.2-2.83-3.68-2.47-5.99-3-.32-.07-.69.08-1,0ZM370.89,192.98c-1.4,1.83-2.26,4.04-3,4.99-.99,1.28-1.44,2.25-2,3-1.02,1.37-1.98,2.54-3,4-.73,1.04-1.45,2.23-2,3-.21.29-.69.55-1,1-.2.3-.72.55-1,1-2.56,4.01-6.67,8.91-10.47,13-2.89,3.1-18.35,17.11-18.92,18.99-1.33,4.35-.89,17.41-.65,22.56.09,1.78,1.06,3.13,1.07,3.38.45,6.71.93,12.3,2,18.98,1.96,12.25,4.41,22.14,7.99,33.96.64,2.11,1.32,3.95,2,5.99,1.62,4.88,1.22,12.05,7.9,12.89l26.06-29.87c44.18-50.6,86.74-133.21,65.93-201.77-.38-1.27-.21-2.05-1-4-.14-.34.33-1.25-.2-1.76-.36-.34-7.63-2.64-9.27-3.25-4.28-1.59-36.09-12.35-37.47-10.97,3.42,37.14-3.27,73.12-22.98,104.88ZM452.79,128.05c3.24,46.89-9.63,93.15-33.96,132.85-9.45,15.43-21.62,31.83-32.96,45.95-10.39,12.94-21.92,24.84-32.66,37.46l26.17,34.44c22.26-25.41,42.84-52.62,61.45-80.88,1.53-1.04,6.17,4.88,7.39,6.07l16.55,26.88c3.72-8.09,9.25-15.17,13.52-22.95,29.31-53.45,43.77-114.47,27.94-174.82-.53-.87-10.34-4.86-12.48-6-3.04-1.62-5.88-3.4-8.99-4.99-6.83-3.49-13.05-5.98-19.98-8.99-.16-.07-.65-1.3-1.71-1.75-4.25-1.77-8.51-4.3-13.26-4.24-.74.76,2.78,17.85,2.99,20.97ZM104.19,264.9c-.97.12-2.02-.12-3,0-.65.08-1.35-.08-2,0-22.15,2.83-45.26,6.31-66.94,11.47-3.65.87-23.25,5.24-23.85,7.12-.29.91.91,2.1.89,2.39-.33,3.61-1.23,3.68,0,7.99-1.66,3.31-1.23,8.84-1.05,12.53,1.34,27.53,6.96,57.34,17.02,82.87,18.38,2.83,36.93,5.74,55.45,7.47,46.4,4.35,91.22,4.67,137.34,2,21.81-1.26,53.66-1.49,74.34-7.07,4.93-1.33,23.7-18.77,28.56-23.38,3.62-3.43,19.32-18.3,20.45-21.55.38-1.09.82-2,.36-3.18l-10.83-25.73c-7.25-23.44-6.62-45-7.99-68.92-.14-2.41.83-5.78-2.48-6.02-29.49,7.5-59.7,8.74-89.9,11.03-42.07,3.19-84.34,5.82-126.37,10.97ZM31.27,402.74c6.65,14.22,11.63,22.89,19.98,35.96,9.35,14.64,18.33,27.99,29.97,40.95,12.35,13.75,24.39,24.66,38.96,35.96,2.18,1.69,3.31,4.2,5.05,5.44,7.49,5.33,16.97-2.24,23.92-5.44.7-.32,1.33-.68,2-1,3.49-1.65,6.58-3.22,9.99-4.99.66-.34,1.32-.63,2-1,1.28-.69,2.67-1.28,4-2,2.09-1.13,4.82-1.68,5.99-4,1.2-.25,1.08.21,2-1,13.52-7.68,26.43-17.11,38.43-26.99,15.19-12.5,27.89-25.96,41.48-39.93,6.23-6.4,10.87-10.93,16.98-17.98,2.53-2.92,4.66-6.27,6.99-8.99.12-.13,1.58-.07,2.43-1.03,2.25-2.57,4.19-5.92,6.56-8.46-9.6-.21-19.71,2.49-29.47,3.49-35.7,3.67-71.45,4.47-107.37,4.01-2.33-.03-4.66.04-6.99,0-1.33-.02-2.66.03-4,0-1-.02-2,.03-3,0-26.65-.68-55.49-2.54-81.91-5.99-9.29-1.22-18.72-3.4-27.96-4.99-1.07,3.47,3.25,6.41,3.99,7.99Z"/><path class="cls-13" d="M468.78,519.61c6.27-7.78,13.11-14.6,19.98-21.98.63-.67,1.34-1.29,2-2,3.64-3.92,8.67-8.55,11.98-12.49,1.89-2.24,4.05-5.67,5-8.49.35-.31.65-.68,1-1,1.78-1.65,1.73-2.71,2-3,5-5.37,7.43-10.87,10.99-15.98.11-.15.39.32,2-2,.59-.85.78-1.68,1-2,18.42-26.63,32.15-51.93,39.96-84.9.42-1.79.64-3.42,1-4.99,2.54.8,2.51-2.76,3-4.99.18-.81-.24-2.72,0-3,.51-.59,1.88,1.59,2-2,.02-.66-.03-1.33,0-2,1.78-2.35,2.48-6.12,3-8.99.16-.9-.12-2.04,0-3,.01-.11.94-.25,1-2,.02-.64.08-1.38,0-2,1.37-.5.87-1.93,1-3,.11-.97-.12-2.03,0-3,.01-.11.94-.23,1-2,.05-1.57.15-3.48,0-4.99,1.3-1.44,1.16-3.23,1-4.99-.06-.66.06-1.34,0-2,1.54-1.71,1.01-3.93,1-5.99-.01-1.99.1-4.01,0-5.99,1.84-3.9.98-9.49,1-13.98.03-7.28.25-14.7,0-21.98-.29-8.3-.28-16.97-3-24.97-.09-1.65.15-3.35,0-4.99-.31-3.45-1.37-7.92-3-10.99-.12-.96.1-2.02,0-3-1.58-16.1-16.54-44.78-23.97-59.93-5.6-11.42-10.18-21.29-17.16-32.33-.81-1.28-.32-3.2-2.81-2.63-.12-.28.12-.71,0-1-.81-2.01-1.38-5.48-4-4.99-1.15-2.69-.89-3.05-3-5.99-1.12-1.56-2.42-2.24-3-3-.3-.39-.74-.66-1-1-5.43-6.99-10.51-13.93-17.98-19.98-1.64-1.33-2.44-1.86-4-3-.69-3.86-4.06-5.48-6.99-6.99-.26-.14-.74.14-1,0-.02-3.93-4.33-4.63-5.99-5.99-1.3-1.07-2.59-1.66-3-2-.15-.12-.52-.77-2-2-.4-.33-.69-.74-1-1-1.68-1.41-2.39-4.75-5.99-4-1.68-1.43-3.2-2.7-4.99-4,.02-2.81-2.59-3.64-4.99-4-.32-.34-.68-.65-1-1-2.46-2.68-3.24-1.5-4-2-2.95-1.96-5.57-4.17-8.99-5.99.47-2.15-1.16-2.16-2.45-2.99-5.94-3.82-12.18-6.1-18.53-8.99-.65-.3-1.27-.68-2-1-3.71-1.63-7.14-3.5-10.99-4.99-1.17-.46-2.11-.67-3-1,.6-2.72-1.45-1.85-2.93-2.51-3.69-1.65-7.28-3.05-11.05-4.48-2.96-1.12-5.99-2.01-8.99-3-14.46-4.75-29.03-8.76-43.95-11.99-.6-.13-1.39.12-2,0-.11-.02-.39-.7-2-1-.62-.11-1.38.11-2,0-.11-.02-.3-.74-2-1-1.52-.23-3.39.16-4.99,0-.11-.01-.22-.94-2-1-1.26-.04-2.8-.14-4,0-1.16-1.25-2.51-.96-4-1-1.62-.05-3.39-.12-4.99,0-1.46-1.44-3.23-.96-4.99-1-14.51-.36-30.68-.7-44.95,1-1.99.24-4.25-.72-5.99,1-.66-.06-1.34.05-2,0-1.77-.13-3.54-.33-4.99,1-1.22-.12-2.74-.06-4,0-1.78.09-1.89.99-2,1-.65.06-1.39-.11-2,0-2.67.46-8.89-.06-7.99,3-27.19,4.78-53.93,16.59-78.91,27.97-.76-1.89-6.91.79-5.99,3-.3.1-.7-.1-1,0-2,.66-3.99,1.35-5.99,2,.07-2.53,4.17-4.22,6.14-5.34,133.72-76.29,309.69-29.54,390.82,99.32,65.01,103.27,49.04,225.99-17.76,323.68-12.56,18.37-32.81,43.93-50.04,57.84-1.48,1.2-2.25,2.35-4.53,1.96Z"/><path class="cls-13" d="M5.3,342.81c1.95,1.63-.33,4.81,3,4,.11.98-.09,2.01,0,3-1.81,1.59-1.28,2.36,1,2,.12.96-.12,2.03,0,3,5.82,47.76,42.82,112.74,80.37,143.88,1.48,1.23,2.27,2.33,4.53,1.96,1.71,1.63,3.46,3.59,4.99,4.99.02,2.02.98,3.05,3,3,2.06,1.81,6.38,4.93,8.99,6.99-.28,2.05-.05,2.29,2,2,2.3,1.75,7.25,4.02,9.99,5.99l1,1c4.97,3.52,10.25,6.68,15.11,10.37,1.36,1.04,3.01,1.34,2.87,3.62-5.32-1.35-19.58-10.88-24.88-14.58-51.48-35.89-96.86-99.13-109.66-161.04-1.45-7.01-3.04-13.42-2.31-20.16Z"/><path class="cls-11" d="M215.06,562.56c6.43,4.55,16.23,6.21,23.97,7.99,2.96.68,5.62.52,7.99,1,25.94,5.2,44.96,7.41,71.92,4.99,10.28-.92,20.92-2.63,30.97-4.99-.16.51.11,1.37,0,2-.24.15-.26,2.62-4,3-.66.04-1.34-.05-2,0-3.83.28-8.68.16-11.99,2-1.66-.05-3.33.04-4.99,0-1.86-.04-4.94-.63-5.99,1-.66-.05-1.33.02-2,0-3.55-.1-7.33,1-9.49,1h-28.97c-1.53,0-6.23-1.81-8.49-2-.66-.05-1.34.04-2,0-1.97-.13-4.01.03-5.99,0-1.33-.02-2.67-.02-4,0-2-2.72-5.93-2.04-8.99-2-.67,0-1.33,0-2,0-3.17-2.36-7.17-2.92-10.99-3-.66-.01-1.34.04-2,0-7.39-4.59-18.42-4.16-24.97-9.99.21,0,2.43-.81,4-1Z"/><path class="cls-13" d="M467.78,520.61c-3.89,5.11-9.35,9.12-14.62,12.84-29.44,20.76-71.61,40.82-107.24,43.09,3.74-.37,3.76-2.84,4-3,.44-.29,2.95.19,4,0,1.85-.34,7.67-.77,8-1,.19-.13-.11-1.56,0-1.99,7.17.3,10.33-1.61,16.98-3,3.57-.75,1.11-.62,2-2s5.4-.83,6.99-1c3.63-.38,1.34-1.22,2-2,1.55-1.81,4.23.39,5.99-4-.99.27-2.55.01-4.01.44-11.11,3.21-22.21,8.72-33.94,10.55h-1c4.57-8.64,7.51-18.42,12.99-27.97l.51,5.01,32.45-6.01c-2.66,5.92-4.59,12.02-6.99,17.98.56-.15,1.42.15,2,0-.85,3.89,5.8-.06,7.01-.53,1.54-.59,3.57.3,2.98-2.47.66-.06,1.34.06,2,0,2.24-.2,3.47.95,3-2,.32-.07.69.08,1,0,2.19-.58,3.11,1.01,4-3,.26-.13.72.13,1,0,.56-.26.83-.92,1-1,.27-.13.72.13,1,0,.43-.2.76-.6,1-1,.57-.37,1.36-.75,2-1,1.39-.55,3.65,1.35,3-2,.29-.11.72.12,1,0l1-1c.27-.13.74.13,1,0l1-1c1.3-.72,3.03-1.41,4-2l1-1c5.45-3.38,10.97-8.01,16.41-11.07,1.52-.86,3.94-.69,4.42-1.11.61-.53-.06-2.21.14-2.8,3.78-2.03,6.8-5.27,10.99-4.99Z"/><path class="cls-13" d="M152.13,541.59c.26.36.59.83,1,1,1.76.73,4.07.99,5.99,1,.51,3.32,6.29,5.69,9.33,7.15,11.17,5.35,24.45,10.36,36.62,11.83.33.04.67-.03,1,0-.36,2.28.41,2.81,2,1,.99.02,2.01.04,3,0,6.56,5.83,17.59,5.4,24.97,9.99-4.61-.27-6.52.09-12-1.49-23.77-6.81-49.82-14.59-71.78-26.11-2.9-1.52-8.4-3.98-9.11-7.37,3.53.98,5.24.68,8.99,3Z"/><path class="cls-13" d="M71.22,106.08c-.13.96.09,2.02,0,3-1.43.43-1.98,1.54-2,3-6.38,4.46-14.05,18.22-18.98,24.97-.7.96-2.76,1.31-2,4-2.06,2.59-1.61,3.41-2,4-2.12-.24-2.24-.12-2,2-.15.24.15.76,0,1l-1,1c-1.15,1.89-1.49,3.13-2,4l-1,1c-.74,1.28-1.26,2.71-2,4l-1,1c-1.83,3.21-3.22,6.74-4.99,9.99l-1,1c-1.09,1.99-1.65,3.73-3,5.99-1.85,3.11-1.72,2.04-3,5.99-.98,3.04-1.88,6-3,8.99-4.1-.36-1.95,3.7-2,4-.22,1.33-.67,2.68-1,4-4.1-.36-1.95,3.7-2,4-.26,1.65-.65,2.59-1,4-2.4-.65-1.8,1.56-3,3-1.01-3.19,1.07-7.54,2.32-11.17,8.57-24.81,25.18-52.93,39.59-74.28,4.11-6.1,9.8-14.87,16.03-18.43Z"/><path class="cls-13" d="M318.94,579.54c.58,2.99-1.45,1.79-3.31,2.14-8.94,1.67-32.47,1.9-41.22-.11-2.54-.58-2.75.95-2.42-3.03,2.26.18,6.96,2,8.49,2h28.97c2.16,0,5.94-1.1,9.49-1Z"/><path class="cls-2" d="M488.75,497.63c-6.87,7.37-13.7,14.19-19.98,21.98-.29.36-.72.63-1,1-4.19-.27-7.2,2.97-10.99,4.99-.2.59.47,2.27-.14,2.8-.48.42-2.9.26-4.42,1.11-5.44,3.06-10.96,7.69-16.41,11.07-.41.25-.68.81-1,1-.97.59-2.7,1.28-4,2-.41.22-.7.85-1,1-.26.13-.73-.13-1,0-.55.27-.86.94-1,1-.28.12-.71-.11-1,0-.51.2-1.57-.21-2,0,2.88-1.56,2.81-2.86,3-3,.27-.19,1.29-.57,2-1,.81-.49,2.65-.08,3-2,8.31-2.99,15.79-9.6,23.97-13.98,1.17-3.37,3.29-4.7,5.99-6.99,7.12-6.04,14.41-13.19,21.44-19.02,1.48-1.23,2.27-2.33,4.53-1.96Z"/><path class="cls-13" d="M9.29,230.93c-.19.88.19,2.11,0,3-2.28-.36-2.81.41-1,2-.19.88.17,2.09,0,3-2.26-.37-2.84.45-1,2-.11.62.11,1.38,0,2-4.06-.5-1.06,2.13-1,3,.12,1.6.06,3.38,0,4.99-2.29-.35-2.8.39-1,2-.14,1.64.06,3.34,0,4.99-4.06-.5-1.07,2.13-1,3,.12,1.63.02,3.36,0,4.99h-2c-1.4-13.28,1.87-23.12,4.99-35.96l2,1Z"/><path class="cls-13" d="M4.3,311.84c0,2.3.17,4.7,0,6.99-.07.93-3.26,4.6,1,4,.09,1.9.14,4.11,0,5.99-.03.47-2.95,2.4,1,2,.17,2.24-.31,4.88,0,6.99-.99.28-.9,1.15-1,2-3.22.56-1.72-1.63-1.95-3.5-1.26-9.99-1.18-14.93-1.05-24.47h2Z"/><path class="cls-13" d="M3.3,272.89c.43,5.8-.21,12.09,0,17.98-1.83,2.3-.97,6.85-1,9.99-3.03.56-1.92-1.53-2-3.45-.27-6.72-.52-15.48,0-22.07.24-3.07-.49-2.57,3-2.45Z"/><path class="cls-5" d="M150.13,40.15l-27.97,18.98c.12-.12-.23-1.2.26-1.71,2.79-2.88,9.56-4.84,10.73-9.28.25-.15.85.17,1,0,1.99.08,3.06-.96,3-3,.56-.16,1.43.15,2,0,2.03-.55,4.6-.37,4-3,.3-.1.7.1,1,0,2.01-.65,3.99-1.33,5.99-2Z"/><path class="cls-13" d="M88.2,89.09c-4.04,4.13-8.53,10.33-12.44,14.03-1.44,1.37-2.37,2.24-4.54,1.95.63-2.89,10.14-13.27,12.94-15.53,1.16-.93,3.03-2.75,4.04-.46Z"/><path class="cls-13" d="M133.15,48.14c-1.17,4.45-7.94,6.4-10.73,9.28-.49.5-.14,1.59-.26,1.71-.34.33-.66.67-1,1-3.75.22-5.34,3.08-8.99,4.99,4.15-7.44,13.85-12.66,20.98-16.98Z"/><path class="cls-13" d="M104.19,72.11c-2.11,5.14-7.25,8.21-10.99,11.99-.29-5.54,6.37-10.73,10.99-11.99Z"/><path class="cls-5" d="M121.17,60.13c-4.69,4.56-5.68,6.62-11.99,9.99l2-4.99c.26-.14.74.14,1,0,3.65-1.91,5.24-4.77,8.99-4.99Z"/><path class="cls-5" d="M4.3,311.84h-2c.05-3.65-.03-7.33,0-10.99.03-3.14-.83-7.69,1-9.99.25,7.01,1.01,13.98,1,20.98Z"/><path class="cls-13" d="M343.92,576.55c.67,3.32-6.81,3.14-9.56,3.05-1.27-.04-2.29-1.04-2.43-1.05,3.31-1.84,8.15-1.71,11.99-2Z"/><path class="cls-13" d="M249.02,576.55c-.18,0-.84.97-1.61.98-2.24.04-10.26-1.39-9.38-3.98,3.82.08,7.82.64,10.99,3Z"/><path class="cls-13" d="M13.29,211.96h1c-.35,1.3-.65,2.67-1,4-2.26-.37-2.84.45-1,2-.15.58.15,1.41,0,2h-2c-1.08-3.35-1.24-7.38,3-7.99Z"/><path class="cls-13" d="M111.18,65.12l-2,4.99c-1.69.9-1.08,1.03-4,2-.25-4.32,3.06-5.47,5.99-6.99Z"/><path class="cls-13" d="M260.01,578.54c-.13,0-1.01,1.05-2.41,1.05-1.97,0-7.79-.76-6.58-3.05,3.05-.04,6.99-.72,8.99,2Z"/><path class="cls-5" d="M8.29,346.8c-3.33.82-1.05-2.37-3-4,.11-.98-.11-2.02,0-3,.09-.84,0-1.72,1-2,.4,2.67,1.6,5.49,2,8.99Z"/><path class="cls-13" d="M10.29,221.95h1c-.21.85.21,2.15,0,3-3.57-.83-.42,3.82-4,3,.46-2.18-.44-6.59,3-5.99Z"/><path class="cls-5" d="M11.29,224.94c-.51,2.05-1.68,4.53-2,5.99l-2-1c.14-.58-.13-1.39,0-2,3.57.83.42-3.82,4-3Z"/><path class="cls-13" d="M270,578.54c1.42,2.96-7.08,3.29-5.99,0,1.98.03,4.02-.13,5.99,0Z"/><path class="cls-13" d="M326.93,578.54c.69,4.35-4.25,1.12-5.99,1,1.06-1.63,4.14-1.04,5.99-1Z"/><path class="cls-5" d="M16.28,206.96c-.52,2.12-1.66,3.76-2,4.99h-1c-.11-.62.16-1.49,0-2,1.2-1.44.6-3.65,3-3Z"/><path class="cls-13" d="M143.14,42.15c.61,2.63-1.97,2.44-4,3-.61-2.74,2.02-2.33,4-3Z"/><path class="cls-5" d="M4.3,265.9c-.02,1.31.49,3.31-1,4-.03-.43-.82-2.25-1-4h2Z"/><path class="cls-13" d="M137.15,45.14c.07,2.03-1,3.08-3,3,.81-.92-.99-1.85,3-3Z"/><path class="cls-5" d="M12.29,219.95c-.24.94-.92,1.66-1,2h-1c-.11-.62.16-1.49,0-2h2Z"/><path class="cls-9" d="M376.88,82.1c.31.08.68-.07,1,0,.82,2.15,3.81,2.21,5.99,3,.29.11.71-.11,1,0v1c.79,44.02-9.51,82.27-51.05,103.28-46.59,23.56-166.77,23.42-214.62,3.07-14.43-6.14-36.07-18.84-35.99-36.43.14-.04.97-1.96,2-2,22.08-1.05,43.58-6.29,65.44-8.98,18.7-2.31,37.69-4,56.43-6,46.79-5,85.42-7.36,126.86-31.96.43-.25,2.14-.05,3.53-.92,5.69-3.6,16.99-14.38,20.35-19.65,1.43-2.23.88-6.51,4.14-7.93,2.96-1.29,8.56,2.47,11.72,3.3,1.18.31,2.43.03,3.22.23ZM290.77,131.34c-25.41,2.4-53.01,13.46-78.95,15.95-10.33,4.46-6.09,12.21,3.91,12.65,17.22.76,59.09-8.74,76.24-14.41,4.02-1.33,14.57-4.49,14.04-9.93-.6-6.18-11.04-4.65-15.24-4.26Z"/><path class="cls-14" d="M330.93,229.94c-8.97-5.68-22.32-.2-32.59.87-70.19,7.32-141.7,5.64-211.5,18.15-2.07-3.71-7.47-1.24-11.99-4.17-2.28-1.48-2.68-3.89-4.07-4.92-2.52-1.85-9.44-3.6-13.47-6.5-3.41-2.45-5.7-6.42-9.71-8.27-3.22-1.49-8.13-3.51-9.29.4-2.85,9.64-2.29,23.41-3.49,33.47-.84,1.2-11.26,3.12-13.54,3.94.2-4.74.36-10.34,1-14.98,1.38-9.95,4.51-22.09,6.99-31.96l9.99-9.49c7.01-8.67,8.62-19.3,12.53-29.42,1.23-3.18,4.56-12.53,6.41-14.57,1.55-1.71,15.37-5.34,18.76-6.22,2.11-.54,4.75.17,6.25-.24-.08,17.58,21.57,30.29,35.99,36.43,47.85,20.35,168.03,20.49,214.62-3.07,41.54-21.01,51.84-59.25,51.05-103.28l1-1c2.27.93,2.79,9.48,2.99,12.5,3.16,49.4-21.02,101.14-57.93,132.34Z"/><path class="cls-12" d="M9.29,285.87c11.95-3.48,25.17-7.56,37.57-8.86,4.46-.47,5.86-.54,9.38,1.87,4.15,2.85,7.64,6.62,12.06,9.41,43.94,27.72,103.57,36.17,154.75,36.53-.16,1.86.14,10.08,1.09,10.89.53.45,5.28-.08,7.18.32,4.32.93,13.06,5.16,17.33,5.45,3.03.21,7.12-1.23,10.91-.72,3.12.42,6.88,3.11,10.09,3.7s9.11-.44,12.38-.17c3.77.31,3.11,1.31,2.94,4.51-32.77,15.54-65.15,21.6-101.89,22.97-.66.02-1.33-.02-2,0-1.66.05-3.33-.02-4.99,0-53.65.61-149.47-17.01-166.81-77.91-1.23-4.31-.33-4.38,0-7.99Z"/><path class="cls-13" d="M319.94,248.91c-2.91,17.5.41,35.25.88,52.83-15.63,6.13-30.46,11.33-47.34,13.09-59.63,6.22-126.9-.61-181.96-24.79-9.72-4.27-21.27-13.37-31.83-13.17-1.92.04-4.03-.97-3.46,2.01-3.51-2.41-4.92-2.34-9.38-1.87-12.4,1.3-25.62,5.38-37.57,8.86.03-.29-1.17-1.48-.89-2.39.6-1.88,20.2-6.25,23.85-7.12,21.68-5.16,44.79-8.64,66.94-11.47-.61,2.97,2.55,3.13,2,0,.97-.12,2.02.12,3,0-.76,4.8,2.36,6,6.49,6.08,25.02.54,51.85-4.26,76.92-6.07,37.32-2.7,78.99-3.29,115.73-9.13,8.6-1.37,10.99-5.61,16.61-6.86Z"/><path class="cls-6" d="M529.71,145.03c5.22,1.41,7.8,8.49,12.99,8.99,1.89,3.11,3.98,6,5.99,8.99,3.51,7.62,7.72,15.64,10.99,22.97l10.67,43.77c1.47,13.86,6.03,30.85,4.34,44.66-1.3,10.66-20.48,42.53-28,51.42-5.17,6.11-11.98,11.98-17.33,18.09-13.26,15.16-25.66,31.32-40.61,44.83.1-2.53-.87-6.85-.99-9.49-.06-1.39,1.05-3.06.89-3.93-.33-1.82-3.76-1.24-4.92-2.07-.99-.72-.71-2.52-1.29-3.16-.83-.91-2.64-1.12-3.2-2.28-1.02-2.1-.07-4.47-.53-6.48-.41-1.81-1.89-2.87-2.04-5.03-.1-1.48,2.76-16.07,3.34-18.74.89-4.16,4.45-9.41,2.75-13.73,4.33-6.94,9.28-15.68,12.99-22.97,1.09.83.41,2.62,2.04,1.35,6.55-5.08,10.84-14.27,14.63-22.14,18.75-38.9,26.7-92.81,17.29-135.04Z"/><path class="cls-1" d="M351.91,73.11c-5.31,0-8.86,5.33-11.99,8.99-5.51,1.98-15.2,9.91-22.3,13.16-35.59,16.26-74.48,17.81-112.55,22.8l-8.03-5.46c-10.97-11.95-23.08-34.39-11.4-49.42,4.17-5.36,6.26-1.38,4.47-10.6-.35-1.79.14-2.51-2.03-3.44,27.96-3.88,52.05-5.48,80.28-1.87,19.58,2.5,69.16,13.75,83.53,25.84Z"/><path class="cls-12" d="M493.75,127.05c2.14,1.15,11.95,5.13,12.48,6,15.83,60.35,1.37,121.37-27.94,174.82-4.27,7.78-9.8,14.86-13.52,22.95l-16.55-26.88c-1.22-1.19-5.85-7.12-7.39-6.07-18.61,28.27-39.19,55.47-61.45,80.88l-26.17-34.44c10.75-12.61,22.28-24.52,32.66-37.46,2.2.29,4.23-.95,6.39-.9,9.72.2,22.61-1.39,32.58-3.58,6.72-1.47,12.98-8.71,19.03-11.93,1.59-.84,3.74-.27,5.5-1.49.99-.69,4.22-6.17,5.23-7.75,21.45-33.65,39.77-76.27,41.19-116.64.44-12.56-.92-25.03-2.04-37.5Z"/><path class="cls-14" d="M370.89,377.77c1.25,1.89,2.61,3.73,3.79,5.67-6.81,12.66-20.35,22.14-29.27,33.27-1.18,1.47-2.67,3.35-3.49,5.01-7.24,4.17-12.78,11.76-18.96,17.49-6.73,6.23-14.21,11.82-21.02,17.94-.82.74-3.27,2.74-.97,3.52-4.15,3.13-8.96,7.69-13.98,10.99-14.76,9.69-32.8,20.62-48.27,29.14-28.09,15.46-58.16,27.88-89.57,34.79-.75-.49-14.76-6.54-11.98-8.98,7.02-1.22,14.66-5.05,21.18-8.28,34.73-17.2,55.79-37.86,84.69-61.64,25.81-21.24,52.79-41.29,76.91-64.93,12.47-.27,23.83-8.15,35.26-12.19,1.81-.64,10.37-3.55,11.45-3.64,1.94-.17,2.85.78,4.23,1.84Z"/><path class="cls-6" d="M54.24,406.74c19.86,3.55,39.9,6.76,59.93,7.99-.72,2.59,3.13,2.72,4.6,2.88,32.84,3.41,66.88,2.74,99.77.11,5.77-.46,13.06-2.96,18.85-2.64,5.08.28,12.61,2.57,18.12,2.65,4.67.07,11.21-2.06,16.48-1-6.11,7.05-10.75,11.57-16.98,17.98-10.3,1.96-19.93,6.47-29.97,9.49-40.15,12.08-87.34,19.97-128.85,10.49-14.02-3.2-27.54-10.13-40.58-15.85-1.28-.56-3.43-2.17-4.37-.13-8.35-13.07-13.33-21.74-19.98-35.96,7.61,1.53,15.33,2.63,22.97,4Z"/><path class="cls-11" d="M176.1,371.78c-1.27,2.95,5.99,3.27,4.99,0,.66-.02,1.33.02,2,0,.55,10.08,4.18,7.37,11.77,9.7,2.2.68,12.06,3.72,12.92,4.55,1.09,1.04,1.58,5.19,3.23,7,2.02,2.22,6.91,1.76,7.04,5.72-46.12,2.67-90.94,2.35-137.34-2-18.53-1.74-37.07-4.64-55.45-7.47-10.05-25.53-15.68-55.35-17.02-82.87-.18-3.69-.61-9.22,1.05-12.53,17.34,60.9,113.16,78.52,166.81,77.91Z"/><path class="cls-14" d="M482.76,323.83c1.7,4.33-1.86,9.57-2.75,13.73-.58,2.68-3.44,17.27-3.34,18.74.15,2.16,1.63,3.23,2.04,5.03.45,2.01-.49,4.38.53,6.48.57,1.17,2.37,1.37,3.2,2.28.58.64.3,2.45,1.29,3.16,1.16.84,4.59.25,4.92,2.07.16.87-.95,2.54-.89,3.93.12,2.64,1.09,6.96.99,9.49-.05,1.22-.85,2.69-1,4l-91.91,95.43c-2.92,1.82-3.94-2.24-6.52-2.57-2.1-.27-4.08,1.21-5.91,1.03-1.41-.14-2.53-1.72-4.12-1.91-11.61-1.44-19.75-.89-30.2,2.61-1.4.47-8.35,3.09-9.17,2.3l1.99-4.99c40.52-39.11,80.33-82.89,112.87-128.85,2.43-.7,5-.61,7.03-2.46,4.76-4.33,16.98-23.15,20.94-29.5Z"/><path class="cls-7" d="M311.95,468.67c.09-.04.64,1.1,1.88.54,4.15-1.86,8.17-8.62,13.9-5.32.35.2,4.87,6.08,4.99,6.48,1.21,4.02-.75,8.31-.78,12.28l4.99-1.99c-32.13,29.86-87.93,77.39-133.85,78.91-8.76.29-35.34-12.32-43.95-16.98-4.16-2.26-6.31-4.6-9.99-6.99,31.41-6.91,61.48-19.32,89.57-34.79,15.47-8.52,33.52-19.45,48.27-29.14.21,2.12.19,3.64-.94,5.54-2.56,4.31-20.58,17.96-20.95,20.07-1.2,6.75,11.43,1.58,14.2.16,14.76-7.55,20.44-23.67,32.67-28.76Z"/><path class="cls-3" d="M487.75,392.75c-.15,1.3.1,2.68,0,4-3.69,3.81-7.01,7.42-10.99,10.99-1.29,1.15-3.1,1.52-3,4-9.03,11.04-21.56,21.39-31.48,31.95-23.93,25.46-53.77,57.95-72.4,86.92-2.36-2.65,2.42-4.51,2.81-5.64.47-1.36,0-3.16.42-4.61.22-.77,3.8-8.17.27-6.72-1.12.46-7.61,9.2-8.94,11.04-13.26,18.36-20.82,34.29-40.52,46.88l.83-17.24c-2.04-10.57-18.99-.13-24.83,1.73-17.49,5.6-35.23,10.61-52.92,15.5-2.37-.48-5.03-.32-7.99-1,.95-5.26-4.92-3.76-6.74-5.24-.85-.69-1.79-4.64-3.25-5.74,42.52-12.83,81.38-44.52,112.87-74.92l-1.99,4.99c.82.79,7.77-1.83,9.17-2.3,10.45-3.5,18.58-4.05,30.2-2.61,1.58.2,2.71,1.78,4.12,1.91,1.83.18,3.81-1.3,5.91-1.03,2.59.33,3.6,4.39,6.52,2.57l91.91-95.43Z"/><path class="cls-15" d="M255.02,434.71c-13.59,13.97-26.29,27.43-41.48,39.93-12,9.88-24.91,19.31-38.43,26.99,1.7-2.26,3.68-6.22,6.46-8.03.84-.54,9.83-3.12,3.91-4.89-.78-.23-12.42,2.59-15.02,2.87-1.8.19-3.62-.93-4.73-.72-1.19.22-1.99,2.28-3.3,2.63-1.43.38-4.48-1.08-6.79-.95-13.72.78-14.13,4.14-24.1,10.96-1.56,1.07-3.81.75-5.31,1.69-2.3,1.44-7.12,7.23-6.06,10.42-14.57-11.3-26.61-22.21-38.96-35.96,3.46.11,2.78.64,3-2.45.22-3.04-.42-5.08.77-8.26,1.84-4.91,9.23-8.65,11.21-14.26,41.51,9.48,88.7,1.59,128.85-10.49,10.04-3.02,19.67-7.53,29.97-9.49Z"/><path class="cls-13" d="M484.76,122.06c4.52,36.02,2.47,74.83-11.81,108.56-7.62,17.99-34.89,56.15-54.12,30.29,24.33-39.7,37.2-85.96,33.96-132.85,5.37-2.78,8.49-10.2,11.99-14.98,6.92,3.01,13.15,5.5,19.98,8.99Z"/><path class="cls-4" d="M218.06,398.75c-.13-3.96-5.02-3.5-7.04-5.72-1.65-1.8-2.14-5.96-3.23-7-.86-.83-10.72-3.87-12.92-4.55-7.59-2.34-11.22.38-11.77-9.7,36.73-1.38,69.12-7.43,101.89-22.97.53-.25,1.96,0,2.97-.48,16.07-7.87,30.43-17.68,42.98-30.48l10.83,25.73c.46,1.17.02,2.09-.36,3.18-1.14,3.25-16.84,18.12-20.45,21.55-4.87,4.61-23.63,22.05-28.56,23.38-20.68,5.58-52.52,5.81-74.34,7.07Z"/><path class="cls-5" d="M322.94,248.91c1.37,23.92.74,45.49,7.99,68.92-12.54,12.8-26.91,22.61-42.98,30.48-1.01.49-2.44.23-2.97.48.17-3.2.83-4.19-2.94-4.51-3.28-.27-9.18.75-12.38.17s-6.97-3.27-10.09-3.7c-3.79-.51-7.88.93-10.91.72-4.27-.29-13.01-4.53-17.33-5.45-1.89-.41-6.65.12-7.18-.32-.95-.81-1.26-9.03-1.09-10.89-51.19-.36-110.81-8.81-154.75-36.53-4.43-2.79-7.92-6.56-12.06-9.41-.56-2.98,1.54-1.97,3.46-2.01,10.55-.2,22.1,8.9,31.83,13.17,55.07,24.18,122.33,31.01,181.96,24.79,16.88-1.76,31.71-6.96,47.34-13.09-.47-17.58-3.79-35.32-.88-52.83.85-.19,2.05.13,3,0Z"/><path class="cls-6" d="M21.28,262.9c2.28-.82,12.7-2.74,13.54-3.94,1.2-10.06.64-23.83,3.49-33.47,1.15-3.91,6.06-1.89,9.29-.4,4.01,1.85,6.3,5.82,9.71,8.27,4.03,2.9,10.96,4.65,13.47,6.5,1.39,1.02,1.79,3.44,4.07,4.92,4.51,2.93,9.92.46,11.99,4.17,69.8-12.52,141.31-10.83,211.5-18.15,10.27-1.07,23.62-6.55,32.59-.87-.12.1.1,1.34-.33,1.63-14.43,9.86-68.88,13.8-88.08,15.34-66.03,5.28-129.91,7.56-195.45,19.3-5.14.92-35,8.29-36.77,7.68-1.1-3.61,2.08-7.42,4.99-8.99.28-.15,4.7-1.53,5.99-2Z"/><path class="cls-8" d="M188.09,49.14c2.17.93,1.68,1.65,2.03,3.44,1.79,9.23-.3,5.24-4.47,10.6-11.69,15.03.43,37.47,11.4,49.42l8.03,5.46c-18.53,2.43-37.51,4.08-55.94,6.99-2.43-2.25-6.16-2.3-8.92-3.56-1.46-.66-2.09-2.7-3.77-3.22-6.09-1.92-3.83,2.32-4.3,2.79-3.53,3.57-9.18-12.19-9.67-14.61-.25-1.23-1.18-6.76-1.31-7.9-1.01-8.89,4.36-20.81,9.95-27.69,2.19-2.7,12.88-9.16,7.02-11.73,12.42-5.51,35.99-8.05,49.94-9.99Z"/><path class="cls-8" d="M440.81,104.08c.78,1.94.61,2.73,1,4-1.66,1.04-1,3.79-1.02,5.48-.32,26.05.16,43.76-5.98,69.44-4.62.3-3.73,6.89-6.58,8.9-1.34.94-3.66,1-5.11,1.88-5.36,3.24-16.72,11.73-22.78,11.29-2.33-.17-3.53-2.27-5.5-1.73-2.34.64-4.01,4.7-6.63,6.47-2.06,1.39-11.39,5.06-13.13,3.96-.47-.29-.46-2.22-1.8-2.66-1.48-.48-3.36.16-4.83-.19s-2.55-1.67-3.26-1.8c-.77-.13-6.54,4.82-7.67,5.94-3.8,3.77-7.46,9.76-11.2,13.77-2.79,3-12.46,10.04-13.86,13.11-.46,1.02-1.52,13.74-1.52,15.96,0,3.38.79,6.58,1,9.99h-2c-.02-.25-.99-1.59-1.07-3.38-.25-5.15-.68-18.21.65-22.56.57-1.88,16.03-15.89,18.92-18.99,3.81-4.09,7.92-8.99,10.47-13l1-1c.31-.45.79-.71,1-1,2.5.52,2.17-.82,2-3,1.01-1.45,1.98-2.63,3-4,2.51.52,2.17-.8,2-3,.74-.96,1.59-3.16,3-4.99.08-.11,1.59-.05,2.46-.99,4.74-5.09,7.31-14.92,12.47-20.53,5.95-6.47,18.29-13.06,25.67-19.78,7.91-7.2,21.95-22.02,23.87-32.57,1.17-6.45-2.55-15.72,5.45-15.03Z"/><path class="cls-13" d="M336.92,11.18l19.95,19.51c3.99,4.87,16.79,25.4,16.03,30.88-.5,3.64-5.56,4.33-7.02,7.55-46.57-19.4-77.16-27.13-127.86-30.97-.02-2.71,1.18-2.8,3.45-3.05,21.62-2.39,67.87,7.77,84.36-2.54,7.12-4.45,2.5-7.69-3.02-10.78-8.34-4.66-26.7-9.12-36.3-9.65-24.24-1.36-43.91,11.93-65.68,20.06l-2.79,4.95c4.82.26,9.74-.32,14.56-.04,1.3.08,2.25,1.03,2.42,1.04-4.16-1.7-10.9,2-13.48,2h-16.48c-.28-1.82,1.24-3,2.5-3.99,8.13-6.35,42.16-26.11,51.19-27.72,22.06-3.93,56.03-1.32,78.16,2.74Z"/><path class="cls-10" d="M138.15,59.13c5.86,2.57-4.83,9.03-7.02,11.73-5.59,6.88-10.96,18.8-9.95,27.69.13,1.14,1.06,6.67,1.31,7.9.48,2.42,6.13,18.19,9.67,14.61.47-.47-1.8-4.71,4.3-2.79,1.68.53,2.31,2.56,3.77,3.22,2.77,1.26,6.49,1.32,8.92,3.56-18.91,2.99-40.06,7.33-58.75,11.67-10.61,2.47-32.43,7-41.14,12.3,2.16-5.28,5.57-10.03,8.77-14.7,15.13-22.11,33.85-43.96,54.68-61.19,4.89-4.04,15.1-13.25,21.45-13.01.1,0,1.11,1.68,1.86.9.44-.46-.02-1.73.14-1.9.22-.23,1.51.22,2,0Z"/><path class="cls-5" d="M493.75,127.05c1.12,12.46,2.48,24.94,2.04,37.5-1.42,40.37-19.73,82.98-41.19,116.64-1.01,1.59-4.24,7.06-5.23,7.75-1.75,1.23-3.91.65-5.5,1.49-6.05,3.23-12.31,10.46-19.03,11.93-9.98,2.18-22.86,3.78-32.58,3.58-2.16-.05-4.18,1.19-6.39.9,11.34-14.12,23.51-30.52,32.96-45.95,19.23,25.87,46.5-12.3,54.12-30.29,14.28-33.73,16.32-72.54,11.81-108.56,3.11,1.59,5.95,3.37,8.99,4.99Z"/><path class="cls-14" d="M447.8,315.84c2.63,4.44,12.83,18.13,11.24,22.67-19.92,29.15-41.06,57.54-64.5,83.91-.42.47-1.56.17-1.68.3-6.43.59-7.05-11.83-12.29-11.79-4.5.03-12.12,11.29-15.68,14.79-9.21,9.06-26.52,25.96-37,32.42-1.98,1.22-3.58,1.82-5.95,1.54,49.5-46.2,84.09-84.57,122.34-140.86.98-1.44,1.06-3.13,3.52-2.98Z"/><path class="cls-10" d="M340.92,426.71c4.85-3.25,9.52-7.71,13.53-11.94,8.53-8.99,17.78-18.74,25.97-27.97,12.92-14.56,25.98-31.55,37.81-47.09,6.06-7.96,16.65-26.29,23.05-31.89,3.52-3.08,4.87,5.24,6.52,8.02-2.46-.15-2.54,1.53-3.52,2.98-38.25,56.29-72.84,94.66-122.34,140.86-1.09,1.02-2.12,2.2-3,3-.35.31-.65.7-1,1-1.28,1.09-5.16,1.9-5.99,4.99-12.23,5.1-17.9,21.21-32.67,28.76-2.77,1.42-15.39,6.59-14.2-.16.37-2.11,18.39-15.76,20.95-20.07,1.13-1.9,1.16-3.42.94-5.54,5.02-3.3,9.83-7.86,13.98-10.99,6.23-4.7,37.8-29.27,39.96-33.96Z"/><path class="cls-15" d="M339.92,82.1c.66-.24,2.31.28,3.43-.02,1.93-.52,2.62-2.14,4.55-1.97l-.99,3.99c-34.63,36.47-123.07,39.41-171.17,46.09-44.06,6.12-88.93,13.32-131.01,27.82-1.35-2.93,2.27-7.62,4.51-8.98,8.7-5.3,30.53-9.84,41.14-12.3,18.69-4.34,39.85-8.68,58.75-11.67s37.41-4.56,55.94-6.99c38.07-4.99,76.96-6.54,112.55-22.8,7.1-3.25,16.79-11.18,22.3-13.16Z"/><path class="cls-1" d="M370.89,192.98c19.71-31.76,26.4-67.74,22.98-104.88,1.38-1.38,33.19,9.38,37.47,10.97,1.63.61,8.91,2.91,9.27,3.25.53.51.06,1.42.2,1.76-8-.69-4.28,8.58-5.45,15.03-1.91,10.55-15.95,25.37-23.87,32.57-7.38,6.71-19.72,13.3-25.67,19.78-5.16,5.61-7.73,15.44-12.47,20.53-.88.94-2.38.89-2.46.99Z"/><path class="cls-15" d="M441.81,108.07c20.81,68.56-21.75,151.17-65.93,201.77-2.33-4.54-11.4,2.02-14.98,3.5-1.69.7-3.81.43-5.71,1.28-5.4,2.42-12.59,5.97-13.27,12.2-.68-2.04-1.36-3.88-2-5.99l-.99-15.98c2.02-.63,4.84,1.33,6.37,1.07.99-.17.53-2.01.62-2.07.33-.22,5.6-.09,7.81-.68,12.84-3.45,35.44-28.44,43.54-39.36,17.82-24.02,30.62-51.84,37.54-80.82,6.14-25.68,5.65-43.39,5.98-69.44.02-1.69-.64-4.44,1.02-5.48Z"/><path class="cls-1" d="M413.84,86.1c-3.81-1.26-18.43-4.36-19.9-6.57-1.4-2.09-2.86-12.24-4.05-15.92-5.27-16.31-12.77-31.22-22.97-44.94,7.76,1.15,15.35,3.64,22.72,6.23,13.94,4.89,18.63,5.78,26.83,18.12,6.45,9.7,8.9,17.31,13.35,27.1l-4.95,7.54-11.03,8.44Z"/><path class="cls-1" d="M238.04,38.15c-.99-.07-2.01.07-3,0-.17-.01-1.11-.96-2.42-1.04-4.82-.29-9.74.29-14.56.04l2.79-4.95c21.76-8.13,41.44-21.42,65.68-20.06,9.6.54,27.96,4.99,36.3,9.65,5.52,3.09,10.13,6.33,3.02,10.78-16.49,10.31-62.74.14-84.36,2.54-2.26.25-3.46.34-3.45,3.05Z"/><path class="cls-7" d="M498.74,102.08c3.78-.1,8.05,4.55,9.84,7.64,3.33,5.74,5.88,22.02,10.13,25.33,7.31,26.88,7.63,54.73,3.85,82.26-3.96,28.92-13.66,57.63-26.83,83.55-3.71,7.3-8.65,16.03-12.99,22.97-3.96,6.35-16.18,25.17-20.94,29.5-2.03,1.85-4.59,1.76-7.03,2.46,51.44-72.64,87.38-168.3,43.95-253.71Z"/><path class="cls-1" d="M322.94,248.91c-.94.13-2.15-.19-3,0-5.62,1.26-8.01,5.49-16.61,6.86-36.74,5.84-78.41,6.43-115.73,9.13-25.07,1.81-51.9,6.61-76.92,6.07-4.13-.09-7.25-1.28-6.49-6.08,42.03-5.15,84.31-7.78,126.37-10.97,30.2-2.29,60.4-3.53,89.9-11.03,3.32.24,2.35,3.61,2.48,6.02Z"/><path class="cls-1" d="M454.79,59.13c-1.82,1.73.14,2.36.99,3.49,6.6,8.9,11.59,18.43,17.99,27.47.29,6.04,6.27,13.08,3,18.98-8.82-4.11-19.67-7.42-28.78-11.18-1.28-6.32-3.54-12.58-5.89-18.55-.92-2.34-1.95-5.42-3.06-7.96-4.69-10.71-11.14-20.78-17.19-30.75-.31-1.37.07-1.88,1.46-1.46,4.62,1.38,16.83,8.66,21.4,11.56,3.63,2.31,6.96,6.17,10.08,8.4Z"/><path class="cls-3" d="M364.89,425.72c3.07-.17,2.64,3.68,4.45,6.04s5.64,6.12,8.53,6.95c-14.15,15.21-25.48,27.58-40.95,41.95l-4.99,1.99c.04-3.97,1.99-8.26.78-12.28-.12-.39-4.64-6.27-4.99-6.48-5.72-3.3-9.74,3.45-13.9,5.32-1.24.56-1.79-.58-1.88-.54.83-3.1,4.71-3.91,5.99-4.99l1-1c.88-.79,1.91-1.98,3-3,2.37.28,3.98-.32,5.95-1.54,10.48-6.46,27.79-23.36,37-32.42Z"/><path class="cls-7" d="M353.9,355.79c-11.41,11.84-22.22,24.45-33.96,35.96-24.12,23.63-51.1,43.69-76.91,64.93,13.47-14.92,28.84-28.22,41.47-43.94,3.97-4.94,7.87-12.69,11.43-16.54,4.19-4.53,13.7-10.16,19.04-14.92,11.04-9.85,21.01-21.91,31.93-32.01,2.25-1.19,5.43,4.77,7.02,6.53Z"/><path class="cls-7" d="M151.13,405.74c35.91.47,71.67-.34,107.37-4.01,9.76-1,19.88-3.71,29.47-3.49-2.37,2.54-4.31,5.89-6.56,8.46-.84.96-2.31.9-2.43,1.03-9.16,1.26-18.39,2.84-27.59,3.87-27.98,3.14-57.08,3.95-85.28,4.12-.76-3.56-4.18-3.86-2-7.98-3.16-.09-6.36.1-9.53,0-1.92-.06-4.01,1.02-3.45-2Z"/><path class="cls-3" d="M120.17,515.61c-1.06-3.2,3.76-8.98,6.06-10.42,1.49-.94,3.75-.62,5.31-1.69,9.97-6.82,10.37-10.18,24.1-10.96,2.32-.13,5.37,1.33,6.79.95,1.32-.35,2.11-2.41,3.3-2.63,1.11-.21,2.93.91,4.73.72,2.6-.28,14.24-3.1,15.02-2.87,5.91,1.77-3.08,4.35-3.91,4.89-2.78,1.8-4.75,5.77-6.46,8.03-.92,1.21-.79.74-2,1-3.14.67-4.72-.64-5.99,4-1.33.72-2.71,1.31-4,2l-2,1c-3.4,1.77-6.5,3.35-9.99,4.99l-2,1c-6.95,3.2-16.43,10.76-23.92,5.44-1.74-1.23-2.87-3.74-5.05-5.44Z"/><path class="cls-7" d="M333.93,107.07c-41.44,24.61-80.06,26.96-126.86,31.96,0-3.14-2.07-3.11-4.49-3.08-12.57.12-28.02,3.97-40.97,5.07-1.88.16-5.18.68-6.48-.99,4.65-.66,9.34-1.35,13.98-2l.5.98.5-.98c53.84-7.52,117.71-10.07,165.81-36.96l-2,5.99Z"/><path class="cls-13" d="M236.04,13.19l-29.88,18.56c-12.67,14.19-34.09,13.45-52.23,16.69-2.34.42-9.77,3.9-10.78,1.2-.8-2.13,37.38-18.89,40.68-20.24,16.8-6.86,34.28-13.21,52.21-16.2Z"/><path class="cls-7" d="M49.25,163.01c-4.35,1.07-3.15,4.64-4.52,7.97-6.61,16.01-11.19,28-15.46,44.97-2.48,9.87-5.61,22.01-6.99,31.96-5.95,1.51-5.25-4.21-6-5-1.78-1.85-2.02,3.17-3.98,2,3.54-22.44,11.89-52.59,22.8-72.6,5.32-9.76,5.14-6.39,14.16-9.31Z"/><path class="cls-5" d="M336.92,11.18c18.45,3.38,20.93,2.78,31.38,19.06,8.82,13.73,15.46,30.62,17.56,46.86-1.77,1.87-17.43-6.93-19.97-7.99,1.46-3.21,6.52-3.9,7.02-7.55.75-5.48-12.04-26.01-16.03-30.88l-19.95-19.51Z"/><path class="cls-14" d="M96.19,454.68c-1.98,5.62-9.36,9.35-11.21,14.26-1.19,3.19-.55,5.22-.77,8.26-.22,3.08.46,2.56-3,2.45-11.64-12.96-20.61-26.31-29.97-40.95.93-2.04,3.09-.43,4.37.13,13.04,5.72,26.57,12.65,40.58,15.85Z"/><path class="cls-15" d="M137.15,405.74c-4.21,2.93-10.67,1.96-8.99,8.99-4.63-.2-9.37.28-13.98,0-20.03-1.23-40.07-4.44-59.93-7.99l1-6.99c26.41,3.46,55.26,5.31,81.91,5.99Z"/><path class="cls-14" d="M278.99,407.74c-2.34,2.72-4.47,6.07-6.99,8.99-5.27-1.06-11.82,1.06-16.48,1-5.51-.08-13.04-2.38-18.12-2.65-5.79-.32-13.08,2.18-18.85,2.64-32.89,2.63-66.93,3.3-99.77-.11-1.47-.15-5.32-.29-4.6-2.88,4.62.28,9.36-.2,13.98,0,12.74.54,25.17,1.08,37.96,1,28.2-.17,57.3-.98,85.28-4.12,9.2-1.03,18.43-2.61,27.59-3.87Z"/><path class="cls-15" d="M370.89,377.77c-1.38-1.06-2.29-2.01-4.23-1.84-1.09.09-9.64,3-11.45,3.64-11.43,4.03-22.79,11.92-35.26,12.19,11.75-11.51,22.55-24.12,33.96-35.96,6.06,6.72,11.96,14.41,16.98,21.98Z"/><path class="cls-15" d="M85.21,153.02v1c-1.02.04-1.86,1.96-2,2-1.5.41-4.14-.3-6.25.24-3.39.87-17.21,4.51-18.76,6.22-1.85,2.04-5.18,11.39-6.41,14.57-3.92,10.12-5.52,20.76-12.53,29.42l-9.99,9.49c4.27-16.97,8.84-28.96,15.46-44.97,1.37-3.33.17-6.9,4.52-7.97,12.01-3.89,23.66-7.06,35.96-9.99Z"/><path class="cls-3" d="M495.74,92.09c22.05,20.79,31.5,36.48,46.95,61.93-5.19-.5-7.76-7.58-12.99-8.99-.17-.77.22-1.88-1-2h-1c-2.01-4.21-5.63-5.38-8.99-7.99-4.26-3.31-6.81-19.59-10.13-25.33-1.79-3.09-6.06-7.74-9.84-7.64-1.36-2.67-3.45-6.39-4.99-8.99l2-1Z"/><path class="cls-14" d="M341.92,326.83c.67-6.23,7.87-9.78,13.27-12.2,1.9-.85,4.02-.58,5.71-1.28,3.58-1.48,12.65-8.04,14.98-3.5l-26.06,29.87c-6.69-.84-6.28-8.01-7.9-12.89Z"/><path class="cls-3" d="M207.07,139.04c-18.74,2-37.73,3.7-56.43,6-21.85,2.7-43.35,7.93-65.44,8.98v-1c23.6-5.63,45.86-9.56,69.92-12.99,1.31,1.67,4.6,1.15,6.48.99,12.95-1.11,28.39-4.95,40.97-5.07,2.42-.02,4.5-.06,4.49,3.08Z"/><path class="cls-7" d="M473.77,90.09c-.05-.99.35-6.48,2.44-5.95,3.28.84,7.43,8.92,11.55,9.94,4.98,8.93,9.87,18.14,12.98,27.96-8.09-3.8-15.9-9.22-23.97-12.98,3.27-5.9-2.71-12.94-3-18.98Z"/><path class="cls-15" d="M392.86,422.72c-4.93,5.53-10.27,10.91-14.98,15.98-2.89-.83-6.79-4.68-8.53-6.95s-1.39-6.21-4.45-6.04c3.56-3.5,11.18-14.76,15.68-14.79,5.23-.04,5.86,12.38,12.29,11.79Z"/><path class="cls-5" d="M94.2,500.63c-2.26.37-3.05-.73-4.53-1.96-37.55-31.14-74.55-96.12-80.37-143.88,1.84,1.03,1.67,2.77,1.98,4.52,8.84,50.35,46.34,106.46,82.93,141.32Z"/><path class="cls-3" d="M140.15,405.74c.41,1.56,3.67,1.49,4,0,2.33.04,4.66-.03,6.99,0-.56,3.02,1.53,1.93,3.45,2,3.17.11,6.37-.08,9.53,0-2.18,4.12,1.24,4.43,2,7.98-12.78.08-25.22-.46-37.96-1-1.68-7.03,4.78-6.06,8.99-8.99,1,.03,2-.02,3,0Z"/><path class="cls-7" d="M429.82,70.12c.08.18,2,.95,2.75,2.72,2.91,6.82,5.19,14.13,7.23,21.25-1.25,1.19-22.5-6.84-25.97-7.99l11.03-8.44,4.95-7.54Z"/><path class="cls-10" d="M487.75,94.09c-4.11-1.02-8.26-9.1-11.55-9.94-2.09-.54-2.49,4.95-2.44,5.95-6.4-9.04-11.39-18.57-17.99-27.47-.84-1.14-2.81-1.77-.99-3.49,18.28,13.06,21.49,14.36,32.96,34.96Z"/><path class="cls-7" d="M330.93,257.9c3.18-.56,1.76,1.6,1.97,3.48,1.04,9.53,2.96,32.29,8.56,39.43,1.2,1.53,2.7,2.36,4.46,3.04-.09.06.37,1.9-.62,2.07-1.52.26-4.35-1.7-6.37-1.07l.99,15.98c-3.58-11.82-6.04-21.71-7.99-33.96,4.75-4.03,0-5.25-.06-5.61-.25-1.85.29-9.58.06-13.37-.21-3.41-1-6.6-1-9.99Z"/><path class="cls-14" d="M55.24,399.74l-1,6.99c-7.64-1.36-15.36-2.47-22.97-4-.74-1.58-5.06-4.52-3.99-7.99,9.25,1.59,18.67,3.78,27.96,4.99Z"/><path class="cls-1" d="M464.78,113.07c-3.49,4.79-6.62,12.2-11.99,14.98-.22-3.12-3.73-20.22-2.99-20.97,4.76-.06,9.01,2.47,13.26,4.24,1.07.44,1.55,1.68,1.71,1.75Z"/><path class="cls-6" d="M341.92,421.72c-.71,1.45-.52,3.95-1,4.99-2.15,4.7-33.73,29.26-39.96,33.96-2.3-.78.15-2.78.97-3.52,6.81-6.12,14.29-11.7,21.02-17.94,6.18-5.73,11.72-13.33,18.96-17.49Z"/><path class="cls-3" d="M12.29,244.92c1.96,1.17,2.2-3.85,3.98-2,.75.78.05,6.51,6,5-.64,4.64-.8,10.25-1,14.98-1.29.46-5.72,1.85-5.99,2-.28-3.23,1.53-9.01-2.99-8.99l-2,3c.36-3.14,1.62-7.27,2-9.99l1.01-1.47-1.01-.53c.09-.64-.1-1.37,0-2Z"/><path class="cls-11" d="M203.07,559.56c1.25.77,2.35,1.34,2,3-12.17-1.47-25.45-6.48-36.62-11.83-3.04-1.46-8.82-3.84-9.33-7.15v-1c8.61,4.66,35.19,17.27,43.95,16.98Z"/><path class="cls-3" d="M376.88,82.1c-.8-.2-2.04.08-3.22-.23-3.16-.82-8.75-4.59-11.72-3.3-3.26,1.41-2.71,5.69-4.14,7.93-3.36,5.27-14.66,16.05-20.35,19.65-1.38.87-3.1.67-3.53.92l2-5.99c.24-.13.48-.89,1-1l.5.98c.61-.16.38-.86.5-.98,4.69-4.87,11.41-8.52,16.01-13.46,8.29-8.9,2.73-13.18,17.47-7.54,1.96.75,4.09,1.28,5.48,3.02Z"/><path class="cls-9" d="M229.05,559.56c1.45,1.11,2.4,5.06,3.25,5.74,1.82,1.48,7.69-.02,6.74,5.24-7.75-1.78-17.55-3.44-23.97-7.99,3.69-.45,7.39-1.13,10.99-2,1.94-.47,1.86-.96,2-1,.31-.09.69.09,1,0Z"/><path class="cls-4" d="M386.87,19.17c-.97,1.84-3.51.91-5.04.55-9.43-2.17-18.66-5.42-27.93-8.05-3.3-.93-10.63-.31-10.99-4.49,14.92,3.23,29.49,7.23,43.95,11.99Z"/><path class="cls-4" d="M529.71,126.05c2.49-.57,2.01,1.35,2.81,2.63,6.98,11.04,11.56,20.91,17.16,32.33h-1c-5.55-12.1-13.67-22.77-18.98-34.96Z"/><path class="cls-7" d="M351.91,73.11c.4.34,2.64-.93,1.91,1.39-1.62,4.13-4.04,6.58-6.91,9.6l.99-3.99c-1.93-.17-2.62,1.45-4.55,1.97-1.12.3-2.78-.21-3.43.02,3.12-3.66,6.67-9,11.99-8.99Z"/><path class="cls-15" d="M15.29,264.9c-2.91,1.57-6.1,5.38-4.99,8.99-.34-.12-.81.17-.91-.56-.47-4.84.36-9.64.91-14.42l2-3c4.53-.02,2.71,5.77,2.99,8.99Z"/><path class="cls-4" d="M425.82,36.15c6.35,2.89,12.59,5.17,18.53,8.99,1.29.83,2.92.84,2.45,2.99-5.74-3.05-12.31-5.31-17.95-8.51-1.61-.91-3.12-.96-3.02-3.47Z"/><path class="cls-10" d="M331.93,267.89c.23,3.79-.31,11.53-.06,13.37.05.36,4.81,1.58.06,5.61-1.07-6.68-1.55-12.27-2-18.98h2Z"/><path class="cls-4" d="M500.74,90.09c7.47,6.05,12.55,12.99,17.98,19.98-2.26.09-2.67-1.39-3.81-2.68-3.87-4.35-8.63-8.34-12.21-12.77-1.2-1.48-2.35-2.25-1.96-4.53Z"/><path class="cls-4" d="M395.86,22.17c3.77,1.43,7.36,2.83,11.05,4.48,1.48.66,3.53-.2,2.93,2.51-3.85-1.44-12.67-2.66-13.98-6.99Z"/><path class="cls-4" d="M423.83,35.16c.03,5.23-4.08-.52-4.33-.64-2.02-.99-6.89-.85-6.66-4.35,3.85,1.5,7.28,3.37,10.99,4.99Z"/><path class="cls-4" d="M496.74,87.1c-2.35-1.72-6.66-2.92-6.99-6.99,2.93,1.51,6.3,3.13,6.99,6.99Z"/><path class="cls-4" d="M488.75,80.1c-2.67-1.39-5.54-2.3-5.99-5.99,1.67,1.36,5.97,2.06,5.99,5.99Z"/><path class="cls-4" d="M244.03,6.19c1.02,2.73-5.15,2.5-7.99,3-.9-3.05,5.33-2.54,7.99-3Z"/><path class="cls-15" d="M493.75,93.09c-1.39-2.33-4.22-5.74-5.99-7.98,3.14.96,5.74,4.86,7.99,6.98l-2,1Z"/><path class="cls-5" d="M157.13,37.15c-1.82.83-2.87,1.89-5.99,3-.92-2.2,5.23-4.88,5.99-3Z"/><path class="cls-4" d="M476.77,69.12c-3.6.74-4.3-2.56-5.99-4,3.6-.75,4.31,2.59,5.99,4Z"/><path class="cls-4" d="M265,3.19c.71,4.31-4.44,1.13-5.99,1,1.74-1.72,4-.76,5.99-1Z"/><path class="cls-5" d="M25.27,181.99c1.28-3.95,1.15-2.89,3-5.99.33,2.72-.35,4.93-3,5.99Z"/><path class="cls-4" d="M465.78,61.13c-3-2.15-2.28-1.08-4.99-4,2.41.35,5.02,1.18,4.99,4Z"/><path class="cls-4" d="M525.71,120.06c2.61-.49,3.18,2.99,4,4.99-3.43.03-3.1-2.9-4-4.99Z"/><path class="cls-15" d="M173.11,502.63c-1.17,2.32-3.9,2.87-5.99,4,1.27-4.63,2.85-3.33,5.99-4Z"/><path class="cls-4" d="M257.01,4.19c.64,4.27-3.64,1.13-4.99,1,1.45-1.32,3.23-1.13,4.99-1Z"/><path class="cls-4" d="M314.95,3.19c-1.22.09-5.67,3.3-4.99-1,1.77.04,3.54-.44,4.99,1Z"/><path class="cls-4" d="M323.94,4.19c-1.18.14-4.54,3.2-4-1,1.48.04,2.83-.25,4,1Z"/><path class="cls-5" d="M22.28,190.98c-.52,1.4-.33,2.99-2,4,.05-.3-2.11-4.35,2-4Z"/><path class="cls-5" d="M5.3,322.83c-4.25.6-1.07-3.06-1-4,1.26,1.15.93,2.53,1,4Z"/><path class="cls-5" d="M19.28,198.97c-.39,1.6-.47,2.93-2,4,.05-.3-2.1-4.35,2-4Z"/><path class="cls-5" d="M102.19,508.62c-2.02.05-2.97-.97-3-3,1.12,1.03,2.6,2.64,3,3Z"/><path class="cls-3" d="M383.87,85.1c-2.18-.79-5.17-.84-5.99-3,2.32.52,4.8.16,5.99,3Z"/><path class="cls-4" d="M522.71,114.07c-3.23.29-3.29.23-3-3,.58.75,1.88,1.44,3,3Z"/><path class="cls-4" d="M459.79,56.13c-1.81.17-3.4-.17-4-2,.76.5,1.53-.69,4,2Z"/><path class="cls-5" d="M48.25,141.04c-.77-2.69,1.3-3.04,2-4,.69,2.71-1.19,2.99-2,4Z"/><path class="cls-5" d="M7.29,242.92c-.19,1,.41,2.49-1,3-.06-.86-3.06-3.5,1-3Z"/><path class="cls-5" d="M5.3,257.9c-.04,1.09.3,2.52-1,3-.07-.87-3.06-3.49,1-3Z"/><path class="cls-1" d="M367.89,197.97c.18,2.19.52,3.52-2,3,.56-.75,1.01-1.72,2-3Z"/><path class="cls-1" d="M362.89,204.96c.18,2.18.5,3.51-2,3,.55-.77,1.27-1.96,2-3Z"/><path class="cls-11" d="M71.22,109.07c-.44,4.9-.61,2.03-2,3,.01-1.46.57-2.56,2-3Z"/><path class="cls-1" d="M101.19,264.9c.55,3.13-2.61,2.97-2,0,.65-.08,1.35.08,2,0Z"/><path class="cls-15" d="M144.14,405.74c-.32,1.49-3.58,1.56-4,0,1.33.03,2.66-.02,4,0Z"/><path class="cls-8" d="M136.15,59.13c-.16.17.29,1.44-.14,1.9-.74.78-1.75-.89-1.86-.9l2-1Z"/><path class="cls-5" d="M13.29,215.95c-.29,1.11-.97,1.89-1,2-1.84-1.55-1.26-2.37,1-2Z"/><path class="cls-5" d="M9.29,351.8c-2.28.36-2.81-.41-1-2,.01.11.78.27,1,2Z"/><path class="cls-5" d="M111.18,515.61c1.67,1.32,1.85,1.89,2,2-2.04.29-2.28.05-2-2Z"/><path class="cls-5" d="M9.29,233.93c-.33,1.57-.98,1.89-1,2-1.81-1.59-1.28-2.36,1-2Z"/><path class="cls-4" d="M329.93,5.19c-1.61,1.8-2.35,1.29-2-1,1.77.06,1.89.99,2,1Z"/><path class="cls-5" d="M8.29,238.93c-.3,1.63-.98,1.89-1,2-1.84-1.55-1.26-2.37,1-2Z"/><path class="cls-4" d="M248.02,5.19c.37,2.26-.45,2.84-2,1,.11-.01.22-.91,2-1Z"/><path class="cls-4" d="M336.92,6.19c-1.55,1.84-2.37,1.26-2-1,1.69.26,1.89.98,2,1Z"/><path class="cls-4" d="M340.92,7.19c-1.55,1.84-2.37,1.26-2-1,1.61.3,1.89.98,2,1Z"/><path class="cls-5" d="M208.07,563.56c-1.59,1.81-2.36,1.28-2-1,1.73.14,1.89,1,2,1Z"/><path class="cls-4" d="M477.77,70.12c1.48,1.23,1.85,1.88,2,2-2.06.28-2.27.06-2-2Z"/><path class="cls-5" d="M6.3,250.91c-.07,1.78-.99,1.89-1,2-1.8-1.61-1.29-2.35,1-2Z"/><path class="cls-5" d="M6.3,330.82c-3.95.4-1.03-1.53-1-2,.97.27.93,1.15,1,2Z"/><path class="cls-5" d="M46.25,145.03c-.76,1.14-1.89,1.83-2,2-.24-2.12-.13-2.24,2-2Z"/><path class="cls-15" d="M163.12,508.62c-.68.36-1.34.65-2,1l2-1Z"/><path class="cls-15" d="M151.13,514.62c-.67.31-1.3.68-2,1l2-1Z"/><path class="cls-7" d="M12.29,248.91c.09-.64-.09-1.36,0-2l1.01.53-1.01,1.47Z"/><path class="cls-1" d="M358.9,209.96c.28-.44.79-.7,1-1l-1,1Z"/><path class="cls-3" d="M384.87,86.1v-1c.29.11.72-.12,1,0l-1,1Z"/><path class="cls-5" d="M153.13,542.58c-.41-.17-.74-.63-1-1,.39.24.69.66,1,1Z"/><path class="cls-5" d="M31.27,170l1-1c-.24.44-.84.72-1,1Z"/><path class="cls-5" d="M37.26,159.02l1-1c-.25.43-.83.71-1,1Z"/><path class="cls-3" d="M226.05,560.56l2-1c-.14.04-.05.53-2,1Z"/><path class="cls-5" d="M40.26,154.02l1-1c-.41.7-.96.94-1,1Z"/><path class="cls-7" d="M336.92,100.08h1c-.11.12.11.81-.5.98l-.5-.98Z"/><path class="cls-5" d="M43.25,149.03l1-1c-.39.64-.94.9-1,1Z"/><path class="cls-3" d="M169.11,138.04c.33-.05.67.05,1,0l-.5.98-.5-.98Z"/><path class="cls-5" d="M124.16,524.6l-1-1c.37.27.64.75,1,1Z"/><path class="cls-2" d="M559.67,185.99c4.29,9.62,7.18,19.78,10.55,29.91.53,1.6,1,5.68,3.44,5.05.1.98-.12,2.03,0,3,.01.12-.96.66-.82,2.17.09.95,1.62,8.41,1.9,8.76.23.29,1.36.03,1.92.06.15,1.64-.09,3.34,0,4.99.22,3.91-.49,10.48-.11,14.54.18,1.89,2.03,1.37,2,1.87-.1,1.49-3.21,9.03,1.11,8.56.25,7.27.03,14.69,0,21.98-2.95-.57-2.03,1.6-2.03,3.51,0,3.49.9,7.7,1.03,10.47.1,1.98-.01,4,0,5.99-4.31-.71-1.13,4.44-1,5.99.06.66-.06,1.34,0,2-4.26-.64-1.14,3.62-1,4.99.15,1.52.05,3.42,0,4.99-2.28-.36-2.81.41-1,2-.12.96.11,2.03,0,3-4.03-.47-1.13,1.98-1,3,.08.62.02,1.36,0,2-2.28-.36-2.81.41-1,2-.12.96.16,2.1,0,3-2.39-1.04-3.55,5.9-3.71,7.7-.06.74.71,1.21.71,1.29-.03.66.02,1.33,0,2-2.12-.24-2.24-.12-2,2-.24.27.18,2.19,0,3-2.56-.79-2.48,2.75-3,4.99-.36,1.57-.57,3.2-1,4.99-1.95-.31-2.95,1.48-4,2-26.79,13.32-51.48,43.33-71.92,64.93-19.77,20.88-39.69,41.5-56.94,64.7l-14.96,26.7c14.09-6.1,29.05-12.48,42.19-20.51,8.15-4.98,16.13-12.1,23.72-17.95,15.77-12.18,29.2-23.16,40.95-38.96l1,4c-.22.32-.41,1.15-1,2-2.12-.24-2.24-.12-2,2-3.56,5.11-5.98,10.61-10.99,15.98-2.52-.52-2.16.8-2,3-.35.32-.65.69-1,1-1.63,1.46-5.67,4.09-7.99,5.99-18.59,15.28-38.75,28.54-59.93,39.96-1.42.17-22.59,8.66-23.93,9.54-2.06,1.35-3.77,5.25-5.04,7.44-2.34,4.04-4.99,9.49-6.69,13.84-.59,1.52-1.95,2.26-.3,4.14-1.37.35-3.75,2.42-5.99,3-.58.15-1.43-.15-2,0,2.4-5.96,4.33-12.06,6.99-17.98,13.43-29.85,31.68-54.86,52.94-79.91,20-23.56,46.62-52.86,68.92-73.92,6.55-6.19,15.6-12.8,23.08-18.37,3.2-2.39,15.48-9.4,16.76-11.21,2.96-4.2,7-27.66,7.96-33.99,1.43-9.42,3.37-23.01,3.14-32.32-.03-1.04.43-3.98-.5-4.01-1.13.77-1.04,2.81-1.5,4.01-9.22,24.06-35.11,58.12-51.94,77.91-24.43,28.73-53.11,57.2-78.91,84.9-25.82,27.73-53.63,54.28-72.92,87.9-5.48,9.55-8.42,19.33-12.99,27.97-.61,1.14-3.38,1.8-3,4-1.04.19-3.56-.29-4,0,.11-.62-.16-1.48,0-2,4.53-14.59,11.75-28.16,19.98-40.95,18.64-28.97,48.47-61.46,72.4-86.92,9.92-10.56,22.45-20.91,31.48-31.95,1.06-1.29,2.27-2.45,3-4,3.98-3.57,7.3-7.18,10.99-10.99,21.29-22,41.82-45.57,58.93-70.92,7.52-8.88,26.69-40.76,28-51.42,1.69-13.81-2.87-30.8-4.34-44.66l-10.67-43.77Z"/><path class="cls-6" d="M490.75,493.64c-.17.29-2.59.99,0,2-.66.71-1.37,1.33-2,2-2.26-.37-3.05.73-4.53,1.96-7.03,5.83-14.32,12.98-21.44,19.02-4.91-1.01-7.64,2.37-11.31,4.22-1.36.68-3.15.5-3.67.77.02-.55.25-1.62-.12-1.85-.34-.21-7.48-1.2-7.87-1.15,21.18-11.41,41.34-24.68,59.93-39.96,2.11.55-.17,2.92-.77,3.73-2.49,3.34-6.27,6-8.22,9.26Z"/><path class="cls-11" d="M564.67,365.78c-7.81,32.98-21.54,58.28-39.96,84.9l-1-4c15.52-20.86,29.93-49.42,36.87-74.52.32-1.17,1.71-3.73.09-4.39,1.05-.52,2.04-2.31,4-2Z"/><path class="cls-11" d="M549.68,161.01c7.43,15.15,22.39,43.84,23.97,59.93-2.43.63-2.91-3.45-3.44-5.05-3.37-10.13-6.26-20.29-10.55-29.91-3.27-7.33-7.48-15.35-10.99-22.97-.21-.46.21-1.54,0-2h1Z"/><path class="cls-11" d="M579.65,264.9c-4.32.47-1.21-7.07-1.11-8.56.03-.51-1.82.01-2-1.87-.38-4.06.33-10.63.11-14.54,2.72,8,2.71,16.67,3,24.97Z"/><path class="cls-4" d="M507.73,474.66c-.94,2.82-3.11,6.25-5,8.49-3.31,3.94-8.35,8.56-11.98,12.49v-2c1.95-3.26,5.73-5.92,8.22-9.26.6-.81,2.88-3.18.77-3.73,2.32-1.91,6.36-4.53,7.99-5.99Z"/><path class="cls-11" d="M579.65,286.87c-.02,4.5.85,10.09-1,13.98-.13-2.77-1.04-6.98-1.03-10.47,0-1.91-.92-4.09,2.03-3.51Z"/><path class="cls-11" d="M576.65,234.93c-.56-.03-1.69.24-1.92-.06-.28-.35-1.81-7.81-1.9-8.76-.14-1.51.84-2.05.82-2.17,1.63,3.07,2.69,7.54,3,10.99Z"/><path class="cls-11" d="M573.66,339.81c-.52,2.87-1.22,6.64-3,8.99,0-.08-.77-.55-.71-1.29.15-1.8,1.32-8.73,3.71-7.7Z"/><path class="cls-11" d="M578.65,306.85c.01,2.06.55,4.28-1,5.99-.13-1.55-3.31-6.7,1-5.99Z"/><path class="cls-11" d="M577.65,314.84c.16,1.76.31,3.55-1,4.99-.14-1.37-3.26-5.63,1-4.99Z"/><path class="cls-11" d="M568.66,355.79c-.49,2.23-.45,5.79-3,4.99.52-2.24.43-5.79,3-4.99Z"/><path class="cls-11" d="M575.65,329.82c-.13,1.06.37,2.5-1,3-.13-1.02-3.03-3.46,1-3Z"/><path class="cls-4" d="M510.73,470.66c-.27.28-.22,1.35-2,3-.16-2.2-.52-3.51,2-3Z"/><path class="cls-11" d="M570.66,350.8c-.12,3.59-1.48,1.41-2,2-.24-2.12-.13-2.24,2-2Z"/><path class="cls-11" d="M574.66,334.82c-.06,1.75-.99,1.89-1,2-1.81-1.59-1.28-2.36,1-2Z"/><path class="cls-11" d="M576.65,324.83c-.06,1.77-.98,1.89-1,2-1.81-1.59-1.28-2.36,1-2Z"/><path class="cls-4" d="M523.71,452.69c-1.6,2.32-1.89,1.85-2,2-.24-2.12-.13-2.24,2-2Z"/><path class="cls-7" d="M323.94,571.55c-1.75,1.12-5.42,3.17-4.99,4.99-26.96,2.42-45.98.21-71.92-4.99,17.68-4.89,35.43-9.91,52.92-15.5,5.84-1.87,22.79-12.3,24.83-1.73l-.83,17.24Z"/><path class="cls-14" d="M323.94,571.55c19.7-12.59,27.26-28.52,40.52-46.88,1.33-1.84,7.82-10.59,8.94-11.04,3.53-1.44-.05,5.96-.27,6.72-.42,1.45.05,3.25-.42,4.61-.39,1.13-5.18,2.99-2.81,5.64-8.23,12.79-15.45,26.36-19.98,40.95-10.04,2.36-20.69,4.07-30.97,4.99-.42-1.82,3.25-3.88,4.99-4.99Z"/><path class="cls-11" d="M395.86,558.57c-1.77,4.38-4.45,2.18-5.99,4-1.91-.32-2.33.08-2,2-1.59.17-6.12-.35-6.99,1-1.89-.33-2.34.1-2,2-6.65,1.39-9.81,3.3-16.98,3-1.46-.06-2.87.32-4-1,11.73-1.83,22.84-7.34,33.94-10.55,1.46-.42,3.02-.16,4.01-.44Z"/><path class="cls-11" d="M423.83,547.58c-.63.25-1.43.63-2,1-.39.25-.69.65-1,1-.28.13-.73-.13-1,0l-1,1c-.28.13-.73-.13-1,0-1.54.76-3.26,1.19-4,3-.3.08-.67-.07-1,0-1.46.3-2.5.28-3,2-.66.06-1.34-.06-2,0s-1.36-.09-2,0c-.61-2.73,1.48-1.84,2.93-2.51,5.01-2.32,11.37-4.95,16.05-7.48-.27.13-.63,1.55-1,2Z"/><path class="cls-5" d="M405.85,555.57c.64-.09,1.35.06,2,0,.59,2.76-1.44,1.87-2.98,2.47-1.21.47-7.86,4.42-7.01.53,2.24-.57,4.62-2.64,5.99-3,.55-.14,1.36.09,2,0Z"/><path class="cls-5" d="M361.9,570.55c-.1.43.19,1.86,0,1.99-.33.23-6.15.67-8,1-.38-2.2,2.39-2.85,3-4h1c1.12,1.32,2.53.94,4,1Z"/><path class="cls-5" d="M426.82,545.58c.66,3.35-1.61,1.45-3,2,.37-.45.73-1.87,1-2,.42-.21,1.49.2,2,0Z"/><path class="cls-5" d="M412.84,553.57c.47,2.94-.75,1.79-3,2,.49-1.72,1.54-1.7,3-2Z"/><path class="cls-5" d="M417.83,550.57c-.89,4-1.81,2.42-4,3,.74-1.8,2.46-2.24,4-3Z"/><path class="cls-5" d="M389.86,562.56c-.66.78,1.63,1.62-2,2-.34-1.92.09-2.32,2-2Z"/><path class="cls-5" d="M380.87,565.56c-.89,1.37,1.57,1.25-2,2-.34-1.9.11-2.33,2-2Z"/><path class="cls-5" d="M429.82,544.58c.3-.15.59-.77,1-1l-1,1Z"/><path class="cls-5" d="M427.82,545.58c.14-.06.44-.73,1-1l-1,1Z"/><path class="cls-5" d="M420.83,549.58c.31-.34.61-.74,1-1-.24.4-.57.8-1,1Z"/><path class="cls-5" d="M418.83,550.57l1-1c-.17.08-.44.74-1,1Z"/><path class="cls-5" d="M434.81,541.59c.32-.19.59-.75,1-1l-1,1Z"/><path class="cls-15" d="M462.78,518.61c-2.71,2.29-4.83,3.62-5.99,6.99-8.18,4.38-15.66,10.99-23.97,13.98-1.17.42-2.25.95-3,2-.71.43-1.73.81-2,1-2.4.65-1.8-1.56-3-3,7.07-4.09,15.49-12.05,22.97-15.98.52-.27,2.32-.09,3.67-.77,3.67-1.85,6.4-5.23,11.31-4.22Z"/><path class="cls-10" d="M290.77,131.34c4.2-.4,14.64-1.92,15.24,4.26.53,5.44-10.01,8.6-14.04,9.93-17.15,5.67-59.02,15.17-76.24,14.41-9.99-.44-14.23-8.19-3.91-12.65,25.93-2.49,53.54-13.54,78.95-15.95Z"/><path class="cls-4" d="M181.1,371.78c1,3.27-6.27,2.95-4.99,0,1.66-.02,3.33.05,4.99,0Z"/><path class="cls-14" d="M518.72,135.04c3.36,2.61,6.98,3.78,8.99,7.99.12.26-.17.81.5.98l.5-.98c1.22.12.83,1.22,1,2,9.41,42.23,1.45,96.14-17.29,135.04-3.79,7.87-8.08,17.06-14.63,22.14-1.63,1.26-.95-.53-2.04-1.35,13.17-25.92,22.86-54.63,26.83-83.55,3.77-27.53,3.45-55.39-3.85-82.26Z"/><path class="cls-15" d="M487.75,396.75c.1-1.31-.15-2.7,0-4s.95-2.78,1-4c14.94-13.52,27.34-29.68,40.61-44.83,5.35-6.11,12.15-11.98,17.33-18.09-17.11,25.35-37.65,48.92-58.93,70.92Z"/><path class="cls-15" d="M473.77,411.73c-.11-2.48,1.71-2.84,3-4-.73,1.54-1.94,2.7-3,4Z"/><path class="cls-10" d="M434.81,182.99c-6.93,28.99-19.73,56.8-37.54,80.82-8.1,10.92-30.7,35.91-43.54,39.36-2.22.59-7.49.47-7.81.68-1.76-.68-3.26-1.51-4.46-3.04-5.6-7.14-7.52-29.89-8.56-39.43-.2-1.88,1.21-4.04-1.97-3.48,0-2.22,1.05-14.94,1.52-15.96,1.4-3.07,11.07-10.11,13.86-13.11,3.73-4.02,7.4-10.01,11.2-13.77,1.13-1.12,6.91-6.07,7.67-5.94.71.12,1.77,1.45,3.26,1.8s3.35-.29,4.83.19c1.34.43,1.33,2.36,1.8,2.66,1.74,1.1,11.08-2.57,13.13-3.96,2.62-1.77,4.29-5.82,6.63-6.47,1.97-.54,3.17,1.56,5.5,1.73,6.07.44,17.42-8.05,22.78-11.29,1.46-.88,3.78-.94,5.11-1.88,2.85-2.01,1.96-8.6,6.58-8.9Z"/><path class="cls-14" d="M317.95,463.67c.35-.3.65-.68,1-1l-1,1Z"/><path class="cls-6" d="M527.71,143.03h1l-.5.98c-.67-.17-.38-.72-.5-.98Z"/><path class="cls-3" d="M560.67,367.78c1.62.66.23,3.22-.09,4.39-6.94,25.1-21.35,53.66-36.87,74.52-11.75,15.8-25.19,26.78-40.95,38.96-2.99.53-2.06-1.42-1.88-3.35.79-8.26,1.5-16.81,3-25,1.52-8.29,4.52-16.14,4.87-24.6,20.44-21.6,45.13-51.61,71.92-64.93Z"/><path class="cls-5" d="M442.8,453.68c4.45,4,6.56,7.07,12.99,6.99-21.26,25.05-39.51,50.06-52.94,79.91l-32.45,6.01-.51-5.01c19.29-33.62,47.1-60.17,72.92-87.9Z"/><path class="cls-4" d="M575.65,290.87c.23,9.31-1.71,22.9-3.14,32.32-.96,6.33-5,29.79-7.96,33.99-1.28,1.81-13.56,8.82-16.76,11.21-7.48,5.57-16.53,12.19-23.08,18.37-4.49-1.78.15-5.33-.22-7.29-.16-.86-1.49-1.81-1.73-3.24-.41-2.44.55-5.17-1.05-7.45,16.83-19.79,42.72-53.86,51.94-77.91h2Z"/><path class="cls-12" d="M524.71,386.76c-22.3,21.06-48.93,50.36-68.92,73.92-6.42.08-8.54-2.99-12.99-6.99,25.8-27.7,54.48-56.18,78.91-84.9,1.6,2.28.64,5.01,1.05,7.45.24,1.43,1.57,2.38,1.73,3.24.37,1.96-4.27,5.5.22,7.29Z"/><path class="cls-14" d="M439.81,520.61c.39-.05,7.53.94,7.87,1.15.37.23.14,1.29.12,1.85-7.49,3.93-15.91,11.89-22.97,15.98-4.3,2.49-10.01,4.8-14.98,3.99l1-5.99c1.27-2.19,2.98-6.09,5.04-7.44,1.34-.88,22.51-9.37,23.93-9.54Z"/><path class="cls-3" d="M410.84,537.59l-1,5.99c4.97.81,10.69-1.5,14.98-3.99,1.2,1.44.6,3.65,3,3-.19.13-.12,1.44-3,3-4.67,2.53-11.04,5.16-16.05,7.48-1.45.67-3.54-.22-2.93,2.51-.64.09-1.45-.14-2,0-1.65-1.87-.29-2.61.3-4.14,1.7-4.36,4.35-9.8,6.69-13.84Z"/><path class="cls-11" d="M575.65,290.87h-2c.46-1.19.37-3.24,1.5-4.01.92.03.47,2.96.5,4.01Z"/><path class="cls-7" d="M488.75,432.71c-.35,8.46-3.35,16.3-4.87,24.6-1.5,8.19-2.21,16.74-3,25-.18,1.93-1.12,3.87,1.88,3.35-7.59,5.86-15.57,12.97-23.72,17.95-13.14,8.04-28.1,14.42-42.19,20.51l14.96-26.7c17.25-23.2,37.17-43.82,56.94-64.7Z"/><path class="cls-2" d="M490.75,495.64c-2.59-1.01-.17-1.71,0-2v2Z"/><path class="cls-3" d="M429.82,541.59c.75-1.05,1.83-1.58,3-2-.35,1.92-2.19,1.51-3,2Z"/></g></svg>