<?xml version="1.0" encoding="UTF-8"?><svg id="Camada_2" xmlns="http://www.w3.org/2000/svg" viewBox="0 0 144.69 144.76"><defs><style>.cls-1{fill:#f49952;}.cls-2{fill:#f6ba51;}.cls-3{fill:#2e3348;}.cls-4{fill:#e16933;}.cls-5{fill:#e69238;}.cls-6{fill:#3d4964;}</style></defs><g id="Camada_1-2"><path class="cls-3" d="M73.58.01c5.46.38,38.33,10.81,43.04,13.47,2.92,1.65,3.41,2.97,4.96,5.53,2.79,4.6,23.19,52.52,23.1,55.53l-23.09,51.98-49.34,18.24c-12.51-3.2-24.24-9.48-36.67-12.75-.31-.08-.69.08-1,0-.38-.98-1.06-1.57-2-2-2.37-1.08-3.65-.82-6-3l41.81,13.83,4.19-2.83c4.42-.1,34.07-10.49,39-13,.53-.27,1.37.11,3-1,.37-.25.65-.7,1-1,4.13-3.51,23.19-45.34,22.82-50.22l-22.37-52.73c-1.5-1.53-36.73-13.49-40.45-14.05-1.03-.16-2.51-.99-3-1L73.58.01Z"/><path class="cls-6" d="M73.58.01l-1,5c-4.3-.07-39.91,11.63-42.71,14.29-2.08,1.97-23.29,49.38-23.36,52.24-.06,2.71,19.16,47.97,21.04,50,3.13,3.37,39.99,16.59,45.03,16.47l-4.19,2.83-41.81-13.83C23.33,124.01-.33,74.09,0,71S23.41,17.66,25.64,15.57C30.24,11.27,67.35-.42,73.58.01Z"/><path class="cls-6" d="M34.58,132.01c-.97-.26-1.62-1.11-2-2,.94.43,1.62,1.02,2,2Z"/><path class="cls-2" d="M72.58,5.01c.49,0,1.97.84,3,1l-2,3c-5.89.13-36.89,9.11-40.39,13.07-2.16,2.45-22.47,46.82-22.6,49.54-.13,2.56,17.7,45.55,19.47,47.4,4.35,4.54,25.78,10.19,32.51,11.98,9.47,2.53,6.15,4.24,16,2,8.65-1.97,17.4-5.97,27-8,1.61-.34,3.32.3,4-2,.33-.04.67.02,1,0,1.66-.09,3.34.06,5,0-.35.3-.63.75-1,1l-3,1c-4.93,2.51-34.58,12.9-39,13-5.04.12-41.9-13.1-45.03-16.47-1.89-2.03-21.11-47.29-21.04-50,.07-2.86,21.28-50.28,23.36-52.24,2.81-2.66,38.42-14.35,42.71-14.29Z"/><path class="cls-5" d="M115.58,123.01c-1.66.06-3.34-.09-5,0,11.56-14.38,17.07-33.1,23.81-50.18-6.88-8.17-16.85-46.86-22.85-51.23-2.09-1.52-32.35-11.45-34.95-11.59-.81-.99-1.82-1.03-3-1l2-3c3.72.56,38.95,12.52,40.45,14.05l22.37,52.73c.37,4.88-18.69,46.7-22.82,50.22Z"/><path class="cls-5" d="M114.58,124.01c-1.63,1.11-2.47.73-3,1l3-1Z"/><path class="cls-4" d="M76.58,10.01c2.61.14,32.87,10.07,34.95,11.59,6.01,4.38,15.98,43.06,22.85,51.23-6.74,17.08-12.24,35.81-23.81,50.18-.33.02-.67-.04-1,0-1.74.19-3.29-.18-4,2-9.6,2.03-18.35,6.03-27,8,.18-2.93,1.48-6.71,4.99-6.01.78-3.59-2.8-1.34-3.99-1.99-9.04-4.93-3.02-3.1-3-5,8.05,1.36,6.19-11.44-1-7-.36-5.38-2.12-7.71,0-9.99-6.2-2.82-3.49,7.76-5.49,7.98-.96.11-13.21-12.17-11.51-14.99,4.88.71,10.12-1.01,14-1,17.06.02,50.31-.37,11.01-12.01,5.75-1.26,3.51-11.84-2.45-10.83-1.01.17-.9,4.28-7.56,2.85.9-14.87-.47-12.41-12.31-9.77-7.55,1.68-20.24,6.41-29.69,3.77,10.73-9.53,25.63-10.79,39-14,19.38,2.51,29.52,3.93,44.99,17-.99-2.46.38-12.88,1.18-14.33,1.11-2.04,8.67-1.87,3.06-4.65-2.32-1.15-6.94.23-7.2-.02-2.73-2.58,2.2-9.88-3.03-13-6.79-4.05-29.67-7.02-38-7V10.01c1.65.05,3.34-.08,5,0Z"/><path class="cls-1" d="M73.58,9.01c1.18-.03,2.19,0,3,1-1.66-.09-3.35.04-5.01,0v23.01c-6.2.02-36.95,4.13-39.57,8.97-.84,1.56,3.2,5.69,1.44,9.4-2.42,5.11-9.93-3.49-4.22,14.14.55,1.7-5.03,1.42,2.35,3.48,9.45,2.64,22.14-2.08,29.69-3.77,11.84-2.64,13.21-5.1,12.31,9.77-3.07-.66-3.37,1.5-3.01-4-.65-.34-3.84,2.81-3.99,3l-4-2.99,1,4.99c-3.78.82-7.14,3.64-9,7-.13.23.11.68,0,1l-9,7.99c5.83-1.27,7.84,3.26,13,4.01-1.7,2.82,10.55,15.1,11.51,14.99,2-.22-.71-10.8,5.49-7.98-2.11,2.28-.35,4.61,0,9.99.13,2.02,1.02,3.99,1,7-.02,1.9-6.04.07,3,5-2.5,4.13-10.08,3.83-14,2l5.01-.51c-1.17-3.49-4.29-2.54-6.01.51-.43.76.51,3.49-2,4-6.73-1.8-28.16-7.45-32.51-11.98-1.77-1.85-19.6-44.84-19.47-47.4.13-2.72,20.44-47.1,22.6-49.54,3.49-3.96,34.5-12.95,40.39-13.07ZM69.57,112.02c-6.5,1.6-5.93,12.58,1,10.99l-1-10.99Z"/><path class="cls-5" d="M79.58,125.01c1.19.65,4.77-1.6,3.99,1.99-3.52-.7-4.81,3.08-4.99,6.01-9.85,2.24-6.53.53-16-2,2.51-.51,1.57-3.24,2-4h1c3.92,1.83,11.5,2.13,14-2Z"/><path class="cls-5" d="M109.58,123.01c-.68,2.3-2.39,1.66-4,2,.71-2.18,2.26-1.81,4-2Z"/><path class="cls-2" d="M71.58,33.01c8.33-.02,31.21,2.95,38,7-.35.8-1.99,2.41-2,3h-2c-.4-.97-1.19-1.44-2-2-.41-.28-3.22-.9-4-1-.64-.08-1.35,0-2,0-1.37,0-3.19-.44-4,1-.1-.28-1.73-1.96-2-2h-2l-1.01,7.99c-1.7.45-.38-2.17-1.99-1.99.12-.95-.17-2.09,0-3,.23-1.22,2-1.23,0-3-3.42-3.02-3.26,4.3-3,6-.66.05-1.34-.06-2,0v-7.01s-3.99,0-3.99,0l.99,8c-4.2,2.83-.16,4.61-1,5.99-.42.69-13.85.18-15.99,1.02,2.03.98,6.66,1.68,8.99,1.99-13.37,3.21-28.27,4.47-39,14-7.38-2.06-1.8-1.79-2.35-3.48-5.71-17.63,1.8-9.03,4.22-14.14,1.75-3.71-2.29-7.84-1.44-9.4,2.61-4.84,33.36-8.96,39.57-8.97ZM68.57,45.01v-4.47c-3.73-7.89-3.04,3.34,0,4.47ZM75.57,46.01c1.09-3.56,2.66-8.59-2.98-7.99l2.98,7.99ZM64.5,39.1c-4.28-3.59-6.24,3.66-4.92,6.91l2.01-3.99c5.58,8.11,3.66-2.29,2.91-2.92ZM58.57,40.01c-.44-.73-13.26-1.96-7.99,8l3.01-4.99c3.85,9.23,7.15.63,4.98-3.01ZM48.57,41.01c-9.19.96-13.82,1.22-11.98,12,4-2.23,4.34-3.88,4-8.99l3.98,4.99.99-5.98,3.01,5.98v-8Z"/><path class="cls-5" d="M89.58,39.01l.51,8.01,1.49-8.01c.27.04,1.9,1.72,2,2,1.11,3.18-2.61,9.1,5,7.99l-1-8.99c.65,0,1.36-.08,2,0l-.04,9.32,2.54,1.65,1.5-9.97c.81.56,1.6,1.03,2,2,.73,1.78-.32,7.77,1.51,10.01,3.83-.97.46-8.42.49-10.01,0-.59,1.65-2.2,2-3,5.22,3.12.3,10.42,3.03,13,.26.25,4.88-1.13,7.2.02,5.61,2.77-1.95,2.61-3.06,4.65-.79,1.45-2.16,11.87-1.18,14.33-15.47-13.07-25.61-14.49-44.99-17-2.34-.3-6.96-1.01-8.99-1.99,2.14-.84,15.58-.34,15.99-1.02.84-1.38-3.2-3.16,1-5.99.13-.09,2.78-.98,3-1,.66-.06,1.34.05,2,0,.16-.01.53,1.98,2.5,2.03.85.02.4-2.02.5-2.03,1.61-.18.29,2.44,1.99,1.99l1.01-7.99Z"/><path class="cls-5" d="M66.58,74.01c.16-.19,3.34-3.34,3.99-3-.36,5.5-.07,3.34,3.01,4,6.65,1.44,6.54-2.67,7.56-2.85,5.96-1.01,8.2,9.57,2.45,10.83,39.3,11.64,6.06,12.04-11.01,12.01v-18.99c-1.97.09-4.03-.18-6-.01.13-.57-.19-1.76,0-2Z"/><path class="cls-2" d="M66.58,76.01c1.97-.17,4.03.1,6,.01v18.99c-3.88,0-9.12,1.71-14,1-5.16-.75-7.17-5.28-13-4.01l9-7.99c-.34.97-2.24,4.87-2,4.99.75.4,11.31,2.69,12.02,1.41,4.36-7.85-6.48-1.64-10.02-7.41,1.86-3.36,5.22-6.18,9-7,.84-.18,2.04.08,3,0Z"/><path class="cls-5" d="M75.58,113.01c7.19-4.44,9.05,8.36,1,7,.02-3.01-.87-4.98-1-7Z"/><path class="cls-2" d="M69.57,112.02l1,10.99c-6.93,1.59-7.5-9.39-1-10.99Z"/><path class="cls-4" d="M66.58,74.01c-.19.24.13,1.43,0,2-.96.08-2.16-.18-3,0l-1-4.99,4,2.99Z"/><path class="cls-2" d="M64.58,127.01c1.71-3.05,4.83-4,6.01-.51l-5.01.51h-1Z"/><path class="cls-5" d="M48.57,41.01v8s-3.01-5.98-3.01-5.98l-.99,5.98-3.98-4.99c.34,5.12,0,6.77-4,8.99-1.84-10.78,2.79-11.04,11.98-12Z"/><path class="cls-1" d="M58.57,40.01c2.17,3.63-1.13,12.24-4.98,3.01l-3.01,4.99c-5.28-9.96,7.55-8.73,7.99-8Z"/><path class="cls-4" d="M103.58,41.01l-1.5,9.97-2.54-1.65.04-9.32c.78.1,3.59.72,4,1Z"/><path class="cls-4" d="M97.58,40.01l1,8.99c-7.6,1.11-3.89-4.81-5-7.99.81-1.44,2.63-1.01,4-1Z"/><path class="cls-5" d="M64.5,39.1c.75.63,2.67,11.03-2.91,2.92l-2.01,3.99c-1.32-3.25.63-10.5,4.92-6.91Z"/><path class="cls-4" d="M78.58,46.01l-.99-8h3.99s0,7,0,7c-.22.02-2.87.91-3,1Z"/><path class="cls-4" d="M75.57,46.01l-2.98-7.99c5.64-.6,4.06,4.43,2.98,7.99Z"/><path class="cls-4" d="M107.58,43.01c-.02,1.59,3.34,9.04-.49,10.01-1.83-2.24-.78-8.23-1.51-10.01h2Z"/><path class="cls-4" d="M86.58,39.01v3c-.17.91.12,2.05,0,3-.1.01.35,2.05-.5,2.03-1.97-.05-2.34-2.04-2.5-2.03-.26-1.7-.42-9.02,3-6Z"/><polygon class="cls-4" points="91.58 39.01 90.09 47.02 89.58 39.01 91.58 39.01"/><path class="cls-5" d="M68.57,45.01c-3.04-1.13-3.73-12.36-.01-4.47v4.47Z"/><path class="cls-5" d="M86.58,42.01v-3c2,1.77.23,1.78,0,3Z"/></g></svg>