<?xml version="1.0" encoding="UTF-8"?><svg id="Camada_2" xmlns="http://www.w3.org/2000/svg" viewBox="0 0 145.96 149.93"><defs><style>.cls-1{fill:#f49952;}.cls-2{fill:#f6ba51;}.cls-3{fill:#6cd1de;}.cls-4{fill:#908d91;}.cls-5{fill:#fff;}.cls-6{fill:#2e3348;}.cls-7{fill:#e69238;}.cls-8{fill:#2d91a5;}.cls-9{fill:#3d4964;}.cls-10{fill:#45b6c7;}.cls-11{fill:#999899;}</style></defs><g id="Camada_1-2"><path class="cls-2" d="M48.79,145.14C-27.16,119.8-12.52-3.07,79.34.13c1.91.07,4.01-1.01,3.44,2.01-11.06-.2-14.87,6.94-4.01,4.01,3.27,3.68-8.48,6.8-10.99,7.99-2.17.02-5.4-.76-7,1C16.18,21.89.32,74.92,26.79,111.14c7.99,10.94,16.19,16.73,30,21,4.93,1.52,7.04,3.33,13,4,4.48,2.37,2.8,6.77,3,11l18-1c-16.22,5.95-25.93,4.36-42-1Z"/><path class="cls-7" d="M82.79,2.14c20.35.36,32.36,12.2,46,25l13.96,25.72c12.22,34.92-11.76,82.94-47.96,91.28-1.62.37-4.43-1.15-4,2l-18,1c-.19-4.23,1.48-8.63-3-11,.33.04.67-.03,1,0,.65.06,1.34-.02,2,0s1.33,0,2,0c1.31,0,2.72.14,4,0,55.84-6.24,72.41-89.55,22-114-.82-.4,1.88-.86-4-2-.21-.17.24-1.81,0-2-.4-.32-2.99.21-4,0-.58-.12-1.36.05-2,0,.64-3.26-1.67-1.6-4-2-1.28-.22-3.74-.98-4-1-4.33-1.83-10.3-1.04-15-1,2.52-1.19,14.27-4.31,10.99-7.99-10.87,2.93-7.05-4.2,4.01-4.01ZM124.78,33.13l-1.52-4.99c-9.3,1.44-1.02,7.48,1.52,4.99ZM140.67,68.26c-4.2-2.94-6.32,5.41-4.89,6.88,2.99,3.07,9.02-3.99,4.89-6.88Z"/><path class="cls-1" d="M94.79,144.14c-.63,2.4-2.74,1.54-4,2-.43-3.15,2.38-1.63,4-2Z"/><path class="cls-2" d="M140.67,68.26c4.14,2.89-1.89,9.95-4.89,6.88-1.44-1.47.68-9.82,4.89-6.88Z"/><path class="cls-2" d="M124.78,33.13c-2.54,2.49-10.82-3.55-1.52-4.99l1.52,4.99Z"/><path class="cls-10" d="M77.79,21.14c32.52,3.48,55.03,39.22,43.98,69.99-1.72-2.29-2.97-1.93-4.98-2.99-.42-.22.59-3.03-4.46-4.05-10.52-2.11-42.96-.31-55.54.05.57-3.02-1.53-1.94-3.45-2-10.39-.34-30.68-4.27-23.55,12,.02.21.9,3.69,1,4-.98,13.07,16.26,22.11,26.32,27.18,6.41,3.23,18.31,2.87,15.68,10.82-.66-.02-1.35.06-2,0l-14-4c-13.81-4.27-22.01-10.06-30-21l3.99.02c-14.33-17.32-14.85-46.63-2.99-65.02,14.77-4.26,6.98-3.08,9.93,5.45.43,1.26,2.76-.09,3.1,1.05.99,3.33-6.29,13.11-1.81,20.77,3.08,5.26,6.86,1.04,7.77,1.72.32.24-.73,3.1.59,4.13,6.48,5.08,8.07-4.64,8.56-5,.79-.59,3.62.42,4.57-.46,2.87-2.65,11.64-20.11,14.28-11.68,5.99-15.26-2.91-4.13-9.77-3.17-3.5.49-4.61-2.08-8.22-1.42-3.84.7-21.43,19.65-15.49,2.61,4.85-13.92,12.67-13.68,22.84-19.16,2.36-1.27,7.76-7.65,8.32-7.73,7.09-1.06,10.16,6.14,5.33-12.12ZM82.78,32.13c-1.1.15-6.34,7.65-5.99,8,.52.52,10.47-3.47,13.99,0-1.27-5.45-10.17-1.32-8-8ZM102.79,74.14c-.35-.52.34-3.62,0-3.99s-7.78,3.64-9.64,3.98c-3.42.62-1.46-2.58-3.85-2-2.09.51-11.06,5.41-2.5,6.02l-5,4h25c.72-4.52-3.19-6.78-4-8Z"/><path class="cls-8" d="M82.79,15.14c.26.02,2.72.78,4,1-.63,3.06,1.52,1.81,4,2,.64.05,1.42-.12,2,0-.65,3.31,1.72,1.56,4,2,.28.22-1.18,3.08,4,2,50.41,24.45,33.84,107.76-22,114h-4c-.67,0-1.34.02-2,0,2.63-7.95-9.27-7.6-15.68-10.82-10.06-5.06-27.3-14.11-26.32-27.18,5.45,16.3,38.24,6.21,42.01,9.99.42.43.11,10.3,0,12.01-3.27-.4-16.27-12-17.5-12h-14.5c.55,5.65,30.66,19.43,31.99,18,.25-.27-.11-3.83,0-5,13.27-3.75,16.35-16.38,32-15,14.1-1.14,4.69-7.37,12-18,2.02,1.06,3.26.7,4.98,2.99,11.04-30.77-11.46-66.51-43.98-69.99-20.37-2.18-39.07,8.06-50,25-11.87,18.39-11.35,47.7,2.99,65.02l-3.99-.02C.32,74.92,16.18,21.89,60.79,15.14c4.94-.75,16.68-.4,22,0Z"/><path class="cls-11" d="M67.79,14.14c4.7-.04,10.67-.83,15,1-5.32-.4-17.06-.75-22,0,1.6-1.76,4.83-.98,7-1Z"/><path class="cls-4" d="M70.79,136.14c-.33-.03-.67.04-1,0-5.96-.67-8.07-2.48-13-4l14,4Z"/><path class="cls-4" d="M86.79,16.14c2.33.4,4.64-1.26,4,2-2.48-.19-4.63,1.06-4-2Z"/><path class="cls-4" d="M92.79,18.14c1.02.22,3.61-.31,4,0,.23.19-.21,1.83,0,2,5.88,1.14,3.18,1.6,4,2-5.18,1.08-3.72-1.78-4-2-2.28-.44-4.65,1.31-4-2Z"/><path class="cls-4" d="M78.79,136.14c-1.28.14-2.69,0-4,0h4Z"/><path class="cls-3" d="M77.79,21.14c4.84,18.26,1.76,11.06-5.33,12.12-.56.08-5.96,6.46-8.32,7.73-10.17,5.48-17.99,5.24-22.84,19.16-5.94,17.04,11.65-1.91,15.49-2.61,3.61-.66,4.71,1.91,8.22,1.42,6.85-.96,15.75-12.09,9.77,3.17-2.64-8.43-11.41,9.02-14.28,11.68-.95.87-3.78-.13-4.57.46-.48.36-2.07,10.08-8.56,5-1.32-1.03-.27-3.9-.59-4.13-.92-.68-4.7,3.53-7.77-1.72-4.48-7.66,2.8-17.44,1.81-20.77-.34-1.14-2.67.21-3.1-1.05-2.94-8.53,4.84-9.72-9.93-5.45,10.93-16.94,29.63-27.18,50-25Z"/><path class="cls-6" d="M56.79,84.14c12.58-.35,45.03-2.15,55.54-.05,5.05,1.01,4.04,3.83,4.46,4.05-7.31,10.63,2.1,16.86-12,18-6.99.56-54.34.65-55.97-2.02-2.76-4.51,1.73-5.67,1.97-5.98-2.97,4.89,2.55,5.97,6,5h8l-2-4c1.23-1.32,2.4-1.13,4-1,.11,2.8-1.04,8.08,2,5,1.42-1.44.66-2.2,1-3,.18-.43.98-2.78,1-3,.28-2.64.12-2.54-1-5h2l1,1c.5.48-1.36,3.87,1.98,2.99,3.35-8.02-2.5-4.77-6.98-5.99-2.28-.62-8.39-3-9.5-3h-17c-2,0-6.53-2.06-9.5-1,3.51-3.5,19.22-1.84,25-2ZM83.53,102.87c2.5-2.92,1.98-15.43-4.11-12.66-4.01,1.82-1.89,19.66,4.11,12.66ZM92.79,91.13c-6.05-6.07-7.14,8.25-5.99,12l1.99-9.99,4.99,8.99c-1.48-2.01-.6-10.61-.99-11ZM74.79,98.14l-2.99,5.99c3.51.28,3.12-3.55,2.99-5.99h.5l.5-.5-.5-.5-.5,1Z"/><path class="cls-9" d="M31.79,86.14c2.97-1.06,7.5,1,9.5,1h17c1.11,0,7.22,2.38,9.5,3-1.37,2.47-1.11,5.31-1,8-1.6-.13-2.77-.32-4,1-2.39,2.57-1.36,4.87,2,4h-8c6.92-1.94.83-8.23,3.01-11,2.05-2.62,5.78,1.02,2,5h2.99c3.94-5.73-10.31-15.04-7,3l-3.99-1.01,1.99-3.98c-2.42-.67-3.85,1.5-4.99,2.99-.24.31-4.73,1.47-1.97,5.98,1.63,2.67,48.98,2.58,55.97,2.02-15.65-1.38-18.73,11.25-32,15,.03-.33-.02-.67,0-1,.12-1.7.43-11.58,0-12.01-3.77-3.79-36.56,6.31-42.01-9.99-.1-.31-.98-3.79-1-4-.26-2.86-.21-5.79,2-8ZM56.78,94.14l-2.52-3.06-4.46,2.57,6.99.49Z"/><path class="cls-8" d="M102.79,74.14c.81,1.22,4.72,3.48,4,8h-25l5-4c7.02.5,9.76-1.83,16-4Z"/><path class="cls-3" d="M82.78,32.13c-2.17,6.68,6.73,2.55,8,8-3.52-3.47-13.47.52-13.99,0-.35-.35,4.89-7.85,5.99-8Z"/><path class="cls-10" d="M72.79,120.14c-.02.33.03.67,0,1-.12,1.17.24,4.72,0,5-1.33,1.44-31.45-12.35-31.99-18h14.5c1.23,0,14.23,11.6,17.5,12Z"/><path class="cls-9" d="M70.79,97.14l-1-5c1.12,2.46,1.28,2.36,1,5Z"/><path class="cls-4" d="M68.79,103.14l1-3c-.34.8.42,1.56-1,3Z"/><path class="cls-9" d="M72.79,93.14l-1-1c.86-.09.82.83,1,1Z"/><polygon class="cls-9" points="74.79 98.14 75.29 97.14 75.79 97.64 75.29 98.14 74.79 98.14"/><path class="cls-9" d="M82.78,92.13c.32.46.8,11.22-2.99,10v-10s2.99,0,2.99,0Z"/><path class="cls-9" d="M43.84,87.68h41.77c7.79,0,14.12,6.33,14.12,14.12h0c0,1.54-1.25,2.8-2.8,2.8h-53.09v-16.91h0Z"/><path class="cls-5" d="M53.31,103.21v-9.04c0-1.12.34-2.04,1.02-2.75.68-.71,1.56-1.07,2.65-1.07,1.29,0,2.27.59,2.97,1.77.42-.64.88-1.09,1.36-1.36s1.08-.41,1.79-.41c1.13,0,1.99.36,2.59,1.07.6.71.9,1.73.9,3.07v8.72h-3.73v-8.16c0-.4-.03-.67-.1-.8s-.19-.2-.39-.2c-.37,0-.55.31-.55.94v8.22h-3.73v-8.16c0-.4-.03-.67-.1-.8s-.2-.2-.4-.2c-.37,0-.55.33-.55,1v8.16h-3.73Z"/><path class="cls-5" d="M77.65,90.67v8.13c0,1.43-.43,2.58-1.28,3.44s-1.99,1.29-3.41,1.29-2.5-.42-3.25-1.25c-.75-.83-1.12-2.03-1.12-3.59v-8.01h3.73v8c0,.77.27,1.15.82,1.15s.79-.38.79-1.15v-8h3.73Z"/><path class="cls-5" d="M88.93,90.67l-5.47,13.26-5.43-13.26h4.32l1.15,3.91,1.27-3.91h4.16Z"/><path class="cls-5" d="M98.22,90.67l-3.9,8.94h3.85v3.6h-9.46l3.88-8.94h-4.1v-3.6h9.73Z"/><path class="cls-5" d="M55.45,93.29s-10.04-2.32-7.61.88,1.99,3.86,1.99,3.86c0,0-8.6-4.19-5.52-.99s5.24,5.52,5.24,5.52c0,0,1.71,1.1,5.13.44s.77-9.71.77-9.71Z"/><path class="cls-5" d="M47.01,93.81s-2.24-.52-1.7.2.44.86.44.86c0,0-1.92-.93-1.23-.22s1.17,1.23,1.17,1.23c0,0,.38.25,1.14.1s.17-2.16.17-2.16Z"/><path class="cls-5" d="M47.92,102.14c-1.28-.51-3.24-1.58-4.34-2.05-.34-.1-.99-.26-1.1.21,0,.36,1.37,1.13,1.25,1.31-.27.42-1.52.31-1.19.65,1.07.92,2.53.27,3.83.45.48-.06,2.61.36,2.18-.53"/></g></svg>