<?xml version="1.0" encoding="UTF-8"?><svg id="Camada_2" xmlns="http://www.w3.org/2000/svg" viewBox="0 0 154.25 152.59"><defs><style>.cls-1{fill:#f49952;}.cls-2{fill:#f6ba51;}.cls-3{fill:#908d91;}.cls-4,.cls-5{fill:#fff;}.cls-5{font-family:Bauhaus93, 'Bauhaus 93';font-size:18.81px;}.cls-6{fill:#2e3348;}.cls-7{fill:#e16933;}.cls-8{fill:#e69238;}.cls-9{fill:#3d4964;}</style></defs><g id="Camada_1-2"><path class="cls-6" d="M80.1,2.57c4.97,1.29,9.65,3.87,15.61,4.89,3.96.68,12.49-1.04,14.37-.41s5.17,7.54,7.47,9.57c10.07,8.86,21.28,16.01,30.54,25.96-18.79,15.98-1.74,20.68-.17,29.75.81,4.68-2.52,11.69-1.81,16.65.69,4.73,8.93,10.74,8.06,13.98-.37,1.38-15.99,5.56-19.85,19.37-.83,2.97,1.03,7.1.29,8.25-.38.59-9.72,1.29-13.47,3.54-2.76,1.66-16.87,14.31-19.72,15.28-5.7,1.93-29.22,2.4-36.32,2.18-.56-.36-1.69-1.96-2-2,1.06-.35,1.77-2.88,2-3l32.96-1.46c6.11-9.52,21.25-13.07,28.69-20.89,2.67-2.81,5.61-11.11,8.39-14.88,2.48-3.35,10.92-8.24,9.75-10.6-.23-.47-4.05-1.46-4.6-3.88-.84-3.7,2.41-17.39,1.66-21.55-1.3-7.19-15.72-8.71-4.75-26.64.35-.58,3.12.64,3.91-1.1.97-2.12-27.52-26.25-30.35-25.83-5.51.81-18.58,27.51-21.65,32.83-3.46-.37-6.09,11.35-7.93,3.24-2.66-11.73,3.19-8.49,3.94-9.24.3-.3-.3-2.47,0-3,4.47-8.1,12.47-14.23,16-23,.88-3.23,10.98-5.86,7.99-8.99-.36-.38-7.19,1.36-10.41.9-6.88-1-14.31-4.67-21.59-4.9,0-.33-.02-.67,0-1,.06-1.17-.24-4.66,0-4.99.55-.74,2.48.86,2.99.99Z"/><path class="cls-9" d="M80.1,2.57c-.52-.13-2.45-1.74-2.99-.99-.24.33.06,3.82,0,4.99-4.5,2.71-31.48,5.48-33,6.45-.96.61-1.33,4.12-3.44,5.61-4.13,2.93-31.56,22.78-31.54,25.44,0,.44,5.08,4.89,5.98,6.5,11.25,20.19-6.38,13.14-7.89,23.41-.6,4.05,4.19,15.92,3.59,19.98-.45,3.03-5.5,5.56-4.7,7.59.08.21,2.55.24,4,2.02l-4,2c-.52-.51-5.29.04-6.02-4.57-.78-4.91,4.22-6.75,4.82-10.13.81-4.55-3.46-14.92-2.81-18.75,1.19-6.99,12.84-5.27,6.58-19.62-1.13-2.59-5.12-5.19-5.42-6.65-1.41-6.91,25.47-24.34,30.89-28.75,1.64-1.34,7.29-9.81,7.98-10.08,1.72-.66,8.32,1.26,12.24.29,7.97-1.97,21.66-11.93,25.75-4.75Z"/><path class="cls-9" d="M26.1,126.57c3.43,3.36,16.14,9.2,20.93,12.57,8.92,6.27,3.56,8.96,16.07,10.43.31.04,1.44,1.64,2,2-.39-.01-2.5,1.19-5,1s-25.21-10.96-28-13c-3.26-2.38-6.31-4.54-7-9-.19-1.25-.3-3.28,1-4Z"/><path class="cls-6" d="M10.1,103.57c4.89,6,12.1,19.17,16,23-1.3.72-1.19,2.75-1,4-13.78,1.02-6.12-.73-9.29-10.22-.94-2.81-4.92-10.68-6.71-12.78l-2-1c-.31-.35-.67-.67-1-1l4-2Z"/><path class="cls-9" d="M9.1,107.57c-.09-.1-1.27-.19-2-1l2,1Z"/><path class="cls-1" d="M69.1,12.57c-.68,3.62,6.05,1.94,6.88,3.12.94,1.35-.43,12.13.12,14.88-11.65-3.01-8.6,7.63-7,14l-8,2c-7.25-9.46-25.98,18.87-27.87,25.63-8.49,30.25,16.44,39.79,41.87,40.37,0,3.48.81,14.44-.97,16.53-5.66,6.61-21.35-8.61-11.04,5.5,2.55,3.49-4.87-.68-2.98,2.95l5.98,2.04-1.99,1.97c5.42-1.47,3.36,2.58,4.55,3.09l6.44-.06c-2.91,2.3-6.03-.08-9.99,1.99-.23.12-.94,2.65-2,3-12.5-1.48-7.15-4.16-16.07-10.43-4.79-3.37-17.51-9.21-20.93-12.57-3.9-3.83-11.11-17-16-23-1.45-1.78-3.91-1.81-4-2.02-.81-2.03,4.25-4.56,4.7-7.59.6-4.06-4.19-15.93-3.59-19.98,1.51-10.27,19.14-3.23,7.89-23.41-.35-8.42,16.01-21.67,23.24-26.33,9-5.8,19.89-10.81,30.76-11.67ZM27.09,70.57h-7c-1,2.47-1.05,27.35,3,14.49.11-.36-4.61-2.36-1.86-6.36,1.14-1.66,9.37,1.08,1.86-6.13l3.99-2ZM25.09,80.57l-2.99,1.98h2.99s0-1.98,0-1.98ZM28.1,108.57c-.06,5.26-6.89,10.38,5,4l-3.01,4.49c2.19,1.47,6.27,8.81,8.58,9.43,2.96.8,1.67-1.71,4.44-1.92.37.9-.63,3.11.93,4.56,1.97,1.83,10.93-5.45-.93-4.56-.36-.86.27-2.37-.95-4.53-1.81-3.23-6.19-5.37-9.05-7.47-.32-.23-.39-3.43-1.18-3.84-1.19-.62-3.19.14-3.82-.16.06-5.93-11.18-4.39-5.28-1.21,1.81.97,4.22.71,5.28,1.21ZM58.09,126.57c-2.1-2.87-8.51,14.5-5.49,1-9.79,8.81,7.54,12.36,5.49-1ZM59.1,137.55c.33-.39-.59-1.07-1-1.49-2.36-1.56-.61,3.42,1,1.49Z"/><path class="cls-7" d="M75.1,112.57c9.95.23,24.92-.04,33.24-5.97,3.11-2.22,4.96-7.88,5.35-8.16,2.3-1.63,4.96,1.65,7.24-1.53,1.94-2.7,2.54-15.18,2.09-18.77-.73-5.71-11.02-21.69-10.79-22.94.38-2.09,13.63-11.12,16.86-11.13l-22.5-17.51c8.73,1.33,14.23,10.59,21.55,14.46,2.23,1.18,5.27-.02,7.25.75,3.81,1.49-.33,4.98,5.7,3.79-.79,1.74-3.56.52-3.91,1.1-10.97,17.93,3.45,19.45,4.75,26.64.75,4.16-2.5,17.85-1.66,21.55.55,2.41,4.37,3.41,4.6,3.88,1.18,2.36-7.27,7.25-9.75,10.6-2.79,3.77-5.72,12.06-8.39,14.88-7.43,7.83-22.57,11.37-28.69,20.89l-32.96,1.46c3.96-2.07,7.09.31,9.99-1.99l-6.44.06c-1.18-.51.87-4.55-4.55-3.09l1.99-1.97-5.98-2.04c-1.9-3.64,5.53.54,2.98-2.95-10.31-14.11,5.38,1.11,11.04-5.5,1.79-2.09.97-13.04.97-16.53Z"/><path class="cls-8" d="M79.65,86.57l-.55-4c.19-3.38-2.57-6.36-3-10,3.7-6.69,8.57-12.33,13-20,3.07-5.32,16.14-32.02,21.65-32.83,2.83-.42,31.31,23.71,30.35,25.83-6.03,1.19-1.89-2.3-5.7-3.79-1.98-.77-5.02.42-7.25-.75-7.33-3.86-12.82-13.13-21.55-14.46l22.5,17.51c-3.24.01-16.48,9.04-16.86,11.13-.23,1.25,10.06,17.23,10.79,22.94.46,3.58-.15,16.07-2.09,18.77-2.29,3.18-4.94-.1-7.24,1.53-.4.28-2.24,5.94-5.35,8.16-8.32,5.93-23.29,6.2-33.24,5.97,0-3.33,0-6.67,0-10,7.05.08-.07-5.46-3.23-10.82"/><path class="cls-7" d="M73.1,12.57h1c1-.01,2-.03,3,0,2.71.08,24.95,2.22,25.99,3.01.45.34-1.58,3.95-1.99,4.99-3.53,8.77-11.53,14.9-16,23-.68.29-1.32.72-2,1-5.27-3.34,1.71-11.75-7-14-.55-2.75.82-13.53-.12-14.88-.83-1.18-7.56.5-6.88-3.12,1.32-.1,2.68.05,4,0Z"/><path class="cls-2" d="M77.1,6.57c-.02.33,0,.67,0,1v5c-1-.03-2-.01-3,0-.33,0-.67-.01-1,0-1.32.05-2.68-.1-4,0-10.87.86-21.76,5.87-30.76,11.67-7.23,4.66-23.6,17.91-23.24,26.33-.9-1.61-5.98-6.06-5.98-6.5-.02-2.66,27.4-22.51,31.54-25.44,2.11-1.49,2.48-5,3.44-5.61,1.53-.97,28.5-3.73,33-6.45Z"/><path class="cls-9" d="M85.1,43.57c-.29.53.31,2.7,0,3-.75.75-6.6-2.5-3.94,9.24,1.84,8.12,4.48-3.61,7.93-3.24-4.43,7.67-9.3,13.31-13,20-.33.59-.73,1.39-1,2-4.33-6.66-9.77-22.48-14-28l8-2c.03.1,1.64-.55,1.99.71,1.63,5.82-1.65,14.7,5.54,14.08,7.55-.66,1.56-12.36,2.46-13.78.11-.17,2.44-.36,4.01-1.01.68-.28,1.32-.71,2-1Z"/><path class="cls-8" d="M77.1,7.57c7.28.24,14.71,3.9,21.59,4.9,3.22.47,10.05-1.27,10.41-.9,2.99,3.13-7.12,5.76-7.99,8.99.42-1.04,2.44-4.66,1.99-4.99-1.05-.78-23.28-2.93-25.99-3.01v-5Z"/><path class="cls-2" d="M76.01,103.94c0,3.33-.92,5.3-.91,8.63-25.43-.59-50.36-10.13-41.87-40.37,1.9-6.75,20.63-35.08,27.87-25.63,4.23,5.52,9.67,21.34,14,28-7.99,18.37,3.77,12.2,4,8l6,2c-.21.04.05,1.9-3,3-3.92,1.41-12.25-.14-6,5-5-.09,7.05,11.41,1.99,10.48"/><path class="cls-2" d="M76.1,30.57c8.71,2.25,1.73,10.66,7,14-1.57.65-3.9.84-4.01,1.01-.9,1.42,5.09,13.12-2.46,13.78s-3.91-8.26-5.54-14.08c-.35-1.26-1.97-.61-1.99-.71-1.6-6.37-4.65-17.01,7-14ZM73.09,41.56l-2.98-7.99c-.97,1.15.56,10.62,2.98,7.99Z"/><path class="cls-7" d="M28.1,108.57c-1.06-.5-3.47-.24-5.28-1.21-5.9-3.18,5.34-4.72,5.28,1.21.63.3,2.63-.46,3.82.16.79.41.86,3.61,1.18,3.84,2.87,2.1,7.24,4.25,9.05,7.47,1.21,2.16.59,3.67.95,4.53,11.86-.89,2.91,6.39.93,4.56-1.56-1.45-.56-3.66-.93-4.56-2.76.21-1.48,2.72-4.44,1.92-2.31-.62-6.39-7.96-8.58-9.43l3.01-4.49c-11.89,6.38-5.06,1.26-5-4ZM31.09,110.58h-1.99v.97h1.99v-.97Z"/><path class="cls-7" d="M27.09,70.57l-3.99,2c7.51,7.2-.71,4.47-1.86,6.13-2.75,4,1.97,6,1.86,6.36-4.05,12.86-4-12.02-3-14.48h7Z"/><path class="cls-7" d="M58.09,126.57c2.05,13.36-15.28,9.81-5.49,1-3.02,13.5,3.39-3.87,5.49-1Z"/><polygon class="cls-7" points="25.09 80.57 25.09 82.56 22.1 82.55 25.09 80.57"/><path class="cls-7" d="M59.1,137.55c-1.61,1.93-3.36-3.05-1-1.49.41.42,1.33,1.1,1,1.49Z"/><path class="cls-3" d="M76.1,72.57c.43,3.64,3.19,6.62,3,10-.23,4.2-11.99,10.37-4-8,.27-.61.67-1.41,1-2Z"/><path class="cls-1" d="M73.1,12.57c.33-.01.67,0,1,0h-1Z"/><path class="cls-8" d="M82.1,87.57c.65,1.04,1.49,4.2,1,5-2.32.08-4.68.04-7,0-6.25-5.14,2.08-3.59,6-5Z"/><path class="cls-8" d="M73.09,41.56c-2.42,2.63-3.95-6.84-2.98-7.99l2.98,7.99Z"/><rect class="cls-1" x="29.1" y="110.58" width="1.99" height=".97"/><text class="cls-5" transform="translate(53.92 101.98)"><tspan x="0" y="0">MUVZ</tspan></text><path class="cls-4" d="M57.42,91.29s-10.82-2.5-8.2.95,2.14,4.16,2.14,4.16c0,0-9.27-4.52-5.94-1.07,3.33,3.45,5.64,5.94,5.64,5.94,0,0,1.85,1.19,5.53.48,3.69-.71.83-10.46.83-10.46Z"/></g></svg>