<svg width="799.9999999999999" height="600" xmlns="http://www.w3.org/2000/svg">

 <g>
  <title>Layer 1</title>
  <g id="svg_7">
   <path transform="rotate(-45 389.356 279.947)" id="svg_2" d="m345.85613,285.38402c0,-21.02134 17.04115,-38.0625 38.06249,-38.0625l0,0l0,0c10.0948,0 19.77614,4.01015 26.91425,11.14825c7.1381,7.1381 11.14824,16.81945 11.14824,26.91425l0,5.4375l10.87499,0l-21.74998,21.75001l-21.75,-21.75001l10.875,0l0,-5.4375c0,-9.00914 -7.30336,-16.3125 -16.31249,-16.3125l0,0l0,0c-9.00915,0 -16.31249,7.30335 -16.31249,16.3125l-21.75,0z" stroke="#000" fill="#fff"/>
   <path transform="rotate(-45 389.356 279.947)" id="svg_4" d="m345.85613,285.38403c0,-21.02134 17.04115,-38.0625 38.06249,-38.0625l0,0l0,0c10.09479,0 19.77614,4.01014 26.91425,11.14824c7.1381,7.13811 11.14823,16.81945 11.14823,26.91426l0,5.4375l10.87499,0l-21.74998,21.75001l-21.75,-21.75001l10.875,0l0,-5.4375c0,-9.00915 -7.30336,-16.3125 -16.31249,-16.3125l0,0l0,0c-9.00914,0 -16.31249,7.30335 -16.31249,16.3125l-21.75,0z" stroke="#000" fill="#fff"/>
   <path transform="rotate(135 410.644 320.053)" id="svg_5" d="m367.14396,325.49097c0,-21.02134 17.04115,-38.0625 38.06249,-38.0625l0,0l0,0c10.09479,0 19.77614,4.01014 26.91425,11.14824c7.1381,7.13811 11.14823,16.81945 11.14823,26.91426l0,5.4375l10.87499,0l-21.74998,21.75001l-21.75,-21.75001l10.875,0l0,-5.4375c0,-9.00915 -7.30336,-16.3125 -16.31249,-16.3125l0,0l0,0c-9.00914,0 -16.31249,7.30335 -16.31249,16.3125l-21.75,0z" stroke="#000" fill="#fff"/>
  </g>
 </g>
</svg>