<?xml version="1.0" encoding="UTF-8"?><svg id="Camada_2" xmlns="http://www.w3.org/2000/svg" viewBox="0 0 163.02 165.09"><defs><style>.cls-1{fill:#f49952;}.cls-2{fill:#f6ba51;}.cls-3{fill:#908d91;}.cls-4{fill:#fff;font-family:Bauhaus93, 'Bauhaus 93';font-size:18.81px;}.cls-5{fill:#2e3348;}.cls-6{fill:#e16933;}.cls-7{fill:#e69238;}.cls-8{fill:#3d4964;}.cls-9{fill:#999899;}</style></defs><g id="Camada_1-2"><path class="cls-2" d="M42.39,155.09C-35.73,95.39,1.31-1.38,94.94.01l15.45,6.07C53.54-6.44.19,28.91,4.36,89.62c.75,10.93,4.88,25.55,13.03,33.46C-21.83,53.51,58.27-26.24,126.32,20.66c26.02,17.93,35.69,56.39,27,85.86-5.49,18.64-28.92,46.44-48.92,47.59,25.75-10.91,42.02-36.42,47.01-63.5-8.71-1.67-.34-1.05,0-1.51.75-1.05,1.45-12.9-4.51-11.03-2.74.86-3.96,13.41-3.5,14.02s4.9-1.6,4,1.99c-6.81,1.06-6,4.12-2,8.01-6.4-2.07-5.34,8.54-7.3,11.72-1.03,1.67-12.7,16.87-13.72,17.29-.78.32-2.05-2.81-3.93-1.55-7.73,5.17-15.24,11.22-22.04,17.55.95-10.29,10.21-11.78,15.99-16.99,36.58-32.97,31.45-92.73-19-104S10.46,63.19,30.39,107.09c2.27,8.09,12.94,20.64,21,23,.3.09.68-.07,1,0-.48,2.96.77,1.79,3,2,.65.06,1.34-.03,2,0,.22.37.9.71,1,1,1.24,3.51,5.74,2.07,10,2,7.08-1.51,2.7,4.82,4.06,8.25,1.93,4.87,14.96,18.43,3.94,20.75-.66-.05-1.34.06-2,0-11.74-1-21.51-3.67-32-9ZM40.39,30.09c.51-.19,2.87,1.67,4.56.13,3.67-3.34,1.73-8.99-4.56-.13-1.61.59-4.27.64-5.54,1.96-6.94,7.16,4.96,3.35,6.55,1.03.23-.34-1.34-2.51-1-2.99ZM27.37,51.06c-1.03-6.29-9.25-.45-6.94,1.97s7.07-1.21,6.94-1.97ZM23.83,58.49c0-1.91-1.55-3.45-3.45-3.45s-3.45,1.55-3.45,3.45,1.55,3.45,3.45,3.45,3.45-1.55,3.45-3.45ZM146.38,58.09c-5.98.64-4.7,3.36-3.98,8l4.98-1.02c-4.97-2.85,1.96-1.2.02-3.98-.87-1.25-4.86,2.63-1.02-3ZM19.25,79.95c6.12-6.87-2.51-21.22-4.71-11.54-.12.53,1.89,2.06,1.83,2.19-1.21,2.58-10.61,8.5,2.89,9.35ZM149.38,67.1c-2.44-.18-6.28-.5-5.99,2.99l4.51-.97,1.48-2.02ZM144.39,76.08c1.09.86,7.23.07,5.99-3.48-1.49-4.23-8.98,1.12-5.99,3.48ZM19.38,87.09c-4.03-4.47-7.58,7.25-3.99,10,3.17,2.42,5.36-8.48,3.99-10ZM21.38,99.08c-3.33-3.23-8.64,6.45-1,6.02l-2.99,2.98,5.99,2.01c-1.39-1.01-1.35-10.38-2-11ZM31.41,130.08c2.26-1.12,4.39-3.01,1.47-4.98l-4.46,3.5,2.75-.31.25,1.78ZM35.4,129.09c-.29.2-1.99,6.52,1.47,5.99,4.41-.68,1.03-7.68-1.47-5.99Z"/><path class="cls-7" d="M110.39,6.09c15.43,3.4,28.1,18.65,38,30l4,4c3.86,8.88,8.55,18.31,8.01,27.99l1.97-1.99c2.27,32.22-.72,49.48-21.68,72.3-2.38,2.59-1.93,1.99-4,4-13.26,12.9-22.62,20.4-42.31,21.69-5.3.35-12.72.39-18,0,11.02-2.32-2.01-15.88-3.94-20.75-1.36-3.44,3.02-9.77-4.06-8.25,9.75-.17,20.26-1.13,29.99-1.99h-39.99c-.1-.3-.78-.64-1-1.01,4.63.18,9.36-.03,14,0,12.47.07,27.59,1.46,39-2,.98-.3,2.82.21,4,0-5.78,5.21-15.05,6.7-15.99,16.99,6.8-6.33,14.31-12.37,22.04-17.55,1.88-1.26,3.15,1.88,3.93,1.55,1.02-.42,12.7-15.62,13.72-17.29,1.96-3.18.9-13.79,7.3-11.72-4.01-3.89-4.81-6.95,2-8.01.9-3.6-3.53-1.37-4-1.99s.76-13.16,3.5-14.02c5.96-1.87,5.26,9.99,4.51,11.03-.33.46-8.7-.16,0,1.51-4.99,27.08-21.26,52.59-47.01,63.5,20-1.15,43.43-28.95,48.92-47.59,8.68-29.47-.98-67.92-27-85.86C58.27-26.24-21.83,53.51,17.38,123.08c-8.14-7.91-12.27-22.53-13.03-33.46C.19,28.91,53.54-6.44,110.39,6.09Z"/><path class="cls-1" d="M19.25,79.95c-13.5-.86-4.09-6.78-2.89-9.35.06-.13-1.95-1.66-1.83-2.19,2.21-9.68,10.84,4.67,4.71,11.54Z"/><path class="cls-7" d="M21.38,99.08c.64.63.61,9.99,2,11l-5.99-2.01,2.99-2.98c-7.64.43-2.32-9.25,1-6.02Z"/><path class="cls-7" d="M19.38,87.09c1.37,1.52-.82,12.42-3.99,10-3.6-2.75-.05-14.47,3.99-10ZM17.64,91.07c0-.68-.55-1.23-1.23-1.23s-1.23.55-1.23,1.23.55,1.23,1.23,1.23,1.23-.55,1.23-1.23Z"/><circle class="cls-7" cx="20.38" cy="58.49" r="3.45"/><path class="cls-7" d="M146.38,58.09c-3.84,5.63.14,1.75,1.02,3,1.94,2.78-4.99,1.13-.02,3.98l-4.98,1.02c-.72-4.64-2-7.36,3.98-8Z"/><path class="cls-7" d="M40.39,30.09c6.29-8.86,8.23-3.21,4.56.13-1.69,1.54-4.05-.32-4.56-.13-.34.48,1.24,2.65,1,2.99-1.59,2.31-13.48,6.12-6.55-1.03,1.27-1.31,3.93-1.36,5.54-1.96Z"/><path class="cls-7" d="M27.37,51.06c.13.77-4.54,4.49-6.94,1.97s5.91-8.26,6.94-1.97Z"/><path class="cls-7" d="M144.39,76.08c-2.99-2.36,4.5-7.71,5.99-3.48,1.25,3.55-4.9,4.34-5.99,3.48Z"/><path class="cls-7" d="M35.4,129.09c2.51-1.69,5.88,5.32,1.47,5.99-3.47.53-1.77-5.8-1.47-5.99Z"/><path class="cls-1" d="M76.39,164.09c5.28.39,12.7.35,18,0v1h-20v-1c.66.06,1.34-.05,2,0Z"/><path class="cls-7" d="M31.41,130.08l-.25-1.78-2.75.31,4.46-3.5c2.93,1.96.79,3.86-1.47,4.98Z"/><path class="cls-7" d="M149.38,67.1l-1.48,2.02-4.51.97c-.29-3.49,3.55-3.17,5.99-2.99Z"/><circle class="cls-2" cx="16.41" cy="91.07" r="1.23"/><path class="cls-6" d="M95.39,26.09c50.45,11.27,55.58,71.03,19,104-1.18.21-3.02-.3-4,0l-.44-22.09c-.51-2.45-3.63-2.59-5.56-2.91-9.32-1.67-19.55-1.23-29-1-3.34-6.82,3.19-3.45,4-10,.3.06.68-.01,1,0,1.57.05,5.79,1.23,5.99,1,.75-.87.04-19.7,0-23h-8c.11-1.98-.16-4.02,0-6,1.85.53,2.3-1.63,3-2,4.75-2.49,1.17-.73,4-4l1,5c.14,2.31-.02,4.68,0,7,5.66,0,11.34.03,17,0,5.04,1.39,8.89,2.94,9-1,.02-.9.19-4.83,0-5.01-.27-.25-4.71.13-6.01,0-4.58-.42-9.39.32-14-.01,4.37-10.74,5.48-22.13-6-7.99-.39-2.67-1.78-2.43-2-3-1.2-3.07.24-3.4-4-5-.27-.1-.66.08-1,0l.99-12h-2.99s-1.01,11-1.01,11c-1.12.02-2.75.74-4,1-.72-5.57.22-12.74,0-18h23.99s-.99-6-.99-6Z"/><path class="cls-1" d="M30.39,107.09c-9.69-34.51,5.13-70.83,41.49-80.01,1.01.45.46,3.82.51,5.01.22,5.26-.72,12.43,0,18-1.25.26-5.69-.34-6.01,0-3.67,3.84,3.68,5.48,7.01,6.01-.89,3.22,1.04,7.4,1,9,0,.33,0,.67,0,1-11.06-3.8-7.62,1.38-9.03,2-3.81,1.67-15.89-6.85-16.02,1.51-.14,9.11,15.17,1.05,16.04,1.48.52.26.07,5.39,9.01,3.01.3,5.83-1.75,18.5,2,20,.63.25,2.13-.19,3,0-.81,6.55-7.34,3.18-4,10-4.21.1-20.57-.95-22.76,1.24l-1.24,24.76c-8.06-2.36-18.73-14.91-21-23Z"/><path class="cls-7" d="M95.39,26.09l.99,5.99h-23.99c-.05-1.19.49-4.56-.51-5.01-36.35,9.19-51.18,45.51-41.49,80.01C10.46,63.19,45.93,15.04,95.39,26.09Z"/><path class="cls-1" d="M58.39,133.09h39.99c-9.73.87-20.24,1.83-29.99,2-4.26.07-8.76,1.51-10-2Z"/><path class="cls-8" d="M75.39,104.09c9.45-.23,19.68-.67,29,1-2.02-.34-19.23-.64-19.99,0-1.95,1.64,2.67,4.33,2.99,4.99v12s-2-1.48-2-1.48v-10.51c-1.39-.64-2.84,1.03-3,.99-.57-.12-1.35.05-2,0-3.62-.27-3.72-.14-7,0-.48.02-1.6-1.04-2-1-21.33,2.09,8.25,10.17-9,12.01.41,5.7,7.55.01,8-.01,1.22-.07,1.89,1.02,2,1l-1,9c-4.64-.03-9.37.18-14,0-.66-.03-1.35.06-2,0-.53-1.71-1.55-1.69-3-2-.32-.07-.7.09-1,0l1.24-24.76c2.19-2.19,18.55-1.14,22.76-1.24Z"/><path class="cls-1" d="M55.39,132.09c-2.23-.21-3.48.96-3-2,1.45.31,2.47.29,3,2Z"/><path class="cls-5" d="M104.39,105.09c1.94.32,5.06.46,5.56,2.91l.44,22.09c-11.41,3.46-26.53,2.07-39,2l1-9c.61-.12,1.41.14,2,0,9.98-2.3,6.09-2.38,6-12,.65.05,1.43-.12,2,0,2.67,2.85-.47,11.61,0,11.99,6.89,5.57,8.59-7.31,7.04-12.35-.37-1.2-1.99-.53-2.04-.63-.32-.66-4.94-3.36-2.99-4.99.76-.64,17.97-.34,19.99,0ZM92.39,120.09c.54,6.71,8.91,3.7,8.99,2.49.04-.66-5.72.03-6.65-2.79-1.06-3.23.85-7.16-1.34-9.71l-1,10Z"/><path class="cls-7" d="M86.39,58.09c11.48-14.14,10.37-2.76,6,7.99,4.61.33,9.42-.41,14,.01v6c-1,.01-2,0-3,0-5.66.03-11.34,0-17,0-.02-2.32.14-4.69,0-7s.31-4.89,0-7Z"/><path class="cls-5" d="M86.39,72.09c.03,3.29.74,22.12,0,23-.2.23-4.42-.94-5.99-1-1.5-6.58-1-13.33-1-20v-2h7Z"/><path class="cls-8" d="M80.39,50.09l2,5c-1.35.53-.8,1.01-1,2-1.16-.65-1.93-1.62-3,0-1.24,1.89-1.66,4.77-2,7l-2,1c.04-1.6-1.89-5.78-1-9,.35-1.27,4.67-3.61,5-6,.33.05.69-.07,1,0,.34.08.73-.1,1,0Z"/><path class="cls-2" d="M76.39,49.09c.9-.02,1.69.96,2,1-.33,2.39-4.65,4.73-5,6-3.33-.53-10.68-2.16-7.01-6.01.32-.33,4.76.27,6.01,0s2.88-.98,4-1Z"/><path class="cls-2" d="M106.39,66.09c1.3.12,5.74-.26,6.01,0,.18.17.02,4.1,0,5.01-1.31,1.7-4.12.98-6,1v-6Z"/><path class="cls-5" d="M84.39,55.09c.22.57,1.61.33,2,3-.78.96-.93,1.92-1,2-2.83,3.27.75,1.51-4,4,.28-2.14-.41-5.03,0-7,.2-.99-.35-1.47,1-2,.46-.18,1.39.12,2,0Z"/><path class="cls-7" d="M76.39,49.09l1.01-11.01h2.99s-.99,12.01-.99,12.01c-.31-.07-.67.05-1,0s-1.1-1.02-2-1Z"/><path class="cls-1" d="M80.39,50.09c4.24,1.6,2.8,1.93,4,5-.61.12-1.54-.18-2,0l-2-5Z"/><path class="cls-1" d="M112.39,71.09c-.11,3.94-3.96,2.39-9,1,1,0,2,.01,3,0,1.88-.02,4.69.7,6-1Z"/><path class="cls-2" d="M74.39,66.09c-.06,2.55-.13,5.42,0,8-8.94,2.39-8.49-2.75-9.01-3.01-.87-.43-16.17,7.63-16.04-1.48.12-8.36,12.21.16,16.02-1.51,1.41-.62-2.03-5.81,9.03-2Z"/><path class="cls-6" d="M76.39,65.09c-.11,1.61-.09,3.39,0,5-.64,3.42.03,2.78,0,4-.15,6.65.11,13.35,0,20-3.75-1.5-1.7-14.17-2-20-.13-2.58-.06-5.45,0-8,0-.33,0-.67,0-1l2-1c-.05.32.02.67,0,1Z"/><path class="cls-9" d="M82.39,111.09c.15.03,1.61-1.64,2.99-.99v10.51s2,1.48,2,1.48v-12c.06.11,1.68-.57,2.05.63,1.55,5.04-.16,17.92-7.04,12.35-.47-.38,2.67-9.14,0-11.99Z"/><path class="cls-3" d="M73.39,111.09l1,12c-.59.14-1.39-.12-2,0-.11.02-.78-1.07-2-1,2.2-1.9-.08-5.47,0-6,.1-.67,2.98,2.47,1-4-.16-.53.11-1.38,0-2,.4-.04,1.52,1.02,2,1Z"/><path class="cls-3" d="M93.39,110.09c2.19,2.55.28,6.48,1.34,9.71.93,2.82,6.69,2.13,6.65,2.79-.08,1.21-8.45,4.21-8.99-2.49-.1-1.21,2.2-7.46,1-10Z"/><path class="cls-1" d="M92.39,120.09l1-10c1.2,2.54-1.1,8.79-1,10Z"/><path class="cls-1" d="M86.39,65.09l-1-5c.07-.08.22-1.04,1-2,.31,2.11-.14,4.75,0,7Z"/><path class="cls-3" d="M78.39,72.09h1v2h-2c-.21-.65-.9-1.42-1-2h2Z"/><path class="cls-3" d="M81.39,57.09c-.41,1.97.28,4.86,0,7-.7.37-1.15,2.53-3,2,.23-2.86,1.98-6.73,0-9,1.07-1.62,1.84-.65,3,0Z"/><path class="cls-5" d="M76.39,72.09c.1.58.79,1.35,1,2h-1c.03-1.22-.64-.58,0-4,.04.65-.1,1.38,0,2Z"/><path class="cls-3" d="M76.39,70.09c-.09-1.61-.11-3.39,0-5,2.64,1.58.18,4.02,0,5Z"/><path class="cls-8" d="M71.39,112.09c1.98,6.47-.9,3.33-1,4l-3.99-3.99h4.99Z"/><polygon class="cls-8" points="79.38 121.09 76.39 121.1 75.39 111.1 78.47 113.51 79.38 121.09"/><rect class="cls-8" x="59.92" y="109.05" width="44.47" height="19.09" rx="9.38" ry="9.38"/><text class="cls-4" transform="translate(57.25 124.31)"><tspan x="0" y="0">MUVZ</tspan></text></g></svg>