<?xml version="1.0" encoding="UTF-8"?><svg id="Camada_2" xmlns="http://www.w3.org/2000/svg" viewBox="0 0 160.37 143.45"><defs><style>.cls-1{fill:#f49952;}.cls-2{fill:#f6ba51;}.cls-3{fill:#908d91;}.cls-4{fill:#2e3348;}.cls-5{fill:#e16933;}.cls-6{fill:#e69238;}.cls-7{fill:#3d4964;}</style></defs><g id="Camada_1-2"><path class="cls-5" d="M117.99,24.45c.4-.35-1.4-3.04,3.99-1.99l-1.49,6.01,1.05-3.09,36.45.08c-.41.61-.61,1.38-1,2-.47.75-2.57.84-2.76,1.18-.9,1.54.46,4.06-.54,5.56-5.89,8.87-15.55,16.63-23.69,22.26-1.61,1.12-3.61.77-4,4l-3.99-2c1,14.73,6.79,21.94,1.77,37.27-1.66,5.08-8.7,18.09-14.77,11.73l-2.99-4c-.35,1.84,1.25,2.66,1.99,4,6.57,11.93-4.27-3-5,3.49-.14,1.21,7.28,1.23-1.52,4.45l-1.49-6.94c-5.61-1.07-11.42,12.39-4,11.98l-1.99-2.98c3.76.36,2.87-.11,3-3-.16-.21-1.78.24-2,0-1.55-1.72,2.27-6.43,2,0,.12.15,1.64-.33,1.9.08,3.65,5.57-4.2,10.43-8.9,13.92-3.07,2.28-6.3,4.81-10,6l-10-10h4s-1-8-1-8c.37-.28.63-.72,1-1,2.75-2.11,4.16,3.49,5-7l1-10,11.99,4-1.99-4.99,6.46,2,1.6-2.52-6.1-18.45c-4.96-.77-8.2,2.84-11.96,4.96-6.73-.04-.53-1.76-1.01-3.98-.04-.19-2.76.12-3.01-2.49-.5-5.25-.07-12.1.02-17.53.03-1.86.94-5.05,1-8s-.88-4.99-1-7c-.03-.42.82-1.42,1-2,19.98-1.47,16.87,8.33,14,22-.25,1.18-3.58,6.44-2,8,2.3,2.27,13.6-.97,7-9,.21-.1.68-.7,1-1,.95-.88.85-1.83,1-2,.17-.18-.17-.82,0-1l2.99-1.51-1.99-.49c1.84-2.18,4.78-2.95,5.44-4.07,6.79-11.62,3.14-19.61,13.56-28.93Z"/><path class="cls-1" d="M101.99,1.45c-2.46-.26-6.98-.62-9,1-7.44.23-11.39-2.73-14,4l-20.99-1.99v3.49s20.99.51,20.99.51c-.04.32,0,.67,0,1-7.3,1.19-18.66-2.92-24,2.99l24-.99v1c-.28.07-4.62,2.3-4.99,2.99h6s0,22.01,0,22.01c-10.74-.56-14.57,8.45-20,11-11.38.66-10.78-23.97-14.01-26-1.81-1.13-7.8,3.82-8.99,4-1.28.19-2.7-.11-4,0-3.72.33-8.17.03-12,0-6.12-.05-11.96-1.37-17.99-1.99l5.99,3.01c-8,1.87,4.9,6.74,7.01,4.99.32-.26-.33-3.72,0-4.02.75-.66,13.84,1.45,20,0-1.01,4.96,2.28,11.92,2,16.31-.06,1.02-7.46,4.56,2,2.7.27.23-.74,3.26-1,3.99-3.54.93-5.97,4.19-9,6-1-.78-2.74-.91-4-1-.36-4.21-13.31-10.42-12-16,.45.07,8.19-1.05,8.99-1.99l-12.99-2.01c-6.12-3.89-6.89-7.61-9.99-13.99,9.97-.73,21.19.96,30.99,0,2.09-.21,4.12.28,6.26-.23,9.12-2.17,13.55-16.22,17.74-19.77,5.3-4.49,38.24-1.52,47-1ZM32.79,49.02l-6.47,2.93.87,1.92,6.47-2.93-.87-1.92Z"/><path class="cls-1" d="M72.99,44.45c.98-.11,2.01.07,3,0,.12,2.01,1.07,3.95,1,7-12.17-6.33-10.66,8.83-1,8-.09,5.43-.52,12.28-.02,17.53.25,2.62,2.97,2.3,3.01,2.49.48,2.22-5.72,3.94,1.01,3.98-1.31.74-2.77,1.12-4,2-1.05-.21-2.07-.44-3-1-.16-1.9-.5-3.61-3-4-6.71-1.04-13.67,10.16-13.81,14.76-.12,3.84,2.73,2.51,4.81,5.24,5.4,7.09,2.87,7.18,12,8,1.19.11,3.31,4.16,4.83.33.76-1.9.17-9.49.17-12.33,1.65,3.07,1.28,8.57,1,12-.84,10.49-2.25,4.89-5,7-4.69-.94-4.38-4.88-10-2-.51-2.34-10.8-11.65-12.74-11.89-2.75-.33-6.89,5.5-6.15,7.3,3.58,8.66,2.67-7.32,6.88-5.41,2.26,1.03-6.96,16.3,7,7-1.47,11.92,3.54,4.47,4,4.99.6.69-1.42,3.28-.95,3.93.26.36,1.82-.1,1.96.07,1.57,1.85,3.55,4.33,6,5l10,10c-6.98,2.24-11.57-2.71-18-7,.66-4.76-1.11-2.23-3-3-.29-.12-.72.12-1,0l-2-1c-1.49-.89-2.63-2.04-4-3-19.02-13.36-26.05-26.09-22-50,.56-2.81,2.53-8.91,2-11,2.26-3.57,5.47-3.69,7-8,5.49-1.44,3.1,1.62,4,2h0c2.07.87,3.99,1.99,6,3,.09.97,0,2.02,0,3-.32.19-1.66-.32-1.94.05-.43.57.21,2.34-.06,2.95-4.84,2.4-.62,3.71,0,2.99.29-.33-.27-2.35,0-2.99.44-.22,1.89-.99,2-1,9.24-.81,2.97,2.77,3.26,3.5,1.34,3.36,13.72,8.58,14.74,7.49,2.91-3.13-12.98-25.91,6.01-27.99ZM38.49,59.45v1l.5-.5-.5-.5Z"/><path class="cls-4" d="M129.99,56.45c.99,18.02,11.21,33.95-.17,51.33-8.56,13.08-39.83,25.67-52.83,35.67-16.43-11.37-45.88-23.12-53-42l-1-1c-.16-.53.13-1.39,0-2v-2c.05.13,2.01-.16,2.53.95,3.29,7.09,4.91,15.24,15.47,16.05,3.31,2.62,7.17,5.16,11,7,1.37.96,2.51,2.11,4,3,.76.46,1.22.64,2,1,.28.12.71-.12,1,0,.57,1.5,1.75,2.17,3,3,6.43,4.29,11.02,9.24,18,7,3.7-1.19,6.93-3.72,10-6,20.2-12.13,42.09-18.31,40.04-46.54-.53-7.26-4.97-13.8-4.04-21.46.39-3.23,2.39-2.88,4-4Z"/><path class="cls-5" d="M92.99,2.45c2.88-.09,7.38-.41,10,0,.32.05.68-.07,1,0,.91,3.2,5.92,11.01,8,13-10.26,4.23-20.95-8.63-33-5,0-.33,0-.67,0-1s-.04-.68,0-1c.08-.64-.16-1.58,0-2,2.61-6.73,6.56-3.77,14-4Z"/><path class="cls-7" d="M29.99,57.45c.45.35,1.93,1.73,2,2,.53,2.09-1.44,8.19-2,11-4.19,21.03-8.05,27.93,11,43-10.57-.82-12.18-8.96-15.47-16.05-.51-1.11-2.48-.82-2.53-.95-6.11-15.19,4.16-26.31,3-40,1.26.09,3,.22,4,1Z"/><path class="cls-6" d="M111.99,15.45c1.57,1.5,3.99,3.1,6,4,4.37,1.96,3.83.73,5,1,.32.07.68-.06,1,0,.12,4.51,14.74,6.22,16,2,3.14.17,19.17-.56,19.99,0,1.49,1.04-1.78,2.67-1.99,2.99l-36.45-.08-1.05,3.09,1.49-6.01c-5.39-1.04-3.6,1.64-3.99,1.99-1.95-.02-6.58-.05-8,1-11.69-4.59-16.32-16.66-31-13v-2c12.05-3.63,22.74,9.23,33,5Z"/><path class="cls-7" d="M54.99,2.45c-4.19,3.55-8.62,17.6-17.74,19.77-2.13.51-4.17.02-6.26.23,10.21-3.83,14.89-17.86,24-20Z"/><path class="cls-4" d="M119.99,18.45l-2,1c-2.01-.9-4.43-2.5-6-4-2.08-1.99-7.09-9.8-8-13,5.76,1.24,10.1,11.35,16,16Z"/><path class="cls-5" d="M139.99,22.45c-1.26,4.22-15.88,2.51-16-2,6.35,1.26,9.42,1.64,16,2Z"/><path class="cls-5" d="M9.99,36.45l12.99,2.01c-.81.93-8.54,2.06-8.99,1.99-3.05-.5-3.76-3.85-4-4Z"/><path class="cls-5" d="M122.99,20.45c-1.17-.27-.63.96-5-1l2-1c.58.46,2.7.19,3,2Z"/><path class="cls-4" d="M101.99,1.45c.4.04.83.6,1,1-2.62-.41-7.12-.09-10,0,2.02-1.62,6.54-1.26,9-1Z"/><path class="cls-2" d="M117.99,24.45c-10.43,9.33-6.78,17.31-13.56,28.93-.66,1.12-3.6,1.89-5.44,4.07-.68.81-.88,1.88-1,2-.17.18.17.82,0,1l-1,2c-.32.3-.79.9-1,1-1.03.5-3.68.25-5,1,2.87-13.67,5.98-23.47-14-22-1.76.13-3.3-.13-4,2-18.99,2.08-3.1,24.87-6.01,27.99-1.01,1.09-13.39-4.13-14.74-7.49-.29-.73,5.98-4.31-3.26-3.5v-2c1.12-.65,4.9-.54,5.01-1.5.13-1.15-4.31-1.15-5.01-1.5-.17-1.8-.83-3.44-1-5-.11-1.03-2.64-16.21,1-13,1.64,4.74,2.94,13.78,11,10,5.43-2.55,9.26-11.56,20-11,6.36.33,18.74,11.94,21.27,10.82,6.44-2.85,5.47-20.42,8.73-22.82,1.42-1.05,6.05-1.02,8-1Z"/><path class="cls-6" d="M108.99,107.45c6.07,6.36,13.11-6.65,14.77-11.73,5.03-15.33-.76-22.55-1.77-37.27l3.99,2c-.93,7.66,3.51,14.2,4.04,21.46,2.05,28.23-19.84,34.41-40.04,46.54,4.7-3.49,12.55-8.36,8.9-13.92-.26-.4-1.79.08-1.9-.08.28-6.44-3.54-1.73-2,0,.22.24,1.84-.2,2,0-.13,2.9.76,3.36-3,3l1.99,2.98c-7.42.41-1.61-13.05,4-11.98l1.49,6.94c8.8-3.22,1.38-3.24,1.52-4.45.73-6.49,11.56,8.43,5-3.49h1Z"/><path class="cls-6" d="M79.99,83.45c3.77-2.12,7.01-5.73,11.96-4.96l6.1,18.45-1.6,2.52-6.46-2,1.99,4.99-11.99-4-1,10c.28-3.43.65-8.93-1-12,0-1.67,0-3.33,0-5,1.69-1.48,1.61-4.45,0-6-.18-.18-1.4.12-2,0,1.23-.88,2.69-1.26,4-2Z"/><path class="cls-3" d="M63.99,113.45c5.62-2.88,5.31,1.06,10,2-.37.28-.63.72-1,1-3.44,2.63-1.8,2.76-2,8h-1c-2.45-.67-4.43-3.15-6-5-.25-1.83.36-4.33,0-6Z"/><path class="cls-2" d="M76.99,51.45c-.06,2.95-.97,6.14-1,8-9.66.83-11.17-14.33,1-8Z"/><path class="cls-6" d="M95.99,63.45c6.6,8.03-4.7,11.27-7,9-1.58-1.56,1.75-6.81,2-8,1.32-.75,3.97-.5,5-1Z"/><path class="cls-7" d="M72.99,116.45l1,7.99h-3c.2-5.22-1.44-5.35,2-7.99Z"/><path class="cls-4" d="M108.99,107.45h-1c-.73-1.33-2.34-2.16-1.99-4l2.99,4Z"/><path class="cls-6" d="M76.99,42.45c-.18.58-1.03,1.58-1,2-.99.07-2.02-.11-3,0,.7-2.13,2.24-1.87,4-2Z"/><path class="cls-6" d="M98.99,57.45l1.99.49-2.99,1.51c.12-.12.32-1.19,1-2Z"/><path class="cls-6" d="M96.99,62.45l1-2c-.15.17-.05,1.12-1,2Z"/><path class="cls-5" d="M78.99,12.45c14.68-3.66,19.31,8.41,31,13-3.27,2.4-2.29,19.97-8.73,22.82-2.53,1.12-14.9-10.49-21.27-10.82V15.44s-5.99,0-5.99,0c.38-.68,4.71-2.92,4.99-2.99Z"/><path class="cls-2" d="M78.99,9.45c0,.33,0,.67,0,1v1l-24,.99c5.34-5.91,16.7-1.8,24-2.99Z"/><path class="cls-6" d="M78.99,6.45c-.16.42.08,1.36,0,2l-21.01-.51v-3.49s21.01,1.99,21.01,1.99Z"/><path class="cls-6" d="M36.99,26.45c1.19-.17,7.18-5.13,8.99-4,3.23,2.02,2.63,26.66,14.01,26-8.06,3.78-9.36-5.26-11-10-.78-2.25-.42-5.88-2.99-7,2.76,10.74-5.76,5.05-6.96,8.48-.15.43,2.58,8.27,2.96,8.51,1.27.79,3.97-3.02,4.98-1.99,1.2,1.21-5.71,5.86,1.01,4.99.17,1.56.83,3.2,1,5,.7.35,5.15.35,5.01,1.5-.11.96-3.9.85-5.01,1.5v2c-.11,0-1.56.78-2,1-.28.65.28,2.66,0,2.99-.62.71-4.83-.59,0-2.99.26-.61-.38-2.38.06-2.95.28-.36,1.62.14,1.94-.05,0-.98.09-2.03,0-3-2.01-1.01-3.93-2.13-6-3h0c-.9-.38,1.49-3.44-4-2,.26-.73,1.27-3.76,1-3.99-9.46,1.87-2.06-1.68-2-2.7.28-4.4-3.01-11.35-2-16.31.78-.18,2.7,2.98,1-2Z"/><path class="cls-6" d="M38.99,51.45c-1.53,4.31-4.74,4.43-7,8-.07-.27-1.55-1.65-2-2,3.03-1.81,5.46-5.07,9-6Z"/><rect class="cls-6" x="26.45" y="50.39" width="7.1" height="2.11" transform="translate(-18.54 16.94) rotate(-24.34)"/><path class="cls-6" d="M32.99,26.45h-12c3.83.03,8.28.33,12,0Z"/><path class="cls-2" d="M29.99,70.45c-4.05,23.91,2.98,36.64,22,50-3.83-1.84-7.69-4.38-11-7-19.05-15.07-15.19-21.97-11-43Z"/><path class="cls-2" d="M69.99,80.45l-4,19c-1.74,1.94-2.09,2.91-5,1-2.07-2.73-4.92-1.4-4.81-5.24.14-4.6,7.1-15.8,13.81-14.76Z"/><path class="cls-2" d="M75.99,85.45c.6.12,1.82-.18,2,0v6c0,1.67,0,3.33,0,5,0,2.84.59,10.42-.17,12.33-1.52,3.83-3.64-.22-4.83-.33-2.15-3.02-.59-7.54-1-11-1.19-3.41,1.18-10.79,1-13,.93.56,1.95.79,3,1Z"/><path class="cls-7" d="M63.99,113.45c.36,1.67-.25,4.17,0,6-.14-.17-1.7.29-1.96-.07-.47-.65,1.55-3.24.95-3.93-.46-.53-5.47,6.93-4-4.99-13.96,9.3-4.73-5.97-7-7-4.21-1.91-3.3,14.07-6.88,5.41-.74-1.8,3.4-7.63,6.15-7.3,1.94.23,12.23,9.54,12.74,11.89ZM55.99,107.45h-1.98s-1.01,4.99-1.01,4.99l2.98-4.99Z"/><path class="cls-5" d="M71.99,97.45c.41,3.46-1.15,7.98,1,11-9.13-.82-6.6-.91-12-8,2.91,1.91,3.26.94,5-1,3.02-3.37,4.5-14.7,6-2Z"/><path class="cls-6" d="M69.99,80.45c2.5.39,2.84,2.1,3,4,.18,2.21-2.19,9.59-1,13-1.5-12.7-2.98-1.37-6,2l4-19Z"/><polygon class="cls-6" points="38.49 59.45 38.99 59.95 38.49 60.45 38.49 59.45"/><path class="cls-1" d="M48.99,38.45c-3.64-3.21-1.11,11.97-1,13-6.71.87.19-3.78-1.01-4.99-1.01-1.02-3.71,2.78-4.98,1.99-.38-.24-3.11-8.09-2.96-8.51,1.2-3.43,9.72,2.25,6.96-8.48,2.57,1.12,2.21,4.75,2.99,7Z"/><path class="cls-1" d="M77.99,91.45v-6c1.61,1.55,1.69,4.52,0,6Z"/><path class="cls-5" d="M20.99,26.45h12c1.3-.11,2.72.19,4,0,1.7,4.98-.22,1.82-1,2-6.15,1.45-19.25-.67-20,0-.33.29.32,3.75,0,4.02-2.11,1.74-15.01-3.13-7.01-4.99l-5.99-3.01c6.04.63,11.87,1.94,17.99,1.99Z"/><polygon class="cls-1" points="55.99 107.45 53.01 112.45 54.01 107.45 55.99 107.45"/></g></svg>