<?xml version="1.0" encoding="UTF-8"?><svg id="Camada_2" xmlns="http://www.w3.org/2000/svg" viewBox="0 0 55.75 13.57"><defs><style>.cls-1{fill:#fff;}</style></defs><g id="Camada_1-2"><path class="cls-1" d="M10.84,12.85V3.81c0-1.12.34-2.04,1.02-2.75.68-.71,1.56-1.07,2.65-1.07,1.29,0,2.27.59,2.97,1.77.42-.64.88-1.09,1.36-1.36s1.08-.41,1.79-.41c1.13,0,1.99.36,2.59,1.07.6.71.9,1.73.9,3.07v8.72h-3.73V4.69c0-.4-.03-.67-.1-.8s-.19-.2-.39-.2c-.37,0-.55.31-.55.94v8.22h-3.73V4.69c0-.4-.03-.67-.1-.8s-.2-.2-.4-.2c-.37,0-.55.33-.55,1v8.16h-3.73Z"/><path class="cls-1" d="M35.18.31v8.13c0,1.43-.43,2.58-1.28,3.44s-1.99,1.29-3.41,1.29-2.5-.42-3.25-1.25c-.75-.83-1.12-2.03-1.12-3.59V.31h3.73v8c0,.77.27,1.15.82,1.15s.79-.38.79-1.15V.31h3.73Z"/><path class="cls-1" d="M46.46.31l-5.47,13.26L35.57.31h4.32l1.15,3.91,1.27-3.91h4.16Z"/><path class="cls-1" d="M55.75.31l-3.9,8.94h3.85v3.6h-9.46l3.88-8.94h-4.1V.31h9.73Z"/><path class="cls-1" d="M12.98,2.93S2.94.62,5.36,3.82s1.99,3.86,1.99,3.86c0,0-8.6-4.19-5.52-.99s5.24,5.52,5.24,5.52c0,0,1.71,1.1,5.13.44s.77-9.71.77-9.71Z"/><path class="cls-1" d="M4.54,3.46s-2.24-.52-1.7.2.44.86.44.86c0,0-1.92-.93-1.23-.22s1.17,1.23,1.17,1.23c0,0,.38.25,1.14.1s.17-2.16.17-2.16Z"/><path class="cls-1" d="M5.44,11.78c-1.28-.51-3.24-1.58-4.34-2.05C.77,9.64.11,9.47,0,9.94c0,.36,1.37,1.13,1.25,1.31-.27.42-1.52.31-1.19.65,1.07.92,2.53.27,3.83.45.48-.06,2.61.36,2.18-.53"/></g></svg>